<?xml version="1.0" encoding="utf-8"?>
<!DOCTYPE svg PUBLIC "-//W3C//DTD SVG 1.1//EN" "http://www.w3.org/Graphics/SVG/1.1/DTD/svg11.dtd">
<svg width="1050px" height="800px" viewBox="0 0 1050 800" style="background:rgb(253.98,253.98,239.7)" xmlns="http://www.w3.org/2000/svg" xmlns:xlink="http://www.w3.org/1999/xlink" version="1.1">
<g id="1" transform="matrix(1,0,0,1,0,0)">
<text x="0" y="0" font-family="Bravura" font-style="normal" font-weight="normal" font-size="22" fill="rgb(0,0,0)" fill-opacity="1" transform="matrix(1,0,0,1,200,66)" ></text>
<text x="0" y="0" font-family="Bravura" font-style="normal" font-weight="normal" font-size="24" fill="rgb(0,0,0)" fill-opacity="1" transform="matrix(1,0,0,1,197,93)" ></text>
<text x="0" y="0" font-family="Bravura" font-style="normal" font-weight="normal" font-size="22" fill="rgb(0,0,0)" fill-opacity="1" transform="matrix(1,0,0,1,250,60)" ></text>
<text x="0" y="0" font-family="Bravura" font-style="normal" font-weight="normal" font-size="22" fill="rgb(0,0,0)" fill-opacity="1" transform="matrix(1,0,0,1,300,75)" ></text>
<path d="M347.6000061035156,81 L360.3999938964844,81" stroke="rgb(0,0,0)" stroke-width="0.6" fill="rgb(0,0,0)" transform="matrix(1,0,0,1,0,0)"/>
<text x="0" y="0" font-family="Bravura" font-style="normal" font-weight="normal" font-size="22" fill="rgb(0,0,0)" fill-opacity="1" transform="matrix(1,0,0,1,350,84)" ></text>
<path d="M0,0 L144,7.5 L0,15" stroke="rgb(0,0,0)" stroke-width="0.6" fill="none" transform="matrix(-1,0,0,1,350,105)"/>
<text x="0" y="0" font-family="Bravura" font-style="normal" font-weight="normal" font-size="22" fill="rgb(0,0,0)" fill-opacity="1" transform="matrix(1,0,0,1,400,66)" ></text>
<text x="0" y="0" font-family="Bravura" font-style="normal" font-weight="normal" font-size="24" fill="rgb(0,0,0)" fill-opacity="1" transform="matrix(1,0,0,1,397,93)" ></text>
<text x="0" y="0" font-family="Bravura" font-style="normal" font-weight="normal" font-size="18" fill="rgb(0,0,0)" fill-opacity="1" transform="matrix(1,0,0,1,400,50)" ></text>
<text x="0" y="0" font-family="Bravura" font-style="normal" font-weight="normal" font-size="22" fill="rgb(0,0,0)" fill-opacity="1" transform="matrix(1,0,0,1,498,51)" ></text>
<text x="0" y="0" font-family="Bravura" font-style="normal" font-weight="normal" font-size="24" fill="rgb(0,0,0)" fill-opacity="1" transform="matrix(1,0,0,1,498,41)" ></text>
<text x="0" y="0" font-family="Bravura" font-style="normal" font-weight="normal" font-size="22" fill="rgb(0,0,0)" fill-opacity="1" transform="matrix(1,0,0,1,200,156)" ></text>
<path d="M297.6000061035156,177 L310.3999938964844,177" stroke="rgb(0,0,0)" stroke-width="0.6" fill="rgb(0,0,0)" transform="matrix(1,0,0,1,0,0)"/>
<path d="M297.6000061035156,183 L310.3999938964844,183" stroke="rgb(0,0,0)" stroke-width="0.6" fill="rgb(0,0,0)" transform="matrix(1,0,0,1,0,0)"/>
<text x="0" y="0" font-family="Bravura" font-style="normal" font-weight="normal" font-size="22" fill="rgb(0,0,0)" fill-opacity="1" transform="matrix(1,0,0,1,300,183)" ></text>
<text x="0" y="0" font-family="Bravura" font-style="normal" font-weight="normal" font-size="22" fill="rgb(0,0,0)" fill-opacity="1" transform="matrix(1,0,0,1,300,168)" ></text>
<path d="M495.6000061035156,177 L508.3999938964844,177" stroke="rgb(0,0,0)" stroke-width="0.6" fill="rgb(0,0,0)" transform="matrix(1,0,0,1,0,0)"/>
<path d="M495.6000061035156,183 L508.3999938964844,183" stroke="rgb(0,0,0)" stroke-width="0.6" fill="rgb(0,0,0)" transform="matrix(1,0,0,1,0,0)"/>
<text x="0" y="0" font-family="Bravura" font-style="normal" font-weight="normal" font-size="22" fill="rgb(0,0,0)" fill-opacity="1" transform="matrix(1,0,0,1,498,186)" ></text>
<text x="0" y="0" font-family="Bravura" font-style="normal" font-weight="normal" font-size="24" fill="rgb(0,0,0)" fill-opacity="1" transform="matrix(1,0,0,1,495,201)" ></text>
<text x="0" y="0" font-family="Bravura" font-style="normal" font-weight="normal" font-size="22" fill="rgb(0,0,0)" fill-opacity="1" transform="matrix(1,0,0,1,498,168)" ></text>
<text x="0" y="0" font-family="Bravura" font-style="normal" font-weight="normal" font-size="22" fill="rgb(0,0,0)" fill-opacity="1" transform="matrix(1,0,0,1,498,150)" ></text>
<text x="0" y="0" font-family="Bravura" font-style="normal" font-weight="normal" font-size="22" fill="rgb(0,0,0)" fill-opacity="1" transform="matrix(1,0,0,1,600,60)" ></text>
<text x="0" y="0" font-family="Bravura" font-style="normal" font-weight="normal" font-size="24" fill="rgb(0,0,0)" fill-opacity="1" transform="matrix(1,0,0,1,597,93)" ></text>
<text x="0" y="0" font-family="Bravura" font-style="normal" font-weight="normal" font-size="13.200000524520874" fill="rgb(0,0,0)" fill-opacity="1" transform="matrix(1,0,0,1,600,150)" ></text>
<text x="0" y="0" font-family="Bravura" font-style="normal" font-weight="normal" font-size="24" fill="rgb(0,0,0)" fill-opacity="1" transform="matrix(1,0,0,1,597,189)" ></text>
<text x="0" y="0" font-family="Bravura" font-style="normal" font-weight="normal" font-size="13.200000524520874" fill="rgb(0,0,0)" fill-opacity="1" transform="matrix(1,0,0,1,615.7999877929688,162)" ></text>
<text x="0" y="0" font-family="Bravura" font-style="normal" font-weight="normal" font-size="13.200000524520874" fill="rgb(0,0,0)" fill-opacity="1" transform="matrix(1,0,0,1,626,159)" ></text>
<text x="0" y="0" font-family="Bravura" font-style="normal" font-weight="normal" font-size="13.200000524520874" fill="rgb(0,0,0)" fill-opacity="1" transform="matrix(1,0,0,1,639,150)" ></text>
<text x="0" y="0" font-family="Bravura" font-style="normal" font-weight="normal" font-size="13.200000524520874" fill="rgb(0,0,0)" fill-opacity="1" transform="matrix(1,0,0,1,652,150)" ></text>
<text x="0" y="0" font-family="Bravura" font-style="normal" font-weight="normal" font-size="13.200000524520874" fill="rgb(0,0,0)" fill-opacity="1" transform="matrix(1,0,0,1,667.7999877929688,162)" ></text>
<text x="0" y="0" font-family="Bravura" font-style="normal" font-weight="normal" font-size="13.200000524520874" fill="rgb(0,0,0)" fill-opacity="1" transform="matrix(1,0,0,1,678,159)" ></text>
<text x="0" y="0" font-family="Bravura" font-style="normal" font-weight="normal" font-size="13.200000524520874" fill="rgb(0,0,0)" fill-opacity="1" transform="matrix(1,0,0,1,691,150)" ></text>
<text x="0" y="0" font-family="Bravura" font-style="normal" font-weight="normal" font-size="13.200000524520874" fill="rgb(0,0,0)" fill-opacity="1" transform="matrix(1,0,0,1,704,150)" ></text>
<text x="0" y="0" font-family="Bravura" font-style="normal" font-weight="normal" font-size="13.200000524520874" fill="rgb(0,0,0)" fill-opacity="1" transform="matrix(1,0,0,1,719.7999877929688,162)" ></text>
<text x="0" y="0" font-family="Bravura" font-style="normal" font-weight="normal" font-size="13.200000524520874" fill="rgb(0,0,0)" fill-opacity="1" transform="matrix(1,0,0,1,730,159)" ></text>
<text x="0" y="0" font-family="Bravura" font-style="normal" font-weight="normal" font-size="13.200000524520874" fill="rgb(0,0,0)" fill-opacity="1" transform="matrix(1,0,0,1,743,150)" ></text>
<text x="0" y="0" font-family="Bravura" font-style="normal" font-weight="normal" font-size="13.200000524520874" fill="rgb(0,0,0)" fill-opacity="1" transform="matrix(1,0,0,1,756,150)" ></text>
<text x="0" y="0" font-family="Bravura" font-style="normal" font-weight="normal" font-size="13.200000524520874" fill="rgb(0,0,0)" fill-opacity="1" transform="matrix(1,0,0,1,771.7999877929688,162)" ></text>
<text x="0" y="0" font-family="Bravura" font-style="normal" font-weight="normal" font-size="13.200000524520874" fill="rgb(0,0,0)" fill-opacity="1" transform="matrix(1,0,0,1,782,159)" ></text>
<text x="0" y="0" font-family="Bravura" font-style="normal" font-weight="normal" font-size="13.200000524520874" fill="rgb(0,0,0)" fill-opacity="1" transform="matrix(1,0,0,1,795,150)" ></text>
<text x="0" y="0" font-family="Bravura" font-style="normal" font-weight="normal" font-size="22" fill="rgb(0,0,0)" fill-opacity="1" transform="matrix(1,0,0,1,808,156)" ></text>
<text x="0" y="0" font-family="Bravura" font-style="normal" font-weight="normal" font-size="24" fill="rgb(0,0,0)" fill-opacity="1" transform="matrix(1,0,0,1,805,189)" ></text>
<path d="M0,0 L202,7.5 L0,15" stroke="rgb(0,0,0)" stroke-width="0.6" fill="none" transform="matrix(1,0,0,1,606,201)"/>
<path d="M100 75 L200.000 75 M100 69 L200.000 69 M100 63 L200.000 63 M100 57 L200.000 57 M100 51 L200.000 51 M100 171 L200.000 171 M100 165 L200.000 165 M100 159 L200.000 159 M100 153 L200.000 153 M100 147 L200.000 147 M200 75 L600.000 75 M200 69 L600.000 69 M200 63 L600.000 63 M200 57 L600.000 57 M200 51 L600.000 51 M200 171 L600.000 171 M200 165 L600.000 165 M200 159 L600.000 159 M200 153 L600.000 153 M200 147 L600.000 147 M600 75 L1000.000 75 M600 69 L1000.000 69 M600 63 L1000.000 63 M600 57 L1000.000 57 M600 51 L1000.000 51 M600 171 L1000.000 171 M600 165 L1000.000 165 M600 159 L1000.000 159 M600 153 L1000.000 153 M600 147 L1000.000 147 " stroke="rgb(0,0,0)" stroke-width="0.4" fill="rgb(0,0,0)" transform="matrix(1,0,0,1,0,0)"/>
<path d="M5,3 L38,3" stroke="rgb(0,0,255)" stroke-width="2" stroke-opacity="1" fill="none" fill-opacity="1" transform="matrix(1,0,0,1,202,63)"/>
<path d="M38,1 L38,5" stroke="rgb(0,0,255)" stroke-width="1" stroke-opacity="1" fill="none" fill-opacity="1" transform="matrix(1,0,0,1,202,63)"/>
<path d="M5,3 L38,3" stroke="rgb(0,0,255)" stroke-width="2" stroke-opacity="1" fill="none" fill-opacity="1" transform="matrix(1,0,0,1,252,57)"/>
<path d="M38,1 L38,5" stroke="rgb(0,0,255)" stroke-width="1" stroke-opacity="1" fill="none" fill-opacity="1" transform="matrix(1,0,0,1,252,57)"/>
<path d="M5,3 L38,3" stroke="rgb(0,0,255)" stroke-width="2" stroke-opacity="1" fill="none" fill-opacity="1" transform="matrix(1,0,0,1,302,72)"/>
<path d="M38,1 L38,5" stroke="rgb(0,0,255)" stroke-width="1" stroke-opacity="1" fill="none" fill-opacity="1" transform="matrix(1,0,0,1,302,72)"/>
<path d="M5,3 L38,3" stroke="rgb(0,0,255)" stroke-width="2" stroke-opacity="1" fill="none" fill-opacity="1" transform="matrix(1,0,0,1,352,81)"/>
<path d="M38,1 L38,5" stroke="rgb(0,0,255)" stroke-width="1" stroke-opacity="1" fill="none" fill-opacity="1" transform="matrix(1,0,0,1,352,81)"/>
<path d="M5,3 L83,3" stroke="rgb(0,0,255)" stroke-width="2" stroke-opacity="1" fill="none" fill-opacity="1" transform="matrix(1,0,0,1,402,63)"/>
<path d="M83,1 L83,5" stroke="rgb(0,0,255)" stroke-width="1" stroke-opacity="1" fill="none" fill-opacity="1" transform="matrix(1,0,0,1,402,63)"/>
<path d="M5,3 L83,3" stroke="rgb(0,0,255)" stroke-width="2" stroke-opacity="1" fill="none" fill-opacity="1" transform="matrix(1,0,0,1,500,48)"/>
<path d="M83,1 L83,5" stroke="rgb(0,0,255)" stroke-width="1" stroke-opacity="1" fill="none" fill-opacity="1" transform="matrix(1,0,0,1,500,48)"/>
<path d="M5,3 L173,3" stroke="rgb(0,0,255)" stroke-width="2" stroke-opacity="1" fill="none" fill-opacity="1" transform="matrix(1,0,0,1,202,153)"/>
<path d="M173,1 L173,5" stroke="rgb(0,0,255)" stroke-width="1" stroke-opacity="1" fill="none" fill-opacity="1" transform="matrix(1,0,0,1,202,153)"/>
<path d="M5,3 L173,3" stroke="rgb(0,0,255)" stroke-width="2" stroke-opacity="1" fill="none" fill-opacity="1" transform="matrix(1,0,0,1,302,180)"/>
<path d="M173,1 L173,5" stroke="rgb(0,0,255)" stroke-width="1" stroke-opacity="1" fill="none" fill-opacity="1" transform="matrix(1,0,0,1,302,180)"/>
<path d="M5,3 L173,3" stroke="rgb(0,0,255)" stroke-width="2" stroke-opacity="1" fill="none" fill-opacity="1" transform="matrix(1,0,0,1,302,165)"/>
<path d="M173,1 L173,5" stroke="rgb(0,0,255)" stroke-width="1" stroke-opacity="1" fill="none" fill-opacity="1" transform="matrix(1,0,0,1,302,165)"/>
<path d="M5,3 L83,3" stroke="rgb(0,0,255)" stroke-width="2" stroke-opacity="1" fill="none" fill-opacity="1" transform="matrix(1,0,0,1,500,183)"/>
<path d="M83,1 L83,5" stroke="rgb(0,0,255)" stroke-width="1" stroke-opacity="1" fill="none" fill-opacity="1" transform="matrix(1,0,0,1,500,183)"/>
<path d="M5,3 L83,3" stroke="rgb(0,0,255)" stroke-width="2" stroke-opacity="1" fill="none" fill-opacity="1" transform="matrix(1,0,0,1,500,165)"/>
<path d="M83,1 L83,5" stroke="rgb(0,0,255)" stroke-width="1" stroke-opacity="1" fill="none" fill-opacity="1" transform="matrix(1,0,0,1,500,165)"/>
<path d="M5,3 L83,3" stroke="rgb(0,0,255)" stroke-width="2" stroke-opacity="1" fill="none" fill-opacity="1" transform="matrix(1,0,0,1,500,147)"/>
<path d="M83,1 L83,5" stroke="rgb(0,0,255)" stroke-width="1" stroke-opacity="1" fill="none" fill-opacity="1" transform="matrix(1,0,0,1,500,147)"/>
<path d="M5,3 L353,3" stroke="rgb(0,0,255)" stroke-width="2" stroke-opacity="1" fill="none" fill-opacity="1" transform="matrix(1,0,0,1,602,57)"/>
<path d="M353,1 L353,5" stroke="rgb(0,0,255)" stroke-width="1" stroke-opacity="1" fill="none" fill-opacity="1" transform="matrix(1,0,0,1,602,57)"/>
<path d="M5,3 L173,3" stroke="rgb(0,0,255)" stroke-width="2" stroke-opacity="1" fill="none" fill-opacity="1" transform="matrix(1,0,0,1,810,153)"/>
<path d="M173,1 L173,5" stroke="rgb(0,0,255)" stroke-width="1" stroke-opacity="1" fill="none" fill-opacity="1" transform="matrix(1,0,0,1,810,153)"/>
</g>
</svg>
