<?xml version="1.0" encoding="utf-8"?>
<!DOCTYPE svg PUBLIC "-//W3C//DTD SVG 1.1//EN" "http://www.w3.org/Graphics/SVG/1.1/DTD/svg11.dtd">
<svg width="1050px" height="800px" viewBox="0 0 1050 800" style="background:rgb(253.98,253.98,239.7)" xmlns="http://www.w3.org/2000/svg" xmlns:xlink="http://www.w3.org/1999/xlink" version="1.1">
<g id="1" transform="matrix(1,0,0,1,0,0)">
<text x="0" y="0" font-family="Bravura" font-style="normal" font-weight="normal" font-size="24" fill="rgb(0,0,0)" fill-opacity="1" transform="matrix(1,0,0,1,200,66)" ></text>
<text x="0" y="0" font-family="Bravura" font-style="normal" font-weight="normal" font-size="24" fill="rgb(0,0,0)" fill-opacity="1" transform="matrix(1,0,0,1,197,93)" ></text>
<text x="0" y="0" font-family="Bravura" font-style="normal" font-weight="normal" font-size="24" fill="rgb(0,0,0)" fill-opacity="1" transform="matrix(1,0,0,1,260,60)" ></text>
<text x="0" y="0" font-family="Bravura" font-style="normal" font-weight="normal" font-size="24" fill="rgb(0,0,0)" fill-opacity="1" transform="matrix(1,0,0,1,320,75)" ></text>
<path d="M377.6000061035156,81 L390.3999938964844,81" stroke="rgb(0,0,0)" stroke-width="0.6" fill="rgb(0,0,0)" transform="matrix(1,0,0,1,0,0)"/>
<text x="0" y="0" font-family="Bravura" font-style="normal" font-weight="normal" font-size="24" fill="rgb(0,0,0)" fill-opacity="1" transform="matrix(1,0,0,1,380,84)" ></text>
<path d="M0,0 L174,7.5 L0,15" stroke="rgb(0,0,0)" stroke-width="0.6" fill="none" transform="matrix(-1,0,0,1,380,105)"/>
<text x="0" y="0" font-family="Bravura" font-style="normal" font-weight="normal" font-size="24" fill="rgb(0,0,0)" fill-opacity="1" transform="matrix(1,0,0,1,440,66)" ></text>
<text x="0" y="0" font-family="Bravura" font-style="normal" font-weight="normal" font-size="24" fill="rgb(0,0,0)" fill-opacity="1" transform="matrix(1,0,0,1,437,93)" ></text>
<text x="0" y="0" font-family="Bravura" font-style="normal" font-weight="normal" font-size="18" fill="rgb(0,0,0)" fill-opacity="1" transform="matrix(1,0,0,1,440,50)" ></text>
<text x="0" y="0" font-family="Bravura" font-style="normal" font-weight="normal" font-size="24" fill="rgb(0,0,0)" fill-opacity="1" transform="matrix(1,0,0,1,518,51)" ></text>
<text x="0" y="0" font-family="Bravura" font-style="normal" font-weight="normal" font-size="24" fill="rgb(0,0,0)" fill-opacity="1" transform="matrix(1,0,0,1,518,41)" ></text>
<text x="0" y="0" font-family="Bravura" font-style="normal" font-weight="normal" font-size="24" fill="rgb(0,0,0)" fill-opacity="1" transform="matrix(1,0,0,1,200,156)" ></text>
<path d="M317.6000061035156,177 L330.3999938964844,177" stroke="rgb(0,0,0)" stroke-width="0.6" fill="rgb(0,0,0)" transform="matrix(1,0,0,1,0,0)"/>
<path d="M317.6000061035156,183 L330.3999938964844,183" stroke="rgb(0,0,0)" stroke-width="0.6" fill="rgb(0,0,0)" transform="matrix(1,0,0,1,0,0)"/>
<text x="0" y="0" font-family="Bravura" font-style="normal" font-weight="normal" font-size="24" fill="rgb(0,0,0)" fill-opacity="1" transform="matrix(1,0,0,1,320,183)" ></text>
<text x="0" y="0" font-family="Bravura" font-style="normal" font-weight="normal" font-size="24" fill="rgb(0,0,0)" fill-opacity="1" transform="matrix(1,0,0,1,320,168)" ></text>
<path d="M515.5999755859375,177 L528.4000244140625,177" stroke="rgb(0,0,0)" stroke-width="0.6" fill="rgb(0,0,0)" transform="matrix(1,0,0,1,0,0)"/>
<path d="M515.5999755859375,183 L528.4000244140625,183" stroke="rgb(0,0,0)" stroke-width="0.6" fill="rgb(0,0,0)" transform="matrix(1,0,0,1,0,0)"/>
<text x="0" y="0" font-family="Bravura" font-style="normal" font-weight="normal" font-size="24" fill="rgb(0,0,0)" fill-opacity="1" transform="matrix(1,0,0,1,518,186)" ></text>
<text x="0" y="0" font-family="Bravura" font-style="normal" font-weight="normal" font-size="24" fill="rgb(0,0,0)" fill-opacity="1" transform="matrix(1,0,0,1,515,201)" ></text>
<text x="0" y="0" font-family="Bravura" font-style="normal" font-weight="normal" font-size="24" fill="rgb(0,0,0)" fill-opacity="1" transform="matrix(1,0,0,1,518,168)" ></text>
<text x="0" y="0" font-family="Bravura" font-style="normal" font-weight="normal" font-size="24" fill="rgb(0,0,0)" fill-opacity="1" transform="matrix(1,0,0,1,518,150)" ></text>
<text x="0" y="0" font-family="Bravura" font-style="normal" font-weight="normal" font-size="24" fill="rgb(0,0,0)" fill-opacity="1" transform="matrix(1,0,0,1,600,60)" ></text>
<text x="0" y="0" font-family="Bravura" font-style="normal" font-weight="normal" font-size="24" fill="rgb(0,0,0)" fill-opacity="1" transform="matrix(1,0,0,1,597,93)" ></text>
<text x="0" y="0" font-family="Bravura" font-style="normal" font-weight="normal" font-size="14.40000057220459" fill="rgb(0,0,0)" fill-opacity="1" transform="matrix(1,0,0,1,600,150)" ></text>
<text x="0" y="0" font-family="Bravura" font-style="normal" font-weight="normal" font-size="24" fill="rgb(0,0,0)" fill-opacity="1" transform="matrix(1,0,0,1,597,189)" ></text>
<text x="0" y="0" font-family="Bravura" font-style="normal" font-weight="normal" font-size="14.40000057220459" fill="rgb(0,0,0)" fill-opacity="1" transform="matrix(1,0,0,1,623.7999877929688,162)" ></text>
<text x="0" y="0" font-family="Bravura" font-style="normal" font-weight="normal" font-size="14.40000057220459" fill="rgb(0,0,0)" fill-opacity="1" transform="matrix(1,0,0,1,642,159)" ></text>
<text x="0" y="0" font-family="Bravura" font-style="normal" font-weight="normal" font-size="14.40000057220459" fill="rgb(0,0,0)" fill-opacity="1" transform="matrix(1,0,0,1,663,150)" ></text>
<text x="0" y="0" font-family="Bravura" font-style="normal" font-weight="normal" font-size="14.40000057220459" fill="rgb(0,0,0)" fill-opacity="1" transform="matrix(1,0,0,1,684,150)" ></text>
<text x="0" y="0" font-family="Bravura" font-style="normal" font-weight="normal" font-size="14.40000057220459" fill="rgb(0,0,0)" fill-opacity="1" transform="matrix(1,0,0,1,707.7999877929688,162)" ></text>
<text x="0" y="0" font-family="Bravura" font-style="normal" font-weight="normal" font-size="14.40000057220459" fill="rgb(0,0,0)" fill-opacity="1" transform="matrix(1,0,0,1,726,159)" ></text>
<text x="0" y="0" font-family="Bravura" font-style="normal" font-weight="normal" font-size="14.40000057220459" fill="rgb(0,0,0)" fill-opacity="1" transform="matrix(1,0,0,1,747,150)" ></text>
<text x="0" y="0" font-family="Bravura" font-style="normal" font-weight="normal" font-size="14.40000057220459" fill="rgb(0,0,0)" fill-opacity="1" transform="matrix(1,0,0,1,768,150)" ></text>
<text x="0" y="0" font-family="Bravura" font-style="normal" font-weight="normal" font-size="14.40000057220459" fill="rgb(0,0,0)" fill-opacity="1" transform="matrix(1,0,0,1,791.7999877929688,162)" ></text>
<text x="0" y="0" font-family="Bravura" font-style="normal" font-weight="normal" font-size="14.40000057220459" fill="rgb(0,0,0)" fill-opacity="1" transform="matrix(1,0,0,1,810,159)" ></text>
<text x="0" y="0" font-family="Bravura" font-style="normal" font-weight="normal" font-size="14.40000057220459" fill="rgb(0,0,0)" fill-opacity="1" transform="matrix(1,0,0,1,831,150)" ></text>
<text x="0" y="0" font-family="Bravura" font-style="normal" font-weight="normal" font-size="14.40000057220459" fill="rgb(0,0,0)" fill-opacity="1" transform="matrix(1,0,0,1,852,150)" ></text>
<text x="0" y="0" font-family="Bravura" font-style="normal" font-weight="normal" font-size="14.40000057220459" fill="rgb(0,0,0)" fill-opacity="1" transform="matrix(1,0,0,1,875.7999877929688,162)" ></text>
<text x="0" y="0" font-family="Bravura" font-style="normal" font-weight="normal" font-size="14.40000057220459" fill="rgb(0,0,0)" fill-opacity="1" transform="matrix(1,0,0,1,894,159)" ></text>
<text x="0" y="0" font-family="Bravura" font-style="normal" font-weight="normal" font-size="14.40000057220459" fill="rgb(0,0,0)" fill-opacity="1" transform="matrix(1,0,0,1,915,150)" ></text>
<text x="0" y="0" font-family="Bravura" font-style="normal" font-weight="normal" font-size="24" fill="rgb(0,0,0)" fill-opacity="1" transform="matrix(1,0,0,1,936,156)" ></text>
<text x="0" y="0" font-family="Bravura" font-style="normal" font-weight="normal" font-size="24" fill="rgb(0,0,0)" fill-opacity="1" transform="matrix(1,0,0,1,933,189)" ></text>
<path d="M0,0 L330,7.5 L0,15" stroke="rgb(0,0,0)" stroke-width="0.6" fill="none" transform="matrix(1,0,0,1,606,201)"/>
<path d="M100 75 L200.000 75 M100 69 L200.000 69 M100 63 L200.000 63 M100 57 L200.000 57 M100 51 L200.000 51 M100 171 L200.000 171 M100 165 L200.000 165 M100 159 L200.000 159 M100 153 L200.000 153 M100 147 L200.000 147 M200 75 L600.000 75 M200 69 L600.000 69 M200 63 L600.000 63 M200 57 L600.000 57 M200 51 L600.000 51 M200 171 L600.000 171 M200 165 L600.000 165 M200 159 L600.000 159 M200 153 L600.000 153 M200 147 L600.000 147 M600 75 L1000.000 75 M600 69 L1000.000 69 M600 63 L1000.000 63 M600 57 L1000.000 57 M600 51 L1000.000 51 M600 171 L1000.000 171 M600 165 L1000.000 165 M600 159 L1000.000 159 M600 153 L1000.000 153 M600 147 L1000.000 147 " stroke="rgb(0,0,0)" stroke-width="0.4" fill="rgb(0,0,0)" transform="matrix(1,0,0,1,0,0)"/>
<path d="M5,3 L38,3" stroke="rgb(0,0,255)" stroke-width="2" stroke-opacity="1" fill="none" fill-opacity="1" transform="matrix(1,0,0,1,202,63)"/>
<path d="M38,1 L38,5" stroke="rgb(0,0,255)" stroke-width="1" stroke-opacity="1" fill="none" fill-opacity="1" transform="matrix(1,0,0,1,202,63)"/>
<path d="M5,3 L38,3" stroke="rgb(0,0,255)" stroke-width="2" stroke-opacity="1" fill="none" fill-opacity="1" transform="matrix(1,0,0,1,262,57)"/>
<path d="M38,1 L38,5" stroke="rgb(0,0,255)" stroke-width="1" stroke-opacity="1" fill="none" fill-opacity="1" transform="matrix(1,0,0,1,262,57)"/>
<path d="M5,3 L38,3" stroke="rgb(0,0,255)" stroke-width="2" stroke-opacity="1" fill="none" fill-opacity="1" transform="matrix(1,0,0,1,322,72)"/>
<path d="M38,1 L38,5" stroke="rgb(0,0,255)" stroke-width="1" stroke-opacity="1" fill="none" fill-opacity="1" transform="matrix(1,0,0,1,322,72)"/>
<path d="M5,3 L38,3" stroke="rgb(0,0,255)" stroke-width="2" stroke-opacity="1" fill="none" fill-opacity="1" transform="matrix(1,0,0,1,382,81)"/>
<path d="M38,1 L38,5" stroke="rgb(0,0,255)" stroke-width="1" stroke-opacity="1" fill="none" fill-opacity="1" transform="matrix(1,0,0,1,382,81)"/>
<path d="M5,3 L83,3" stroke="rgb(0,0,255)" stroke-width="2" stroke-opacity="1" fill="none" fill-opacity="1" transform="matrix(1,0,0,1,442,63)"/>
<path d="M83,1 L83,5" stroke="rgb(0,0,255)" stroke-width="1" stroke-opacity="1" fill="none" fill-opacity="1" transform="matrix(1,0,0,1,442,63)"/>
<path d="M5,3 L83,3" stroke="rgb(0,0,255)" stroke-width="2" stroke-opacity="1" fill="none" fill-opacity="1" transform="matrix(1,0,0,1,520,48)"/>
<path d="M83,1 L83,5" stroke="rgb(0,0,255)" stroke-width="1" stroke-opacity="1" fill="none" fill-opacity="1" transform="matrix(1,0,0,1,520,48)"/>
<path d="M5,3 L173,3" stroke="rgb(0,0,255)" stroke-width="2" stroke-opacity="1" fill="none" fill-opacity="1" transform="matrix(1,0,0,1,202,153)"/>
<path d="M173,1 L173,5" stroke="rgb(0,0,255)" stroke-width="1" stroke-opacity="1" fill="none" fill-opacity="1" transform="matrix(1,0,0,1,202,153)"/>
<path d="M5,3 L173,3" stroke="rgb(0,0,255)" stroke-width="2" stroke-opacity="1" fill="none" fill-opacity="1" transform="matrix(1,0,0,1,322,180)"/>
<path d="M173,1 L173,5" stroke="rgb(0,0,255)" stroke-width="1" stroke-opacity="1" fill="none" fill-opacity="1" transform="matrix(1,0,0,1,322,180)"/>
<path d="M5,3 L173,3" stroke="rgb(0,0,255)" stroke-width="2" stroke-opacity="1" fill="none" fill-opacity="1" transform="matrix(1,0,0,1,322,165)"/>
<path d="M173,1 L173,5" stroke="rgb(0,0,255)" stroke-width="1" stroke-opacity="1" fill="none" fill-opacity="1" transform="matrix(1,0,0,1,322,165)"/>
<path d="M5,3 L83,3" stroke="rgb(0,0,255)" stroke-width="2" stroke-opacity="1" fill="none" fill-opacity="1" transform="matrix(1,0,0,1,520,183)"/>
<path d="M83,1 L83,5" stroke="rgb(0,0,255)" stroke-width="1" stroke-opacity="1" fill="none" fill-opacity="1" transform="matrix(1,0,0,1,520,183)"/>
<path d="M5,3 L83,3" stroke="rgb(0,0,255)" stroke-width="2" stroke-opacity="1" fill="none" fill-opacity="1" transform="matrix(1,0,0,1,520,165)"/>
<path d="M83,1 L83,5" stroke="rgb(0,0,255)" stroke-width="1" stroke-opacity="1" fill="none" fill-opacity="1" transform="matrix(1,0,0,1,520,165)"/>
<path d="M5,3 L83,3" stroke="rgb(0,0,255)" stroke-width="2" stroke-opacity="1" fill="none" fill-opacity="1" transform="matrix(1,0,0,1,520,147)"/>
<path d="M83,1 L83,5" stroke="rgb(0,0,255)" stroke-width="1" stroke-opacity="1" fill="none" fill-opacity="1" transform="matrix(1,0,0,1,520,147)"/>
<path d="M5,3 L353,3" stroke="rgb(0,0,255)" stroke-width="2" stroke-opacity="1" fill="none" fill-opacity="1" transform="matrix(1,0,0,1,602,57)"/>
<path d="M353,1 L353,5" stroke="rgb(0,0,255)" stroke-width="1" stroke-opacity="1" fill="none" fill-opacity="1" transform="matrix(1,0,0,1,602,57)"/>
<path d="M5,3 L173,3" stroke="rgb(0,0,255)" stroke-width="2" stroke-opacity="1" fill="none" fill-opacity="1" transform="matrix(1,0,0,1,938,153)"/>
<path d="M173,1 L173,5" stroke="rgb(0,0,255)" stroke-width="1" stroke-opacity="1" fill="none" fill-opacity="1" transform="matrix(1,0,0,1,938,153)"/>
</g>
</svg>
