<?xml version="1.0" encoding="utf-8"?>
<!DOCTYPE svg PUBLIC "-//W3C//DTD SVG 1.1//EN" "http://www.w3.org/Graphics/SVG/1.1/DTD/svg11.dtd">
<svg width="1000px" height="800px" viewBox="0 0 1000 800" style="background:rgb(253.98,253.98,239.7)" xmlns="http://www.w3.org/2000/svg" xmlns:xlink="http://www.w3.org/1999/xlink" version="1.1">

<g id="1" transform="matrix(1,0,0,1,0,0)">
<text x="0" y="0" font-family="Bravura" font-style="normal" font-weight="normal" font-size="24" fill="rgb(0,0,0)" fill-opacity="1" transform="matrix(1,0,0,1,62,69.95999908447266)" ></text>
<path d="M101.22068786621094,81 L114.02069091796875,81" stroke="rgb(0,0,0)" stroke-width="0.6" fill="rgb(0,0,0)" transform="matrix(1,0,0,1,0,0)"/>
<path d="M101.22068786621094,87 L114.02069091796875,87" stroke="rgb(0,0,0)" stroke-width="0.6" fill="rgb(0,0,0)" transform="matrix(1,0,0,1,0,0)"/>
<path d="M101.22068786621094,93 L114.02069091796875,93" stroke="rgb(0,0,0)" stroke-width="0.6" fill="rgb(0,0,0)" transform="matrix(1,0,0,1,0,0)"/>
<path d="M101.22068786621094,99 L114.02069091796875,99" stroke="rgb(0,0,0)" stroke-width="0.6" fill="rgb(0,0,0)" transform="matrix(1,0,0,1,0,0)"/>
<text x="0" y="0" font-family="Bravura" font-style="normal" font-weight="normal" font-size="24" fill="rgb(0,0,0)" fill-opacity="1" transform="matrix(1,0,0,1,103.62068939208984,99)" ></text>
<text x="0" y="0" font-family="Bravura" font-style="normal" font-weight="normal" font-size="24" fill="rgb(0,0,0)" fill-opacity="1" transform="matrix(1,0,0,1,98.55555725097656,99)" ></text>
<text x="112.62068939208984" y="103" font-family="Arial" font-style="normal" font-weight="normal" font-size="10" fill="rgb(0,0,0)" fill-opacity="1" transform="matrix(1,0,0,1,0,0)" >1:1</text>
<path d="M155.22068786621094,81 L168.02069091796875,81" stroke="rgb(0,0,0)" stroke-width="0.6" fill="rgb(0,0,0)" transform="matrix(1,0,0,1,0,0)"/>
<path d="M155.22068786621094,87 L168.02069091796875,87" stroke="rgb(0,0,0)" stroke-width="0.6" fill="rgb(0,0,0)" transform="matrix(1,0,0,1,0,0)"/>
<path d="M155.22068786621094,93 L168.02069091796875,93" stroke="rgb(0,0,0)" stroke-width="0.6" fill="rgb(0,0,0)" transform="matrix(1,0,0,1,0,0)"/>
<text x="0" y="0" font-family="Bravura" font-style="normal" font-weight="normal" font-size="24" fill="rgb(0,0,0)" fill-opacity="1" transform="matrix(1,0,0,1,157.62069702148438,96)" ></text>
<text x="0" y="0" font-family="Bravura" font-style="normal" font-weight="normal" font-size="24" fill="rgb(0,0,0)" fill-opacity="1" transform="matrix(1,0,0,1,150.55555725097656,96)" ></text>
<text x="166.62069702148438" y="100" font-family="Arial" font-style="normal" font-weight="normal" font-size="10" fill="rgb(0,0,0)" fill-opacity="1" transform="matrix(1,0,0,1,0,0)" >27:25</text>
<rect x="110.22068939208984" y="63" width="0.75" height="35" fill="rgb(0,0,0)" stroke="rgb(0,0,0)" stroke-width="0.4" fill-opacity="1.0" stroke-opacity="1.0" transform="matrix(1,0,0,1,0,0)"/>
<path d="M209.22068786621094,81 L222.02069091796875,81" stroke="rgb(0,0,0)" stroke-width="0.6" fill="rgb(0,0,0)" transform="matrix(1,0,0,1,0,0)"/>
<path d="M209.22068786621094,87 L222.02069091796875,87" stroke="rgb(0,0,0)" stroke-width="0.6" fill="rgb(0,0,0)" transform="matrix(1,0,0,1,0,0)"/>
<path d="M209.22068786621094,93 L222.02069091796875,93" stroke="rgb(0,0,0)" stroke-width="0.6" fill="rgb(0,0,0)" transform="matrix(1,0,0,1,0,0)"/>
<text x="0" y="0" font-family="Bravura" font-style="normal" font-weight="normal" font-size="24" fill="rgb(0,0,0)" fill-opacity="1" transform="matrix(1,0,0,1,211.62069702148438,96)" ></text>
<text x="0" y="0" font-family="Bravura" font-style="normal" font-weight="normal" font-size="24" fill="rgb(0,0,0)" fill-opacity="1" transform="matrix(1,0,0,1,201.55555725097656,96)" ></text>
<text x="0" y="0" font-family="Bravura" font-style="normal" font-weight="normal" font-size="24" fill="rgb(0,0,0)" fill-opacity="1" transform="matrix(1,0,0,1,195.55555725097656,96)" ></text>
<text x="220.62069702148438" y="100" font-family="Arial" font-style="normal" font-weight="normal" font-size="10" fill="rgb(0,0,0)" fill-opacity="1" transform="matrix(1,0,0,1,0,0)" >25:21</text>
<rect x="164.22069702148437" y="63" width="0.75" height="32" fill="rgb(0,0,0)" stroke="rgb(0,0,0)" stroke-width="0.4" fill-opacity="1.0" stroke-opacity="1.0" transform="matrix(1,0,0,1,0,0)"/>
<path d="M263.220703125,81 L276.02069091796875,81" stroke="rgb(0,0,0)" stroke-width="0.6" fill="rgb(0,0,0)" transform="matrix(1,0,0,1,0,0)"/>
<path d="M263.220703125,87 L276.02069091796875,87" stroke="rgb(0,0,0)" stroke-width="0.6" fill="rgb(0,0,0)" transform="matrix(1,0,0,1,0,0)"/>
<path d="M263.220703125,93 L276.02069091796875,93" stroke="rgb(0,0,0)" stroke-width="0.6" fill="rgb(0,0,0)" transform="matrix(1,0,0,1,0,0)"/>
<text x="0" y="0" font-family="Bravura" font-style="normal" font-weight="normal" font-size="24" fill="rgb(0,0,0)" fill-opacity="1" transform="matrix(1,0,0,1,265.6206970214844,93)" ></text>
<text x="0" y="0" font-family="Bravura" font-style="normal" font-weight="normal" font-size="24" fill="rgb(0,0,0)" fill-opacity="1" transform="matrix(1,0,0,1,257.5555419921875,93)" ></text>
<text x="0" y="0" font-family="Bravura" font-style="normal" font-weight="normal" font-size="24" fill="rgb(0,0,0)" fill-opacity="1" transform="matrix(1,0,0,1,249.5555419921875,93)" ></text>
<text x="274.6206970214844" y="97" font-family="Arial" font-style="normal" font-weight="normal" font-size="10" fill="rgb(0,0,0)" fill-opacity="1" transform="matrix(1,0,0,1,0,0)" >9:7</text>
<rect x="218.22069702148437" y="63" width="0.75" height="32" fill="rgb(0,0,0)" stroke="rgb(0,0,0)" stroke-width="0.4" fill-opacity="1.0" stroke-opacity="1.0" transform="matrix(1,0,0,1,0,0)"/>
<path d="M317.220703125,81 L330.02069091796875,81" stroke="rgb(0,0,0)" stroke-width="0.6" fill="rgb(0,0,0)" transform="matrix(1,0,0,1,0,0)"/>
<path d="M317.220703125,87 L330.02069091796875,87" stroke="rgb(0,0,0)" stroke-width="0.6" fill="rgb(0,0,0)" transform="matrix(1,0,0,1,0,0)"/>
<text x="0" y="0" font-family="Bravura" font-style="normal" font-weight="normal" font-size="24" fill="rgb(0,0,0)" fill-opacity="1" transform="matrix(1,0,0,1,319.6206970214844,87)" ></text>
<text x="0" y="0" font-family="Bravura" font-style="normal" font-weight="normal" font-size="24" fill="rgb(0,0,0)" fill-opacity="1" transform="matrix(1,0,0,1,312.5555419921875,87)" ></text>
<text x="0" y="0" font-family="Bravura" font-style="normal" font-weight="normal" font-size="24" fill="rgb(0,0,0)" fill-opacity="1" transform="matrix(1,0,0,1,306.5555419921875,87)" ></text>
<text x="328.6206970214844" y="91" font-family="Arial" font-style="normal" font-weight="normal" font-size="10" fill="rgb(0,0,0)" fill-opacity="1" transform="matrix(1,0,0,1,0,0)" >7:5</text>
<rect x="272.2206970214844" y="63" width="0.75" height="29" fill="rgb(0,0,0)" stroke="rgb(0,0,0)" stroke-width="0.4" fill-opacity="1.0" stroke-opacity="1.0" transform="matrix(1,0,0,1,0,0)"/>
<path d="M371.220703125,81 L384.02069091796875,81" stroke="rgb(0,0,0)" stroke-width="0.6" fill="rgb(0,0,0)" transform="matrix(1,0,0,1,0,0)"/>
<path d="M371.220703125,87 L384.02069091796875,87" stroke="rgb(0,0,0)" stroke-width="0.6" fill="rgb(0,0,0)" transform="matrix(1,0,0,1,0,0)"/>
<text x="0" y="0" font-family="Bravura" font-style="normal" font-weight="normal" font-size="24" fill="rgb(0,0,0)" fill-opacity="1" transform="matrix(1,0,0,1,373.6206970214844,90)" ></text>
<text x="0" y="0" font-family="Bravura" font-style="normal" font-weight="normal" font-size="24" fill="rgb(0,0,0)" fill-opacity="1" transform="matrix(1,0,0,1,363.5555419921875,90)" ></text>
<text x="0" y="0" font-family="Bravura" font-style="normal" font-weight="normal" font-size="24" fill="rgb(0,0,0)" fill-opacity="1" transform="matrix(1,0,0,1,357.5555419921875,92)" ></text>
<text x="382.6206970214844" y="94" font-family="Arial" font-style="normal" font-weight="normal" font-size="10" fill="rgb(0,0,0)" fill-opacity="1" transform="matrix(1,0,0,1,0,0)" >75:49</text>
<rect x="326.2206970214844" y="63" width="0.75" height="23" fill="rgb(0,0,0)" stroke="rgb(0,0,0)" stroke-width="0.4" fill-opacity="1.0" stroke-opacity="1.0" transform="matrix(1,0,0,1,0,0)"/>
<path d="M425.220703125,81 L438.02069091796875,81" stroke="rgb(0,0,0)" stroke-width="0.6" fill="rgb(0,0,0)" transform="matrix(1,0,0,1,0,0)"/>
<text x="0" y="0" font-family="Bravura" font-style="normal" font-weight="normal" font-size="24" fill="rgb(0,0,0)" fill-opacity="1" transform="matrix(1,0,0,1,427.6206970214844,84)" ></text>
<text x="0" y="0" font-family="Bravura" font-style="normal" font-weight="normal" font-size="24" fill="rgb(0,0,0)" fill-opacity="1" transform="matrix(1,0,0,1,421.5555419921875,84)" ></text>
<text x="436.6206970214844" y="88" font-family="Arial" font-style="normal" font-weight="normal" font-size="10" fill="rgb(0,0,0)" fill-opacity="1" transform="matrix(1,0,0,1,0,0)" >5:3</text>
<rect x="380.2206970214844" y="63" width="0.75" height="26" fill="rgb(0,0,0)" stroke="rgb(0,0,0)" stroke-width="0.4" fill-opacity="1.0" stroke-opacity="1.0" transform="matrix(1,0,0,1,0,0)"/>
<path d="M479.220703125,81 L492.02069091796875,81" stroke="rgb(0,0,0)" stroke-width="0.6" fill="rgb(0,0,0)" transform="matrix(1,0,0,1,0,0)"/>
<text x="0" y="0" font-family="Bravura" font-style="normal" font-weight="normal" font-size="24" fill="rgb(0,0,0)" fill-opacity="1" transform="matrix(1,0,0,1,481.6206970214844,81)" ></text>
<text x="0" y="0" font-family="Bravura" font-style="normal" font-weight="normal" font-size="24" fill="rgb(0,0,0)" fill-opacity="1" transform="matrix(1,0,0,1,476.5555419921875,81)" ></text>
<text x="490.6206970214844" y="85" font-family="Arial" font-style="normal" font-weight="normal" font-size="10" fill="rgb(0,0,0)" fill-opacity="1" transform="matrix(1,0,0,1,0,0)" >9:5</text>
<rect x="434.2206970214844" y="63" width="0.75" height="20" fill="rgb(0,0,0)" stroke="rgb(0,0,0)" stroke-width="0.4" fill-opacity="1.0" stroke-opacity="1.0" transform="matrix(1,0,0,1,0,0)"/>
<text x="0" y="0" font-family="Bravura" font-style="normal" font-weight="normal" font-size="24" fill="rgb(0,0,0)" fill-opacity="1" transform="matrix(1,0,0,1,535.6206665039062,75)" ></text>
<text x="0" y="0" font-family="Bravura" font-style="normal" font-weight="normal" font-size="24" fill="rgb(0,0,0)" fill-opacity="1" transform="matrix(1,0,0,1,526.5555419921875,75)" ></text>
<text x="0" y="0" font-family="Bravura" font-style="normal" font-weight="normal" font-size="24" fill="rgb(0,0,0)" fill-opacity="1" transform="matrix(1,0,0,1,522.5555419921875,73)" ></text>
<text x="544.6206665039062" y="79" font-family="Arial" font-style="normal" font-weight="normal" font-size="10" fill="rgb(0,0,0)" fill-opacity="1" transform="matrix(1,0,0,1,0,0)" >49:25</text>
<rect x="488.2206970214844" y="60" width="0.75" height="20" fill="rgb(0,0,0)" stroke="rgb(0,0,0)" stroke-width="0.4" fill-opacity="1.0" stroke-opacity="1.0" transform="matrix(1,0,0,1,0,0)"/>
<text x="0" y="0" font-family="Bravura" font-style="normal" font-weight="normal" font-size="24" fill="rgb(0,0,0)" fill-opacity="1" transform="matrix(1,0,0,1,589.6206665039062,78)" ></text>
<text x="0" y="0" font-family="Bravura" font-style="normal" font-weight="normal" font-size="24" fill="rgb(0,0,0)" fill-opacity="1" transform="matrix(1,0,0,1,579.5555419921875,78)" ></text>
<text x="0" y="0" font-family="Bravura" font-style="normal" font-weight="normal" font-size="24" fill="rgb(0,0,0)" fill-opacity="1" transform="matrix(1,0,0,1,573.5555419921875,78)" ></text>
<text x="598.6206665039062" y="82" font-family="Arial" font-style="normal" font-weight="normal" font-size="10" fill="rgb(0,0,0)" fill-opacity="1" transform="matrix(1,0,0,1,0,0)" >15:7</text>
<rect x="542.2206665039063" y="54" width="0.75" height="20" fill="rgb(0,0,0)" stroke="rgb(0,0,0)" stroke-width="0.4" fill-opacity="1.0" stroke-opacity="1.0" transform="matrix(1,0,0,1,0,0)"/>
<text x="0" y="0" font-family="Bravura" font-style="normal" font-weight="normal" font-size="24" fill="rgb(0,0,0)" fill-opacity="1" transform="matrix(1,0,0,1,643.6206665039062,72)" ></text>
<text x="0" y="0" font-family="Bravura" font-style="normal" font-weight="normal" font-size="24" fill="rgb(0,0,0)" fill-opacity="1" transform="matrix(1,0,0,1,636.5555419921875,72)" ></text>
<text x="652.6206665039062" y="76" font-family="Arial" font-style="normal" font-weight="normal" font-size="10" fill="rgb(0,0,0)" fill-opacity="1" transform="matrix(1,0,0,1,0,0)" >7:3</text>
<rect x="596.2206665039063" y="57" width="0.75" height="20" fill="rgb(0,0,0)" stroke="rgb(0,0,0)" stroke-width="0.4" fill-opacity="1.0" stroke-opacity="1.0" transform="matrix(1,0,0,1,0,0)"/>
<text x="0" y="0" font-family="Bravura" font-style="normal" font-weight="normal" font-size="24" fill="rgb(0,0,0)" fill-opacity="1" transform="matrix(1,0,0,1,697.6206665039062,69)" ></text>
<text x="0" y="0" font-family="Bravura" font-style="normal" font-weight="normal" font-size="24" fill="rgb(0,0,0)" fill-opacity="1" transform="matrix(1,0,0,1,690.5555419921875,69)" ></text>
<text x="0" y="0" font-family="Bravura" font-style="normal" font-weight="normal" font-size="24" fill="rgb(0,0,0)" fill-opacity="1" transform="matrix(1,0,0,1,684.5555419921875,69)" ></text>
<text x="706.6206665039062" y="73" font-family="Arial" font-style="normal" font-weight="normal" font-size="10" fill="rgb(0,0,0)" fill-opacity="1" transform="matrix(1,0,0,1,0,0)" >63:25</text>
<rect x="650.2206665039063" y="51" width="0.75" height="20" fill="rgb(0,0,0)" stroke="rgb(0,0,0)" stroke-width="0.4" fill-opacity="1.0" stroke-opacity="1.0" transform="matrix(1,0,0,1,0,0)"/>
<text x="0" y="0" font-family="Bravura" font-style="normal" font-weight="normal" font-size="24" fill="rgb(0,0,0)" fill-opacity="1" transform="matrix(1,0,0,1,751.6206665039062,69)" ></text>
<text x="0" y="0" font-family="Bravura" font-style="normal" font-weight="normal" font-size="24" fill="rgb(0,0,0)" fill-opacity="1" transform="matrix(1,0,0,1,741.5555419921875,69)" ></text>
<text x="760.6206665039062" y="73" font-family="Arial" font-style="normal" font-weight="normal" font-size="10" fill="rgb(0,0,0)" fill-opacity="1" transform="matrix(1,0,0,1,0,0)" >25:9</text>
<rect x="704.2206665039063" y="48" width="0.75" height="20" fill="rgb(0,0,0)" stroke="rgb(0,0,0)" stroke-width="0.4" fill-opacity="1.0" stroke-opacity="1.0" transform="matrix(1,0,0,1,0,0)"/>
<text x="0" y="0" font-family="Bravura" font-style="normal" font-weight="normal" font-size="24" fill="rgb(0,0,0)" fill-opacity="1" transform="matrix(1,0,0,1,805.6206665039062,66)" ></text>
<text x="0" y="0" font-family="Bravura" font-style="normal" font-weight="normal" font-size="24" fill="rgb(0,0,0)" fill-opacity="1" transform="matrix(1,0,0,1,800.5555419921875,66)" ></text>
<text x="814.6206665039062" y="70" font-family="Arial" font-style="normal" font-weight="normal" font-size="10" fill="rgb(0,0,0)" fill-opacity="1" transform="matrix(1,0,0,1,0,0)" >3:1</text>
<rect x="758.2206665039063" y="48" width="0.75" height="20" fill="rgb(0,0,0)" stroke="rgb(0,0,0)" stroke-width="0.4" fill-opacity="1.0" stroke-opacity="1.0" transform="matrix(1,0,0,1,0,0)"/>
<text x="0" y="0" font-family="Bravura" font-style="normal" font-weight="normal" font-size="24" fill="rgb(0,0,0)" fill-opacity="1" transform="matrix(1,0,0,1,62,165.9600067138672)" ></text>
<text x="0" y="0" font-family="Bravura" font-style="normal" font-weight="normal" font-size="24" fill="rgb(0,0,0)" fill-opacity="1" transform="matrix(1,0,0,1,103.62068939208984,162)" ></text>
<text x="0" y="0" font-family="Bravura" font-style="normal" font-weight="normal" font-size="24" fill="rgb(0,0,0)" fill-opacity="1" transform="matrix(1,0,0,1,98.55555725097656,162)" ></text>
<text x="112.62068939208984" y="166" font-family="Arial" font-style="normal" font-weight="normal" font-size="10" fill="rgb(0,0,0)" fill-opacity="1" transform="matrix(1,0,0,1,0,0)" >1:1</text>
<rect x="812.2206665039063" y="45" width="0.75" height="20" fill="rgb(0,0,0)" stroke="rgb(0,0,0)" stroke-width="0.4" fill-opacity="1.0" stroke-opacity="1.0" transform="matrix(1,0,0,1,0,0)"/>
<text x="0" y="0" font-family="Bravura" font-style="normal" font-weight="normal" font-size="24" fill="rgb(0,0,0)" fill-opacity="1" transform="matrix(1,0,0,1,157.62069702148438,159)" ></text>
<text x="0" y="0" font-family="Bravura" font-style="normal" font-weight="normal" font-size="24" fill="rgb(0,0,0)" fill-opacity="1" transform="matrix(1,0,0,1,150.55555725097656,159)" ></text>
<text x="166.62069702148438" y="163" font-family="Arial" font-style="normal" font-weight="normal" font-size="10" fill="rgb(0,0,0)" fill-opacity="1" transform="matrix(1,0,0,1,0,0)" >27:25</text>
<rect x="110.22068939208984" y="141" width="0.75" height="20" fill="rgb(0,0,0)" stroke="rgb(0,0,0)" stroke-width="0.4" fill-opacity="1.0" stroke-opacity="1.0" transform="matrix(1,0,0,1,0,0)"/>
<text x="0" y="0" font-family="Bravura" font-style="normal" font-weight="normal" font-size="24" fill="rgb(0,0,0)" fill-opacity="1" transform="matrix(1,0,0,1,211.62069702148438,156)" ></text>
<text x="0" y="0" font-family="Bravura" font-style="normal" font-weight="normal" font-size="24" fill="rgb(0,0,0)" fill-opacity="1" transform="matrix(1,0,0,1,197.55555725097656,156)" ></text>
<text x="0" y="0" font-family="Bravura" font-style="normal" font-weight="normal" font-size="24" fill="rgb(0,0,0)" fill-opacity="1" transform="matrix(1,0,0,1,191.55555725097656,156)" ></text>
<text x="220.62069702148438" y="160" font-family="Arial" font-style="normal" font-weight="normal" font-size="10" fill="rgb(0,0,0)" fill-opacity="1" transform="matrix(1,0,0,1,0,0)" >25:21</text>
<rect x="157.62069702148438" y="159" width="0.75" height="20" fill="rgb(0,0,0)" stroke="rgb(0,0,0)" stroke-width="0.4" fill-opacity="1.0" stroke-opacity="1.0" transform="matrix(1,0,0,1,0,0)"/>
<text x="0" y="0" font-family="Bravura" font-style="normal" font-weight="normal" font-size="24" fill="rgb(0,0,0)" fill-opacity="1" transform="matrix(1,0,0,1,265.6206970214844,156)" ></text>
<text x="0" y="0" font-family="Bravura" font-style="normal" font-weight="normal" font-size="24" fill="rgb(0,0,0)" fill-opacity="1" transform="matrix(1,0,0,1,257.5555419921875,156)" ></text>
<text x="0" y="0" font-family="Bravura" font-style="normal" font-weight="normal" font-size="24" fill="rgb(0,0,0)" fill-opacity="1" transform="matrix(1,0,0,1,249.5555419921875,156)" ></text>
<text x="274.6206970214844" y="160" font-family="Arial" font-style="normal" font-weight="normal" font-size="10" fill="rgb(0,0,0)" fill-opacity="1" transform="matrix(1,0,0,1,0,0)" >9:7</text>
<rect x="211.62069702148438" y="156" width="0.75" height="20" fill="rgb(0,0,0)" stroke="rgb(0,0,0)" stroke-width="0.4" fill-opacity="1.0" stroke-opacity="1.0" transform="matrix(1,0,0,1,0,0)"/>
<text x="0" y="0" font-family="Bravura" font-style="normal" font-weight="normal" font-size="24" fill="rgb(0,0,0)" fill-opacity="1" transform="matrix(1,0,0,1,319.6206970214844,150)" ></text>
<text x="0" y="0" font-family="Bravura" font-style="normal" font-weight="normal" font-size="24" fill="rgb(0,0,0)" fill-opacity="1" transform="matrix(1,0,0,1,312.5555419921875,150)" ></text>
<text x="0" y="0" font-family="Bravura" font-style="normal" font-weight="normal" font-size="24" fill="rgb(0,0,0)" fill-opacity="1" transform="matrix(1,0,0,1,306.5555419921875,150)" ></text>
<text x="328.6206970214844" y="154" font-family="Arial" font-style="normal" font-weight="normal" font-size="10" fill="rgb(0,0,0)" fill-opacity="1" transform="matrix(1,0,0,1,0,0)" >7:5</text>
<rect x="265.6206970214844" y="156" width="0.75" height="20" fill="rgb(0,0,0)" stroke="rgb(0,0,0)" stroke-width="0.4" fill-opacity="1.0" stroke-opacity="1.0" transform="matrix(1,0,0,1,0,0)"/>
<text x="0" y="0" font-family="Bravura" font-style="normal" font-weight="normal" font-size="24" fill="rgb(0,0,0)" fill-opacity="1" transform="matrix(1,0,0,1,373.6206970214844,153)" ></text>
<text x="0" y="0" font-family="Bravura" font-style="normal" font-weight="normal" font-size="24" fill="rgb(0,0,0)" fill-opacity="1" transform="matrix(1,0,0,1,363.5555419921875,153)" ></text>
<text x="0" y="0" font-family="Bravura" font-style="normal" font-weight="normal" font-size="24" fill="rgb(0,0,0)" fill-opacity="1" transform="matrix(1,0,0,1,357.5555419921875,155)" ></text>
<text x="382.6206970214844" y="157" font-family="Arial" font-style="normal" font-weight="normal" font-size="10" fill="rgb(0,0,0)" fill-opacity="1" transform="matrix(1,0,0,1,0,0)" >75:49</text>
<rect x="319.6206970214844" y="150" width="0.75" height="20" fill="rgb(0,0,0)" stroke="rgb(0,0,0)" stroke-width="0.4" fill-opacity="1.0" stroke-opacity="1.0" transform="matrix(1,0,0,1,0,0)"/>
<text x="0" y="0" font-family="Bravura" font-style="normal" font-weight="normal" font-size="24" fill="rgb(0,0,0)" fill-opacity="1" transform="matrix(1,0,0,1,427.6206970214844,147)" ></text>
<text x="0" y="0" font-family="Bravura" font-style="normal" font-weight="normal" font-size="24" fill="rgb(0,0,0)" fill-opacity="1" transform="matrix(1,0,0,1,417.5555419921875,147)" ></text>
<text x="436.6206970214844" y="151" font-family="Arial" font-style="normal" font-weight="normal" font-size="10" fill="rgb(0,0,0)" fill-opacity="1" transform="matrix(1,0,0,1,0,0)" >5:3</text>
<rect x="373.6206970214844" y="153" width="0.75" height="20" fill="rgb(0,0,0)" stroke="rgb(0,0,0)" stroke-width="0.4" fill-opacity="1.0" stroke-opacity="1.0" transform="matrix(1,0,0,1,0,0)"/>
<text x="0" y="0" font-family="Bravura" font-style="normal" font-weight="normal" font-size="24" fill="rgb(0,0,0)" fill-opacity="1" transform="matrix(1,0,0,1,481.6206970214844,144)" ></text>
<text x="0" y="0" font-family="Bravura" font-style="normal" font-weight="normal" font-size="24" fill="rgb(0,0,0)" fill-opacity="1" transform="matrix(1,0,0,1,476.5555419921875,144)" ></text>
<text x="490.6206970214844" y="148" font-family="Arial" font-style="normal" font-weight="normal" font-size="10" fill="rgb(0,0,0)" fill-opacity="1" transform="matrix(1,0,0,1,0,0)" >9:5</text>
<rect x="427.6206970214844" y="147" width="0.75" height="20" fill="rgb(0,0,0)" stroke="rgb(0,0,0)" stroke-width="0.4" fill-opacity="1.0" stroke-opacity="1.0" transform="matrix(1,0,0,1,0,0)"/>
<path d="M533.220703125,141 L546.0206909179688,141" stroke="rgb(0,0,0)" stroke-width="0.6" fill="rgb(0,0,0)" transform="matrix(1,0,0,1,0,0)"/>
<text x="0" y="0" font-family="Bravura" font-style="normal" font-weight="normal" font-size="24" fill="rgb(0,0,0)" fill-opacity="1" transform="matrix(1,0,0,1,535.6206665039062,138)" ></text>
<text x="0" y="0" font-family="Bravura" font-style="normal" font-weight="normal" font-size="24" fill="rgb(0,0,0)" fill-opacity="1" transform="matrix(1,0,0,1,526.5555419921875,138)" ></text>
<text x="0" y="0" font-family="Bravura" font-style="normal" font-weight="normal" font-size="24" fill="rgb(0,0,0)" fill-opacity="1" transform="matrix(1,0,0,1,522.5555419921875,136)" ></text>
<text x="544.6206665039062" y="142" font-family="Arial" font-style="normal" font-weight="normal" font-size="10" fill="rgb(0,0,0)" fill-opacity="1" transform="matrix(1,0,0,1,0,0)" >49:25</text>
<rect x="481.6206970214844" y="144" width="0.75" height="20" fill="rgb(0,0,0)" stroke="rgb(0,0,0)" stroke-width="0.4" fill-opacity="1.0" stroke-opacity="1.0" transform="matrix(1,0,0,1,0,0)"/>
<path d="M587.220703125,141 L600.0206909179688,141" stroke="rgb(0,0,0)" stroke-width="0.6" fill="rgb(0,0,0)" transform="matrix(1,0,0,1,0,0)"/>
<text x="0" y="0" font-family="Bravura" font-style="normal" font-weight="normal" font-size="24" fill="rgb(0,0,0)" fill-opacity="1" transform="matrix(1,0,0,1,589.6206665039062,141)" ></text>
<text x="0" y="0" font-family="Bravura" font-style="normal" font-weight="normal" font-size="24" fill="rgb(0,0,0)" fill-opacity="1" transform="matrix(1,0,0,1,579.5555419921875,141)" ></text>
<text x="0" y="0" font-family="Bravura" font-style="normal" font-weight="normal" font-size="24" fill="rgb(0,0,0)" fill-opacity="1" transform="matrix(1,0,0,1,573.5555419921875,141)" ></text>
<text x="598.6206665039062" y="145" font-family="Arial" font-style="normal" font-weight="normal" font-size="10" fill="rgb(0,0,0)" fill-opacity="1" transform="matrix(1,0,0,1,0,0)" >15:7</text>
<rect x="535.6206665039062" y="138" width="0.75" height="20" fill="rgb(0,0,0)" stroke="rgb(0,0,0)" stroke-width="0.4" fill-opacity="1.0" stroke-opacity="1.0" transform="matrix(1,0,0,1,0,0)"/>
<path d="M641.220703125,141 L654.0206909179688,141" stroke="rgb(0,0,0)" stroke-width="0.6" fill="rgb(0,0,0)" transform="matrix(1,0,0,1,0,0)"/>
<path d="M641.220703125,135 L654.0206909179688,135" stroke="rgb(0,0,0)" stroke-width="0.6" fill="rgb(0,0,0)" transform="matrix(1,0,0,1,0,0)"/>
<text x="0" y="0" font-family="Bravura" font-style="normal" font-weight="normal" font-size="24" fill="rgb(0,0,0)" fill-opacity="1" transform="matrix(1,0,0,1,643.6206665039062,135)" ></text>
<text x="0" y="0" font-family="Bravura" font-style="normal" font-weight="normal" font-size="24" fill="rgb(0,0,0)" fill-opacity="1" transform="matrix(1,0,0,1,636.5555419921875,135)" ></text>
<text x="652.6206665039062" y="139" font-family="Arial" font-style="normal" font-weight="normal" font-size="10" fill="rgb(0,0,0)" fill-opacity="1" transform="matrix(1,0,0,1,0,0)" >7:3</text>
<rect x="589.6206665039062" y="141" width="0.75" height="20" fill="rgb(0,0,0)" stroke="rgb(0,0,0)" stroke-width="0.4" fill-opacity="1.0" stroke-opacity="1.0" transform="matrix(1,0,0,1,0,0)"/>
<path d="M695.220703125,141 L708.0206909179688,141" stroke="rgb(0,0,0)" stroke-width="0.6" fill="rgb(0,0,0)" transform="matrix(1,0,0,1,0,0)"/>
<path d="M695.220703125,135 L708.0206909179688,135" stroke="rgb(0,0,0)" stroke-width="0.6" fill="rgb(0,0,0)" transform="matrix(1,0,0,1,0,0)"/>
<text x="0" y="0" font-family="Bravura" font-style="normal" font-weight="normal" font-size="24" fill="rgb(0,0,0)" fill-opacity="1" transform="matrix(1,0,0,1,697.6206665039062,132)" ></text>
<text x="0" y="0" font-family="Bravura" font-style="normal" font-weight="normal" font-size="24" fill="rgb(0,0,0)" fill-opacity="1" transform="matrix(1,0,0,1,690.5555419921875,132)" ></text>
<text x="0" y="0" font-family="Bravura" font-style="normal" font-weight="normal" font-size="24" fill="rgb(0,0,0)" fill-opacity="1" transform="matrix(1,0,0,1,684.5555419921875,132)" ></text>
<text x="706.6206665039062" y="136" font-family="Arial" font-style="normal" font-weight="normal" font-size="10" fill="rgb(0,0,0)" fill-opacity="1" transform="matrix(1,0,0,1,0,0)" >63:25</text>
<rect x="643.6206665039062" y="135" width="0.75" height="23" fill="rgb(0,0,0)" stroke="rgb(0,0,0)" stroke-width="0.4" fill-opacity="1.0" stroke-opacity="1.0" transform="matrix(1,0,0,1,0,0)"/>
<path d="M749.220703125,141 L762.0206909179688,141" stroke="rgb(0,0,0)" stroke-width="0.6" fill="rgb(0,0,0)" transform="matrix(1,0,0,1,0,0)"/>
<path d="M749.220703125,135 L762.0206909179688,135" stroke="rgb(0,0,0)" stroke-width="0.6" fill="rgb(0,0,0)" transform="matrix(1,0,0,1,0,0)"/>
<text x="0" y="0" font-family="Bravura" font-style="normal" font-weight="normal" font-size="24" fill="rgb(0,0,0)" fill-opacity="1" transform="matrix(1,0,0,1,751.6206665039062,132)" ></text>
<text x="0" y="0" font-family="Bravura" font-style="normal" font-weight="normal" font-size="24" fill="rgb(0,0,0)" fill-opacity="1" transform="matrix(1,0,0,1,741.5555419921875,132)" ></text>
<text x="760.6206665039062" y="136" font-family="Arial" font-style="normal" font-weight="normal" font-size="10" fill="rgb(0,0,0)" fill-opacity="1" transform="matrix(1,0,0,1,0,0)" >25:9</text>
<rect x="697.6206665039062" y="132" width="0.75" height="26" fill="rgb(0,0,0)" stroke="rgb(0,0,0)" stroke-width="0.4" fill-opacity="1.0" stroke-opacity="1.0" transform="matrix(1,0,0,1,0,0)"/>
<path d="M803.220703125,141 L816.0206909179688,141" stroke="rgb(0,0,0)" stroke-width="0.6" fill="rgb(0,0,0)" transform="matrix(1,0,0,1,0,0)"/>
<path d="M803.220703125,135 L816.0206909179688,135" stroke="rgb(0,0,0)" stroke-width="0.6" fill="rgb(0,0,0)" transform="matrix(1,0,0,1,0,0)"/>
<path d="M803.220703125,129 L816.0206909179688,129" stroke="rgb(0,0,0)" stroke-width="0.6" fill="rgb(0,0,0)" transform="matrix(1,0,0,1,0,0)"/>
<text x="0" y="0" font-family="Bravura" font-style="normal" font-weight="normal" font-size="24" fill="rgb(0,0,0)" fill-opacity="1" transform="matrix(1,0,0,1,805.6206665039062,129)" ></text>
<text x="0" y="0" font-family="Bravura" font-style="normal" font-weight="normal" font-size="24" fill="rgb(0,0,0)" fill-opacity="1" transform="matrix(1,0,0,1,800.5555419921875,129)" ></text>
<text x="814.6206665039062" y="133" font-family="Arial" font-style="normal" font-weight="normal" font-size="10" fill="rgb(0,0,0)" fill-opacity="1" transform="matrix(1,0,0,1,0,0)" >1:1</text>
<rect x="751.6206665039062" y="132" width="0.75" height="26" fill="rgb(0,0,0)" stroke="rgb(0,0,0)" stroke-width="0.4" fill-opacity="1.0" stroke-opacity="1.0" transform="matrix(1,0,0,1,0,0)"/>
<rect x="805.6206665039062" y="129" width="0.75" height="29" fill="rgb(0,0,0)" stroke="rgb(0,0,0)" stroke-width="0.4" fill-opacity="1.0" stroke-opacity="1.0" transform="matrix(1,0,0,1,0,0)"/>
<path d="M60,75H860.0M60,69H860.0M60,63H860.0M60,57H860.0M60,51H860.0M60,171H860.0M60,165H860.0M60,159H860.0M60,153H860.0M60,147H860.0" stroke="rgb(0,0,0)" stroke-width="0.8" fill="rgb(0,0,0)" transform="matrix(1,0,0,1,0,0)"/>
<rect x="860" y="51" width="0.6" height="24" fill="rgb(0,0,0)" stroke="none" stroke-width="0.4" fill-opacity="1.0" stroke-opacity="1.0" transform="matrix(1,0,0,1,0,0)"/>
<rect x="60" y="51" width="0.6" height="24" fill="rgb(0,0,0)" stroke="none" stroke-width="0.4" fill-opacity="1.0" stroke-opacity="1.0" transform="matrix(1,0,0,1,0,0)"/>
<rect x="860" y="147" width="0.6" height="24" fill="rgb(0,0,0)" stroke="none" stroke-width="0.4" fill-opacity="1.0" stroke-opacity="1.0" transform="matrix(1,0,0,1,0,0)"/>
<rect x="60" y="147" width="0.6" height="24" fill="rgb(0,0,0)" stroke="none" stroke-width="0.4" fill-opacity="1.0" stroke-opacity="1.0" transform="matrix(1,0,0,1,0,0)"/>
<rect x="60" y="147" width="0.6" height="24" fill="rgb(0,0,0)" stroke="none" stroke-width="0.4" fill-opacity="1.0" stroke-opacity="1.0" transform="matrix(1,0,0,1,0,0)"/>
</g>
</svg>
