<?xml version="1.0" encoding="utf-8"?>
<!DOCTYPE svg PUBLIC "-//W3C//DTD SVG 1.1//EN" "http://www.w3.org/Graphics/SVG/1.1/DTD/svg11.dtd">
<svg width="860px" height="220px" viewBox="0 0 860 220" style="background:rgb(253.98,253.98,239.7)" xmlns="http://www.w3.org/2000/svg" xmlns:xlink="http://www.w3.org/1999/xlink" version="1.1">
<g id="1" transform="matrix(1,0,0,1,0,0)">
<text x="0" y="0" font-family="Arial" font-style="normal" font-weight="normal" font-size="10" fill="rgb(0,0,0)" fill-opacity="1" transform="matrix(1,0,0,1,-78.6953125,65)" >MaxScoreIns-0</text>
<text x="0" y="0" font-family="Bravura" font-style="normal" font-weight="normal" font-size="24" fill="rgb(0,0,0)" fill-opacity="1" transform="matrix(1,0,0,1,38.620689392089844,63)" ></text>
<text x="0" y="0" font-family="Bravura" font-style="normal" font-weight="normal" font-size="24" fill="rgb(0,0,0)" fill-opacity="1" transform="matrix(1,0,0,1,38.620689392089844,51)" ></text>
<text x="0" y="0" font-family="Bravura" font-style="normal" font-weight="normal" font-size="24" fill="rgb(0,0,0)" fill-opacity="1" transform="matrix(1,0,0,1,138.62069702148438,54)" ></text>
<text x="0" y="0" font-family="Bravura" font-style="normal" font-weight="normal" font-size="24" fill="rgb(0,0,0)" fill-opacity="1" transform="matrix(1,0,0,1,238.62069702148438,66)" ></text>
<text x="0" y="0" font-family="Bravura" font-style="normal" font-weight="normal" font-size="24" fill="rgb(0,0,0)" fill-opacity="1" transform="matrix(1,0,0,1,338.6206970214844,63)" ></text>
<text x="0" y="0" font-family="Arial" font-style="normal" font-weight="normal" font-size="10" fill="rgb(0,0,0)" fill-opacity="1" transform="matrix(1,0,0,1,-78.6953125,161)" >MaxScoreIns-1</text>
<text x="0" y="0" font-family="Bravura" font-style="normal" font-weight="normal" font-size="24" fill="rgb(0,0,0)" fill-opacity="1" transform="matrix(1,0,0,1,38.620689392089844,171)" ></text>
<path d="M20,75H440.0M20,69H440.0M20,63H440.0M20,57H440.0M20,51H440.0M20,171H440.0M20,165H440.0M20,159H440.0M20,153H440.0M20,147H440.0M440,75H840.0M440,69H840.0M440,63H840.0M440,57H840.0M440,51H840.0M440,171H840.0M440,165H840.0M440,159H840.0M440,153H840.0M440,147H840.0" stroke="rgb(0,0,0)" stroke-width="0.8" fill="rgb(0,0,0)" transform="matrix(1,0,0,1,0,0)"/>
<text x="40" y="25" text-anchor="middle" font-family="Arial" font-style="normal" font-weight="normal" font-size="10" fill="rgb(0,0,0)" fill-opacity="1" transform="matrix(1,0,0,1,0,0)" >0'00"</text>
<text x="140" y="25" text-anchor="middle" font-family="Arial" font-style="normal" font-weight="normal" font-size="10" fill="rgb(0,0,0)" fill-opacity="1" transform="matrix(1,0,0,1,0,0)" >0'01"</text>
<text x="240" y="25" text-anchor="middle" font-family="Arial" font-style="normal" font-weight="normal" font-size="10" fill="rgb(0,0,0)" fill-opacity="1" transform="matrix(1,0,0,1,0,0)" >0'02"</text>
<text x="340" y="25" text-anchor="middle" font-family="Arial" font-style="normal" font-weight="normal" font-size="10" fill="rgb(0,0,0)" fill-opacity="1" transform="matrix(1,0,0,1,0,0)" >0'03"</text>
<text x="440" y="25" text-anchor="middle" font-family="Arial" font-style="normal" font-weight="normal" font-size="10" fill="rgb(0,0,0)" fill-opacity="1" transform="matrix(1,0,0,1,0,0)" >0'04"</text>
<text x="540" y="25" text-anchor="middle" font-family="Arial" font-style="normal" font-weight="normal" font-size="10" fill="rgb(0,0,0)" fill-opacity="1" transform="matrix(1,0,0,1,0,0)" >0'05"</text>
<text x="640" y="25" text-anchor="middle" font-family="Arial" font-style="normal" font-weight="normal" font-size="10" fill="rgb(0,0,0)" fill-opacity="1" transform="matrix(1,0,0,1,0,0)" >0'06"</text>
<text x="740" y="25" text-anchor="middle" font-family="Arial" font-style="normal" font-weight="normal" font-size="10" fill="rgb(0,0,0)" fill-opacity="1" transform="matrix(1,0,0,1,0,0)" >0'07"</text>
<text x="840" y="25" text-anchor="middle" font-family="Arial" font-style="normal" font-weight="normal" font-size="10" fill="rgb(0,0,0)" fill-opacity="1" transform="matrix(1,0,0,1,0,0)" >0'08"</text>
<path d="M40 0 V15 M140 0 V15 M240 0 V15 M340 0 V15 M440 0 V15 M540 0 V15 M640 0 V15 M740 0 V15 M840 0 V15 " stroke="rgb(0,0,0)" stroke-width="0.4" fill="rgb(0,0,0)" transform="matrix(1,0,0,1,0,0)"/>
<path id="sustain_0" d="M 5,3 L 88, 3 M 88,1 L 88,5" stroke="rgb(0,0,0)" stroke-width="2" stroke-opacity="1" fill="null" fill-opacity="null" transform="matrix(1,0,0,1,40.620689392089844,60)"/>
<path id="sustain_0" d="M 5,3 L 88, 3 M 88,1 L 88,5" stroke="rgb(0,0,0)" stroke-width="2" stroke-opacity="1" fill="null" fill-opacity="null" transform="matrix(1,0,0,1,40.620689392089844,48)"/>
<path id="sustain_0" d="M 5,3 L 88, 3 M 88,1 L 88,5" stroke="rgb(0,0,0)" stroke-width="2" stroke-opacity="1" fill="null" fill-opacity="null" transform="matrix(1,0,0,1,140.62069702148438,51)"/>
<path id="sustain_0" d="M 5,3 L 88, 3 M 88,1 L 88,5" stroke="rgb(0,0,0)" stroke-width="2" stroke-opacity="1" fill="null" fill-opacity="null" transform="matrix(1,0,0,1,240.62069702148438,63)"/>
<path id="sustain_0" d="M 5,3 L 88, 3 M 88,1 L 88,5" stroke="rgb(0,0,0)" stroke-width="2" stroke-opacity="1" fill="null" fill-opacity="null" transform="matrix(1,0,0,1,340.6206970214844,60)"/>
<path id="sustain_0" d="M 5,3 L 88, 3 M 88,1 L 88,5" stroke="rgb(0,0,0)" stroke-width="2" stroke-opacity="1" fill="null" fill-opacity="null" transform="matrix(1,0,0,1,40.620689392089844,168)"/>
</g>
</svg>
