<?xml version="1.0" encoding="utf-8"?>
<!-- Generator: Adobe Illustrator 22.1.0, SVG Export Plug-In . SVG Version: 6.00 Build 0)  -->
<svg version="1.0" id="Ebene_1" xmlns="http://www.w3.org/2000/svg" xmlns:xlink="http://www.w3.org/1999/xlink" x="0px" y="0px"
	 width="256px" height="256px" viewBox="0 0 256 256" enable-background="new 0 0 256 256" xml:space="preserve">
<g id="Ebene_2_2_">
</g>
<g id="Ebene_2_1_">
</g>
<g id="Ebene_2_4_">
</g>
<g id="Ebene_2_3_">
</g>
<g>
	<path d="M222.5,56.4L222.5,56.4L222.5,56.4l-61.6,20.3v13.4l0,0v65c-4.5-3.5-12.6-3.4-20.2,0.6c-9.2,4.9-14,13.8-10.8,20
		c3.3,6.1,13.4,7.1,22.6,2.2c7.1-3.8,11.6-10,11.8-15.4h0V89l54.8-18.1v64.9c-4.5-3.5-12.6-3.4-20.2,0.6c-9.2,4.9-14,13.8-10.8,20
		c3.3,6.1,13.4,7.1,22.6,2.2c7.1-3.8,11.6-10,11.7-15.4h0V56.4z"/>
</g>
<g id="Ebene_1_1_">
	<text transform="matrix(1 0 0 1 33.902 168.5308)" font-family="'Bravura'" font-size="184.2965px"></text>
</g>
</svg>
