<?xml version="1.0" encoding="utf-8"?>
<!-- Generator: Adobe Illustrator 22.1.0, SVG Export Plug-In . SVG Version: 6.00 Build 0)  -->
<svg version="1.1" id="Layer_1" xmlns="http://www.w3.org/2000/svg" xmlns:xlink="http://www.w3.org/1999/xlink" x="0px" y="0px"
	 viewBox="0 0 1024 768" style="enable-background:new 0 0 1024 768;" xml:space="preserve">
<style type="text/css">
	.st0{clip-path:url(#SVGID_2_);}
	.st1{fill:#01FE01;}
	.st2{fill:#0101FE;}
	.st3{fill:#FE0101;}
	.st4{fill:#FDFD01;}
	.st5{fill:#00FDFD;}
	.st6{fill:#FD00FD;}
</style>
<g>
	<defs>
		<rect id="SVGID_1_" width="309" height="284"/>
	</defs>
	<clipPath id="SVGID_2_">
		<use xlink:href="#SVGID_1_"  style="overflow:visible;"/>
	</clipPath>
	<g id="_x37_DP2Fp_1_" class="st0">
		<g>
			<g>
				<path class="st1" d="M154.8,256.1c-25.2,22.7-54.5,29.9-86.7,19.4C35.9,265.1,16.4,242,9.5,208.8c-8.8-42.6,18.7-87.4,60.6-99.1
					c3.1,12.7,7.7,24.7,15.5,35.3c11.2,15.3,26,25.5,43.6,32c0.1,10.6-0.9,21.4,0.6,31.8C132.2,227.4,141.8,242.8,154.8,256.1z"/>
				<path class="st2" d="M241.6,110c29.6,10.7,49.4,30.8,57.5,61.4c13.4,50.2-21.3,101.4-72.8,107.8c-27.2,3.4-50.9-4.5-71.1-23
					c2.1-2.4,4.3-4.7,6.3-7.1c17-20.9,23.6-44.6,19-71.2c0.1-0.3,0.2-0.5,0.4-0.8c1-0.2,2-0.3,2.9-0.6
					c31.4-11.6,50.6-33.7,57.7-66.4L241.6,110z"/>
				<path class="st3" d="M241.6,110c0,0-0.1,0-0.1,0c-5.9-1.2-11.7-3-17.6-3.5c-26.3-2.3-49.3,5.1-68.5,23.5c-0.2,0-0.5,0-0.7,0
					c-11.4-11.5-25.4-18.4-41-22c-14.6-3.4-29-2.1-43.3,1.2c-6.9-40.6,14.3-76.4,45.2-92.1c30.8-15.6,61.4-14.2,89.8,5.4
					c28.5,19.7,40.6,47.9,37,82.5C242,106.7,241.8,108.4,241.6,110z"/>
				<path class="st4" d="M70.3,109.2c14.4-3.4,28.8-4.6,43.3-1.2c15.7,3.7,29.6,10.5,41,22c-1.9,2.1-3.8,4.2-5.6,6.3
					c-9.9,11.8-16.9,25-19.2,40.4c-0.2,0.1-0.5,0.2-0.7,0.3c-17.6-6.5-32.4-16.7-43.6-32c-7.8-10.7-12.3-22.7-15.5-35.3
					C70,109.5,70.1,109.3,70.3,109.2z"/>
				<path class="st5" d="M129.1,177.1c0.2-0.1,0.5-0.2,0.7-0.3c1.1,0.4,2.2,0.8,3.3,1.2c15.8,4.4,31.6,3.7,47.4-0.1
					c4.6,26.7-2,50.3-19,71.2c-2,2.4-4.2,4.7-6.3,7.1c0,0-0.2,0.2-0.2,0.2s-0.2-0.2-0.2-0.2c-12.9-13.3-22.5-28.7-25.1-47.3
					C128.2,198.4,129.2,187.7,129.1,177.1z"/>
				<path class="st6" d="M155.4,130c19.2-18.4,42.3-25.8,68.5-23.5c5.9,0.5,11.7,2.3,17.6,3.5c-7.1,32.7-26.3,54.8-57.7,66.4
					c-0.9,0.3-1.9,0.4-2.9,0.6C176.8,159,168.5,143.2,155.4,130z"/>
			</g>
		</g>
	</g>
</g>
</svg>
