<?xml version="1.0" encoding="utf-8"?>
<!-- Generator: Adobe Illustrator 25.1.0, SVG Export Plug-In . SVG Version: 6.00 Build 0)  -->
<svg version="1.1" id="Layer_1" xmlns="http://www.w3.org/2000/svg" xmlns:xlink="http://www.w3.org/1999/xlink" x="0px" y="0px"
	 width="303px" height="305px" viewBox="0 0 303 305" style="enable-background:new 0 0 303 305;" xml:space="preserve">
<style type="text/css">
	.st1{fill:#236CE4;}
</style>
<g>
	<path class="st0" fill="none" d="M207.28,283.08c-1.8,0.75-3.56,1.56-5.37,2.23c-9.37,3.46-19.04,5.81-28.82,7.39
		c-0.65,1.51-0.31,2.75,0.24,4.18c1.78-0.19,3.61-0.28,5.39-0.61c105.88-19.26,155.56-142.83,92.26-229.92
		C247.6,34.18,215.89,14.86,176.73,7.8c-2.97-0.54-5.56-0.78-4.47,3.61c59.24,7.4,110.7,55.45,120.5,118.92
		c3.48,22.5,0.91,53.51-4.73,57c0.31-1.8,0.72-3.35,0.83-4.92c2.91-42.03-9.89-78.38-39.43-108.62c-6.21-6.35-8.15-6.25-13.94,0.31
		c-20.22-21.21-45.16-26.52-73.18-21.92c-21.3,3.5-40.76,11.89-59.67,21.84c-4.27,2.25-9.08,4.06-8,10.14
		c-16.53,2.14-30.41,8.49-41.69,19.87c-19.07,19.24-27.86,43.36-32.01,69.51c-1.15,7.23-1.72,14.55-2.55,21.84
		C6.9,160.84,8.02,126.75,23.29,93.97c22.3-47.88,60.64-74.86,112.75-83.04c-0.28-1.35,0.42-2.73-0.84-3.77
		C62.57,14.36-1.39,81.77,6.99,166.81c7.87,79.88,75.26,127.5,130.37,130.36c0.51-3.83,0.5-3.77-4.36-4.5
		c-43.38-6.48-76.72-28.51-100.69-65.06c-3.1-4.73-4.57-8.88-2.96-15.28c3.81-15.14,11.71-26.21,25.66-33.01
		c12.55-6.12,24.97-12.52,37.7-18.24c24.38-10.95,41.1-42.08,25.14-67.42c0.51-0.05,1-0.15,1.48-0.13c0.83,0.04,1.66,0.14,2.49,0.25
		c19.68,2.65,39.07,1.16,57.41-6.47c21.63-8.99,38.66-1.51,51.14,12.74c4.6,5.25,8.77,10.89,12.93,16.51
		c3.04,4.11,6.5,5.96,11.4,3.08c6.47,22.07,8.19,44.08,3.63,66.44c-6.81,33.41-23.33,61.28-48.16,84.42
		C204.74,275.53,204.38,277.02,207.28,283.08z"/>
	<path class="st1" d="M207.28,283.08c-2.91-6.06-2.54-7.55,2.87-12.59c24.83-23.13,41.34-51,48.16-84.42
		c4.56-22.36,2.84-44.37-3.63-66.44c-4.9,2.88-8.36,1.03-11.4-3.08c-4.16-5.62-8.33-11.26-12.93-16.51
		c-12.48-14.25-29.52-21.73-51.14-12.74c-18.34,7.63-37.73,9.12-57.41,6.47c-0.83-0.11-1.65-0.21-2.49-0.25
		c-0.48-0.02-0.97,0.08-1.48,0.13c15.96,25.34-0.75,56.48-25.14,67.42c-12.73,5.71-25.15,12.12-37.7,18.24
		c-13.95,6.81-21.85,17.87-25.66,33.01c-1.61,6.4-0.14,10.56,2.96,15.28c23.97,36.55,57.31,58.58,100.69,65.06
		c4.86,0.73,4.87,0.67,4.36,4.5C82.23,294.3,14.84,246.68,6.97,166.8C-1.41,81.76,62.55,14.35,135.18,7.15
		c1.27,1.04,0.56,2.42,0.84,3.77C83.92,19.1,45.57,46.09,23.27,93.96C8,126.75,6.88,160.83,18.37,195.37
		c0.83-7.28,1.4-14.6,2.55-21.84c4.15-26.15,12.94-50.27,32.01-69.51c11.28-11.38,25.16-17.73,41.69-19.87
		c-1.07-6.08,3.73-7.89,8-10.14c18.91-9.95,38.36-18.34,59.67-21.84c28.02-4.61,52.96,0.71,73.18,21.92
		c5.79-6.56,7.74-6.67,13.94-0.31c29.54,30.24,42.35,66.59,39.43,108.62c-0.11,1.57-0.52,3.12-0.83,4.92
		c5.64-3.48,8.21-34.5,4.73-57c-9.8-63.47-61.25-111.51-120.5-118.92c-1.09-4.39,1.5-4.14,4.47-3.61
		c39.16,7.06,70.87,26.38,94.25,58.55c63.3,87.09,13.61,210.66-92.26,229.92c-1.78,0.32-3.61,0.41-5.39,0.61
		c-0.55-1.43-0.89-2.68-0.24-4.18c9.78-1.58,19.45-3.93,28.82-7.39C203.72,284.65,205.49,283.83,207.28,283.08z M209.27,278.1
		c0.38,0.43,0.77,0.87,1.15,1.3c1.17-0.23,2.42-0.25,3.49-0.71c26.74-11.64,48.13-29.63,60.3-56.28
		c20.63-45.15,12.84-106.6-29.6-147.1c-0.79-0.75-1.55-1.84-3.08-1.2c-0.19,0.34-0.68,0.83-0.6,1.17c1.7,6.82,6.51,12.22,8.76,18.76
		c-4.25,2.01-6.02-0.49-7.93-3.58C224.8,62.93,198.37,51.13,166.44,56c-21.36,3.26-40.95,11.18-59.93,21.01
		c-4.56,2.36-10.1,3.98-6.45,11.26c-1.99,0.17-3.13,0.26-4.28,0.38c-1.32,0.13-2.66,0.23-3.97,0.45
		c-21.47,3.58-37.04,15.68-48.29,33.81c-15.91,25.65-20.51,54.12-20.51,83.69c0,1.62,0.77,3.25,1.34,5.48
		c0.7-1.12,1.08-1.49,1.17-1.92c3.45-16.28,12.91-27.77,27.78-34.98c13.01-6.31,26.09-12.48,39.01-18.98
		c13.12-6.6,22.32-16.77,25.94-31.24c2.95-11.8,2.01-22.85-7.98-31.5c-1.55-1.34-2.47-3.05-2.38-5.49c0.83-0.08,1.61-0.26,2.37-0.21
		c1.49,0.1,2.98,0.23,4.44,0.51c22.12,4.16,43.75,2.7,64.74-5.72c19.2-7.7,35.81-3.26,50.46,10.56
		c6.09,5.75,10.89,12.57,15.86,19.25c1.21,1.62,2.05,3.83,4.62,4.1c1.21-2.46,0.76-4.7-0.09-6.88c-1.29-3.3,0.96-3.87,4.19-4.93
		C278.96,172.9,259.9,229.47,209.27,278.1z"/>
	<path class="st2" fill="none" d="M209.27,278.1c50.63-48.63,69.68-105.2,45.22-173.46c-3.24,1.06-5.48,1.62-4.19,4.93
		c0.85,2.18,1.3,4.42,0.09,6.88c-2.57-0.26-3.42-2.48-4.62-4.1c-4.98-6.68-9.77-13.51-15.86-19.25
		c-14.65-13.82-31.26-18.26-50.46-10.56c-20.99,8.41-42.62,9.88-64.74,5.72c-1.46-0.27-2.96-0.41-4.44-0.51
		c-0.76-0.05-1.54,0.13-2.37,0.21c-0.08,2.44,0.84,4.15,2.38,5.49c9.99,8.65,10.93,19.7,7.98,31.5
		c-3.62,14.48-12.82,24.64-25.94,31.24c-12.92,6.5-26,12.67-39.01,18.98c-14.87,7.21-24.33,18.7-27.78,34.98
		c-0.09,0.43-0.48,0.8-1.17,1.92c-0.57-2.24-1.34-3.86-1.34-5.48c0-29.56,4.6-58.04,20.51-83.69
		c11.25-18.13,26.81-30.23,48.29-33.81c1.31-0.22,2.64-0.31,3.97-0.45c1.14-0.12,2.29-0.2,4.28-0.38c-3.65-7.29,1.89-8.9,6.45-11.26
		c18.99-9.84,38.57-17.75,59.93-21.01c31.93-4.87,58.36,6.93,75.32,34.46c1.91,3.1,3.68,5.6,7.93,3.58
		c-2.26-6.54-7.07-11.95-8.76-18.76c-0.08-0.34,0.41-0.82,0.6-1.17c1.53-0.64,2.29,0.45,3.08,1.2
		c42.44,40.51,50.24,101.96,29.6,147.1c-12.17,26.64-33.56,44.64-60.3,56.28c-1.06,0.46-2.32,0.48-3.49,0.71
		C210.04,278.96,209.65,278.53,209.27,278.1z"/>
</g>
</svg>
