<?xml version="1.0" encoding="utf-8"?>
<!-- Generator: Adobe Illustrator 25.1.0, SVG Export Plug-In . SVG Version: 6.00 Build 0)  -->
<svg version="1.1" id="Layer_1" xmlns="http://www.w3.org/2000/svg" xmlns:xlink="http://www.w3.org/1999/xlink" x="0px" y="0px"
	 width="299.04px" height="299.86px" viewBox="0 0 299.04 299.86" style="enable-background:new 0 0 299.04 299.86;"
	 xml:space="preserve">
<style type="text/css">
	.st1{fill:#236CE4;}
	.st2{fill:#FBFCFE;}
</style>
<g>
	<path class="st0" fill="none" d="M-49.03-436.2c131.33,0,262.67,0,394,0 M285.86,190.13c3.36-43.24-8.01-82.56-39.33-113.97
		c-6.22-6.38-7.9-6.31-13.98,0.07c-38.1-40.17-95.69-20.8-136.99,2.38c-3.19,1.75-3.93,4.64-3.9,7.75
		C38.1,92.94,18,150.67,15.44,197.69C-15.35,118.6,45,23.99,129.21,14.07c2.98-0.47,4.89-0.96,3.02-4.89
		c-168.15,20.66-170.85,266.69-2.15,290.41c2.63,0.37,5.74,1.11,4.55-3.73c-44.05-5.97-79.38-26.98-104.08-64.1
		c-12.11-15.28,2.28-38.59,16.63-47.37c16.17-9.6,34.16-15.85,50.26-25.51c20.7-13.16,31.49-41.32,16.99-63.07
		c60.27,12.08,82.93-41.99,126.06,23.18c2.96,3.99,6.34,5.84,11.18,2.85c17.28,54.79-2.74,112.35-44,150.48
		c-3.94,3.76-7.57,7.32-3.19,13.01c-11.33,4.94-22.76,7.74-34.34,9.69c-0.59,1.53-0.41,2.76,0.43,4.2
		c162.92-19.58,163.86-265.47,3.29-289.09c-2.91-0.53-5.55-0.85-4.49,3.69C252.26,20.29,312.77,124.55,285.86,190.13z"/>
	<path class="st1" d="M285.86,190.13c26.9-65.69-33.6-169.81-116.49-176.31c-1.06-4.54,1.58-4.22,4.49-3.69
		c160.59,23.63,159.6,269.53-3.29,289.09c-0.85-1.44-1.02-2.67-0.43-4.2c11.58-1.95,23.01-4.75,34.34-9.69
		c-4.38-5.69-0.76-9.25,3.19-13.01c41.25-38.12,61.29-95.71,44-150.48c-4.84,2.99-8.22,1.14-11.18-2.85
		c-43.12-65.16-65.83-11.1-126.06-23.18c14.5,21.76,3.71,49.9-16.99,63.07c-16.1,9.67-34.09,15.91-50.26,25.52
		c-14.37,8.77-28.73,32.09-16.63,47.37c24.71,37.12,60.03,58.14,104.09,64.1c1.19,4.84-1.92,4.09-4.55,3.73
		C-38.68,275.85-35.84,29.79,132.23,9.18c1.87,3.94-0.04,4.42-3.02,4.89C45,23.99-15.35,118.6,15.44,197.69
		c2.55-47.01,22.67-104.76,76.21-111.33c-0.03-3.11,0.71-6,3.9-7.75c41.29-23.18,98.91-42.55,136.99-2.38
		c6.08-6.37,7.76-6.45,13.99-0.07C277.84,107.57,289.22,146.9,285.86,190.13z M206.51,280.16c2.05,2.06,3.23,1.41,4.48,0.86
		c26.56-11.63,47.44-29.67,60.18-55.89c22.23-45.41,9.77-121.03-33.33-148.31c1.12,7.2,6.82,12.67,8.76,19.67
		c-5.01,0.64-5.01,0.64-7.72-3.71c-17.18-27.63-43.25-39.34-75.35-34.52c-9.44,0.68-76.68,19.52-66.37,32.04
		c-58.1,3.15-83.62,75.04-74.98,124.2c7.22-50.78,77.11-39.49,92.1-83.85c4.23-13,4.02-25.29-7.25-35.23
		c-1.37-1.21-2.26-2.83-1.97-4.91c2.33-0.94,4.57-0.36,6.83,0.06c49.64,13.7,79.14-30.03,115.2,4.98
		c6.08,5.77,10.84,12.62,15.85,19.27c1.17,1.56,1.88,4.07,4.15,3.75c3.87-3.26-4.23-9.28,4.47-11.59
		C275.94,175.08,257.03,231.7,206.51,280.16z"/>
	<path class="st2" d="M206.51,280.16c50.52-48.46,69.42-105.08,45.06-173.18c-8.7,2.31-0.6,8.34-4.47,11.59
		c-2.27,0.32-2.97-2.2-4.15-3.75c-5.01-6.65-9.77-13.5-15.85-19.27c-35.94-34.99-65.73,8.71-115.2-4.98c-2.26-0.42-4.51-1-6.83-0.06
		c-0.29,2.08,0.6,3.7,1.97,4.91c11.27,9.94,11.48,22.23,7.25,35.23c-14.98,44.37-84.88,33.08-92.1,83.86
		c-8.65-49.15,16.88-121.05,74.98-124.2c-10.33-12.54,56.97-31.36,66.37-32.04c32.09-4.82,58.17,6.89,75.35,34.52
		c2.7,4.35,2.71,4.35,7.72,3.71c-1.94-7.01-7.64-12.48-8.76-19.67c43.11,27.3,55.55,102.89,33.33,148.31
		c-12.74,26.22-33.62,44.26-60.18,55.89C209.74,281.57,208.56,282.23,206.51,280.16z"/>
</g>
</svg>
