<?xml version="1.0" encoding="utf-8"?>
<!-- Generator: Adobe Illustrator 22.1.0, SVG Export Plug-In . SVG Version: 6.00 Build 0)  -->
<svg version="1.1" id="Ebene_1" xmlns="http://www.w3.org/2000/svg" xmlns:xlink="http://www.w3.org/1999/xlink" x="0px" y="0px"
	 width="256px" height="256px" viewBox="0 0 256 256" enable-background="new 0 0 256 256" xml:space="preserve">
<g id="Ebene_2_1_">
</g>
<line fill="none" stroke="#000000" stroke-width="7" x1="13.6" y1="199.3" x2="242.4" y2="199.3"/>
<line fill="none" stroke="#000000" stroke-width="7" x1="13.6" y1="168.5" x2="242.4" y2="168.5"/>
<line fill="none" stroke="#000000" stroke-width="7" x1="13.6" y1="137.7" x2="242.4" y2="137.7"/>
<line fill="none" stroke="#000000" stroke-width="7" x1="13.6" y1="106.9" x2="242.4" y2="106.9"/>
<line fill="none" stroke="#000000" stroke-width="7" x1="13.6" y1="76.1" x2="242.4" y2="76.1"/>
<line fill="none" stroke="#000000" stroke-width="7" x1="68.6" y1="46.5" x2="187.4" y2="46.5"/>
<text transform="matrix(1 0 0 1 68.6445 172.126)" font-family="'ArialMT'" font-size="50.8513px"> </text>
<line fill="none" stroke="#000000" stroke-width="7" x1="43.6" y1="76.7" x2="43.6" y2="199.5"/>
<line fill="none" stroke="#000000" stroke-width="7" x1="212.6" y1="76.7" x2="212.6" y2="199.5"/>
<line fill="none" stroke="#000000" stroke-width="7" x1="43.6" y1="26.4" x2="43.6" y2="66.4"/>
<line fill="none" stroke="#000000" stroke-width="7" x1="212.6" y1="22.5" x2="212.6" y2="62.5"/>
<text transform="matrix(1 0 0 1 172.6289 62.4683)" font-family="'Bravura'" font-size="144px"></text>
<text transform="matrix(1 0 0 1 41.64 62.4682)" font-family="'Bravura'" font-size="144px"></text>
</svg>
