<?xml version="1.0" encoding="utf-8"?>
<!-- Generator: Adobe Illustrator 22.1.0, SVG Export Plug-In . SVG Version: 6.00 Build 0)  -->
<svg version="1.1" id="Ebene_1" xmlns="http://www.w3.org/2000/svg" xmlns:xlink="http://www.w3.org/1999/xlink" x="0px" y="0px"
	 width="256px" height="256px" viewBox="0 0 256 256" style="enable-background:new 0 0 256 256;" xml:space="preserve">
<g id="Ebene_2_1_">
</g>
<g>
	<g>
		<path d="M128.7,68.6c18.3,0.3,36.2,2.2,53.5,8.5c8.2,3,15.9,7,20.6,14.8c0.5,0.7,0.5,1.7,0.7,2.6c-0.9-0.1-2.1,0.1-2.7-0.4
			c-8.3-7.9-19.2-9.7-29.7-11.7c-32.3-6.1-64.5-5.9-96.4,2.7c-6.2,1.7-11.7,5.8-17.6,8.7c-0.8,0.4-1.7,0.6-2.6,0.9
			c0.1-0.9-0.2-2.1,0.3-2.6c3.8-3.8,7.3-8.3,11.8-11C79,73.9,92.8,71.5,106.8,70C114,69.2,121.4,69,128.7,68.6z"/>
	</g>
</g>
</svg>
