<?xml version="1.0" encoding="utf-8"?>
<!-- Generator: Adobe Illustrator 22.1.0, SVG Export Plug-In . SVG Version: 6.00 Build 0)  -->
<svg version="1.1" id="Layer_1" xmlns:xl="http://www.w3.org/1999/xlink"
	 xmlns="http://www.w3.org/2000/svg" xmlns:xlink="http://www.w3.org/1999/xlink" x="0px" y="0px" width="147px" height="146px"
	 viewBox="0 0 147 146" style="enable-background:new 0 0 147 146;" xml:space="preserve">
<style type="text/css">
	.st0{fill:#3B3B3B;}
	.st1{fill:#FFFFFF;}
</style>
<g>
	<title>Canvas 1</title>
	<g>
		<title>Layer 1</title>
		<path class="st0" d="M73.4,1h52c11,0,20,9,20,20v104c0,11-9,20-20,20h-104c-11,0-20-9-20-20V21c0-11,9-20,20-20H73.4z"/>
	</g>
</g>
<g>
	<path class="st1" d="M135.9,72.5c-0.7,3.1-1.2,6.2-2.2,9.1c-2.1,6.5-6,11.8-11.4,16c-5.3,4.1-11.2,6.4-17.9,6.7
		c-3.9,0.2-5.5-1.3-5.5-5.2c0-2.6,0-5.1,0.1-7.7c0.1-2.7,1.5-3.9,4.1-4.2c1.5-0.2,3-0.4,4.4-0.7c6.6-1.6,11.6-9,11.6-14.9
		c0-4.7,0.5-9.5-0.2-14.1c-1.2-7.9-7.4-14.2-17-14.2c-19.1,0-38.2-0.1-57.3,0.1c-2.7,0-5.5,0.6-7.9,1.7c-5.2,2.4-8.5,6.8-9.1,12.4
		c-0.6,5.4-0.5,11,0.2,16.4c0.8,6.7,6.7,12.8,14.1,13.3c2.8,0.2,5.7,0,8.8,0c0-0.7,0-1.4,0-2.1c0-8.6,0-17.3,0-25.9
		c0-0.6-0.1-1.3,0.1-1.8c0.3-0.7,0.8-1.7,1.4-1.8c0.7-0.1,1.6,0.5,2.3,0.9c0.3,0.2,0.5,0.7,0.8,1c4.3,4.4,8.6,8.9,12.9,13.3
		c6.3,6.5,12.6,13.1,18.9,19.7c1.2,1.2,2.3,2.5,3.5,3.8c0.9,1.1,0.9,2.1,0,3.2c-1.5,1.6-2.9,3.3-4.5,4.8c-4.6,4.7-9.2,9.4-13.8,14.2
		c-5.6,5.8-11.1,11.6-16.7,17.4c-0.5,0.5-0.8,1.2-1.3,1.6c-0.6,0.4-1.5,0.8-2,0.6c-0.6-0.2-1.1-1.1-1.4-1.8
		c-0.2-0.6-0.1-1.3-0.1-1.9c0-8.5,0-16.9,0-25.4c0-0.7,0-1.4,0-2.4c-1.5,0-2.8,0-4,0c-5.9,0.2-11.7-0.4-17-3.3
		c-10.5-5.7-17.1-14.6-18.5-26.5c-0.9-7.9-1.2-15.9,1-23.6c2.4-8.4,7.3-15,14.7-19.9c4.1-2.7,8.5-4.1,13.2-4.8c0.3,0,0.7-0.2,1-0.3
		c21.5,0,43,0,64.4,0c0.4,0.1,0.8,0.3,1.2,0.3c4.6,0.7,8.9,2,12.9,4.7c4.8,3.2,8.7,7,11.5,11.9c0.9,1.6,1.8,3.3,2.4,5.1
		c1,3.2,1.7,6.5,2.5,9.8C135.9,62.8,135.9,67.7,135.9,72.5z"/>
</g>
</svg>
