<?xml version="1.0" encoding="UTF-8" standalone="no"?>
<!-- Generator: Adobe Illustrator 12.0.1, SVG Export Plug-In  -->
<svg
   xmlns:dc="http://purl.org/dc/elements/1.1/"
   xmlns:cc="http://web.resource.org/cc/"
   xmlns:rdf="http://www.w3.org/1999/02/22-rdf-syntax-ns#"
   xmlns:svg="http://www.w3.org/2000/svg"
   xmlns="http://www.w3.org/2000/svg"
   xmlns:sodipodi="http://sodipodi.sourceforge.net/DTD/sodipodi-0.dtd"
   xmlns:inkscape="http://www.inkscape.org/namespaces/inkscape"
   version="1.1"
   width="427"
   height="427"
   viewBox="-0.5 -0.303 427 427"
   enable-background="new -0.5 -0.303 427 427"
   xml:space="preserve"
   id="svg2"
   sodipodi:version="0.32"
   inkscape:version="0.44"
   sodipodi:docname="trans.svg"
   sodipodi:docbase="C:\Documents and Settings\yamida\デスクトップ"><metadata
   id="metadata13"><rdf:RDF><cc:Work
       rdf:about=""><dc:format>image/svg+xml</dc:format><dc:type
         rdf:resource="http://purl.org/dc/dcmitype/StillImage" /></cc:Work></rdf:RDF></metadata><sodipodi:namedview
   inkscape:window-height="572"
   inkscape:window-width="755"
   inkscape:pageshadow="2"
   inkscape:pageopacity="0.0"
   guidetolerance="10.0"
   gridtolerance="10.0"
   objecttolerance="10.0"
   borderopacity="1.0"
   bordercolor="#666666"
   pagecolor="#ffffff"
   id="base"
   inkscape:zoom="1.7704918"
   inkscape:cx="191.94009"
   inkscape:cy="213.99261"
   inkscape:window-x="234"
   inkscape:window-y="60"
   inkscape:current-layer="svg2" />
<defs
   id="defs4">
</defs>

<g
   id="g8">
	<path
   d="M 129.9,189.5 C 103.9,189.5 88.7,205.42 63.5,238.06 L 33.1,217.1 C 47.9,195.5 57.9,182.62 75.5,169.18 C 91.427778,157.15296 111.9,145.02 135.101,145.02 C 172.276,145.02 192.278,161.973 223.101,185.82 C 253.501,209.34 274.702,219.421 293.901,219.421 C 302.301,219.421 317.28256,215.01581 327.102,207.101 C 340.22141,197.96521 349.502,185.981 363.502,163.42 L 394.302,187.26 C 377.902,212.22 367.102,224.3 353.902,235.82 C 333.502,254.06 314.702,264.381 288.702,264.381 C 218.652,264.38 187.714,189.5 129.9,189.5 z "
   id="path10"
   sodipodi:nodetypes="ccccssscccccc" />
</g>
</svg>