<?xml version="1.0" standalone="no"?>
<!DOCTYPE svg PUBLIC "-//W3C//DTD SVG 1.1//EN" "http://www.w3.org/Graphics/SVG/1.1/DTD/svg11.dtd" >
<svg xmlns="http://www.w3.org/2000/svg" xmlns:xlink="http://www.w3.org/1999/xlink" version="1.1">
<metadata>
Created by FontForge 20190801 at Sat Jan  2 11:21:11 2010
 By root
Copyright (c) 2009 by Peter Wiegel.   Open Font under Terms of following Free Software Licenses:
GPL (General Public License) with font-exception and OFL (Open Font License
</metadata>
<defs>
<font id="Greifswaler-Deutsche-Schrift" horiz-adv-x="237" >
  <font-face 
    font-family="Greifswaler Deutsche Schrift"
    font-weight="400"
    font-stretch="normal"
    units-per-em="2048"
    panose-1="2 11 6 3 5 3 2 2 2 4"
    ascent="1638"
    descent="-410"
    x-height="813"
    cap-height="1315"
    bbox="-1123 -581 2000 1725"
    underline-thickness="0"
    underline-position="0"
    unicode-range="U+0020-20AC"
  />
<missing-glyph horiz-adv-x="639" 
 />
    <glyph glyph-name=".notdef" horiz-adv-x="639" 
 />
    <glyph glyph-name="NULL" horiz-adv-x="0" 
 />
    <glyph glyph-name="nonmarkingreturn" horiz-adv-x="2048" 
 />
    <glyph glyph-name="space" unicode=" " horiz-adv-x="735" 
 />
    <glyph glyph-name="one" unicode="1" horiz-adv-x="437" 
d="M-5 388l366 366l81 63l-206 -765l-146 -141l198 741l-278 -279z" />
    <glyph glyph-name="a" unicode="a" horiz-adv-x="1071" 
d="M9 370l-14 14l373 374l78 59q-54 -97 -105.5 -213.5t-78.5 -222.5q-29 -119 -20 -190q12 -84 73 -105q21 -9 51 -9q89 -9 145 75.5t78 175t32 159.5q1 8 3 22q-98 -58 -160 -54q-59 1 -82 49q-20 44 5 97q44 90 117.5 156.5t167.5 66.5q73 0 94 -73q11 -41 5 -94
q57 36 122 101l81 63l-194 -723l286 286l14 -14l-372 -372l-81 -64l195 727q-37 -34 -57 -50q-14 -66 -39 -132q-75 -200 -217.5 -374t-286.5 -174q-30 0 -53 9q-62 23 -74 106q-9 72 20 194q25 96 70 201.5t95 198.5zM608 601h12q0 1 -0.5 2.5t-0.5 2.5q-19 71 -91 71
q-7 -1 -6 -10q2 -5 3.5 -9.5t2.5 -8.5q22 -46 80 -48z" />
    <glyph glyph-name="b" unicode="b" horiz-adv-x="773" 
d="M781 371q-92 -82 -138 -124q-27 -96 -119 -204.5t-231 -108.5q-13 0 -31 4q-54 16 -81 80q-23 60 -22 157q1 82 17.5 178.5t41.5 191.5l12 45l-221 -220l-14 14l246 246l27 102q23 84 52 165t67 147q75 124 158 200.5t175 76.5q25 0 41 -9q22 -12 25 -41q2 -30 -16 -71
q-48 -116 -232 -301l-159 -159l-14 -53q-25 -95 -41.5 -191t-23.5 -176q-12 -128 11 -188q26 -65 79 -79q20 -4 30 -4q81 12 101.5 58.5t33.5 100.5q-47 -10 -67.5 -8.5t-38.5 13.5q-27 16 -41 52q-23 59 -15 153q8 88 52 182q48 96 106 160t115 64q40 0 51 -98
q8 -58 3 -134q-4 -79 -21 -157q-27 -81 -39 -129q20 5 107 79zM552 306l13 79q27 226 -6 291q-23 -48 -51 -186t44 -184zM415 874l-25 -94l130 131q72 71 105 150q16 40 13 65q-1 27 -23 40q-15 9 -44 10q-21 -1 -31.5 -1t-28.5 -30.5t-46 -109.5t-50 -161z" />
    <glyph glyph-name="c" unicode="c" horiz-adv-x="547" 
d="M-5 384l397 400l80 63l-184 -720l254 257l14 -14l-359 -368l-89 -72l185 723l-284 -283z" />
    <glyph glyph-name="d" unicode="d" horiz-adv-x="730" 
d="M-51 -70l130 510l-70 -70l-14 14l176 175l77 64l-122 -514q88 70 156.5 146t109.5 141q-36 71 -54 192l-5 45q-4 36 -4 84q0 188 40 306t114 199.5t171 94.5q26 0 45 -12q51 -32 54 -137q4 -107 -43 -255q-64 -206 -202 -425q3 -4 4.5 -8t3.5 -7q37 -64 83 -88
q43 -25 72.5 -23t53.5 22l14 -14q-74 -69 -139 -87q-60 -14 -112 5q-38 15 -68 60q-33 -45 -81 -95.5t-103.5 -100.5t-113.5 -97t-110 -84zM486 530q60 127 90 238q46 149 47.5 264.5t-38.5 152t-74 22.5q-77 -198 -71 -389q0 -68 8 -122q12 -80 38 -166z" />
    <glyph glyph-name="e" unicode="e" horiz-adv-x="805" 
d="M98 -70l194 722l-283 -282l-14 14l396 397l81 63l-200 -746zM731 844l-194 -723l263 263l14 -14l-376 -376l-81 -64l200 746z" />
    <glyph glyph-name="f" unicode="f" horiz-adv-x="496" 
d="M-84 -568l173 649q-86 -10 -152 64l146 146q24 -28 51 -43l90 338l-215 -216l-14 14l240 242l27 102q22 84 51.5 165t68.5 147q74 124 156.5 200.5t175.5 76.5q24 0 41 -9q21 -12 25 -41q2 -28 -16 -71q-49 -116 -232 -301l-159 -159l-136 -508q12 1 20 4q107 25 234 152
l14 -14q-175 -176 -296 -246l-146 -550zM409 870l-25 -94l131 131q69 70 104 150q15 40 14 66q-4 27 -24 39q-15 9 -39 9h-47q-36 -61 -64 -140t-50 -161z" />
    <glyph glyph-name="g" unicode="g" horiz-adv-x="1016" 
d="M1025 370l-248 -250l-27 -102q-24 -83 -53 -164t-67 -146q-75 -125 -157.5 -201.5t-174.5 -76.5q-25 0 -41 9q-24 13 -25 41q-3 28 16 71q47 115 232 301l159 159l173 646q-13 -12 -25.5 -23t-24.5 -21q-12 -63 -40 -138q-76 -200 -218.5 -374t-285.5 -174q-31 0 -53 9
q-63 23 -74 106q-10 74 21 194q24 96 68.5 201.5t95.5 198.5l-267 -266l-14 14l369 370l78 59q-55 -97 -106 -213.5t-78 -222.5q-30 -119 -20 -190q11 -82 73 -105q20 -8 51 -8q69 -11 137 73.5t87 187.5q20 79 31 148q2 18 3 26q-99 -60 -163 -58q-61 1 -81 48q-21 43 5 97
q43 90 117 157t170 67q72 0 94 -73q9 -36 5 -90q61 40 116 97l81 63l-176 -657l223 224zM497 -160q-71 -72 -104 -150q-16 -35 -14 -65q3 -28 24 -40q16 -8 39 -8h36h11q36 61 63.5 139.5t50.5 161.5l25 94zM601 597q10 0 15 1l-0.5 1.5t-0.5 2.5q-20 71 -91 71
q-16 0 -2 -29q20 -45 79 -47z" />
    <glyph glyph-name="h" unicode="h" horiz-adv-x="877" 
d="M886 370l-251 -250l-27 -102q-23 -85 -52 -164.5t-67 -145.5q-37 -62 -76.5 -113t-81 -87.5t-85 -57t-89.5 -20.5q-32 0 -49.5 14t-17.5 41q0 59 62.5 151.5t185.5 215.5l127 123l164 609l-453 -541l-127 -113l176 656l-216 -216l-14 14l241 242l27 102q23 85 52.5 165.5
t67.5 146.5q36 61 75 112t80.5 87.5t85.5 57t91 20.5q27 0 46.5 -13t19.5 -42q-1 -57 -64 -151.5t-184 -215.5l-128 -126l-163 -610l453 545l127 113l-176 -657l226 224zM356 -160q-24 -24 -46 -51.5t-38 -55t-25.5 -53.5t-9.5 -47q0 -26 14 -54t96 -2q17 17 39.5 77.5
t42.5 187.5l26 94zM416 809l82 93q57 52 96.5 110t39.5 106q0 27 -8 53.5t-71 32.5q-36 -61 -64 -140t-50 -161z" />
    <glyph glyph-name="i" unicode="i" horiz-adv-x="546" 
d="M9 370l-14 14l396 393l80 63l-184 -720l255 264l14 -14l-355 -364l-89 -72l185 723zM484 1049q49 4 97 39q25 18 81 76l22 -7q-66 -66 -118 -115t-99 -84q-71 -52 -127 -56z" />
    <glyph glyph-name="j" unicode="j" horiz-adv-x="497" 
d="M433 1049q48 4 98 39q19 14 81 76l22 -7q-137 -138 -217 -199q-73 -52 -128 -56zM506 370l-212 -213l-27 -102q-23 -83 -52 -164t-67 -146q-111 -162 -194 -238.5t-174 -76.5q-26 0 -42 9q-22 12 -25 41q-2 30 16 71q47 115 232 301l159 159l172 641l-283 -282l-14 14
l369 370l117 100l-176 -657l187 187zM-21 -160q-72 -71 -105 -150q-16 -39 -13 -65q1 -27 23 -40q16 -8 40 -8h35.5h10.5q36 61 64 139.5t50 161.5l25 94z" />
    <glyph glyph-name="k" unicode="k" horiz-adv-x="560" 
d="M48 -70l42 155q-50 13 -90 60l145 147l88 327q-43 -55 -99 -117t-125 -132l-14 14q60 61 105 118t80 114t61.5 117t49.5 127t44.5 144t45.5 169l147 142l-73 -275q109 129 207.5 203t178.5 74q51 0 51 -64q0 -41 -24 -108.5t-66.5 -150t-102 -175t-130 -184.5
t-150 -177.5t-162.5 -154.5l-19 -72q10 -3 19.5 -4t19.5 -1q60 0 130.5 40.5t147.5 117.5l14 -14q-236 -236 -369 -279l-5 -20zM427 937l-152 -566q55 43 108 100t101.5 120.5t91 129t75 126t55 112t30.5 87.5q9 36 9 63q0 62 -48 62q-85 0 -144 -53q-28 -25 -126 -181z" />
    <glyph glyph-name="l" unicode="l" horiz-adv-x="665" 
d="M307 398q-20 -87 -36 -175t2.5 -121t48 -17t100.5 70.5t136.5 123.5t101.5 105l15 -14q-114 -117 -234 -270.5t-232 -168.5q-10 0 -19 3q-38 11 -60 60q-21 43 -21 110q0 48 12 93l104 389l-216 -216l-14 14l241 242l27 102q23 85 52.5 165.5t67.5 146.5q36 61 75 112
t80.5 87.5t85.5 57t91 20.5q27 0 46.5 -13t19.5 -42q-1 -57 -64 -151.5t-184 -215.5l-128 -126zM416 809l82 93q57 52 96.5 110t39.5 106q0 27 -8 53.5t-71 32.5q-36 -61 -64 -140t-50 -161z" />
    <glyph glyph-name="m" unicode="m" horiz-adv-x="1400" 
d="M-5 384l396 397l80 63l-185 -691l485 578l127 113l-185 -691l484 578l127 113l-194 -723l264 263l15 -14l-377 -376l-81 -64l185 690l-484 -577l-127 -113l185 690l-484 -577l-127 -113l193 722l-282 -282z" />
    <glyph glyph-name="n" unicode="n" horiz-adv-x="971" 
d="M-5 384l393 398l81 63l-185 -691l484 578l127 113l-194 -723l265 262l15 -14l-377 -376l-81 -64l185 690l-484 -577l-127 -113l194 722l-281 -282z" />
    <glyph glyph-name="o" unicode="o" horiz-adv-x="835" 
d="M-5 384l370 370l78 59q-49 -88 -94.5 -191.5t-69.5 -201.5q-31 -124 -26 -260.5t131 -156.5t186 194q-56 -11 -76 0q-25 15 -41 52q-23 60 -15 153q9 90 53 182q48 97 105.5 160.5t114.5 63.5q35 0 44 -74q8 -49 1 -122q-6 -77 -25 -151q-16 -72 -39 -133q8 2 28.5 1
t109.5 55l15 -14q-133 -93 -190 -137q-47 -110 -126 -197.5t-218 -108.5q-50 0 -89 14q-83 32 -104 125q-17 80 14 212q22 88 61 181t84 177l-267 -266zM596 364q10 67 13 104l-1 121q-3 24 -8 36q-12 -48 -32.5 -131.5t28.5 -129.5z" />
    <glyph glyph-name="p" unicode="p" horiz-adv-x="768" 
d="M778 370q-91 -89 -131.5 -129.5t-82.5 -79.5q-96 -90 -183.5 -147.5t-168.5 -62.5l-101 -377l-146 -142l144 539q-52 24 -99 74l146 146q3 0 6 -0.5t6 -0.5l48 179l-3 -2q3 10 11 32l68 253l-282 -282l-15 14l369 370l81 63l-43 -161q26 26 58 55q126 109 252 109
q89 0 115 -63q20 -52 -3 -125q-23 -75 -83 -164q-81 -114 -193.5 -216.5t-239.5 -159.5q74 -18 145 21.5t146 109.5q23 21 51.5 50t112.5 111zM275 184q117 6 202.5 55t129.5 110q49 69 71 142q22 74 2 121q-25 61 -112 61q-112 0 -177 -55z" />
    <glyph glyph-name="q" unicode="q" horiz-adv-x="1076" 
d="M-5 384l369 370l79 59q-56 -97 -107 -213.5t-78 -222.5q-30 -119 -20 -190q12 -83 73 -105q20 -8 51 -8q72 -14 140 72t86 177t29 160q2 18 3 26q-97 -59 -161 -57q-61 2 -82 49q-21 42 5 96q43 90 117 156.5t169 66.5q72 0 94 -73q10 -38 6 -90q65 44 123 103l81 64
l-190 -718q45 50 97 98.5t106 99.5q21 20 42.5 39.5t42.5 40.5l15 -14q-42 -43 -75.5 -74t-65.5 -61q-69 -63 -128 -134.5t-89 -202.5l-1 -1l-85 -323l-147 -142l327 1232q-24 -22 -60 -52q-10 -62 -39 -137q-76 -200 -218.5 -374t-285.5 -174q-31 0 -52 9q-62 22 -75 106
q-10 74 21 194q24 96 68.5 201.5t95.5 198.5l-266 -266zM616 600q-1 0 -1 2q-20 71 -91 71q-13 0 0 -27q20 -45 79 -47q8 0 13 1z" />
    <glyph glyph-name="r" unicode="r" horiz-adv-x="973" 
d="M-5 384l383 379l81 63l-221 -815q97 46 282 52q-114 103 -129.5 188.5t9.5 179.5t111 249l145 138q7 -219 67 -347q34 -75 81 -103q48 -31 110 -10q37 9 54 26l15 -14q-98 -104 -166.5 -119.5t-132.5 11t-111 107t-48 267.5q-73 -157 -47 -264.5t94.5 -173t142.5 -125.5
v0v0v0l-146 -145q-84 59 -230 59q-147 0 -230 -55l-11 -2l194 722l-282 -282z" />
    <glyph glyph-name="s" unicode="s" horiz-adv-x="496" 
d="M-84 -568l88 327q2 16 9 35l221 825q-91 -116 -224 -249l-15 14q156 159 233 316q45 93 79 204.5t76 268.5l168 162l-323 -1207q45 50 96 98t83 78q43 38 84 80l15 -14q-41 -43 -63.5 -64t-54.5 -51q-62 -57 -116 -119t-87 -167l-100 -375z" />
    <glyph glyph-name="t" unicode="t" horiz-adv-x="562" 
d="M50 -70l42 155q-49 13 -90 60l144 144l89 330q-87 -111 -225 -249l-15 14q157 158 234 316q45 93 78.5 204.5t75.5 268.5l147 142l-290 -1084q40 -11 83 1q108 26 233 152l15 -14q-237 -236 -369 -279l-5 -20z" />
    <glyph glyph-name="ugrave" unicode="&#xf9;" horiz-adv-x="938" 
d="M-80 -568l181 675v0q22 81 43 182t-9 131q-38 33 -124 -52l-15 14q151 152 229 185l99 370q33 126 175 264q120 116 216 116q24 0 39 -5q46 -13 72 -51q27 -43 27 -103q0 -45 -13 -92l-224 -835q40 -10 84 1q108 26 233 152l15 -14q-234 -235 -369 -279l-5 -20l-147 -141
l42 155q-49 13 -90 60l144 144l170 635q13 47 13 90q0 61 -26 101q-27 38 -71 51q-20 5 -38 5q-74 0 -84 -10q-4 -5 -4.5 -22t-12.5 -61l-403 -1504z" />
    <glyph glyph-name="dieresis" unicode="&#xa8;" horiz-adv-x="145" 
d="M128 852l56 209v31l72 71l81 63l-62 -232zM487 1226l-52 -198l-5 -33l-71 -79l-81 -64l62 233z" />
    <glyph glyph-name="u" unicode="u" horiz-adv-x="972" 
d="M654 1169q14 -47 41 -74q29 -27 65 -34q37 -8 81 5q68 18 87 38l17 -12q-144 -147 -246 -173q-46 -13 -84 -5q-38 7 -66 35q-29 31 -41 75zM-5 384l393 398l81 63l-185 -691l484 578l127 113l-194 -723l265 262l15 -14l-377 -376l-81 -64l185 690l-484 -577l-127 -113
l194 722l-281 -282z" />
    <glyph glyph-name="v" unicode="v" horiz-adv-x="1071" 
d="M-5 384l369 370l81 63l-195 -728q38 33 57 50q13 64 39 133q76 199 218.5 373.5t285.5 174.5q30 0 52 -9q63 -23 74 -107q12 -74 -20 -193q-24 -96 -68.5 -202t-95.5 -199l274 274l15 -14l-377 -376l-79 -59q56 96 107 212t78 222q30 119 28.5 197.5t-55.5 123.5
q-54 31 -109 15.5t-115.5 -110.5t-78.5 -179.5t-29 -152.5q0 -6 -1 -11.5t-2 -10.5q96 56 160 55q60 -3 82 -49q21 -45 -5 -97q-43 -91 -116.5 -157t-168.5 -66q-72 0 -94 73q-11 35 -5 93q-58 -37 -122 -99l-81 -64l194 722l-282 -282zM464 149h-6h-6q0 -3 1 -5
q20 -70 91 -70q11 0 -1 27q-20 45 -79 48z" />
    <glyph glyph-name="w" unicode="w" horiz-adv-x="1497" 
d="M1387 530l-5 -19q-24 -96 -68.5 -202t-95.5 -199l274 274l15 -14l-377 -376l-79 -59q56 96 107 212t78 222q24 95 25.5 137.5t1.5 86.5q3 52 -51 97q-54 31 -109 15.5t-115.5 -110.5t-78.5 -179.5t-29 -152.5q0 -6 -1 -11.5t-2 -10.5q96 56 160 55q60 -3 82 -49
q21 -45 -5 -97q-43 -91 -116.5 -157t-168.5 -66q-72 0 -94 73q-11 35 -5 93q-81 -58 -125 -99l-81 -64l185 690l-484 -577l-127 -113l194 722l-282 -282l-15 14l369 370l81 63l-185 -690l484 577l127 114l-195 -729q11 10 30.5 25.5t29.5 24.5q13 64 39 133
q76 199 218.5 373.5t285.5 174.5q30 0 52 -9q63 -23 74 -107q8 -51 -18 -174zM890 149h-12q0 -2 0.5 -3t0.5 -2q20 -70 91 -70q13 0 0 27q-21 45 -80 48z" />
    <glyph glyph-name="x" unicode="x" horiz-adv-x="764" 
d="M-5 380l373 374l79 59q-50 -88 -95.5 -191.5t-69.5 -201.5q-30 -128 -14 -209v-1q105 242 245 426t261 184q33 0 45 -74q6 -56 1 -122q-6 -66 -25 -151q-49 -200 -167.5 -373t-313.5 -173q-12 0 -34 2q-5 -25 -9 -54q-16 -116 1 -193q25 -105 112 -105q46 0 133 51
q72 41 79 48l13 -17q-114 -112 -224 -175q-97 -54 -145 -54q-91 0 -115 107q-16 73 -1 195q15 107 54 235q-43 35 -57 99q-16 83 14 212q22 88 61 181t84 177l-270 -270zM326 111q16 -25 46 -49.5t118 -34.5t138 162.5t44 290.5q6 71 0 121q-12 72 -42 72q-63 40 -151 -158
t-151 -396q2 4 -2 -8z" />
    <glyph glyph-name="y" unicode="y" horiz-adv-x="1082" 
d="M938 443l-84 -283l223 224l15 -14l-248 -250l-28 -102q-23 -83 -52 -164t-67 -146q-75 -125 -158 -201.5t-174 -76.5q-26 0 -41 9q-22 12 -25 41q-3 26 15 71q49 116 233 301l159 159l78 291q20 76 31 143q17 75 19.5 137.5t-51.5 107.5q-54 31 -109 15.5t-115.5 -110.5
t-78.5 -179.5t-29 -152.5q0 -6 -1 -11.5t-2 -10.5q96 56 160 55q60 -3 82 -49q21 -45 -5 -97q-43 -91 -116.5 -157t-168.5 -66q-72 0 -94 73q-11 35 -5 93q-12 -8 -40.5 -28t-81.5 -71l-81 -64l194 722l-282 -282l-15 14l369 370l81 63l-195 -728l57 50q13 64 39 133
q76 199 218.5 373.5t285.5 174.5q30 0 52 -9q63 -23 74 -107q8 -52 -5.5 -121t-32.5 -140zM670 -122l25 94l-131 -132q-73 -72 -104 -150q-16 -35 -14 -65q3 -28 24 -40q16 -8 39 -8h46q36 61 64 139.5t51 161.5zM464 149h-12q0 -3 1 -5q19 -70 91 -70q15 0 -1 27
q-21 45 -79 48z" />
    <glyph glyph-name="z" unicode="z" horiz-adv-x="808" 
d="M-5 384q216 206 353.5 321t207.5 115q135 0 174 -100q21 -61 6 -143q-15 -80 -60 -164q-106 -193 -240 -295q27 -27 48 -54l319 320l15 -14l-322 -323q43 -67 43 -141q0 -61 -27 -120q-30 -65 -107 -149q-88 -94 -174.5 -150.5t-140.5 -56.5q-26 0 -41 9q-23 12 -26 41
q-2 30 16 71q47 115 232 301l67 67q-23 30 -51 56l-76 69v0v0v1l146 146q57 -11 104 17t71 72q43 75 57 154q15 81 -6 140q-39 99 -171 99q-57 0 -162 -86.5t-240 -216.5zM392 -239q0 76 -42 141l-61 -62q-72 -71 -105 -150q-16 -39 -13 -65q1 -27 23 -40q16 -8 40 -8
q84 0 105 22q9 10 27 49q26 56 26 113z" />
    <glyph glyph-name="germandbls" unicode="&#xdf;" horiz-adv-x="872" 
d="M-81 -568l181 675q7 25 15.5 58.5t16.5 68.5t13.5 68.5t5.5 58.5q0 33 -11 51t-32 18q-37 0 -98 -60l-15 14q154 151 228 183q145 543 201 647q55 103 222 103q32 0 56 -34t39.5 -90t23.5 -128t8 -147q0 -147 -22.5 -274t-59.5 -230t-85 -179t-100 -121
q15 -17 25.5 -29.5t17.5 -20.5l318 320l15 -14l-321 -323q44 -68 44 -141q0 -30 -7 -60t-22.5 -62.5t-41.5 -68.5t-64 -78q-43 -46 -87.5 -84t-86.5 -65.5t-78.5 -42.5t-62.5 -15q-38 0 -52.5 17t-14.5 44t16.5 64.5t48.5 83.5t78.5 99.5t105.5 113.5l66 67q-24 32 -51 56
l-76 70l146 146q30 -24 55 -24t45.5 26t36 70.5t27 102t19.5 120.5t13.5 127t8.5 121t4 102t1 71q0 67 -7 128.5t-19 108.5t-29.5 75t-38.5 28q-5 0 -8 -1q-8 0 -464 -1672zM458 -239q0 74 -43 141l-61 -62q-24 -25 -46 -52.5t-38 -55t-25.5 -53t-9.5 -46.5q0 -26 14.5 -41
t49.5 -15q36 0 56.5 2t34 9t22 21t20.5 39q14 29 19.5 57.5t6.5 55.5z" />
    <glyph glyph-name="dollar" unicode="$" horiz-adv-x="748" 
d="M-5 384l-1 -1q102 115 127 140t52 51t52 47q25 86 58 171t70 162t77 143.5t79 115.5t75.5 76.5t66.5 27.5q21 0 38.5 -16t29.5 -46t18.5 -72t6.5 -94q0 -95 -25 -203t-79 -208q40 -42 55 -98t15 -125q0 -101 -30.5 -190.5t-109.5 -172.5q-156 -165 -266 -165
q-78 0 -117 64t-39 189q0 75 13.5 163.5t38.5 186.5q1 12 16 56q-46 -42 -63.5 -60t-142.5 -156zM355 704q31 21 67 30t66 9q58 3 133 -50q72 159 62 326q-10 104 -33.5 160t-52.5 56q-21 0 -40 -9t-34 -24q-14 -14 -34 -62t-42.5 -116.5t-46 -151.5t-45.5 -168zM348 672
q-36 -149 -44.5 -225.5t-8.5 -151.5q0 -57 4 -103.5t14.5 -79.5t29.5 -62t68 -30t70 15.5t28 23.5q33 50 45.5 108t18.5 136t6 102q1 68 -16 139q-47 -69 -98.5 -145t-117.5 -164l-15 15q124 168 218 326q-32 100 -81 118.5t-121 -22.5z" />
    <glyph glyph-name="numbersign" unicode="#" horiz-adv-x="546" 
d="M-5 384l369 370l101 83l-24 -90l94 92q5 -52 22 -78q15 -23 38 -34q22 -11 48 -7q35 1 48 3l-107 -120q-46 -29 -85 -31q-26 -2 -49 9q-23 9 -39 34q-2 2 -2 4l-129 -502l281 287l-5 -34l-359 -368l-90 -72l185 723l-282 -283z" />
    <glyph glyph-name="A" unicode="A" horiz-adv-x="1116" 
d="M1126 370l-374 -372l-80 -64l327 1218q-54 -50 -95 -78q0 -9 -1.5 -17.5t-2.5 -17.5q-14 -111 -55 -243q-92 -306 -273.5 -585.5t-379.5 -279.5q-70 0 -114 60t-64 158q-19 102 -12 231q7 130 39 260q66 265 216 471t376 206l-144 -146q-109 0 -186.5 -118.5
t-115.5 -270.5q-31 -131 -38 -258q-7 -128 12 -230q19 -97 62.5 -157t112.5 -60q96 0 198.5 187t163.5 391q40 130 55 241q8 57 8 99q-59 -21 -104 -14q-62 8 -92 55q-28 44 -4 90q45 81 110.5 136t146.5 55q65 0 84 -91q8 -39 6 -90q77 22 137 88l107 91l-328 -1217
l287 286zM704 1260q-4 -10 -6 -19q17 37 6 19z" />
    <glyph glyph-name="B" unicode="B" horiz-adv-x="1270" 
d="M290 819q93 -106 234 -117q79 245 194.5 431t328.5 184q128 -2 163 -65q25 -45 -0.5 -114.5t-85.5 -145.5q-88 -111 -200.5 -208.5t-229.5 -155.5q-56 -28 -102 -43q-26 -89 -53.5 -174t-59.5 -159q3 -3 5.5 -6t5.5 -6q60 -60 136 -123.5t155 -82.5t101 17q8 77 -22 142
q-27 52 -61.5 109.5t-73.5 110.5q-15 19 -31 40t-34 44l146 146v0v0h1q42 -52 64 -84q129 -160 209 -196q115 -51 185 21l15 -14q-147 -149 -254 -165q0 -4 -0.5 -7.5t-1.5 -6.5q-24 -153 -219 -239q-53 -25 -142 -25q-99 0 -166.5 42.5t-121.5 94.5q-106 -137 -251 -137
q-56 0 -97 72q-18 29 -25 71q-7 38 3 73q51 171 219 216q97 25 183 -42q14 42 28 88.5t28 94.5q7 25 17 58q-93 -13 -180 12t-156 103zM628 706q99 14 202 67q134 67 174 118q106 132 60 215q-67 165 -166.5 141.5t-157.5 -194t-112 -347.5zM269 74q26 0 54 42
q-40 39 -81.5 69t-93.5 34q0 -3 1 -4q6 -37 24 -71q40 -70 96 -70z" />
    <glyph glyph-name="C" unicode="C" horiz-adv-x="1288" 
d="M1403 1250q-205 -214 -331 -258q-58 -21 -100 -5q-39 13 -60 56q-25 48 -22 128q-102 -1 -161 -162.5t-109 -348.5q-32 -124 -66.5 -242t-79.5 -214q40 -51 95.5 -90.5t151.5 -39.5q189 0 301 80t261 230l15 -14q-212 -213 -362 -328t-359 -115q-80 0 -132 29t-89 68
q-97 -97 -232 -97q-55 0 -98 72q-18 33 -25 71q-6 38 3 73q53 171 219 216q69 18 111.5 -5t75.5 -64q17 51 32.5 109.5t30.5 118.5q78 295 188.5 548.5t374.5 250.5l1 -1q-3 -79 21 -128q23 -42 59 -54q40 -16 95 4q83 27 150 100zM268 74q22 0 38 14q-8 12 -7 10
q-33 45 -66.5 80t-85.5 40q1 -1 1 -3q7 -38 25 -71q40 -70 95 -70z" />
    <glyph glyph-name="D" unicode="D" horiz-adv-x="1196" 
d="M-5 560q48 54 86 94q84 85 131 119q33 24 69 37q35 10 71 10q77 0 102 -48.5t25 -123.5q0 -52 -9 -142q-1 -12 -2.5 -24.5t-1.5 -24.5q-6 -69 -6 -135t21 -119q44 -119 199 -129q87 -8 120 34q23 32 43 65q-60 9 -104 53q-75 76 -117 229q-39 141 -39 302q0 222 81 391
t243 169q36 0 72 -8q99 -25 151 -124q45 -90 45 -231q0 -126 -36 -271q-53 -208 -152 -375q99 -28 204 76l15 -14q-181 -183 -314 -197q-95 -118 -187 -184.5t-170 -61.5q-156 11 -201 131q-21 54 -21 120t6 135q2 34 4 50q3 38 6.5 74t3.5 67q0 73 -25 121t-100 48
q-40 0 -67 -10q-23 -9 -37 -17q-5 -5 -19 -21zM926 338q38 93 67 203q35 140 35 270q0 141 -45 229q-50 97 -150 122q-32 9 -70 9q-17 0 -25 -82t-8 -188q0 -160 39 -301q42 -153 116 -228q22 -21 41 -34z" />
    <glyph glyph-name="E" unicode="E" horiz-adv-x="799" 
d="M140 86q11 -4 33 -7q4 16 8.5 33t9.5 34q68 246 179 498q-127 -20 -222 28l145 146q67 -33 140 -37q112 228 233.5 382t220.5 154q101 0 129 -54q27 -51 -16 -138q-58 -114 -223 -265q-67 -61 -148.5 -112.5t-167.5 -80.5q-71 -189 -123 -379q-29 -100 -52 -213
q160 12 263.5 90.5t243.5 218.5l15 -14q-165 -166 -286.5 -270.5t-256.5 -146.5l-1 -3q-23 -162 -4 -256q24 -117 107 -117q84 0 158 48q25 18 79 69l13 -15q-58 -57 -110.5 -106.5t-106.5 -85.5q-86 -57 -177 -57q-86 0 -110 119q-19 94 4 258q9 62 21 122q-32 -2 -50 -2
q-20 0 -50 4q-24 4 -43 10zM506 783q90 9 172.5 51t144.5 98q7 7 32 57q39 79 15 129q-28 51 -127 53q-42 0 -106 -111.5t-131 -276.5z" />
    <glyph glyph-name="F" unicode="F" horiz-adv-x="1021" 
d="M1592 1250q-209 -215 -332 -258q-60 -21 -100 -5q-39 12 -61 56q-26 52 -21 128q-99 -2 -189.5 -246t-176.5 -528q-6 -21 -11.5 -40.5t-11.5 -38.5q39 -22 85 -26q89 -10 187 50q35 22 55 42l15 -14q-116 -117 -199 -168q-105 -65 -197 -58q-94 -291 -209.5 -502.5
t-294.5 -211.5q-44 0 -77 19q-34 19 -46 54q-13 38 2 86q25 84 165 225l15 -14q-18 -17 -34 -71q-14 -46 -1 -80q12 -36 44 -54q31 -18 76 -18q59 0 126.5 180.5t139.5 414.5q-35 17 -69 51q-32 32 -59 77l146 146q23 -37 46 -62q110 360 248.5 647.5t369.5 285.5l2 -1
q-5 -79 21 -128q20 -41 59 -54q38 -16 95 4q82 27 150 100z" />
    <glyph glyph-name="G" unicode="G" horiz-adv-x="1071" 
d="M1081 370l-249 -250l-28 -102q-23 -83 -52 -164t-67 -146q-75 -125 -157.5 -201.5t-174.5 -76.5q-26 0 -41 9q-24 13 -25 41q-3 26 15 71q49 116 233 301l159 159l306 1141q-50 -45 -95 -78q-1 -11 -5 -35q-15 -111 -55 -243q-92 -306 -273.5 -585.5t-378.5 -279.5
q-72 0 -116 60t-62 158q-20 100 -13 231q7 130 39 260q66 265 216 471t377 206l-144 -146q-111 0 -188 -118.5t-114 -270.5q-32 -129 -39 -258q-7 -130 13 -230q18 -97 61.5 -157t113.5 -60q95 0 197.5 187t164.5 391q39 130 55 241q6 44 8 99q-60 -21 -104 -14
q-63 8 -92 55q-29 44 -4 90q44 81 109.5 136t147.5 55q64 0 84 -91q7 -39 6 -90q75 21 136 88l107 91l-309 -1155l223 224zM552 -160q-73 -72 -104 -150q-16 -35 -14 -65q3 -28 23 -40q17 -8 40 -8h36h11q35 61 63 139.5t51 161.5l25 94z" />
    <glyph glyph-name="H" unicode="H" horiz-adv-x="1150" 
d="M1160 370l-248 -250l-28 -102q-23 -83 -52 -164t-67 -146q-75 -125 -158 -201.5t-174 -76.5q-26 0 -41 9q-24 12 -25 41q-4 29 15 71q49 118 232 301l159 159l79 291q20 76 31.5 143.5t6.5 118.5q-12 109 -117 109q-55 0 -116.5 -83.5t-97.5 -178.5q-30 -80 -40 -148
q-3 -21 -3 -22q95 56 160 55q59 -3 82 -49q20 -45 -5 -97q-44 -91 -117.5 -157t-167.5 -66q-75 0 -94 73q-12 34 -6 93q-59 -38 -121 -99l-81 -64l169 629q-95 -15 -183 10.5t-157 103.5l146 146q92 -106 234 -117q30 92 65.5 177t80.5 152q87 132 181 209t196 77
q128 -2 163 -65q24 -45 -1 -114.5t-85 -145.5q-89 -111 -201.5 -208.5t-228.5 -155.5q-55 -27 -94 -40l-134 -499q25 22 58 50q12 64 39 133q75 199 217.5 373.5t286.5 174.5q107 0 119 -111q6 -52 -6 -120t-33 -145l-76 -284l223 224zM632 -160q-73 -72 -104 -150
q-17 -38 -14 -65q1 -27 23 -40q16 -8 40 -8h35.5h10.5q36 61 64 139.5t50 161.5l26 94zM519 149q0 -2 0.5 -3t1.5 -2q19 -70 91 -70q13 0 -1 27q-21 45 -79 48h-6.5h-6.5zM512 814l-29 -108q99 16 198 67q132 66 174 118q105 132 60 215q-35 63 -161 65q-85 0 -95 -15
q-45 -66 -80.5 -155t-66.5 -187z" />
    <glyph glyph-name="I" unicode="I" horiz-adv-x="761" 
d="M804 1086l3 10q-1 0 -2 -1l1 1q-50 -25 -118.5 -32t-133 30t-90 105.5t-94.5 61.5t-83 -60q-26 -76 1 -132q25 -32 59 -26t83 25t75.5 21t47.5 -12q27 -19 -11 -84l-91 -79q31 53 15 70t-52.5 8.5t-100 -41t-101.5 -37t-61 6.5q-80 63 13.5 223.5t257.5 170t233 -86.5
t122 -74q47 19 75 111l8 30l114 20l-233 -871q-33 -127 -100.5 -227.5t-155.5 -179.5q-66 -58 -125 -80.5t-110 -24.5h-32q-96 7 -158 66q-62 60 -65 162q0 21 1 31l147 144q-1 -11 -1 -31q3 -100 64 -161q60 -58 157 -64q11 -1 30 -1q104 1 148 41q6 4 54 183z" />
    <glyph glyph-name="J" unicode="J" horiz-adv-x="780" 
d="M693 1095q-1 0 -2 -1l1 1q-50 -25 -118.5 -32t-133 30t-90 105.5t-94.5 61.5t-83 -60q-26 -76 1 -132q25 -32 59 -26t83 25t75.5 21t47.5 -12q27 -19 -11 -84l-91 -79q31 53 15 70t-52.5 8.5t-100 -41t-101.5 -37t-61 6.5q-80 63 13.5 223.5t257.5 170t233 -86.5t122 -74
q46 19 74 108l9 34l114 20h4l-230 -852q32 -16 70 -17t98 44l-112 -128q-54 -43 -98 -55l-39 -146l222 223l15 -14l-248 -250l-28 -102q-22 -83 -51.5 -164t-68.5 -146q-73 -125 -156 -201.5t-175 -76.5q-26 0 -41 9q-22 12 -26 41q-1 30 16 71q48 115 232 301l160 159
l82 307q-10 6 -16 9q-35 18 -76.5 26t-111.5 -42l118 133q79 56 136 56zM367 -122l26 94l-131 -132q-72 -72 -104 -150q-16 -38 -14 -65t23 -40q16 -8 40 -8h46q36 60 64 139t50 162z" />
    <glyph glyph-name="K" unicode="K" horiz-adv-x="1201" 
d="M1316 1250q-207 -215 -332 -258q-58 -21 -100 -5q-37 13 -60 56q-25 49 -21 128q-90 -2 -160 -157q190 14 264 -116q32 -55 32 -123q0 -69 -32 -134q-74 -156 -200 -245q30 -36 30 -98q0 -38 -12 -106q-9 -51 -9 -73q0 -45 36 -45q71 0 117 27.5t109 79.5q11 10 35 30
q36 28 80 70.5t103 102.5l15 -14q-85 -86 -153 -152t-140 -123q-18 -15 -33 -27q-83 -68 -141 -104.5t-137 -36.5q-39 0 -39 49q0 18 10 74q12 66 12 104q0 56 -31.5 99t-132.5 47q-59 -162 -148.5 -267.5t-241.5 -105.5q-20 0 -30 40q-11 45 -4 136q7 85 34 196
q54 212 177 420.5t324 273.5q65 143 162 234t249 90l2 -1q-4 -79 21 -128q21 -41 59 -54q40 -16 95 4q83 27 150 100zM589 864q-15 -49 -28.5 -101t-28.5 -103q-22 -88 -45.5 -173t-50.5 -162l119 122q180 0 207 57q30 61 30 127q0 65 -31 121q-53 93 -172 112zM386 518
q24 89 48 177t52 171q-115 -15 -191 -149.5t-112 -275.5q-25 -101 -34 -195q-7 -88 3 -135q10 -37 28 -37q67 0 114.5 137t91.5 307z" />
    <glyph glyph-name="L" unicode="L" horiz-adv-x="1287" 
d="M289 819q93 -106 234 -117q79 245 194.5 431t328.5 184q129 -2 164 -65q24 -45 -1 -114.5t-86 -145.5q-87 -111 -200 -208.5t-230 -155.5q-55 -28 -101 -43q-30 -99 -61 -193t-68 -174q41 -54 98.5 -99t159.5 -45q189 0 301 80t260 230l15 -14q-211 -213 -361 -328
t-359 -115q-84 0 -137.5 32t-90.5 74q-97 -106 -225 -106q-57 0 -98 72q-18 33 -25 71q-6 41 3 73q51 171 219 216q65 16 105.5 -3t72.5 -55q15 45 30.5 96t30.5 103q7 25 17 58q-93 -13 -180 12t-156 103zM627 706q99 14 202 67q133 66 174 118q107 133 60 215
q-34 63 -161 65q-93 0 -157 -144t-118 -321zM268 74q17 0 35 18l-4 6q-33 45 -66.5 80t-85.5 40q1 -1 1 -3q7 -38 25 -71q40 -70 95 -70z" />
    <glyph glyph-name="M" unicode="M" horiz-adv-x="1990" 
d="M-5 1036q123 139 228 222q75 59 112 59q68 0 127 -70t104 -181q99 112 185 181.5t134 69.5q67 0 125 -70t103 -181q99 112 185 181.5t136 69.5l2 -1q-4 -75 2.5 -126.5t36.5 -60.5q52 -16 173 109l94 77l-233 -871q-35 -128 -35 -228q0 -59 13 -95q14 -39 43 -46
q4 -1 14 -1q97 0 215.5 102t225.5 208l15 -14q-140 -140 -312 -291.5t-289 -151.5q-5 0 -15 2q-29 9 -43 48q-14 37 -14 95q0 102 35 230l227 848q-195 -188 -259 -167q-32 9 -38.5 60.5t-2.5 126.5q-46 -2 -162 -141q35 -97 56 -202q26 -133 31 -260q4 -134 -16 -240
q-35 -177 -122.5 -288.5t-243.5 -111.5q-158 0 -203 108q-27 70 -5 181q-43 -131 -126 -210t-213 -79q-159 0 -202 108q-29 72 -2 197q25 111 93 250q51 105 117.5 211t137.5 203q-45 120 -106 197.5t-132 77.5q-27 0 -70 -33q-15 -12 -37 -38zM581 1029q34 -98 56 -203
q27 -133 31 -260q5 -139 -15 -240q0 -4 -1.5 -8t-2.5 -7q28 78 71 171q52 105 118.5 211t138.5 203q-45 120 -105.5 197.5t-130.5 77.5q-46 0 -160 -142zM490 681q-19 91 -43 164q-75 -118 -129 -227q-65 -134 -91 -244q-25 -122 2 -193q20 -145 158 -161t139 127t-4 275
q-5 127 -32 259zM1037 682q-19 92 -43 163q-75 -118 -129 -227q-65 -134 -91 -244q-26 -120 2 -193q18 -145 158 -161t138.5 127t-5.5 276q-5 120 -30 259z" />
    <glyph glyph-name="N" unicode="N" horiz-adv-x="1435" 
d="M336 1317q67 0 127 -70.5t105 -181.5q99 113 185.5 182.5t136.5 69.5l1 -1q-4 -75 0.5 -126.5t34.5 -60.5q46 -16 167 109l94 77l-233 -871q-35 -128 -35 -228q0 -59 13 -95q14 -39 42 -46q5 -1 14 -1q98 0 216.5 102t225.5 208l15 -14q-140 -140 -312 -291.5
t-289 -151.5q-5 0 -15 2q-29 9 -44 48q-13 34 -13 95q0 102 35 230l227 847q-195 -186 -254 -166q-30 9 -35 60.5t-1 126.5q-45 -2 -162 -142q33 -97 56 -202q26 -133 31 -260q4 -139 -15 -240q-36 -176 -124.5 -287.5t-243.5 -111.5q-160 0 -202 108q-30 72 -2 197
q24 108 93 250q51 105 117 211t138 202q-45 120 -106.5 198t-131.5 78q-28 0 -70 -33q-16 -12 -37 -38l-90 -64q125 141 229 222q74 59 112 59zM491 681q-15 76 -43 163q-75 -115 -129 -226q-68 -140 -91 -244q-26 -122 -5 -198q66 -165 175 -162.5t130.5 115.5t0.5 297
q-12 123 -38 255z" />
    <glyph glyph-name="O" unicode="O" horiz-adv-x="778" 
d="M1113 1264q-113 -122 -208 -190q-3 -25 -4 -35q-15 -111 -55 -243q-93 -306 -274 -585.5t-378 -279.5q-72 0 -116 60t-63 158q-20 102 -12 231q6 130 39 260q65 265 215 471t377 206l-144 -146q-110 0 -187.5 -118.5t-114.5 -270.5q-32 -131 -38 -258q-8 -130 13 -230
q18 -97 61.5 -157t113.5 -60q94 0 197 187t164 391q39 130 55 241q8 57 8 99q-60 -21 -104 -14q-63 8 -92 55q-29 44 -4 90q44 81 109.5 136t147.5 55q66 0 84 -91q7 -39 6 -90q76 22 137 88z" />
    <glyph glyph-name="P" unicode="P" horiz-adv-x="593" 
d="M715 1259q102 62 220 58q63 -2 98 -36q41 -39 35 -113q-8 -80 -69 -180q-81 -132 -233.5 -283.5t-385.5 -303.5l-12 -44q3 -2 6.5 -3.5t7.5 -2.5q46 -21 86 -34.5t59 5.5l61 62l15 -14l-62 -63q-78 -78 -130 -104t-91 -24l-31 -112l-146 -141l77 285q-31 13 -63.5 21
t-70.5 -2q-20 -10 -39.5 -20.5t-39.5 -19.5l127 139q42 30 85 44q18 9 52 27q128 466 189 695q-50 -24 -118 -31t-132.5 30t-90 105.5t-94.5 61.5t-83 -60q-26 -76 1 -132q25 -32 59 -26t83 25t75.5 21t47.5 -12q27 -19 -11 -84l-91 -79q31 53 15 70t-52.5 8.5t-100 -41
t-101.5 -37t-61 6.5q-80 63 13.5 223.5t257.5 170t233 -86.5t122 -74q42 17 68 91q9 32 13 50l113 20h1v-1l2 1l-41 -151q58 53 127 95zM699 683q112 99 159 176q56 92 63 165q6 73 -34 112q-36 33 -96 35q-115 2 -205 -53q-5 -3 -18 -26l-2 -7l-2 -1l-165 -611
q189 112 300 210z" />
    <glyph glyph-name="Q" unicode="Q" horiz-adv-x="1115" 
d="M1125 370l-81 -81l-33.5 -34t-129.5 -175.5t-197 -518.5l-147 -142l462 1733q-54 -50 -95 -78q0 -9 -1.5 -17.5t-2.5 -17.5q-16 -111 -55 -243q-92 -306 -273.5 -585.5t-379.5 -279.5q-70 0 -114.5 60t-63.5 158q-19 102 -12 231q7 127 38 260q66 265 216.5 471
t376.5 206l-144 -146q-109 0 -186.5 -118.5t-115.5 -270.5q-31 -131 -38 -258q-7 -128 12 -230q19 -97 62.5 -157t112.5 -60q96 0 198.5 187t163.5 391q40 130 55 241q7 44 8 99q-59 -21 -104 -14q-62 8 -92 55q-28 44 -4 90q45 81 110.5 136t146.5 55q65 0 84 -91
q8 -39 6 -90q76 21 136 88l107 91l-336 -1260q59 84 112.5 141.5t102.5 107.5l80 80z" />
    <glyph glyph-name="R" unicode="R" horiz-adv-x="1375" 
d="M336 1317q66 0 124 -67t102 -172q98 107 185 173t143 66q128 0 166 -167q17 -74 12 -166q-4 -87 -30 -183q-30 -113 -83 -214t-125 -172q49 -33 49 -108q0 -31 -10 -91q-9 -61 -9 -75q0 -67 66 -67q71 0 117 27.5t109 79.5q11 10 35 30q36 28 80 70.5t103 102.5l15 -14
q-85 -86 -153 -152t-140 -123q-18 -15 -33 -27q-83 -68 -140.5 -104.5t-136.5 -36.5q-68 0 -68 71q0 21 8 75q10 60 10 90q0 97 -87 123q-38 -160 -125 -259.5t-234 -99.5q-162 0 -207 113q-30 76 -3 198q23 111 90 252q103 212 259 420q-45 114 -104.5 187.5t-128.5 73.5
q-27 0 -70 -33q-15 -12 -37 -38l-90 -64q126 141 229 222q75 59 112 59zM578 1038q39 -104 60 -212q27 -133 31 -260q4 -92 -4 -166l42 43q83 -17 139.5 38.5t70.5 150t8 207.5q1 92 -16 166q-38 166 -163 166q-53 0 -168 -133zM491 681q-15 76 -43 163q-75 -115 -129 -226
q-68 -140 -91 -244q-26 -122 -5 -198q66 -165 175 -162.5t130.5 115.5t0.5 297q-12 123 -38 255z" />
    <glyph glyph-name="S" unicode="S" horiz-adv-x="736" 
d="M1258 1250q-209 -215 -332 -258q-59 -21 -100 -5q-39 13 -60 56q-25 48 -22 127q-46 -2 -162 -142q34 -97 56 -202q27 -133 31 -260q5 -134 -16 -240q-34 -176 -122.5 -287.5t-244.5 -111.5q-159 0 -202 108q-30 75 -2 197q25 108 93 250q51 105 117.5 211t137.5 202
q-45 120 -106 198t-133 78q-26 0 -69 -33q-13 -11 -38 -38l-89 -64q129 144 229 222q75 59 112 59q68 0 127.5 -70.5t104.5 -181.5q99 113 185.5 182.5t136.5 69.5l1 -1q-3 -82 21 -128q21 -41 59 -54q40 -16 95 4q83 27 150 100zM491 681q-15 76 -43 163
q-75 -115 -129 -226q-68 -140 -91 -244q-26 -122 -5 -198q66 -165 175 -162.5t130.5 115.5t0.5 297q-12 123 -38 255z" />
    <glyph glyph-name="T" unicode="T" horiz-adv-x="822" 
d="M687 1096q-1 0 -2 -1l1 1q-50 -25 -118.5 -32t-133 30t-90 105.5t-94.5 61.5t-83 -60q-26 -76 1 -132q25 -32 59 -26t83 25t75.5 21t47.5 -12q27 -19 -11 -84l-91 -79q31 53 15 70t-52.5 8.5t-100 -41t-101.5 -37t-61 6.5q-80 63 13.5 223.5t257.5 170t233 -86.5
t122.5 -74t82.5 141l114 20l-258 -958q4 -2 8 -3.5t7 -2.5q47 -21 86.5 -34.5t57.5 5.5l62 62l15 -14l-62 -63q-78 -78 -130.5 -104t-91.5 -24l-30 -112l-147 -141l77 285q-42 19 -91 24.5t-112 -39.5l118 133q71 50 131 52z" />
    <glyph glyph-name="U" unicode="U" horiz-adv-x="1075" 
d="M1085 370l-372 -372l-81 -64l327 1218q-30 -30 -71 -61q-8 -47 -29.5 -145.5t-76 -306t-218 -456.5t-411.5 -252q-111 0 -113 148q0 99 38 241t82 289q42 134 74.5 256t32.5 202q0 104 -71 104q-54 0 -72.5 -10.5t-69.5 -61.5q-16 -17 -27 -28l-32 -3l26 26
q157 161 200 192t120 31q73 0 73 -107q0 -80 -33 -202.5t-74 -257.5q-44 -146 -82 -287.5t-38 -239.5q2 -146 110 -146q134 1 236.5 165.5t154.5 354.5q36 128 48 251q8 87 2 153q-70 -28 -120 -20q-61 8 -93 55q-27 45 -3 90q45 81 110.5 136t146.5 55q78 0 100 -122
q4 -20 7 -53q66 22 119 82l107 91l-327 -1217l285 286z" />
    <glyph glyph-name="V" unicode="V" horiz-adv-x="1315" 
d="M896 97q110 0 187 118t115 271q32 128 39 257q7 124 -13 230q-18 96 -62 156.5t-113 60.5q-95 0 -197 -186.5t-164 -390.5q-39 -136 -54 -242q-7 -54 -9 -101q58 19 104 13q63 -9 92 -54q27 -45 3 -89q-44 -81 -109 -135t-146 -54q-66 0 -84 90q-7 37 -6 88
q-89 -26 -162 -104l-101 -83q95 298 154.5 529t71.5 388q26 317 -176 312q-91 -3 -161 -48q-15 -10 -21 -15l-89 -64q60 66 118 123t119 96q82 51 178 54q205 5 179 -314q-12 -155 -69.5 -381t-149.5 -518q49 45 113 91q2 22 4 33q16 112 55 244q93 305 273 585t378 280
q71 0 115 -61t63 -157q20 -102 13 -232t-39 -259q-66 -266 -216 -471.5t-376 -205.5zM689 25q-9 -19 -12.5 -26.5t5.5 8.5q6 12 7 18z" />
    <glyph glyph-name="W" unicode="W" horiz-adv-x="1747" 
d="M625 -89q103 310 163 546t69 394q18 319 -194 315q-42 0 -106 -56q50 -107 81 -258q25 -128 30 -260q3 -138 -17 -244q-36 -184 -127.5 -302.5t-247.5 -118.5q-171 0 -218 132q-30 79 -10 209q16 113 75 255q102 251 272 474q-92 174 -204 174q-28 0 -70 -33
q-16 -12 -37 -38l-89 -64q127 143 228 222q74 59 112 59q110 0 199 -161q158 155 273 157q215 2 197 -318q-9 -159 -69 -394t-162 -544q64 63 131 113q0 14 5 52q12 105 53 246q87 303 266 576t394 273q70 0 114.5 -60.5t63.5 -157.5q19 -103 12 -231q-7 -131 -39 -259
q-66 -267 -216 -472.5t-376 -205.5l144 146q109 0 186 118.5t116 271.5q31 129 38 257q7 127 -12 230q-19 96 -63 156.5t-113 60.5q-107 0 -209.5 -181t-159.5 -381q-39 -134 -52 -244q-9 -69 -7 -113q60 21 108 15q62 -9 92 -55q28 -45 4 -90q-45 -82 -110.5 -136.5
t-146.5 -54.5q-69 0 -88 100q-6 34 -6 80q-74 -24 -133 -87l-67 -39q1 3 3 4.5t4 3.5zM420 945q-91 -134 -151 -283q-57 -137 -74 -251q-21 -124 9 -206q46 -131 216 -131q58 0 84 131q20 106 17 243q-3 123 -30 259q-27 134 -71 238zM1110 -11q4 10 6 18q-18 -39 -6 -18z
" />
    <glyph glyph-name="X" unicode="X" horiz-adv-x="1291" 
d="M115 1091q120 136 215 193q56 33 106 33q71 0 115 -60.5t63 -157.5q19 -101 13 -231q-6 -124 -39 -259q-4 -18 -7 -27q5 1 10.5 3t11.5 4q3 17 11 51q66 265 216 471t377 206l-144 -146q-110 0 -187.5 -118.5t-114.5 -271.5q-17 -66 -28 -143q58 19 116.5 16.5
t116.5 -58.5l-146 -146q-45 43 -98 55q-5 -120 13 -211q18 -97 61.5 -157t113.5 -60q74 0 141.5 62.5t118.5 119.5q27 31 53.5 60.5t62.5 64.5l15 -14q-10 -10 -43 -48q-109 -123 -246.5 -257t-245.5 -134q-72 0 -116 60t-62 158q-20 100 -13 231q2 46 11 109
q-10 -3 -19 -6.5t-18 -6.5q-77 -225 -216.5 -385t-337.5 -160l144 146q104 0 179 107t115 250q-51 -14 -102 -6.5t-102 56.5l146 146q41 -41 89 -53q11 69 16 147q6 129 -13 230q-19 96 -62.5 156.5t-112.5 60.5q-47 0 -93 -28q-6 -4 3 7.5t1 3.5z" />
    <glyph glyph-name="Y" unicode="Y" horiz-adv-x="1318" 
d="M906 -122l24 92l-130 -130q-73 -72 -104 -150q-16 -35 -14 -65q1 -28 24 -40q14 -8 39 -8h37h11q36 60 63.5 139t49.5 162zM-5 1044q58 66 116.5 123t120.5 96q81 51 178 54q204 5 179 -314q-12 -155 -70.5 -381t-149.5 -518q53 47 98 79q0 31 5 75q12 116 47 245
q78 295 239.5 554.5t356.5 259.5q20 0 33 -5q57 -19 88 -106q28 -82 28 -207q0 -229 -80 -472v0l-96 -369l225 226l15 -14l-250 -251l-26 -101q-22 -83 -51 -164t-67 -147q-75 -124 -158.5 -200.5t-174.5 -76.5q-26 0 -41 9q-24 13 -25 41q-4 29 15 71q49 116 233 301
l157 157l97 377v1q80 240 80 468q0 126 -28 206q-29 85 -86 105q-17 5 -32 5q-86 0 -171 -168t-135 -358q-34 -130 -46 -243q-8 -79 -5 -136q66 24 115 17q62 -9 92 -54q27 -44 4 -89q-45 -81 -110.5 -135t-146.5 -54q-75 0 -94 112q-6 25 -7 62q-83 -27 -150 -100l-101 -83
q94 298 153.5 529t72.5 388q24 317 -176 312q-91 -3 -162 -48q-17 -11 -20 -15z" />
    <glyph glyph-name="Z" unicode="Z" horiz-adv-x="711" 
d="M35 842q86 179 223 319q154 156 250 156q12 0 17 -1q66 -11 100 -99q32 -82 32 -218q0 -102 -18 -214q-15 -94 -36.5 -185.5t-63.5 -166.5q-80 -141 -176 -219q45 -33 81 -94l262 264l15 -14l-267 -268q15 -32 22 -54q23 -67 23 -138q0 -76 -26 -141
q-57 -143 -174.5 -241t-304.5 -98q-26 0 -41 9q-24 12 -25 41q-4 29 15 71q49 116 233 301l122 123q-74 127 -189 129l143 146q126 17 144 50q39 72 60 161t36 182q18 111 18 212q0 136 -32 216q-34 87 -98 98q-10 2 -16 2q-67 0 -82 -15q-34 -34 -102 -177zM329 -96
q-9 26 -21 52l-115 -116q-73 -72 -104 -150q-17 -38 -14 -65q1 -27 23 -40q16 -8 40 -8q167 0 189 53q25 64 25 136q0 71 -23 138z" />
    <glyph glyph-name="adieresis" unicode="&#xe4;" horiz-adv-x="1071" 
d="M9 370l-14 14l373 374l78 59q-54 -97 -105.5 -213.5t-78.5 -222.5q-29 -119 -20 -190q12 -84 73 -105q21 -9 51 -9q89 -9 145 75.5t78 175t32 159.5q1 8 3 22q-98 -58 -160 -54q-59 1 -82 49q-20 44 5 97q44 90 117.5 156.5t167.5 66.5q73 0 94 -73q11 -41 5 -94
q57 36 122 101l81 63l-194 -723l286 286l14 -14l-372 -372l-81 -64l195 727q-37 -34 -57 -50q-14 -66 -39 -132q-75 -200 -217.5 -374t-286.5 -174q-30 0 -53 9q-62 23 -74 106q-9 72 20 194q25 96 70 201.5t95 198.5zM608 601h12q0 1 -0.5 2.5t-0.5 2.5q-19 71 -91 71
q-7 -1 -6 -10q2 -5 3.5 -9.5t2.5 -8.5q22 -46 80 -48zM560 852l56 209v31l72 71l81 63l-62 -232zM919 1226l-52 -198l-5 -33l-71 -79l-81 -64l62 233z" />
    <glyph glyph-name="udieresis" unicode="&#xfc;" horiz-adv-x="972" 
d="M550 852l56 209l-7 20l79 82l81 63l-62 -232zM909 1226l-52 -198l8 -37l-84 -75l-81 -64l62 233zM-5 384l393 398l81 63l-185 -691l484 578l127 113l-194 -723l265 262l15 -14l-377 -376l-81 -64l185 690l-484 -577l-127 -113l194 722l-281 -282z" />
    <glyph glyph-name="Adieresis" unicode="&#xc4;" horiz-adv-x="1116" 
d="M1126 370l-374 -372l-80 -64l327 1218q-54 -50 -95 -78q0 -9 -1.5 -17.5t-2.5 -17.5q-14 -111 -55 -243q-92 -306 -273.5 -585.5t-379.5 -279.5q-70 0 -114 60t-64 158q-19 102 -12 231q7 130 39 260q66 265 216 471t376 206l-144 -146q-109 0 -186.5 -118.5
t-115.5 -270.5q-31 -131 -38 -258q-7 -128 12 -230q19 -97 62.5 -157t112.5 -60q96 0 198.5 187t163.5 391q40 130 55 241q8 57 8 99q-59 -21 -104 -14q-62 8 -92 55q-28 44 -4 90q45 81 110.5 136t146.5 55q65 0 84 -91q8 -39 6 -90q77 22 137 88l107 91l-328 -1217
l287 286zM704 1260q-4 -10 -6 -19q17 37 6 19zM590 1351l56 209v31l72 71l81 63l-62 -232zM949 1725l-52 -198l-5 -33l-71 -79l-81 -64l62 233z" />
    <glyph glyph-name="Odieresis" unicode="&#xd6;" horiz-adv-x="778" 
d="M1113 1264q-113 -122 -208 -190q-3 -25 -4 -35q-15 -111 -55 -243q-93 -306 -274 -585.5t-378 -279.5q-72 0 -116 60t-63 158q-20 102 -12 231q6 130 39 260q65 265 215 471t377 206l-144 -146q-110 0 -187.5 -118.5t-114.5 -270.5q-32 -131 -38 -258q-8 -130 13 -230
q18 -97 61.5 -157t113.5 -60q94 0 197 187t164 391q39 130 55 241q8 57 8 99q-60 -21 -104 -14q-63 8 -92 55q-29 44 -4 90q44 81 109.5 136t147.5 55q66 0 84 -91q7 -39 6 -90q76 22 137 88zM592 1351l56 209v31l72 71l81 63l-62 -232zM951 1725l-52 -198l-5 -33l-71 -79
l-81 -64l62 233z" />
    <glyph glyph-name="Udieresis" unicode="&#xdc;" horiz-adv-x="1075" 
d="M1085 370l-372 -372l-81 -64l327 1218q-30 -30 -71 -61q-8 -47 -29.5 -145.5t-76 -306t-218 -456.5t-411.5 -252q-111 0 -113 148q0 99 38 241t82 289q42 134 74.5 256t32.5 202q0 104 -71 104q-54 0 -72.5 -10.5t-69.5 -61.5q-16 -17 -27 -28l-32 -3l26 26
q157 161 200 192t120 31q73 0 73 -107q0 -80 -33 -202.5t-74 -257.5q-44 -146 -82 -287.5t-38 -239.5q2 -146 110 -146q134 1 236.5 165.5t154.5 354.5q36 128 48 251q8 87 2 153q-70 -28 -120 -20q-61 8 -93 55q-27 45 -3 90q45 81 110.5 136t146.5 55q78 0 100 -122
q4 -20 7 -53q66 22 119 82l107 91l-327 -1217l285 286zM513 1351l56 209v31l72 71l81 63l-62 -232zM872 1725l-52 -198l-5 -33l-71 -79l-81 -64l62 233z" />
    <glyph glyph-name="exclam" unicode="!" horiz-adv-x="507" 
d="M512 1315l-233 -871l-147 -142l234 871zM142 211l143 -138l-146 -145l-144 138z" />
    <glyph glyph-name="parenleft" unicode="(" horiz-adv-x="734" 
d="M739 1277q-370 -420 -484 -851q-113 -430 45 -850l-147 -145q-158 422 -44 854q117 444 539 926z" />
    <glyph glyph-name="parenright" unicode=")" horiz-adv-x="734" 
d="M-5 -530q370 420 483 850q114 432 -45 851l147 146q159 -422 45 -855q-117 -448 -539 -925z" />
    <glyph glyph-name="comma" unicode="," 
d="M159 201q43 -43 63 -95q20 -51 11 -93q-9 -40 -49 -94q-51 -66 -174 -190l-15 15q49 50 63 66q20 27 28 62q9 40 -10 89q-20 49 -64 94z" />
    <glyph glyph-name="bracketleft" unicode="[" horiz-adv-x="670" 
d="M555 1176l-34 -23l-379 -1413l157 -164l-146 -146l-157 164l-1 2l395 1472l134 138l151 106z" />
    <glyph glyph-name="question" unicode="?" horiz-adv-x="550" 
d="M105 943q-21 228 91.5 295.5t214.5 77.5q12 1 38 1h4q99 2 101 -81q1 -70 -53 -181.5t-118 -230.5q-60 -111 -110 -213t-52 -166l-147 -144q2 67 53 171.5t113 217.5q63 116 116 225t51 177q-2 80 -98 79l-5 -1q-21 0 -36 -1q-8 -1 -14.5 -15t-1.5 -66zM142 211l143 -138
l-146 -145l-144 138z" />
    <glyph glyph-name="less" unicode="&#x3c;" horiz-adv-x="649" 
d="M535 680l-369 -262l301 -345l-146 -145l-326 372l132 140l527 373z" />
    <glyph glyph-name="greater" unicode="&#x3e;" horiz-adv-x="649" 
d="M114 61l369 262l-301 345l146 145l326 -372l-132 -140l-527 -373z" />
    <glyph glyph-name="hyphen" unicode="-" horiz-adv-x="796" 
d="M141 386q59 -60 124.5 -38t133.5 61q71 41 141 65t131 -37l-146 -146q-60 60 -126 37.5t-132 -61.5q-72 -42 -142 -66t-130 39zM271 599q58 -60 124 -38t134 61q71 41 141 65t131 -37l-146 -146q-60 60 -125.5 37.5t-132.5 -61.5q-72 -42 -142 -66t-130 39z" />
    <glyph glyph-name="period" unicode="." horiz-adv-x="280" 
d="M142 211l143 -138l-146 -145l-144 138z" />
    <glyph glyph-name="quotesingle" unicode="'" 
d="M416 1471q43 -43 63 -95q20 -51 11 -93q-9 -40 -49 -94q-51 -66 -174 -190l-15 15q49 50 63 66q20 27 28 62q9 40 -10 89q-20 49 -64 94z" />
    <glyph glyph-name="quotedbl" unicode="&#x22;" horiz-adv-x="541" 
d="M718 1471q43 -43 63 -95q20 -51 11 -93q-9 -40 -49 -94q-51 -66 -174 -190l-15 15q49 50 63 66q20 27 28 62q9 40 -10 89q-20 49 -64 94zM414 1471q43 -43 63 -95q20 -51 11 -93q-9 -40 -49 -94q-51 -66 -174 -190l-15 15q49 50 63 66q20 27 28 62q9 40 -10 89
q-20 49 -64 94z" />
    <glyph glyph-name="colon" unicode=":" horiz-adv-x="280" 
d="M302 967l143 -138l-146 -145l-144 138zM142 211l143 -138l-146 -145l-144 138z" />
    <glyph glyph-name="semicolon" unicode=";" 
d="M159 201q43 -43 63 -95q20 -51 11 -93q-9 -40 -49 -94q-51 -66 -174 -190l-15 15q49 50 63 66q20 27 28 62q9 40 -10 89q-20 49 -64 94zM302 967l143 -138l-146 -145l-144 138z" />
    <glyph glyph-name="equal" unicode="=" horiz-adv-x="808" 
d="M-88 413l144 147h674l-144 -147h-674zM-5 673l144 147h674l-144 -147h-674z" />
    <glyph glyph-name="braceleft" unicode="{" horiz-adv-x="707" 
d="M568 1171q-28 0 -46 -81t-33 -181q-24 -147 -57 -285.5t-116 -225.5q15 -26 15 -70q0 -66 -30 -154.5t-66 -180.5q-35 -88 -64 -171.5t-29 -143.5q0 -101 105 -101l-145 -147q-107 0 -107 104q0 61 29.5 145.5t64.5 174.5q36 92 66 179t30 151q0 116 -122 116l144 147
q64 0 90.5 101t44.5 218q33 211 95 381t275 170z" />
    <glyph glyph-name="braceright" unicode="}" horiz-adv-x="707" 
d="M139 -424q28 0 46 81t33 181q24 147 57 285.5t116 225.5q-15 26 -15 70q0 66 30 154.5t66 180.5q35 88 64 171.5t29 143.5q0 101 -105 101l145 147q107 0 107 -104q0 -61 -29.5 -145.5t-64.5 -174.5q-36 -92 -66 -179t-30 -151q0 -116 122 -116l-144 -147
q-64 0 -90.5 -101t-44.5 -218q-33 -211 -95 -381t-275 -170z" />
    <glyph glyph-name="bar" unicode="|" horiz-adv-x="507" 
d="M512 1315l-373 -1363l-147 -142l374 1363z" />
    <glyph glyph-name="bracketright" unicode="]" horiz-adv-x="670" 
d="M115 -434l34 23l379 1413l-157 164l146 146l157 -164l1 -2l-395 -1472l-134 -138l-151 -106z" />
    <glyph glyph-name="asciitilde" unicode="~" horiz-adv-x="705" 
d="M119 724q158 175 241 175q34 0 67.5 -14.5t64.5 -37t59 -48t51 -48t41 -37t30 -14.5q5 0 6 2l83 85l18 -7q-159 -186 -241 -186q-21 0 -42.5 6.5t-42.5 17.5t-40 25t-35 29q-21 19 -43.5 39.5t-44 37.5t-40 28t-30.5 11t-22 -10l-66 -65z" />
    <glyph glyph-name="nine" unicode="9" horiz-adv-x="624" 
d="M139 60q89 -3 164.5 60.5t114.5 144.5q27 58 43 115l-92 -94q-88 -20 -149.5 2t-94.5 66q-35 43 -39 100q-5 57 21 110q55 106 145 177t207 65q121 -6 153 -109q17 -57 3 -136q-12 -71 -52 -159q-90 -191 -246.5 -342.5t-321.5 -145.5zM470 426q11 72 -5 125
q-30 102 -150 108q-44 2 -50 28.5t-13 11.5q-24 -45 -19 -100q4 -57 38 -100q67 -88 199 -73z" />
    <glyph glyph-name="eight" unicode="8" horiz-adv-x="788" 
d="M391 513q26 -17 58 -42q17 8 55 22q29 12 34 12q2 16 2 22q0 47 -32 91q-20 24 -43 37q-33 5 -68 18l144 147q10 0 26 -2q20 -4 43 -16q31 -6 63 -6q60 -2 120 23l-110 -115q4 -22 4 -33q0 -9 -2 -23q-17 -92 -63 -146.5t-108 -88.5q51 -48 80.5 -102t-5.5 -114
q-48 -84 -116 -140.5t-142 -87.5q-97 -42 -190 -42q-15 0 -28 3q-52 10 -85 47q-33 36 -33 81q0 13 1 19q17 98 88.5 169.5t158.5 122.5q-42 28 -68 58t-14 87q18 88 145 210q99 96 169 96l-134 -137q-51 -52 -27.5 -92.5t77.5 -77.5zM314 315q-3 2 -5 3.5t-4 4.5l-6 -3
q-42 -19 -97 -47.5t-58 -52.5q-2 -7 -2 -18q0 -44 32 -80q33 -38 84 -46q9 -2 27 -2q85 0 176 36q3 54 -45.5 106t-101.5 99z" />
    <glyph glyph-name="seven" unicode="7" horiz-adv-x="690" 
d="M246 -73q-117 0 -117 88q0 111 136 295.5t231 299.5q4 6 8.5 11t8.5 11q-60 -40 -99 -32t-74 26q-51 26 -105 36t-110 -65l-130 -113q217 293 317.5 309t172.5 -20q39 -21 55.5 -52t28.5 -17l126 111q-10 -20 -86 -113q-86 -105 -209.5 -273t-123.5 -270q0 -85 114 -85z
" />
    <glyph glyph-name="six" unicode="6" horiz-adv-x="622" 
d="M483 673q-90 3 -165.5 -61t-113.5 -144q-26 -55 -42 -116l91 95q87 19 148.5 -3t95.5 -65q34 -45 39 -101q6 -58 -21 -109q-56 -107 -145.5 -177t-206.5 -64q-122 6 -153 108q-15 59 -3 136q13 77 53 159q90 190 246 342t321 147zM153 307q-13 -73 4 -126
q31 -101 151 -108q42 -3 48.5 -28.5t14.5 -10.5q22 45 18 100q-5 56 -38 99q-68 86 -198 74z" />
    <glyph glyph-name="five" unicode="5" horiz-adv-x="729" 
d="M207 348q-40 -47 -52 -99q-14 -53 5 -90q18 -39 68 -61q52 -24 141 -24q93 0 93 -3q26 55 19 119q-8 62 -52 111q-47 48 -134 67t-218 -14l-2 3l101 319l147 143q23 -61 53 -70.5t63 4.5q4 1 44 20q38 21 68 30q48 14 95.5 -17.5t87.5 -168.5l-147 -145
q-40 135 -85.5 166.5t-91.5 18.5q-21 -6 -63 -28q-32 -16 -47 -22q-29 -10 -47 -10l-31 -95q132 33 219 13t134 -68q45 -48 53 -112q7 -65 -21 -127q-55 -118 -153 -199.5t-229 -81.5q-88 0 -143 26q-49 23 -69 61q-18 40 -5 93q15 61 81 144z" />
    <glyph glyph-name="four" unicode="4" horiz-adv-x="721" 
d="M582 136h-90l-18 -65l-147 -141l56 206h-388l63 80l534 536l82 65l-143 -534h195zM422 283l99 369l-366 -369h267z" />
    <glyph glyph-name="three" unicode="3" horiz-adv-x="619" 
d="M200 300q-100 64 -127 140q-20 51 -2 100q35 101 193 215q89 65 221 65q41 0 72 -13q43 -18 56 -63q11 -43 -5 -104q-25 -92 -102 -202q72 -28 94 -86q14 -42 2 -90q-14 -53 -61 -110q-78 -96 -168 -160t-171 -64q-85 0 -133 29q-64 39 -74 119l147 145q11 -82 72 -118
q50 -29 132 -29q48 0 59.5 -14t18.5 -5q20 24 31 65q12 47 -2 86q-22 60 -96 86l6 15q75 102 98 191q16 59 5 101q-13 42 -54 62q-29 12 -70 12q-74 0 -131 -19q-5 -33 9 -68q27 -76 126 -140z" />
    <glyph glyph-name="two" unicode="2" horiz-adv-x="690" 
d="M239 300q-100 64 -127 140q-20 51 -2 100q35 100 192 215q91 65 222 65q45 0 75 -14q42 -20 54 -68q10 -45 -10 -110q-36 -116 -153 -262q-82 -102 -143 -145.5t-121 -76.5q-22 -12 -32 -19q52 30 87.5 21t68.5 -26q50 -26 104.5 -36.5t111.5 65.5l129 113
q-218 -292 -318.5 -307.5t-171.5 20.5q-39 19 -56 50t-28 18l-126 -111q39 87 84 135t98 77q48 27 100.5 48.5t95.5 75.5q91 113 124 219q19 63 9 106q-11 46 -52 66q-30 14 -74 14q-73 0 -131 -19q-4 -37 9 -68q29 -76 126 -140z" />
    <glyph glyph-name="zero" unicode="0" horiz-adv-x="653" 
d="M239 673q-24 0 -44.5 -45t-32.5 -105q-18 -78 -20 -155q-2 -79 9 -143q28 -151 113 -151q27 0 60 54t57 125q29 90 38 165q9 81 -6 145q-16 66 -61 93q-25 5 -56 17v0v0v0h-1l146 147q32 -2 57 -17q28 -7 59 -7q55 -2 101 22l-99 -105q0 -2 0.5 -3.5l0.5 -1.5
q14 -57 5 -147q-9 -74 -38 -168q-62 -183 -173 -324.5t-234 -141.5q-87 0 -116 153q-9 48 -9 145q2 75 20 156q37 175 129.5 307t237.5 132z" />
    <glyph glyph-name="ellipsis" unicode="&#x2026;" horiz-adv-x="840" 
d="M142 211l143 -138l-146 -145l-144 138zM422 211l143 -138l-146 -145l-144 138zM702 211l143 -138l-146 -145l-144 138z" />
    <glyph glyph-name="quoteright" unicode="&#x2019;" 
d="M408 1471q43 -43 63 -95q20 -51 11 -93q-9 -40 -49 -94q-51 -66 -174 -190l-15 15q49 50 63 66q20 27 28 62q9 40 -10 89q-20 49 -64 94z" />
    <glyph glyph-name="quoteleft" unicode="&#x2018;" 
d="M340 999q-43 43 -63 95q-20 51 -11 93q9 40 49 94q51 66 174 190l15 -15q-49 -50 -63 -66q-20 -27 -28 -62q-9 -40 10 -89q20 -49 64 -94z" />
    <glyph glyph-name="quotedblright" unicode="&#x201d;" horiz-adv-x="541" 
d="M776 1471q43 -43 63 -95q20 -51 11 -93q-9 -40 -49 -94q-51 -66 -174 -190l-15 15q49 50 63 66q20 27 28 62q9 40 -10 89q-20 49 -64 94zM472 1471q43 -43 63 -95q20 -51 11 -93q-9 -40 -49 -94q-51 -66 -174 -190l-15 15q49 50 63 66q20 27 28 62q9 40 -10 89
q-20 49 -64 94z" />
    <glyph glyph-name="quotedblleft" unicode="&#x201c;" horiz-adv-x="541" 
d="M387 999q-43 43 -63 95q-20 51 -11 93q9 40 49 94q51 66 174 190l15 -15q-49 -50 -63 -66q-20 -27 -28 -62q-9 -40 10 -89q20 -49 64 -94zM691 999q-43 43 -63 95q-20 51 -11 93q9 40 49 94q51 66 174 190l15 -15q-49 -50 -63 -66q-20 -27 -28 -62q-9 -40 10 -89
q20 -49 64 -94z" />
    <glyph glyph-name="quotedblbase" unicode="&#x201e;" horiz-adv-x="541" 
d="M432 229q43 -43 63 -95q20 -51 11 -93q-9 -40 -49 -94q-51 -66 -174 -190l-15 15q49 50 63 66q20 27 28 62q9 40 -10 89q-20 49 -64 94zM128 229q43 -43 63 -95q20 -51 11 -93q-9 -40 -49 -94q-51 -66 -174 -190l-15 15q49 50 63 66q20 27 28 62q9 40 -10 89
q-20 49 -64 94z" />
    <glyph glyph-name="quotesinglbase" unicode="&#x201a;" 
d="M159 201q43 -43 63 -95q20 -51 11 -93q-9 -40 -49 -94q-51 -66 -174 -190l-15 15q49 50 63 66q20 27 28 62q9 40 -10 89q-20 49 -64 94z" />
    <glyph glyph-name="guilsinglleft" unicode="&#x2039;" horiz-adv-x="649" 
d="M535 680l-369 -262l301 -345l-146 -145l-326 372l132 140l527 373z" />
    <glyph glyph-name="guilsinglright" unicode="&#x203a;" horiz-adv-x="649" 
d="M114 61l369 262l-301 345l146 145l326 -372l-132 -140l-527 -373z" />
    <glyph glyph-name="guillemotright" unicode="&#xbb;" horiz-adv-x="1086" 
d="M544 61l369 262l-301 345l146 145l326 -372l-132 -140l-527 -373zM114 61l369 262l-301 345l146 145l326 -372l-132 -140l-527 -373z" />
    <glyph glyph-name="mu" unicode="&#xb5;" horiz-adv-x="1086" 
d="M535 680l-369 -262l301 -345l-146 -145l-326 372l132 140l527 373zM965 680l-369 -262l301 -345l-146 -145l-326 372l132 140l527 373z" />
    <glyph glyph-name="endash" unicode="&#x2013;" horiz-adv-x="1" 
d="M-694 975h596v-62h-596v62z" />
    <glyph glyph-name="emdash" unicode="&#x2014;" horiz-adv-x="1" 
d="M-1123 975h1062v-62h-1062v62z" />
    <glyph glyph-name="slash" unicode="/" horiz-adv-x="851" 
d="M816 1441l-677 -1489l-147 -142l678 1489z" />
    <glyph glyph-name="backslash" unicode="\" horiz-adv-x="776" 
d="M214 1441l565 -1489l-147 -142l-564 1489z" />
    <glyph glyph-name="asciicircum" unicode="^" horiz-adv-x="946" 
d="M332 790l560 497l42 30l293 -498l-146 -145l-290 492l-520 -463z" />
    <glyph glyph-name="Ugrave" unicode="&#xd9;" horiz-adv-x="1347" 
d="M335 1317q69 0 128 -70.5t104 -181.5q99 113 186 182.5t136 69.5l2 -1q-4 -79 21 -128q21 -41 59 -54q39 -16 95 4q83 27 150 100l94 77l-287 -1084q41 -10 84 1q108 25 230 148l15 -14q-231 -232 -366 -275l-5 -20l-147 -141l41 155q-47 14 -89 60l143 143l229 865
q-140 -130 -233 -161q-58 -21 -100 -5q-37 13 -60 56q-25 48 -22 127q-44 -2 -162 -142q36 -97 56 -202q28 -130 32 -260q5 -134 -16 -240q-34 -176 -123 -287.5t-244 -111.5q-158 0 -203 108q-28 75 -2 197q23 102 93 250q104 209 256 413q-45 120 -106.5 198t-132.5 78
q-27 0 -70 -33q-10 -9 -37 -38l-89 -64q128 143 228 222q75 59 112 59zM490 681q-13 71 -42 163q-74 -115 -129 -226q-65 -134 -91 -244q-26 -120 2 -193q42 -107 200 -107q54 0 76 109q21 107 16 239q-4 127 -32 259z" />
    <glyph glyph-name="uni0025" unicode="%" horiz-adv-x="1248" 
d="M1253 1237l-1243 -1243l-15 13l1243 1244zM650 1317q19 0 36 -3q60 -14 95 -64q36 -51 36 -122q0 -33 -7 -61q-26 -125 -187 -276q-127 -118 -223 -118q-22 0 -36 4q-59 11 -95 63q-36 51 -36 123q0 31 7 61q25 122 187 276q126 117 223 117zM541 1167q-22 4 -35 4
q-77 0 -108 -28q-3 -3 -2.5 -19.5t-8.5 -56.5q-7 -31 -7 -60q0 -71 35 -121q36 -51 94 -62q14 -4 35 -4q76 0 108 28q-6 -6 11 76q7 29 7 60q0 69 -35 120q-35 50 -94 63zM848 571q-97 0 -223 -118q-162 -152 -187 -276q-7 -28 -7 -61q0 -73 36 -121q35 -50 95 -64
q22 -4 36 -4q94 0 223 117q160 152 187 276q7 29 7 61q0 71 -36 123q-37 50 -95 64q-17 3 -36 3zM739 420q59 -13 94 -62q35 -51 35 -121q0 -30 -7 -60q-18 -85 -11 -76q-31 -27 -108 -27q-19 0 -35 3q-61 13 -94 63q-35 48 -35 120q0 30 7 60q15 79 11 76q28 28 108 28
q20 0 35 -4z" />
    <glyph glyph-name="perthousand" unicode="&#x2030;" horiz-adv-x="1633" 
d="M1253 1237l-1243 -1243l-15 13l1243 1244zM650 1317q19 0 36 -3q60 -14 95 -64q36 -51 36 -122q0 -33 -7 -61q-26 -125 -187 -276q-127 -118 -223 -118q-22 0 -36 4q-59 11 -95 63q-36 51 -36 123q0 31 7 61q25 122 187 276q126 117 223 117zM541 1167q-22 4 -35 4
q-77 0 -108 -28q-3 -3 -2.5 -19.5t-8.5 -56.5q-7 -31 -7 -60q0 -71 35 -121q36 -51 94 -62q14 -4 35 -4q76 0 108 28q-6 -6 11 76q7 29 7 60q0 69 -35 120q-35 50 -94 63zM1423 571q-97 0 -223 -118q-162 -152 -187 -276q-7 -28 -7 -61q0 -73 36 -121q35 -50 95 -64
q22 -4 36 -4q94 0 223 117q160 152 187 276q7 29 7 61q0 71 -36 123q-37 50 -95 64q-17 3 -36 3zM1314 420q59 -13 94 -62q35 -51 35 -121q0 -30 -7 -60q-18 -85 -11 -76q-31 -27 -108 -27q-19 0 -35 3q-61 13 -94 63q-35 48 -35 120q0 30 7 60q15 79 11 76q28 28 108 28
q20 0 35 -4zM848 571q-97 0 -223 -118q-162 -152 -187 -276q-7 -28 -7 -61q0 -73 36 -121q35 -50 95 -64q22 -4 36 -4q94 0 223 117q160 152 187 276q7 29 7 61q0 71 -36 123q-37 50 -95 64q-17 3 -36 3zM739 420q59 -13 94 -62q35 -51 35 -121q0 -30 -7 -60
q-18 -85 -11 -76q-31 -27 -108 -27q-19 0 -35 3q-61 13 -94 63q-35 48 -35 120q0 30 7 60q15 79 11 76q28 28 108 28q20 0 35 -4z" />
    <glyph glyph-name="degree" unicode="&#xb0;" horiz-adv-x="745" 
d="M650 1317q19 0 36 -3q60 -14 95 -64q36 -51 36 -122q0 -33 -7 -61q-26 -125 -187 -276q-127 -118 -223 -118q-22 0 -36 4q-59 11 -95 63q-36 51 -36 123q0 31 7 61q25 122 187 276q126 117 223 117zM541 1167q-22 4 -35 4q-77 0 -108 -28q-3 -3 -2.5 -19.5t-8.5 -56.5
q-7 -31 -7 -60q0 -71 35 -121q36 -51 94 -62q14 -4 35 -4q76 0 108 28q-6 -6 11 76q7 29 7 60q0 69 -35 120q-35 50 -94 63z" />
    <glyph glyph-name="ampersand" unicode="&#x26;" horiz-adv-x="1306" 
d="M451 194l-6 18q-13 49 15 96q84 147 213 200q12 5 24 8q33 8 84 -2t109 -24q75 -19 137.5 -64.5t69.5 -21.5l147 142q-55 -183 -161 -216.5t-223 -12.5v-11.5v-11.5q0 -82 27.5 -151t116.5 -69l-144 -147q-90 0 -118.5 69.5t-28.5 153.5q0 44 5 93q-90 -120 -198.5 -221
t-204.5 -95q-74 6 -149 70q-79 68 -117 164q-14 36 -15 66q-5 69 74 154q88 97 169 143q-26 26 -35 56q-18 52 16.5 123.5t101.5 141.5q76 78 161 129.5t157 52.5q72 0 142.5 -47t118.5 -161l-146 -145q-48 113 -117.5 159t-141.5 46q-111 0 -133 -22q-42 -45 -13 -131
q32 -100 201 -129l-145 -147q-66 -3 -134.5 -15t-125.5 -34q-2 -1 -4 -1q0 -17 1 -29q1 -30 15 -64q36 -96 116 -165q70 -63 148 -68q67 -6 138.5 81t112.5 146q15 24 25 36l6 7q-43 10 -83 18.5t-70 9.5q0 -4 1 -8t2 -7q1 -5 2.5 -9.5t3.5 -8.5zM180 414q5 11 10.5 20.5
t-7.5 -5.5q-3 -3 -3 -15z" />
    <glyph glyph-name="asterisk" unicode="*" horiz-adv-x="655" 
d="M241 1279l143 -138l-146 -145l-144 138zM427 1093l143 -138l-146 -145l-144 138zM433 1471l143 -138l-146 -145l-144 138zM619 1285l143 -138l-146 -145l-144 138z" />
    <glyph glyph-name="Euro" unicode="&#x2020;" horiz-adv-x="1524" 
d="M1032 1688h6q6 -15 22.5 -42.5t33 -59.5t29 -61.5t12.5 -49.5q0 -17 -3.5 -31t-3.5 -31q0 -35 16.5 -69.5t16.5 -65.5q0 -41 -31 -68q0 -6 10.5 -6t10.5 -4h-29q-10 -4 -18 -12l88 -33q0 -2 1 -2t1 -2h-4q-4 0 -8 4l-4 -4q-2 0 -3 4t-6 4q-2 0 -4 -2l-16 6
q-12 0 -26.5 8.5t-26.5 8.5q-13 0 -21 -6l-4 -5q-2 -2 -2 -4t2 -2l29 -16l-15 4q-6 4 -11 5t-9 5q-4 -2 -13.5 -4t-17.5 -7t-14 -16.5t-6 -31.5q0 -47 22.5 -97.5t30.5 -101.5q14 -57 9 -113.5t9 -109.5q2 0 19.5 29.5t39 65.5t41 67.5t25.5 38.5q21 39 44.5 75.5t39.5 79.5
l6 13q5 36 23 75t18 101q0 35 -8 66.5t-19 62t-19.5 61.5t-8.5 62q0 28 9.5 50.5t41.5 51.5h4l17 4l51 -12q25 -17 44.5 -50.5t31.5 -73.5t18 -82t6 -77q0 -196 -157 -422q0 -2 -6 -4q-43 -67 -77 -114.5t-57.5 -83t-36 -65.5t-12.5 -60q2 -2 6 -2q23 0 60 13t63 13
q41 0 64 -22l33 -41q16 -31 29.5 -69t13.5 -75q0 -49 -39 -82.5t-89.5 -55t-97.5 -33t-61 -15.5q-35 -2 -74 -11t-61 -14q-6 -12 -5 -27.5t-22 -19.5l-10 2q-17 -16 -55 -16q-11 0 -16 3t-9 3q-2 0 -3 -1t-3 -1l-31 16l-10 21h-35l-14 -37q-13 -4 -15 -4q-4 0 -24 4l-4 -14
q-4 -4 -8.5 -4t-6.5 -2l-4 -2l-28 20l-2 -4l-3 4q-4 -2 -8 -6q-2 -2 -2 -6h-4q-24 14 -24 55q-13 6 -29.5 5t-30.5 3l-45 6q-12 0 -33.5 3.5t-41 8.5t-36 10t-20.5 9q-92 23 -137 41t-74 18h-47l-14 5l-60 -11q27 -28 31 -61q0 -12 -8 -27l-41 -18l-6 -10l-19 -19l-24 -4
l-6 6l-39 17q-7 0 -7 -13v-4q0 -2 3 -2l47 -22l4 -13q0 -2 -4 -14l-11 -10q2 0 -14 -4h-10l-19 8l-20 22l-12 -10q0 -10 10 -14t22.5 -9.5t22.5 -11.5t10 -20q0 -2 -4 -14v-5q12 -8 26.5 -10t14.5 -22q0 -23 -10 -29t-25 -6q-10 0 -21.5 2t-21.5 2q-4 -4 -5 -2t-1 -2l41 -78
l-4 -8q-4 0 -12.5 11t-15.5 25.5t-12 28t-5 17.5q0 10 2 12q0 2 -2 4h-10q-2 -2 -2 -12v-11.5t2 -17.5l28 -45l-4 -8h-6q-8 20 -21.5 39.5t-13.5 46.5q6 6 6 12q0 2 -15 20.5t-15 37.5q0 14 8 24l8 12q-4 17 -4 19q0 12 12.5 35.5t27.5 48t30.5 45t19.5 24.5l6 17l15 10h6
l22 33l45 14h33l41 17l84 18q2 2 2 4q-23 72 -23 119t15.5 69.5t42.5 49.5l33 22q2 0 4 1t4 1l16 6h-2h2q4 0 6 2q27 -4 63 -17t64 -32q2 0 8.5 15.5t14.5 36t16 40t12 27.5q21 37 28 77t11 83t10.5 86t24.5 84q4 39 21.5 76.5t17.5 74.5q0 4 -1 9.5t-1 9.5l-31 18l-34 -10
l-11 2q-22 -6 -37.5 -19.5t-37.5 -13.5q-5 0 -7 1t-4 1l107 47l-31 25q-2 0 -19.5 -8t-19.5 -8q4 4 12.5 8t22.5 12q-18 19 -33.5 38t-15.5 48t12 53.5t12 51.5q0 22 -4 45.5t-10 52.5q0 20 12.5 51t27.5 59.5t28.5 49t15.5 20.5h10q4 0 12.5 -18.5t17.5 -42t18.5 -45
t19.5 -27.5q10 -8 21.5 -10t21.5 -2q16 0 31.5 2t31.5 2q31 0 59.5 -10.5t55.5 -10.5q14 0 24.5 2t19.5 13.5t19.5 36t22.5 67.5q14 57 49 64zM1055 1620q0 2 -2 10t-5.5 18.5t-6.5 18.5t-5 8q-8 0 -14 -10t-11 -21.5t-8.5 -21.5l-3.5 -10v2q2 -10 2 -22.5v-22.5v-35
q0 -39 9 -64q-2 -2 -3 -4t-3 -4q-19 23 -17 56.5t-2 62.5q-10 -33 -24.5 -65.5t-57.5 -32.5q-24 0 -53 10t-57 10q-17 0 -34.5 -3t-29.5 -3q-63 0 -90 51q-2 0 -2 -4t5 -22.5t5 -55.5q-8 -18 -12 -20q-2 0 -6 4v39q0 41 -9.5 64.5t-9.5 56.5q4 0 6 2l-4 35q0 2 -6 8l-4 -2
q-2 0 -2 -2l2 2q-4 0 -15.5 -27t-23.5 -59q-14 -37 -31 -88q0 -27 17.5 -46.5t17.5 -41.5q0 -19 -4 -32t-10 -23.5t-10 -18.5t-4 -21q0 -12 6 -36.5t16 -24.5l14 2v-4l-12 -2l8 -21l11 -4l131 27l-107 -2q0 2 2 4l-4 4l35 4q2 2 8 2h60q16 0 36.5 -2t20.5 -10q0 -2 -4 -2h6
q10 0 16 -2q0 -10 -4 -15h-8q-6 -12 -6 -14h2q-12 -12 -32.5 -12t-35.5 -6q0 -4 17.5 -7.5t34.5 -3.5q28 0 52.5 8.5t24.5 24.5q0 10 -20.5 26.5t-24.5 29.5q0 2 1 3t1 3t2 2v4q21 6 64 6q35 -10 37 -21v-4l-45 -45v-12q2 -8 8 -8l22 -6q11 -4 20 -7.5t26 -3.5q34 0 55 15
l-99 16l-12 12q2 13 10 15q2 -2 13 -2h10t16 2q47 0 93.5 -5t93.5 -7q10 16 23.5 29.5t13.5 33.5q0 14 -8.5 30.5t-19.5 33t-19.5 33t-8.5 28.5q0 18 12.5 34.5t12.5 39.5q0 37 -19.5 71.5t-29.5 69.5zM-55 -12h-4q2 0 2 -19l8 -6q8 4 14 10zM-76 2h-6q-4 -4 -4 -18
q0 -29 30.5 -46.5t65.5 -17.5h10l11 10q0 19 -6 23l-19 6q-18 0 -24 2l-21 -6q0 -2 -1 -2t-1 -2t6 -2l25 4l16 -2l4 -10h2q-6 -7 -20 -11q-29 4 -47.5 16.5t-18.5 35.5q0 10 4 18l-2 2h-4zM-55 76l-2 2q-2 0 -9.5 -10.5t-7.5 -20.5q0 -33 24.5 -46t33.5 -13q8 0 8 6
q0 4 -8.5 16.5t-18.5 12.5q-4 0 -4 -5l10 -6l6 -12q0 -2 -6 -2q-10 4 -24.5 16.5t-14.5 30.5q0 10 7.5 16.5t7.5 10.5q0 2 -1 2t-1 2zM-27 125l-8 -4l-8 -33q4 -12 4 -10l10 -15q4 -8 6 -14l15 -2q4 -4 6 -4q4 0 6 1t6 1l4 -2l4 12l-14 15l-22 6l24 -21v-4q-2 0 -2 -1t-2 -1
t-2 3t-4 3h-6q-13 2 -25 43zM-8 143h-2q0 -2 -1 -2t-1 -2q0 -10 18.5 -24.5t38.5 -14.5q0 -2 -2 -2v8l-33 17zM2 168q-2 -2 -2 -6q8 -19 22.5 -30t24.5 -11q6 0 8 2l-41 24zM76 184v-6q2 2 4 2q-6 2 -6 4h2zM29 203l-2 2l-9 -4q-2 -4 -2 -15q0 -16 7.5 -24t42.5 -25
q6 2 14 2l-29 15q-20 20 -20 49h-2zM154 258q-17 -8 -36.5 -8t-34.5 -2t-25.5 -12.5t-10.5 -38.5q0 -11 7 -24t18 -19l24 -9l10 2q7 3 9 9q0 28 -12.5 42.5t-24.5 18.5q-6 0 -6 -6q0 -4 10 -11t20 -24q0 -2 -2 -8t-10 -12q-6 0 -14 8l-10 10h-5q-2 0 -2 2l-2 -2h2
q-6 8 -6 23q0 20 10.5 30.5t25.5 14.5t30.5 5t27.5 5h7q6 0 6 4v2h-6zM844 260l-45 -2q0 -18 -3 -34.5t-3 -33.5q0 -24 12 -36l33 4q12 55 12 92q0 10 -6 10zM248 276l-62 -6q-10 -4 -10 -14q0 -2 2 -4l92 -2l-14 26h-8zM629 299h-2q-2 -2 -2 -4q2 0 2 -1t2 -1v2q2 2 2 4h-2
zM596 309l-4 2l-4 -8v2q0 -4 4 -5t6 -1t4 2q-2 2 -3 4t-3 4zM1030 324q-14 -2 -14 -13h4q6 0 16 11q-6 0 -6 2zM535 467l-7 -8q-2 -2 -6 -2h-8q-4 0 -4 -2l51 -15zM1382 469l-2 -29q-37 -12 -72.5 -21t-66.5 -16.5t-51.5 -11.5t-24.5 -6q-12 -2 -21 -3t-20 -1q-18 0 -22 2
q-2 -2 -2 -4l28 -60q-4 -4 -6 -4t-6 4l-6 11q-2 2 -4 2q-21 -15 -50.5 -29t-51.5 -16q-13 -25 -14 -51.5t-3 -51.5q4 -12 14 -14q119 23 182.5 39t97.5 33.5t52.5 42t46.5 63.5q13 33 13 66q0 24 -11 55zM516 481l-2 2q-6 -12 -6 -14h4q8 2 10 8q-2 0 -6 4zM279 485h-3
q-12 -41 -12 -73q0 -13 3 -41.5t8.5 -58t11.5 -51t12 -21.5q104 -35 196.5 -57.5t153.5 -22.5q23 0 29 2q0 8 -1 24.5t-3 33t-7 31.5t-12 21q-12 -4 -20 -4h-27h-14q-35 0 -43 -12t-19 -23q-6 3 -12 3h-2v4l57 118q-40 15 -74 23t-68 20.5t-70.5 31t-81.5 52.5h-2zM494 500
l-11 -15q0 -4 1 -6t1 -4v-4q-4 -10 -6 -10v6q10 -8 17 -8q4 0 4 12l-8 12l8 13q-2 2 -3 2t-3 2zM1221 510q-4 0 -5.5 -3t-5.5 -3t-4 3t-2 3q-6 -6 -6 -10t4 -4l25 10q-4 4 -5 2t-1 2zM1171 522l-20 -10l-51 -37q4 -4 8 -4q14 0 41 7t41 18l-6 6l-8 -4l-9 10l9 14h-5z
M444 528l-2 -6q-6 -6 -12 -8q0 -2 1 -5t1 -5l-10 -10l49 -25l-4 8q0 10 2 9t6 3v23h-6q0 -10 -10 -10v-15l-8 -4q-11 4 -11 9q2 0 2 2t2 6l5 4v8q0 14 2 14t2 -2zM1329 532l-16 -10q-10 -2 -21.5 -9t-33 -16.5t-57.5 -19.5t-93 -22q-2 2 -8 2q-6 -4 -6 -6v-29q0 -19 8 -22
t20 -3q25 0 58.5 6.5t68.5 17.5t66 27.5t51 36.5v7q-16 26 -37 40zM420 541l-4 2l-2 -11l-11 -6q-4 -14 -6 -16l9 -8q0 -6 2 -6q0 2 2 4l14 39q0 2 -4 2zM328 543l-31 -23l-6 -10q-4 -4 -4 -6l41 -35q16 -4 39.5 -17.5t54.5 -27.5t69.5 -27.5t86.5 -17.5l4 18q0 2 2 4
q0 11 -9 19l-40 6l-13 8q-41 6 -66.5 23.5t-45.5 21.5q-21 13 -41.5 23t-34.5 28l-2 11q-2 2 -4 2zM377 545h6q2 0 2 -8q0 -5 -8 -5q-6 0 -6 7l4 6h2zM1270 547l-35 -2q-4 -13 -8 -13v5q0 -5 1 -7t1 -4t-2 -2l8 11q0 2 2 2h6q2 -2 2 -9q0 -6 -5 -10t-5 -8v2q2 0 4 -1t6 -1
q17 8 37.5 16.5t32.5 20.5h-45zM358 555q-10 -4 -11 -5t-1 -5t4 -8l23 -17q4 0 5 -3t5 -3h2q0 2 -1 2t-1 2q0 8 6 19l6 12q2 0 4 -2zM1071 643l-57 -305h33l10 6l28 4q0 12 -9 21.5t-9 36.5q0 32 5 50.5t12.5 29t18.5 17.5t23 17l-12 33zM575 670h-4q-12 -13 -23 -33.5
t-20.5 -42t-14.5 -42t-5 -30.5q0 -12 15.5 -25.5t33.5 -30.5t33.5 -40t15.5 -51q0 -29 -8 -47q2 -9 10 -9l45 -2q-16 48 -22 99t-17 76q-16 32 -24 76t-15 102zM999 1133q-12 -13 -60 -27t-95 -25q-17 4 -31 4t-31 7q-30 2 -59 14t-51 20v-14q0 -22 -9.5 -46t-15.5 -44
q-22 -59 -29.5 -115.5t-7.5 -115.5q0 -78 10.5 -155t24.5 -155q25 -86 32 -165.5t19 -161.5q-2 -7 -8 -11t-8 -8l-2 -16q0 -2 4 -2l2 2q2 2 4 2q2 -2 3 -4t3 -4l-4 -15h6l15 54l8 4q4 -4 6 -3t2 -6q0 -10 -4 -21t-4 -20q0 -14 4 -18q0 12 4 12q8 -4 9 -10t3 -6q6 0 11 4
q-2 10 -8.5 20.5t-6.5 20.5q0 2 1 7t5 5t12.5 -21.5t18.5 -25.5q2 0 3 1t3 1v-2l-6 27q2 2 6 2q0 -2 10 -12q3 0 3 -2.5t2 -2.5l-2 5q0 2 3 8t3 16q0 8 -11 19h-2q-2 0 -4 2l-12 10q-4 8 -4 24q0 58 13.5 123.5t13.5 137.5q0 59 -5.5 116.5t-9.5 110.5q0 2 2 6t6 4
q9 0 17 -27.5t13 -64.5t8 -74t3 -53q0 -47 -7 -94t-17 -94q16 -5 20 -5q17 0 33 11l2 30q2 21 3 39.5t1 36.5q0 29 -1 58.5t-1 58.5q0 18 4 48t10.5 59.5t12.5 51t12 21.5q4 -4 4 -12q0 -12 -6 -31q-6 -45 -8 -89t-2 -91q0 -41 1 -84t1 -84q0 -49 -7.5 -73.5t-11.5 -55.5
q9 -20 5.5 -35.5t13.5 -32.5h4l2 25l8 4l8 -14h4q5 4 5 12t-11 35q0 2 4 6q11 0 17 -16.5t6 -24.5q0 -10 -6 -18.5t-6 -14.5l16 2q4 4 4 8v5l-2 -2l8 4q2 -2 8 -2q11 10 11 22q0 21 -10.5 23t-10.5 12q0 6 4 6q8 -4 12.5 -6t6.5 -4l14 -37l8 -2l4 12q0 10 -10 27l-27 10
q-6 19 -6 37q0 29 8.5 57.5t18.5 57.5q61 217 61 426q0 77 -8 154t-24 149q-9 16 -9 78zM831 1174q-16 -7 -20 -11l31 4l-8 7h-3zM666 1176l-29 -2q-2 -5 -2 -9t26.5 -14t61.5 -19.5t69.5 -16.5t51.5 -7h12q41 0 80 17.5t57 29.5l27 16q-4 3 -7 1.5t-7 3.5q-27 -5 -50.5 -16
t-48.5 -11q-12 0 -21 4t-14 4q-10 0 -23 -8t-30 -8q-20 0 -35 12q-12 -4 -28 -4q-25 0 -47.5 8t-42.5 19zM1178 1198l65 -10l-69 6q-3 2 -3 6q0 2 -2 2q0 -2 2 -2q3 0 3 -1t4 -1zM719 1214q-14 -4 -35.5 -6t-42 -4t-35 -4t-16.5 -8l14 -12l8 -2l125 34zM586 1239l12 -2v-4
l-16 4zM829 1264l-30 -7q0 -2 2 -2l26 -8q2 0 2 1t2 1q3 0 3 -1t2 -1l8 -18q4 16 7 19t11 3h4q0 2 1 2t1 2v2zM700 1354q27 2 57.5 -17.5t30.5 -50.5q0 -14 -6 -14q-4 0 -6 5t-8 5q-10 -4 -16.5 -7t-16.5 -3q-33 0 -59 26l-21 35l-16 6q-2 0 -2 4v3q0 2 2 4zM768 1470
l-27 -90h-12q-2 0 -2 2h-12q-2 0 -4 2l-13 80q4 -6 8.5 -16t7.5 -21.5t6 -19.5l3 -8q2 0 3 19.5t5 31.5l6 -43l29 63h2zM1018 1366l8 -2v-8q0 -4 -8 -6q-35 -74 -74 -74q-10 0 -19.5 3t-19.5 5q-4 0 -4 -7t-4 -7q-12 0 -12 16q0 23 22.5 44.5t55.5 31.5q6 0 13 -1t13 -1
q12 0 29 6zM989 1436l-14 -43q-4 -4 -6 -2t-2 -2l20 47h2zM952 1444v-51q-4 -4 -7 -2t-3 -2v-3l4 3v-3l-4 9l8 49h2zM924 1448l12 -62q0 -4 -6 -4q-8 17 -8 33.5v32.5h2zM682 1333l-2 -2q0 -12 18 -31l21 -8q0 4 -1 6t-1 7q0 16 8 24zM1366 1571q-29 -10 -39 -25.5
t-10 -40.5q0 -14 6 -32q53 -103 53 -211q0 -68 -20.5 -133.5t-52 -126t-69.5 -116t-71 -100.5q-16 -32 -36.5 -62t-28.5 -71q2 -6 8 -23.5t14 -36t15.5 -32.5t11.5 -14l2 2q6 43 26.5 75.5t36.5 71.5q25 43 53.5 93.5t65.5 105.5q58 86 98.5 185.5t40.5 234.5q0 26 -3 58
t-9 63.5t-17 60.5t-30 49l-8 8q-2 2 -2 5q0 -3 2 -5q-17 17 -33 17h-4zM739 1325h-2q2 -2 2 -10t-4 -15.5t-4 -13.5q4 0 5 -1t5 -1q11 0 25 8q-2 4 -9 11.5t-18 21.5zM938 1331q-16 -8 -20.5 -20.5t-4.5 -14.5l19 -8q4 0 5 1t3 1h4q-8 15 -8 29q0 10 2 12zM967 1346
q-4 -5 -8.5 -5t-6.5 -2l-4 -2q0 -4 6 -6l4 -39q19 13 27 28t10 26h-28zM991 1196l45 -16q13 2 13 8zM1030 1208l39 -12l2 2q2 0 2 1t2 1q0 4 -2 6z" />
    <glyph glyph-name="underscore" unicode="_" horiz-adv-x="1707" 
d="M-3 -428h1710v-102h-1710v102z" />
    <glyph glyph-name="paragraph" unicode="&#xb6;" horiz-adv-x="1178" 
d="M733 -248q0 -17 -2.5 -22.5t-11.5 -5.5h-51q-10 0 -12.5 7t-2.5 25v727q-48 3 -107.5 11t-120.5 27t-119.5 51t-103.5 84t-72.5 126t-27.5 176q0 151 55 246.5t158 150t249 75t329 20.5h194q23 0 23 -14v-35q0 -9 -4.5 -13t-20.5 -4h-120v-1644q0 -9 -2.5 -12.5
t-12.5 -3.5h-51q-9 0 -11.5 5t-2.5 25v1626q-9 0 -30 -1t-44 -2.5t-44.5 -3.5t-33.5 -3v-1618z" />
    <glyph glyph-name="at" unicode="@" horiz-adv-x="1141" 
d="M911 257q-164 -193 -314 -271q-105 -59 -215 -59q-24 0 -66 6q-145 27 -233 157q-88 132 -88 319q0 71 13 142q25 135 97.5 265t175.5 238q117 122 238.5 192.5t229.5 70.5q152 0 256 -110q105 -111 127 -291q14 -128 -12 -198q-15 -42 -43.5 -82t-70.5 -92l-103 -129
l-131 -123q-71 -3 -88 65q-8 33 -3 93q-8 -9 -25 -26q-139 -138 -241 -138q-18 0 -33 3q-64 11 -103 68q-39 54 -39 135q0 25 5 59q25 124 170 269q142 138 241 138q18 0 33 -3q64 -12 103 -68q6 -9 11 -17l101 99l-62 -290q-25 -121 -10 -176q10 -51 53 -61l3 4
q31 39 52.5 69t33.5 63q25 67 10 193q-20 180 -125 290q-104 110 -254 110q-182 0 -280 -102q-124 -128 -170 -376q-13 -70 -13 -140q0 -186 87 -317q88 -131 232 -157q27 -5 65 -5q104 0 206 54q64 35 76 48zM545 808q-24 4 -64 3t-57 -18q-18 -18 -27.5 -73t-9.5 -84
q0 -78 38 -133q40 -56 102 -67q17 -3 32 -3q77 0 92 15q10 10 28 103q5 33 5 57q0 77 -38 133q-38 54 -101 67z" />
    <glyph glyph-name="plus" unicode="+" horiz-adv-x="803" 
d="M317 350l86 323h-334l144 147h230l48 181l147 142l-86 -323h335l-144 -147h-231l-48 -181z" />
    <glyph glyph-name="glyph123" unicode="&#x20ac;" horiz-adv-x="1151" 
d="M139 575h50q10 46 27 98h-221l144 147h144q67 122 174 234q117 122 239 192.5t230 70.5q66 0 123 -21q61 -24 107 -64l-146 -145q-46 40 -106 62q-59 22 -122 22q-184 0 -282 -102q-86 -90 -138 -249h533l-144 -147h-424q-7 -51 -9 -98h409l-144 -147h-254
q21 -110 76 -192q87 -130 232 -157q27 -5 64 -5q107 0 208 54q63 34 75 48l104 81q-162 -192 -314 -271q-108 -59 -217 -59q-25 0 -65 6q-144 27 -234 157q-87 130 -87 319v9v10h-176z" />
    <glyph glyph-name="bullet" unicode="&#x2022;" horiz-adv-x="280" 
d="M261 773l143 -138l-146 -145l-144 138z" />
    <glyph glyph-name="guillemotleft" unicode="&#xab;" horiz-adv-x="1086" 
d="M535 680l-369 -262l301 -345l-146 -145l-326 372l132 140l527 373zM965 680l-369 -262l301 -345l-146 -145l-326 372l132 140l527 373z" />
    <glyph glyph-name="plusminus" unicode="&#xb1;" horiz-adv-x="897" 
d="M17 152l144 147h674l-144 -147h-674zM403 350l86 323h-334l144 147h230l48 181l147 142l-86 -323h335l-144 -147h-231l-48 -181z" />
    <glyph glyph-name="logicalnot" unicode="&#xac;" horiz-adv-x="803" 
d="M69 673l144 147h674l-144 -147h-674z" />
    <glyph glyph-name="uni00AD" unicode="&#xad;" horiz-adv-x="803" 
d="M69 673l144 147h674l-144 -147h-674z" />
    <glyph glyph-name="brokenbar" unicode="&#xa6;" horiz-adv-x="507" 
d="M512 1315l-373 -1363l-147 -142l374 1363z" />
    <glyph glyph-name="section" unicode="&#xa7;" horiz-adv-x="803" 
d="M69 673l144 147h674l-144 -147h-674z" />
    <glyph glyph-name="twosuperior" unicode="&#xb2;" horiz-adv-x="1" 
d="M-675 975h596l-19 -62h-596z" />
    <glyph glyph-name="threesuperior" unicode="&#xb3;" horiz-adv-x="1" 
d="M-1096 975h1062l-27 -62h-1062z" />
    <glyph glyph-name="odieresis" unicode="&#xf6;" horiz-adv-x="835" 
d="M-5 384l370 370l78 59q-49 -88 -94.5 -191.5t-69.5 -201.5q-31 -124 -26 -260.5t131 -156.5t186 194q-56 -11 -76 0q-25 15 -41 52q-23 60 -15 153q9 90 53 182q48 97 105.5 160.5t114.5 63.5q35 0 44 -74q8 -49 1 -122q-6 -77 -25 -151q-16 -72 -39 -133q8 2 28.5 1
t109.5 55l15 -14q-133 -93 -190 -137q-47 -110 -126 -197.5t-218 -108.5q-50 0 -89 14q-83 32 -104 125q-17 80 14 212q22 88 61 181t84 177l-267 -266zM596 364q10 67 13 104l-1 121q-3 24 -8 36q-12 -48 -32.5 -131.5t28.5 -129.5zM467 869l56 209v31l72 71l81 63
l-62 -232zM826 1243l-52 -198l-5 -33l-71 -79l-81 -64l62 233z" />
    <glyph glyph-name="agrave" unicode="&#xe0;" horiz-adv-x="1422" 
d="M652 -556q-17 14 -17 41q0 59 62.5 151.5t185.5 215.5l127 123l164 609l-453 -541l-127 -113l176 656l-573 -584l-89 -72l185 723l-284 -283l-14 14l397 400l80 63l-184 -720l493 499l27 102q23 85 52.5 165.5t67.5 146.5q36 61 75 112t80.5 87.5t85.5 57t91 20.5
q27 0 46.5 -13t19.5 -42q-1 -57 -64 -151.5t-184 -215.5l-128 -126l-163 -610l453 545l127 113l-176 -657l226 224l14 -14l-251 -250l-27 -102q-23 -85 -52 -164.5t-67 -145.5q-37 -62 -76.5 -113t-81 -87.5t-85.5 -56.5zM901 -160q-24 -24 -46 -51.5t-38 -55t-25.5 -53.5
t-9.5 -47q0 -26 14 -54t96 -2q17 17 39.5 77.5t42.5 187.5l26 94zM961 809l82 93q57 52 96.5 110t39.5 106q0 27 -8 53.5t-71 32.5q-36 -61 -64 -140t-50 -161z" />
    <glyph glyph-name="aacute" unicode="&#xe1;" horiz-adv-x="547" 
d="M595 -70l42 155q-50 13 -90 60l145 147l88 327q-43 -55 -99 -117t-484 -500l-89 -72l185 723l-284 -283l-14 14l397 400l80 63l-184 -720q324 330 359 375q45 57 80 114t61.5 117t49.5 127t44.5 144t45.5 169l147 142l-73 -275q109 129 207.5 203t178.5 74q51 0 51 -64
q0 -41 -24 -108.5t-66.5 -150t-102 -175t-130 -184.5t-150 -177.5t-162.5 -154.5l-19 -72q10 -3 19.5 -4t19.5 -1q60 0 130.5 40.5t147.5 117.5l14 -14q-236 -236 -369 -279l-5 -20zM974 937l-152 -566q55 43 108 100t101.5 120.5t91 129t75 126t55 112t30.5 87.5q9 36 9 63
q0 62 -48 62q-85 0 -144 -53q-28 -25 -126 -181z" />
    <glyph glyph-name="onequarter" unicode="&#xbc;" horiz-adv-x="1248" 
d="M1253 1237l-1243 -1243l-15 13l1243 1244zM218 911l366 366l81 63l-206 -765l-146 -141l198 741l-278 -279zM917 136h-90l-18 -65l-147 -141l56 206h-388l63 80l534 536l82 65l-143 -534h195zM757 283l99 369l-366 -369h267z" />
    <glyph glyph-name="onehalf" unicode="&#xbd;" horiz-adv-x="1248" 
d="M1253 1237l-1243 -1243l-15 13l1243 1244zM218 911l366 366l81 63l-206 -765l-146 -141l198 741l-278 -279zM807 300q-100 64 -127 140q-20 51 -2 100q35 100 192 215q91 65 222 65q45 0 75 -14q42 -20 54 -68q10 -45 -10 -110q-36 -116 -153 -262q-82 -102 -143 -145.5
t-121 -76.5q-22 -12 -32 -19q52 30 87.5 21t68.5 -26q50 -26 104.5 -36.5t111.5 65.5l129 113q-218 -292 -318.5 -307.5t-171.5 20.5q-39 19 -56 50t-28 18l-126 -111q39 87 84 135t98 77q48 27 100.5 48.5t95.5 75.5q91 113 124 219q19 63 9 106q-11 46 -52 66
q-30 14 -74 14q-73 0 -131 -19q-4 -37 9 -68q29 -76 126 -140z" />
    <glyph glyph-name="threequarters" unicode="&#xbe;" horiz-adv-x="1342" 
d="M1347 1237l-1243 -1243l-15 13l1243 1244zM1011 136h-90l-18 -65l-147 -141l56 206h-388l63 80l534 536l82 65l-143 -534h195zM851 283l99 369l-366 -369h267zM245 792q-100 64 -127 140q-20 51 -2 100q35 101 193 215q89 65 221 65q41 0 72 -13q43 -18 56 -63
q11 -43 -5 -104q-25 -92 -102 -202q72 -28 94 -86q14 -42 2 -90q-14 -53 -61 -110q-78 -96 -168 -160t-171 -64q-85 0 -133 29q-64 39 -74 119l147 145q11 -82 72 -118q50 -29 132 -29q48 0 59.5 -14t18.5 -5q20 24 31 65q12 47 -2 86q-22 60 -96 86l6 15q75 102 98 191
q16 59 5 101q-13 42 -54 62q-29 12 -70 12q-74 0 -131 -19q-5 -33 9 -68q27 -76 126 -140z" />
    <glyph glyph-name="multiply" unicode="&#xd7;" horiz-adv-x="1299" 
d="M1112 680l-369 -262l301 -345l-146 -145l-324 369l-521 -369l119 133l369 262l-301 345l146 145l323 -369l522 369z" />
  </font>
</defs>
</svg>
