<?xml version="1.0" standalone="no"?>
<!DOCTYPE svg PUBLIC "-//W3C//DTD SVG 1.1//EN" "http://www.w3.org/Graphics/SVG/1.1/DTD/svg11.dtd" >
<svg xmlns="http://www.w3.org/2000/svg" xmlns:xlink="http://www.w3.org/1999/xlink" version="1.1">
<metadata>
Created by FontForge 20200427 at Fri Jan  1 08:00:00 1904
 By www
COPYRIGHT ESSELTE LETRASET LTD., 1990 
</metadata>
<defs>
<font id="SavoyeLetPlain" horiz-adv-x="819" >
  <font-face 
    font-family="Savoye LET"
    font-weight="5"
    font-stretch="normal"
    units-per-em="2048"
    panose-1="0 0 0 0 0 0 0 0 0 0"
    ascent="1638"
    descent="-410"
    x-height="568"
    cap-height="1348"
    bbox="-341 -405 2095 1456"
    underline-thickness="45"
    underline-position="-294"
    unicode-range="U+0020-F002"
  />
<missing-glyph horiz-adv-x="1024" 
d="M82 1365h860v-1365h-860v1365zM123 1324v-1283h778v1283h-778z" />
    <glyph glyph-name=".notdef" horiz-adv-x="1024" 
d="M82 1365h860v-1365h-860v1365zM123 1324v-1283h778v1283h-778z" />
    <glyph glyph-name=".null" horiz-adv-x="0" 
 />
    <glyph glyph-name="nonmarkingreturn" horiz-adv-x="355" 
 />
    <glyph glyph-name="space" unicode=" " horiz-adv-x="355" 
 />
    <glyph glyph-name="exclam" unicode="!" horiz-adv-x="540" 
d="M143 151q35 0 58 -23t23 -58t-23 -58t-58 -23q-33 0 -58 23q-24 23 -24 58q0 36 24 58q25 23 58 23zM304 1206l133 60l-253 -1020l-28 -13z" />
    <glyph glyph-name="quotedbl" unicode="&#x22;" horiz-adv-x="250" 
d="M206 739l-41 -114h-16l8 130l2 21q4 49 32 49q14 0 22 -8t8 -21q0 -12 -15 -57zM108 739l-40 -114h-17l8 130l2 21q4 49 33 49t29 -29q0 -16 -15 -57z" />
    <glyph glyph-name="numbersign" unicode="#" 
d="M82 1351v-1337h655v1337h-655zM751 0h-683v1365h683v-1365z" />
    <glyph glyph-name="dollar" unicode="$" horiz-adv-x="582" 
d="M277 336l-4 5l-64 -311q43 1 79 21q34 19 54 53q19 32 19 72q0 72 -84 160zM216 510l7 -8l57 280q-56 -3 -94 -40q-40 -37 -40 -90q0 -72 70 -142zM228 388l-4 3l-73 -354l6 -1q10 -3 28 -5l68 330q-2 2 -7.5 8t-17.5 19zM304 782l-61 -299l29 -29l66 321q-10 4 -34 7z
M333 921l-21 -101h10q18 0 25 -1l21 102h24l-22 -106q89 -18 143 -90l-49 -53q-46 67 -104 94l-68 -331l4 -4q59 -56 87 -107q26 -50 26 -106q0 -87 -57 -150q-58 -63 -151 -77l-22 -106h-24l22 104h-14q-15 0 -21 1l-22 -105h-24l22 108q-52 7 -100 35q-45 26 -76 68l60 64
q37 -81 127 -116l75 368l-4 4q-55 58 -79 104q-22 43 -22 91q0 78 55 137q55 60 134 70l21 103h24z" />
    <glyph glyph-name="percent" unicode="%" horiz-adv-x="886" 
d="M678 326q0 53 -19 81t-55 28q-62 0 -103 -80q-59 -120 -59 -230q0 -120 79 -120q40 0 76 46q37 48 59 120t22 155zM355 697q0 51 -19 80q-20 29 -55 29q-61 0 -102 -81q-59 -120 -59 -229q0 -121 79 -121q40 0 76 47q35 45 58 120q22 72 22 155zM749 283q0 -77 -31 -146
q-32 -71 -84 -113t-109 -42q-71 0 -113 48q-42 47 -42 129q0 77 32 147q31 67 86 111q54 42 113 42q67 0 108 -47q40 -46 40 -129zM398 766q29 -47 29 -116q0 -77 -31 -145q-31 -69 -84 -111q-52 -42 -109 -42q-71 0 -113 48t-42 129q0 119 70 210q69 91 160 91q28 0 91 -26
q57 -25 86 -33q32 -9 65 -9q59 0 109 32q49 31 75 86l28 -20l-628 -897l-23 17l561 798q-56 -41 -123 -41q-54 0 -121 29z" />
    <glyph glyph-name="ampersand" unicode="&#x26;" horiz-adv-x="1535" 
d="M497 819l1 -17q145 78 216 133q54 39 88 97q33 56 33 105q0 43 -26 67q-27 24 -71 24q-64 0 -119 -52q-56 -53 -89 -141t-33 -190v-26zM794 71q-153 101 -250 275q-49 88 -77 183.5t-35 195.5l-1 5q-224 -143 -224 -348q0 -153 107 -254q107 -102 268 -102q112 0 212 45z
M825 52q-3 -1 -3 -2l-8 -4q-139 -72 -295 -72q-122 0 -218 44q-96 43 -147 125q-52 80 -52 188q0 243 322 426l7 4v4v2q0 109 33 212t87 169q98 119 215 119q63 0 103 -36q39 -37 39 -91q0 -122 -181 -237q-33 -22 -112 -66q-88 -49 -117 -63q5 -94 47 -206
q43 -119 103 -205q92 -134 234 -239q68 48 125 117q55 65 87 137q31 69 31 132q0 64 -33 104q-34 39 -87 39q-140 0 -208 -245l-52 77q20 65 57 116q37 50 87 79q49 28 102 28q48 0 87 -24q40 -25 62 -67q22 -43 22 -95t-19 -106q-21 -59 -52 -110q-34 -56 -82 -108
q-47 -51 -101 -91l5 -3q101 -64 206 -64q81 0 137 31q56 32 114 105l14 -16q-118 -181 -310 -181q-128 0 -249 73z" />
    <glyph glyph-name="quotesingle" unicode="'" horiz-adv-x="153" 
d="M108 739l-40 -114h-17l8 130l2 21q4 49 33 49t29 -29q0 -16 -15 -57z" />
    <glyph glyph-name="parenleft" unicode="(" horiz-adv-x="683" 
d="M744 1456l-6 -25q-81 -24 -143 -84q-62 -62 -118 -173q-44 -90 -84 -214q-37 -112 -71 -260q-30 -130 -49 -269q-19 -129 -19 -232q0 -95 17 -163q17 -67 52 -111q35 -45 92 -71l-5 -24q-111 42 -170 170q-59 129 -59 329q0 143 36 309q35 167 99 324q62 156 143 276
q33 47 67 84.5t75 70.5q74 56 143 63z" />
    <glyph glyph-name="parenright" unicode=")" horiz-adv-x="683" 
d="M-78 -170l5 25q83 24 145 85q62 62 117 172q55 111 109 293q52 184 83 364q31 182 31 318q0 142 -38 226q-39 82 -123 118l5 25q111 -41 170 -169q58 -126 58 -331q0 -138 -35 -307q-37 -170 -100 -326q-64 -160 -142 -275q-67 -98 -139 -152q-73 -57 -146 -66z" />
    <glyph glyph-name="asterisk" unicode="*" horiz-adv-x="476" 
d="M356 1337h33l-33 -139l107 97l19 -26l-114 -90l122 5l-8 -38l-126 7l73 -97l-28 -25l-59 100l-28 -145h-33l31 135l-94 -99l-20 34l114 97l-121 -7l8 38l114 -5l-69 90l31 26l54 -97z" />
    <glyph glyph-name="plus" unicode="+" 
d="M82 1351v-1337h655v1337h-655zM751 0h-683v1365h683v-1365z" />
    <glyph glyph-name="comma" unicode="," horiz-adv-x="475" 
d="M6 -165l-15 23q64 41 104 81q39 39 53 78q-28 -22 -52 -22q-27 0 -42 18q-15 17 -15 45q0 40 26 71q26 29 64 29q31 0 52 -23q21 -24 21 -59q0 -61 -55 -128q-56 -68 -141 -113z" />
    <glyph glyph-name="hyphen" unicode="-" horiz-adv-x="485" 
d="M57 327h244l-9 -45h-244z" />
    <glyph glyph-name="period" unicode="." horiz-adv-x="475" 
d="M202 86q0 -40 -25 -68q-26 -29 -61 -29q-70 0 -70 70q0 28 12 50t32 36q19 13 42 13q31 0 51 -20q19 -19 19 -52z" />
    <glyph glyph-name="slash" unicode="/" horiz-adv-x="775" 
d="M824 1446l26 -13l-845 -1590l-25 14z" />
    <glyph glyph-name="zero" unicode="0" horiz-adv-x="695" 
d="M513 606q0 95 -34 145q-34 51 -97 51q-128 0 -220 -230q-36 -91 -58 -194q-21 -100 -21 -174q0 -93 35 -146q34 -52 97 -52q60 0 110 50t98 157q42 91 66 199q24 107 24 194zM600 551q0 -109 -42 -229q-44 -122 -113 -206q-109 -133 -233 -133q-94 0 -153 77t-59 204
q0 118 49 241q49 127 130 217q91 103 204 103q96 0 157 -75q60 -76 60 -199z" />
    <glyph glyph-name="one" unicode="1" horiz-adv-x="394" 
d="M241 26l-5 -26h-304l5 26h28q49 0 68 16q19 15 28 61l8 37l86 418l6 35q6 26 6 40q0 26 -21 26q-16 0 -47 -16l-83 -45l-5 22l19 14l112 78q90 64 127 95h26q-25 -82 -57 -240l-88 -427q-10 -50 -10 -73q0 -26 13 -33q13 -8 52 -8h36z" />
    <glyph glyph-name="two" unicode="2" horiz-adv-x="604" 
d="M457 183h15l-61 -182q-46 -9 -98 -9q-55 0 -112 7q-112 12 -164 12q-71 0 -146 -19v28q53 36 141 103q73 55 160 132q80 72 133 134q48 59 71 115q22 54 22 114q0 80 -41 130q-42 48 -111 48q-68 0 -119 -45t-51 -106q0 -30 17 -53q17 -25 42 -32q-16 -28 -50 -28
q-33 0 -54 23q-22 22 -22 58q0 78 83 146q82 67 180 67q96 0 155 -56q58 -55 58 -148q0 -71 -33 -133q-36 -64 -113 -138q-26 -26 -85.5 -74.5t-154.5 -118.5q-76 -58 -99 -75q39 7 87 7q36 0 69 -3l81 -6q46 -2 50 -2q55 0 89 24q33 23 61 80z" />
    <glyph glyph-name="three" unicode="3" horiz-adv-x="631" 
d="M529 807l7 -27l-237 -256q59 -15 99 -48q42 -34 64 -81q22 -48 22 -105q0 -82 -44 -153q-43 -70 -118 -113q-74 -43 -159 -43q-92 0 -159 50q-66 50 -66 120q0 39 21 64q20 26 54 29q-5 -22 -5 -38q0 -54 25 -97q26 -47 68 -71q44 -26 96 -26q57 0 109 31q51 31 83 84
q31 52 31 108q0 55 -26 105q-26 48 -73 83q-46 33 -106 45l235 259h-171h-50q-63 0 -91 -17q-26 -16 -55 -73h-21l75 187q28 -12 56 -13q36 -4 106 -4h230z" />
    <glyph glyph-name="four" unicode="4" horiz-adv-x="626" 
d="M378 586l-43 -276l6 -1q49 -10 87 -10q29 0 45 4q20 3 54 19l-35 -89q-34 -9 -74 -9q-47 0 -94 10l-36 -234h-90l64 247l-5 1q-86 19 -150 19q-86 0 -147 -34l-15 16q64 60 145 199q41 70 65 143q24 74 24 134q0 31 -7 53l104 61q2 -38 2 -29q0 -63 -19 -120
q-18 -53 -76 -157q-31 -52 -84 -129q-57 -81 -102 -130l16 6q128 46 204 46q31 0 51 -4q4 -1 8 -1t6 -1l65 248z" />
    <glyph glyph-name="five" unicode="5" horiz-adv-x="586" 
d="M75 455l-23 6l116 347q35 6 67 6q40 0 100 -6q48 -4 77 -4q42 0 68 14q25 13 38 41h20l-48 -138q-25 -6 -68 -6q-47 0 -92 3l-77 6q-9 1 -37 1q-24 0 -48 -4l-57 -165q44 14 85 14q72 0 130 -34t92 -92q33 -58 33 -131q0 -68 -26 -129q-25 -60 -71 -106q-47 -47 -107 -72
q-61 -27 -129 -27q-85 0 -135 40q-51 39 -51 103q0 39 21 66q20 26 52 26q-11 -28 -11 -52q0 -64 47 -108t117 -44q66 0 119 34q55 35 86 93t31 125q0 64 -28 114q-29 50 -78 80t-107 30q-51 0 -106 -31z" />
    <glyph glyph-name="six" unicode="6" horiz-adv-x="636" 
d="M81 170q0 -165 119 -165q55 0 107 49q50 49 82 132q31 81 31 169q0 72 -28 109t-84 37q-88 0 -151 -89q-29 -42 -53 -116q-23 -74 -23 -126zM105 371q89 171 230 171q80 0 128 -55t48 -148q0 -66 -26 -132q-25 -64 -69 -114t-99 -80q-56 -31 -115 -31q-96 0 -148 70
q-54 69 -54 194q0 103 37 208q39 109 98 188q62 83 139 132t155 49q56 0 90 -28q35 -29 35 -72q0 -32 -22 -55q-22 -25 -54 -25q-11 0 -16 1q20 35 20 69q0 41 -21 60q-22 20 -61 20q-64 0 -123 -53t-106 -152q-28 -59 -44 -116q-17 -56 -22 -101z" />
    <glyph glyph-name="seven" unicode="7" horiz-adv-x="484" 
d="M140 44l-147 -74l10 21q100 207 170 330q70 122 138 228.5t124 177.5h-201h-50q-62 0 -93 -17q-31 -19 -59 -73h-18l75 189q31 -12 67 -15q31 -4 97 -4h262v-20l-13 -17q-33 -41 -77 -101.5t-72 -104.5q-56 -87 -104 -192q-43 -91 -68 -167q-26 -81 -41 -161z" />
    <glyph glyph-name="eight" unicode="8" horiz-adv-x="666" 
d="M363 435q38 13 73 45q33 30 53 73q19 39 19 83q0 69 -46 115q-46 45 -113 45q-45 0 -82 -19q-39 -19 -61 -52q-23 -34 -23 -71q0 -100 180 -219zM226 431q-78 -23 -124 -81q-47 -59 -47 -133q0 -57 28 -103q29 -48 76 -74q46 -28 104 -28q77 0 128 48t51 121
q0 78 -79 145q-65 57 -137 105zM207 447q-47 44 -65 81q-19 37 -19 82q0 60 31 107q32 48 86 76q53 28 121 28q61 0 112 -23q48 -23 77 -63q27 -40 27 -91q0 -47 -23 -91q-24 -43 -68 -78q-43 -36 -102 -57l10 -8q72 -57 97 -95q25 -40 25 -95q0 -99 -79 -166
q-80 -68 -198 -68q-114 0 -187 59q-72 59 -72 151q0 81 61 148q63 69 166 103z" />
    <glyph glyph-name="nine" unicode="9" horiz-adv-x="627" 
d="M125 491q0 -72 32 -113q32 -42 83 -42q54 0 103 43q49 42 79 112q29 72 29 149q0 50 -15 86q-15 35 -42 55q-28 19 -66 19q-52 0 -99 -44q-46 -43 -75 -116t-29 -149zM52 -39l-16 18q138 92 234 203t125 212q-72 -86 -176 -86q-80 0 -133 57q-52 55 -52 147q0 81 42 154
q39 70 109 115q67 43 143 43q95 0 149 -63t54 -174q0 -76 -25 -150q-26 -77 -74 -148q-51 -76 -115 -137q-132 -126 -265 -191z" />
    <glyph glyph-name="colon" unicode=":" horiz-adv-x="475" 
d="M202 86q0 -40 -25 -68q-26 -29 -61 -29q-70 0 -70 70q0 28 12 50t32 36q19 13 42 13q31 0 51 -20q19 -19 19 -52zM286 496q0 -40 -25 -68q-26 -29 -61 -29q-31 0 -50 19q-20 20 -20 51q0 28 12 50t32 36q19 13 42 13q31 0 51 -20q19 -19 19 -52z" />
    <glyph glyph-name="semicolon" unicode=";" horiz-adv-x="475" 
d="M6 -165l-15 23q64 41 104 81q39 39 53 78q-28 -22 -52 -22q-27 0 -42 18q-15 17 -15 45q0 40 26 71q26 29 64 29q31 0 52 -23q21 -24 21 -59q0 -61 -55 -128q-56 -68 -141 -113zM289 496q0 -26 -12 -49t-32 -35q-19 -13 -43 -13q-31 0 -50 19t-19 51q0 28 12 50
q10 21 31 36q19 13 42 13q32 0 52 -20q19 -19 19 -52z" />
    <glyph glyph-name="less" unicode="&#x3c;" horiz-adv-x="605" 
d="M512 977q26 0 42 -16t16 -42q0 -25 -17 -42t-41 -17q-23 0 -41 18t-18 41q0 24 17 41t42 17zM383 534h-208l-137 -568q-28 -117 -52 -170q-25 -54 -70 -104q-80 -87 -175 -87q-47 0 -82 16l49 72q41 -34 91 -34q73 0 111 78q27 58 57 192l130 605h-98l7 34h99l94 439
q25 112 49 174q26 67 60 112q85 115 214 115q42 0 79 -14l-36 -91q-41 56 -102 56q-47 0 -76 -36q-30 -38 -51 -121l-153 -634h296l-84 -312q-22 -78 -22 -130q0 -32 11 -52t29 -20q31 0 99 74l16 -14l-10 -11q-57 -67 -84 -90q-28 -24 -51 -24q-28 0 -51 33q-22 31 -22 77
q0 31 12 95z" />
    <glyph glyph-name="equal" unicode="=" horiz-adv-x="283" 
d="M314 877l24 -16l-629 -898l-23 16z" />
    <glyph glyph-name="greater" unicode="&#x3e;" horiz-adv-x="626" 
d="M337 534h-161l-137 -561l-3 -13q-25 -110 -51 -165q-25 -56 -69 -103q-81 -87 -175 -87q-47 0 -82 16l49 72q41 -34 91 -34q84 0 123 109q27 74 46 167l129 599h-98l7 34h99l97 451q23 103 44 162q19 54 53 102q88 127 243 127q69 0 136 -35l-254 -1119l-9 -39
q-13 -53 -13 -93q0 -30 12 -50q11 -20 28 -20q31 0 99 74l16 -14l-10 -11q-57 -67 -84 -90q-28 -24 -50 -24q-30 0 -52 34q-23 34 -23 76q0 33 13 95l226 1140q-43 33 -99 33q-41 0 -67 -18q-27 -21 -46 -68q-22 -53 -44 -145l-41 -172l-95 -396h159z" />
    <glyph glyph-name="question" unicode="?" horiz-adv-x="687" 
d="M211 151q35 0 58 -23t23 -58t-23 -58t-58 -23q-21 0 -40 11t-30 30t-11 40q0 35 23 58t58 23zM349 290l-27 -67h-11q-63 0 -104 41q-40 40 -40 106q0 80 62 180q16 25 45 64q23 30 106 136q99 122 130 164q56 75 81 125q24 48 24 85q0 29 -14 54q-13 23 -38 37
q-23 13 -53 13q-75 0 -170 -77q-95 -78 -158 -191l-29 104q65 89 156 144t175 55q77 0 123 -46t46 -123q0 -50 -23 -111q-21 -59 -71 -136q-53 -80 -121 -161l-89 -108q-84 -101 -115 -153q-31 -49 -31 -87q0 -31 20 -48t53 -17q24 0 73 17z" />
    <glyph glyph-name="at" unicode="@" 
d="M82 1351v-1337h655v1337h-655zM751 0h-683v1365h683v-1365z" />
    <glyph glyph-name="A" unicode="A" horiz-adv-x="1336" 
d="M749 477h329l142 680q7 31 7 34q6 20 6 36q0 25 -22 25q-27 0 -65 -57q-37 -57 -132 -234q-9 -17 -57 -109q-36 -64 -39 -72l-96 -175q-59 -108 -73 -128zM1004 128l67 315h-349l4 -3q87 -66 153 -140q62 -70 125 -172zM1236 443h-71l-95 -443h-64q-38 119 -118 229
q-42 57 -88 102.5t-97 80.5q-66 -104 -152 -190q-85 -85 -178 -144q-94 -60 -197 -93q-102 -33 -200 -33q-23 0 -58 5l32 76q53 -6 80 -6q274 0 488 214q44 44 90 102q40 51 94 134q108 169 186 320l94 181q110 212 171 289q60 75 119 75q18 0 34 -8q15 -8 22 -23
q8 -18 8 -35q0 -11 -5 -41q-4 -36 -6 -39l-153 -719h71z" />
    <glyph glyph-name="B" unicode="B" horiz-adv-x="1021" 
d="M343 895q-74 -91 -145 -227q-68 -129 -113 -273q-26 -85 -42 -166q-17 -85 -17 -126q0 -63 31 -63q23 2 42 32q21 32 50 105q16 38 37 101q23 68 39 118q23 77 38 132q26 102 30 118q37 153 50 249zM385 1245l103 48l-3 -26l-2 -18t-2 -17t-1 -14t-4 -31l-12 -80
q0 -3 -4 -26q79 79 166 147q81 63 149 95q66 31 123 31q60 0 94 -40t34 -110q0 -79 -53 -177q-55 -100 -153 -203q-58 -61 -104 -101.5t-91 -70.5q42 2 36 2q109 0 177 -64q69 -64 69 -166q0 -101 -59 -201q-58 -99 -163 -170q-115 -79 -268 -79q-128 0 -181 50l49 64
q30 -33 80 -55q47 -22 99 -22q91 0 168 55q78 55 124 145q46 89 46 193q0 64 -23 112q-24 47 -67 72t-101 25q-30 0 -67 -10l10 49q89 51 174 132q83 77 143 168q77 116 77 212q0 59 -30 93q-32 35 -81 35q-89 0 -232 -117q-96 -80 -154 -153l-3 -18q-16 -106 -45 -236
q-29 -124 -71 -268q-38 -128 -83 -256q-48 -133 -93 -198t-89 -65q-68 0 -68 114q0 74 29 196q30 125 71 228q53 133 114 239.5t140 197.5q9 57 18 140q5 44 14 149z" />
    <glyph glyph-name="C" unicode="C" horiz-adv-x="986" 
d="M577 787l-28 76q93 27 176 83q82 55 131 124q47 68 47 134q0 49 -31 77t-85 28q-63 0 -138 -33q-72 -32 -148 -92q-71 -57 -141 -142q-72 -89 -122 -190q-47 -95 -74 -201q-25 -101 -25 -213q0 -186 86 -296t235 -110q97 0 187 43q90 44 207 144l16 13l12 -22
q-118 -118 -239 -177t-242 -59q-109 0 -195 53q-85 53 -132 147q-47 96 -47 221q0 92 27 192q26 98 81 203q53 102 126 198q77 102 171 183q97 82 189 124q96 44 169 44q71 0 114 -40q42 -40 42 -110q0 -77 -51 -160q-52 -86 -136 -149q-86 -66 -182 -93z" />
    <glyph glyph-name="D" unicode="D" horiz-adv-x="1451" 
d="M389 62q-177 55 -283 55q-43 0 -68 -14q-25 -15 -25 -41q0 -28 39 -48q40 -20 97 -20q116 0 240 68zM518 115l27 -9q123 -37 206 -54q79 -16 155 -16q103 0 189 50q84 49 134 139q49 88 49 195q0 276 -352 568q-8 -37 -44 -164q-57 -192 -96 -288q-115 -288 -268 -421z
M891 1289l109 48q-13 -90 -25 -141l-20 -85l-7 -31q92 -68 157 -141q70 -78 118 -159q50 -85 75 -166q24 -82 24 -162q0 -105 -37 -191q-38 -89 -106 -152q-72 -66 -164 -101q-94 -36 -203 -36q-166 0 -362 68l-25 9q-75 -43 -143 -62q-71 -20 -141 -20q-74 0 -121 29
t-47 74q0 35 26 63q27 27 71 41q47 15 107 15q84 0 278 -53l23 -7q63 60 124 173q87 162 175 474q45 155 69 270q-74 57 -164 103q-34 18 -89.5 40.5t-90.5 31.5q-90 26 -159 26q-82 0 -132 -38q-50 -39 -50 -104q0 -41 26 -82q26 -43 71 -79q44 -36 115 -68l-62 -61
q-87 46 -137 117t-50 150q0 65 35 117q34 49 98 78q62 28 142 28q204 0 466 -165q22 79 26 149z" />
    <glyph glyph-name="E" unicode="E" horiz-adv-x="1025" 
d="M855 218l-24 -119q-130 -61 -249 -92q-125 -32 -223 -32q-109 0 -191 32q-81 31 -124 91q-44 61 -44 141q0 135 122 269t348 246q-108 18 -108 112q0 135 232 301q67 49 147 92q73 39 140 60q65 21 115 21q53 0 82 -28q29 -29 29 -78q0 -46 -22 -103t-66 -121
q-43 -63 -96 -114l-53 58q156 173 156 274q0 69 -82 69q-53 0 -128 -31q-79 -32 -151 -83q-97 -65 -158 -145q-59 -77 -59 -137q0 -30 19 -55q19 -27 45 -37q27 -10 97 -13h17l-13 -64q-151 -64 -303 -177q-252 -186 -252 -350q0 -82 64 -133q62 -52 162 -52q69 0 153 21
q87 22 185 64q113 48 233 113z" />
    <glyph glyph-name="F" unicode="F" horiz-adv-x="1117" 
d="M1001 477l-7 -34h-249l-2 -5q-63 -152 -160 -259q-97 -108 -221 -162q-123 -55 -269 -55q-100 0 -175 25l32 77q118 -59 227 -59q172 0 308 132q56 54 96 121q39 67 83 180l2 5h-101l7 34h106l2 6l7 17q32 87 61 186q28 94 66 247q34 131 53 236l104 47q-10 2 -13 3
q-7 0 -12 1q-248 28 -432 28q-111 0 -187 -14q-75 -15 -121 -45q-70 -45 -70 -113q0 -141 352 -160l-67 -71q-144 9 -229 69q-87 59 -87 152q0 123 155 198q131 63 386 63q61 0 176 -8q92 -6 222 -20q113 -13 191 -27l18 -3l-45 -90l-18 3q-86 16 -208 33l-7 1l-1 -6
q-4 -22 -27 -119q-17 -70 -40 -157q-18 -67 -36 -128q-24 -83 -41 -133q-35 -110 -71 -196h242z" />
    <glyph glyph-name="G" unicode="G" horiz-adv-x="969" 
d="M696 92l16 77l-2 -2q-86 -89 -178 -135t-188 -46q-89 0 -163 47q-72 45 -113 131q-41 85 -41 192q0 108 33 220q31 110 95 226q60 112 151 221q61 73 126 131.5t134 101.5q139 86 247 86q46 0 83 -18q35 -19 55 -54q19 -35 19 -83q0 -122 -104 -237q-102 -114 -259 -163
l-33 76q153 48 254 146t101 197q0 29 -16 54q-17 26 -43 39t-62 13q-93 0 -208 -71q-114 -71 -212 -188q-76 -91 -132 -199q-56 -107 -88 -225q-31 -114 -31 -219q0 -80 18 -146q18 -67 55 -116q38 -50 88 -75t111 -25q143 0 309 165l4 5l36 171l104 59l-62 -299
q-23 -113 -37 -157q-16 -49 -46 -104q-47 -88 -123 -154q-76 -67 -171 -103q-96 -36 -193 -36q-113 0 -189 35l32 71q110 -62 227 -62q60 0 111 16q53 15 96 45q41 29 74 72q27 37 45 75q16 34 34 95q17 55 36 150z" />
    <glyph glyph-name="H" unicode="H" horiz-adv-x="1410" 
d="M1087 137l63 306h-342q70 -54 151 -142q82 -89 128 -164zM740 482l-2 -5h420l171 818l105 52l-284 -1347h-62q-22 69 -60 135q-36 64 -89 129q-53 63 -105 110q-57 50 -109 74l-3 -5q-57 -132 -138 -233q-82 -103 -168 -156q-49 -31 -114 -54q-67 -23 -135 -35
q-70 -12 -143 -12q-52 0 -106 10l32 79q114 -37 203 -37q110 0 210 57t165 155q89 133 167 373q14 39 39 132q22 81 48 179q20 83 33 143l35 178l3 19l113 56q-12 -89 -35 -189q-25 -109 -57 -225q-35 -123 -69 -226q-34 -105 -65 -175z" />
    <glyph glyph-name="I" unicode="I" horiz-adv-x="873" 
d="M610 424q38 87 74 226q40 153 64 294q26 153 26 230q0 69 -16 105q-16 37 -48 37q-46 0 -93 -90q-48 -92 -78 -233q-31 -140 -31 -277q0 -221 102 -292zM-68 -24l30 77q89 -39 195 -39q128 0 235 86q63 51 105 110q43 63 90 166l8 16q-83 53 -122 145q-40 90 -40 227
q0 92 29 203q28 105 80 202q44 84 93 132q50 47 94 47q61 0 92 -72q32 -73 32 -205q0 -104 -22 -224q-21 -115 -64 -248q-40 -122 -86 -207q30 -11 61 -11t67 11l-9 -27q-27 -8 -64 -8t-72 8q-82 -140 -175 -227q-93 -89 -206 -133q-111 -43 -245 -43q-62 0 -106 14z" />
    <glyph glyph-name="J" unicode="J" horiz-adv-x="884" 
d="M617 416q-117 -28 -229 -85q-110 -55 -191 -127q-93 -84 -145 -179q-54 -98 -54 -181q0 -53 27 -87t69 -34q127 0 291 224q40 54 81 130q44 83 94 196q29 66 57 143zM591 647l-72 -60q-31 50 -45 99q-14 51 -14 123q0 177 93 364q40 82 90 127t97 45q62 0 93 -72t31 -213
q0 -124 -33 -285q-32 -158 -89 -306q53 7 88 7q10 0 15 -1l-6 -29q-47 0 -108 -8q-41 -101 -91.5 -198.5t-104.5 -177.5q-115 -173 -234 -270t-219 -97q-69 0 -110 42q-40 41 -40 115q0 55 30 123q29 65 84 133q54 66 126 123q66 54 136 94q71 41 153 72q81 32 171 54l7 19
q44 134 72.5 243t43.5 209q21 140 21 226q0 69 -17 111q-16 39 -47 39q-44 0 -87 -61t-72 -157q-28 -94 -28 -188q0 -147 66 -245z" />
    <glyph glyph-name="K" unicode="K" horiz-adv-x="1436" 
d="M873 1272l4 25l109 51q-14 -89 -41 -217q-24 -109 -62 -253q-32 -122 -65 -217q-36 -110 -70 -190q-37 -89 -77 -155q-40 -68 -85 -120q-47 -57 -97 -96q-178 -147 -452 -147q-68 0 -105 12l30 74q116 -33 212 -33q223 0 383 235q45 66 84 157q34 81 83 249q9 30 44 159
q17 68 26.5 105.5t13.5 54.5q23 99 38 168q20 90 27 138zM1493 1303h107l-732 -799q33 -77 89 -163q54 -85 119 -159q56 -68 133 -131l-71 -67q-215 194 -348 484z" />
    <glyph glyph-name="L" unicode="L" horiz-adv-x="1189" 
d="M457 110l-24 7q-178 54 -274 54q-151 0 -151 -79q0 -40 52 -67q52 -28 131 -28q76 0 146 30t120 83zM1100 77l-43 -97q-32 -5 -51 -5q-47 0 -119 13q-61 12 -107 25q-44 11 -139 41q-38 12 -137 41q-63 -60 -146 -91q-84 -33 -168 -33q-98 0 -157 36q-60 35 -60 93
q0 63 67 97q68 35 181 35q129 0 291 -47q29 51 49 109q18 56 39 158l71 334q32 148 58 226q25 78 61 140q34 57 76 99q44 44 89 66q48 23 90 23q49 0 84 -22t55 -65q18 -43 18 -99q0 -53 -19 -129q-20 -80 -49 -144l-93 -14q41 76 70 169q28 88 28 153q0 60 -25 91
q-26 32 -73 32q-103 0 -172 -136q-22 -43 -36 -89q-18 -61 -37 -151l-89 -417q-28 -133 -60 -213t-79 -139l25 -8q157 -51 243 -71q89 -22 158 -22q45 0 106 11z" />
    <glyph glyph-name="M" unicode="M" horiz-adv-x="1421" 
d="M1370 984l-207 -984h-96l211 1009l7 35q7 35 7 51q0 19 -10 32q-10 12 -28 12q-29 0 -63 -34q-37 -37 -88 -114q-80 -117 -179 -339q-76 -170 -129 -332q-52 -157 -88 -320h-83l232 1086q11 53 11 80q0 12 -5 25q-4 11 -13 18q-9 6 -20 6q-48 0 -115 -91
q-69 -93 -161 -285q-49 -98 -85 -182q-50 -116 -73 -177q-35 -91 -72 -200q-59 -174 -84 -280h-84l3 14l43 171q13 55 24.5 105t15.5 69q76 341 116 585q31 176 31 257q0 58 -17 90q-18 31 -49 31q-77 0 -135 -202q-38 -128 -57 -274l-75 49q17 130 57 233q39 104 94 165
q54 60 110 60q63 0 101 -68q36 -67 36 -186q0 -99 -18 -225q-3 -26 -32 -188l-40 -218l6 19q30 83 82.5 199.5t126.5 262.5q83 161 160 250q74 84 133 84q37 0 63 -29q25 -29 25 -76q0 -50 -19 -136l-116 -554q13 35 60 142q136 303 234 439q98 134 179 134q41 0 66 -28
q24 -28 24 -76q0 -36 -17 -115z" />
    <glyph glyph-name="N" unicode="N" horiz-adv-x="1051" 
d="M1007 1023l-225 -1023h-96l229 1040q14 64 14 92q0 35 -16 54q-17 20 -46 20q-89 0 -211 -198q-45 -72 -102 -184q-43 -82 -98 -202q-45 -98 -87 -211q-45 -118 -78 -223l-53 -169l-6 -19h-85l6 20q17 56 40 148t55.5 236.5t53.5 250.5q35 171 56 288q33 182 33 252
q0 35 -8 67q-7 28 -22 44q-15 15 -35 15q-80 0 -136 -200q-44 -153 -57 -277l-78 54q19 122 62 231q42 105 95 164q52 58 107 58q64 0 101 -69q36 -69 36 -191q0 -103 -19 -220q-17 -101 -28 -163l-51 -246l9 22q87 212 167 367q82 159 148 251q124 169 230 169q50 0 81 -34
t31 -90q0 -45 -17 -124z" />
    <glyph glyph-name="O" unicode="O" horiz-adv-x="1224" 
d="M1068 900q0 91 -23 168q-22 74 -66 126q-43 51 -104 79q-61 27 -141 27q-83 0 -164 -36q-84 -38 -153 -107q-71 -69 -129 -172q-65 -113 -105 -268q-41 -159 -41 -290q0 -124 41 -217q42 -94 116 -142q77 -50 175 -50q93 0 185 47q90 46 168 133t130 200q48 105 79 243
q32 143 32 259zM1183 858q0 -140 -46 -278q-46 -141 -129 -264q-69 -103 -160 -180q-90 -77 -190 -114q-102 -38 -206 -38q-92 0 -172 33t-136 95q-58 62 -87 149q-30 87 -30 190q0 169 61 328q63 164 164 287q104 125 235 198q130 73 268 73q127 0 224 -60t151 -169
q53 -111 53 -250z" />
    <glyph glyph-name="P" unicode="P" horiz-adv-x="974" 
d="M163 0h-95l125 577q34 158 52 307q19 155 19 294q0 39 -1 55l110 50v-28q0 -66 -12 -213q-12 -152 -25 -226q63 147 152 266q94 125 187 193q95 71 173 71t126 -62q47 -64 47 -168q0 -131 -57 -265q-56 -130 -155 -245q-97 -111 -216 -176t-233 -65q-29 0 -61 7l53 71
q48 -16 100 -16q82 0 167 56q83 56 149 156q60 91 104 232q43 136 43 239q0 85 -28 131q-29 47 -80 47q-72 0 -166 -82q-93 -81 -184 -224q-64 -100 -108 -216q-43 -115 -78 -269z" />
    <glyph glyph-name="Q" unicode="Q" horiz-adv-x="1224" 
d="M311 60q29 51 68 77q37 25 83 25q84 0 202 -78l7 -4q1 -1 3 -1l1.5 -1.5l2.5 -2.5q90 56 161 137q69 78 118 186q31 66 59 160q25 88 38 175q14 92 14 164q0 92 -23 170q-22 75 -65 127q-42 49 -104 78q-60 28 -142 28q-83 0 -164 -36q-84 -38 -153 -107
q-71 -69 -129 -172q-64 -115 -105 -270q-41 -156 -41 -288q0 -84 21 -156q19 -70 58 -127q38 -54 90 -84zM609 42q-100 73 -174 73q-72 0 -104 -66q66 -31 146 -31q71 0 132 24zM674 -4l-30 21l-5 -1q-96 -32 -191 -32q-90 0 -170 33q-81 34 -136 96q-57 63 -85 149
q-30 87 -30 189q0 169 61 328q63 164 164 287q104 125 235 198q130 73 268 73q126 0 224 -59q96 -59 151 -170q54 -109 54 -253q0 -161 -61 -320q-62 -161 -168 -290q-106 -130 -237 -196l14 -9l14 -9q84 -55 141 -83q56 -29 108 -44q50 -14 100 -17l-74 -75q-37 3 -81 21
q-41 16 -102 53q-58 36 -135 90z" />
    <glyph glyph-name="R" unicode="R" horiz-adv-x="952" 
d="M162 -1h-94l119 576q67 323 67 577v30q-1 7 -1 25l-1 24l110 50v-17q0 -60 -5 -148q-9 -134 -27 -284l-4 -28q46 127 138 259q56 82 125 151q67 66 129 98t118 32q79 0 125 -57q46 -56 46 -154q0 -135 -79 -278q-39 -72 -91 -133.5t-121 -119.5q-132 -108 -282 -152
q48 -82 104 -155q59 -77 118 -137q65 -66 130 -117l-73 -71q-79 62 -162 153q-82 90 -144 183q-63 94 -88 167q5 -1 18 -1q94 0 200 55q105 55 187 148q82 94 130 215q49 123 49 231q0 75 -31 116q-31 42 -85 42q-51 0 -110 -36q-62 -40 -116 -101q-55 -60 -116 -161
q-64 -109 -105 -222q-40 -112 -75 -272z" />
    <glyph glyph-name="S" unicode="S" horiz-adv-x="971" 
d="M-27 26l55 100q170 -93 328 -93q106 0 194 39q87 38 138 105q50 67 50 144q0 78 -46 137q-46 60 -166 139q-108 72 -142 96q-33 23 -67 51q-73 64 -73 151q0 157 204 302q58 41 131 74q76 34 144 50q73 17 133 17q91 0 143 -34t52 -95q0 -74 -63 -160
q-33 -44 -75.5 -83.5t-96.5 -74.5l-80 45q72 48 125 100q49 48 79 98q28 46 28 86q0 27 -15 46q-14 18 -43 29q-27 10 -70 10q-78 0 -167 -30q-89 -31 -169 -81q-176 -111 -176 -247q0 -38 21 -71q20 -33 74 -76q53 -42 153 -108q82 -54 114 -80q39 -33 63 -65
q56 -71 56 -159q0 -66 -35 -138q-35 -68 -101 -131q-152 -143 -422 -143q-175 0 -278 50z" />
    <glyph glyph-name="T" unicode="T" horiz-adv-x="1075" 
d="M-68 -39l37 90q93 -40 206 -40q130 0 233 71q103 72 181 215q25 46 51 110q21 51 62 172q27 79 61 199q35 131 50 194q20 91 39 196l107 48l-7 1l-20 3q-223 28 -436 28q-104 0 -180 -14q-73 -13 -124 -45q-70 -43 -70 -113q0 -141 352 -160l-68 -71q-95 6 -167 35
q-71 29 -109 77q-39 48 -39 109q0 123 155 198q131 63 385 63q62 0 177 -8q92 -6 222 -20q113 -13 191 -27l18 -3l-45 -90l-18 3q-90 17 -205 33l-7 1l-3 -14l-3 -14q-34 -151 -57 -242.5t-52 -188.5t-54 -163q-84 -235 -189 -374q-106 -141 -244 -203q-139 -63 -330 -63
q-54 0 -100 7z" />
    <glyph glyph-name="U" unicode="U" horiz-adv-x="1043" 
d="M789 0h-96l4 24q18 126 42 252q26 136 55 247l92 365q-5 -10 -9 -20q-1 -3 -2.5 -6l-2.5 -5l-37 -93q-45 -109 -98 -218q-67 -140 -107 -214q-193 -352 -349 -352q-51 0 -81 35q-31 34 -31 91q0 37 22 131l160 703l26 115q20 97 20 147q0 103 -60 103q-70 0 -116 -133
q-53 -150 -82 -338l-78 54q33 200 107 322t162 122q61 0 95 -60q34 -61 34 -169q0 -111 -49 -322l-123 -537l-10 -46q-12 -46 -12 -81q0 -33 18 -53q17 -21 43 -21q46 0 103 54t124 163q68 108 156 291q55 114 107 242.5t93 252.5q52 151 71 235l87 36l-197 -871
q-51 -223 -81 -446z" />
    <glyph glyph-name="V" unicode="V" horiz-adv-x="1087" 
d="M1071 1255l112 49q-78 -479 -385 -955q-125 -195 -221 -287q-85 -83 -156 -83q-49 0 -70 30q-22 28 -22 95q0 7 2 63l55 920q4 71 4 110q0 112 -61 112q-38 0 -65 -36q-28 -37 -59 -126q-51 -145 -75 -312l-75 53q29 176 103 314q77 138 167 138q71 0 111 -61t40 -169
q0 -47 -3 -107l-46 -824q-2 -50 -2 -54q0 -67 43 -67q73 0 191 153q92 118 164 246q74 132 126 262q52 131 84 272q32 142 38 264z" />
    <glyph glyph-name="W" unicode="W" horiz-adv-x="1553" 
d="M1517 1267l90 38q-3 -373 -218 -829q-61 -129 -136 -252q-71 -117 -128 -175q-37 -39 -64 -55q-26 -16 -53 -16q-48 0 -64 40q-18 41 -18 148q0 100 1 128q0 79 8 289q7 180 17 286l2 31q-73 -286 -228 -567q-96 -177 -197 -292q-56 -65 -107 -65q-60 0 -75 62
q-4 17 -4 85v30l36 938q3 56 3 91q0 126 -64 126q-39 0 -66 -37q-26 -36 -55 -129q-43 -139 -67 -309l-75 50q23 147 61 247q38 104 90 156q51 52 111 52q152 0 152 -269q0 -57 -1 -76l-32 -811q-1 -7 -1 -35q0 -45 8 -66q7 -19 26 -19q27 0 61 36q36 36 88 116
q67 101 133 235q66 133 115 270q26 73 46 146q26 97 37 151q12 60 31 198l3 24l97 42l-2 -23l-32 -315q-3 -32 -10 -142q-7 -104 -8 -168q-3 -80 -6 -163q-5 -203 -5 -272q0 -79 8 -109q8 -29 29 -29q24 0 56 31q37 37 79 98q103 146 177 314q74 167 114 345q39 177 39 336
q0 -14 -2 84z" />
    <glyph glyph-name="X" unicode="X" horiz-adv-x="1070" 
d="M660 753l-33 -54l8 -35l8 -34q32 -139 76 -257q39 -107 91 -191q48 -80 113 -142l-76 -67q-85 83 -153 221q-42 86 -68 167q-26 80 -61 227l-2 6l-39 -66q-96 -161 -170 -257q-72 -94 -154 -162q-142 -117 -268 -129l25 127q5 -1 17 -1q51 0 120 28q68 27 121 66
q123 94 248 292l88 141l3 4l-2 6q-51 237 -109 382q-59 147 -126 208l76 81q124 -137 205 -489l9 -40l10 -41l20 35l21 36q133 222 195 304q161 218 320 219l-24 -114q-32 2 -28 2q-93 0 -195 -96q-45 -45 -98 -117q-52 -69 -135 -205z" />
    <glyph glyph-name="Y" unicode="Y" horiz-adv-x="1040" 
d="M41 -18l34 77q99 -35 198 -35q85 0 158 26q71 25 130 78q56 49 113 138q76 120 137 297q13 38 28 87q3 11 58 207l8 28l-14 -27q-38 -78 -88 -155q-43 -64 -110 -147q-46 -55 -81 -84q-34 -30 -66 -45q-33 -15 -63 -15q-74 0 -104 73q-13 35 -13 121v44l18 512q1 7 1 33
q0 120 -64 120q-39 0 -74 -53q-34 -52 -63 -154q-31 -109 -49 -247l-3 -25l-77 49q11 87 40 180q30 96 63 152q75 129 163 129q73 0 114 -71q39 -72 39 -212q0 -46 -1 -59l-13 -337v-31q-1 -8 -1 -26q0 -125 76 -125q36 0 76 31q37 27 95 98q67 83 126 191q58 105 96 223
q39 119 56 232l111 50l-6 -30q-59 -311 -148 -580q-90 -271 -180 -406q-109 -164 -258 -244q-148 -79 -351 -79q-64 0 -111 11z" />
    <glyph glyph-name="Z" unicode="Z" horiz-adv-x="1169" 
d="M332 134l19 13q-116 35 -203 35q-63 0 -103 -26q-39 -25 -39 -66q0 -27 24 -45t58 -18q53 0 108 24q53 23 136 83zM1071 79l-52 -97q-41 -4 -53 -4q-120 0 -276 55l-155 55l-117 41l-19 7q-95 -76 -170 -111q-76 -35 -145 -35q-54 0 -89 30q-36 29 -36 74q0 68 69 108
q67 40 185 40q58 0 107 -7q60 -9 111 -23l15 13q231 210 407 459q177 251 276 508l-18 4q-84 20 -174 37q-106 18 -157 25q-93 13 -135 16q-65 5 -111 5q-165 0 -239 -47q-32 -21 -53 -53q-21 -33 -21 -64q0 -67 84 -109q81 -42 264 -65l-75 -70q-143 21 -223 81
q-79 58 -79 147q0 99 97 166q62 44 139 63q76 19 190 19q99 0 196 -9q104 -11 195 -28q98 -19 189 -45l12 -3q-36 -100 -105 -237q-74 -143 -148 -257q-99 -153 -213 -288q-119 -140 -253 -263l-17 -16l26 -7q53 -16 102 -33q108 -35 142 -45q31 -10 69 -19q106 -23 181 -23
q30 0 77 5z" />
    <glyph glyph-name="bracketleft" unicode="[" horiz-adv-x="683" 
d="M315 -157h-177l328 1600h177l-6 -30h-30q-35 0 -50 -4q-17 -5 -25 -19q-9 -13 -15 -45l-6 -36l-275 -1336l-7 -34q-4 -20 -4 -31q0 -19 14 -27t48 -8h34z" />
    <glyph glyph-name="backslash" unicode="\" horiz-adv-x="775" 
d="M549 -157l-310 1598l28 5l310 -1597z" />
    <glyph glyph-name="bracketright" unicode="]" horiz-adv-x="683" 
d="M357 1443h177l-328 -1600h-177l6 30h30q51 0 67 13q15 12 22 55l7 36l275 1336l7 34q4 20 4 31q0 22 -13 29q-13 6 -49 6h-34z" />
    <glyph glyph-name="asciicircum" unicode="^" 
d="M82 1351v-1337h655v1337h-655zM751 0h-683v1365h683v-1365z" />
    <glyph glyph-name="underscore" unicode="_" horiz-adv-x="1024" 
d="M0 -317v44h1024v-44h-1024z" />
    <glyph glyph-name="grave" unicode="`" horiz-adv-x="392" 
d="M137 815l59 17l59 -167l-19 -5z" />
    <glyph glyph-name="a" unicode="a" horiz-adv-x="666" 
d="M413 428l9 35q-12 38 -40 60q-28 21 -66 21q-44 0 -93 -40t-90 -113q-33 -59 -53 -126q-22 -67 -22 -114q0 -51 20 -80t55 -29q47 0 96 43q50 44 99 123q32 49 47 92q19 54 38 128zM443 552l94 39l-94 -366q-15 -60 -15 -94q0 -30 13 -52t32 -22q28 0 96 71l14 -14
l-11 -13q-51 -60 -81 -85q-28 -25 -50 -25q-33 0 -55 34q-24 33 -24 77q0 33 24 145l8 38q-37 -85 -99 -165q-103 -132 -199 -132q-57 0 -90 41t-33 110q0 94 54 197q51 100 133 170q80 66 154 66q79 0 118 -58z" />
    <glyph glyph-name="b" unicode="b" horiz-adv-x="638" 
d="M55 102q45 -94 129 -94q60 0 112 52q50 52 91 151q23 58 38 122q15 65 15 104q0 94 -66 94q-44 0 -100 -54q-58 -56 -112 -150q-58 -100 -107 -225zM-31 -5l268 1363l106 51l-288 -1233q180 402 353 402q35 0 63 -18q27 -19 43 -55q15 -36 15 -76q0 -76 -36 -168
q-36 -94 -91 -159q-98 -119 -216 -119q-38 0 -71 13q-32 11 -76 41z" />
    <glyph glyph-name="c" unicode="c" horiz-adv-x="489" 
d="M379 162l14 -12q-63 -87 -118 -125q-58 -40 -128 -40q-77 0 -125 54q-49 53 -49 140q0 89 47 183q45 91 121 154q73 61 141 61q46 0 74 -25t28 -69q0 -39 -29 -74q-30 -36 -64 -36q-15 0 -27 12q65 29 65 108q0 27 -14 44q-15 15 -39 15q-36 0 -74 -30t-71 -83
q-33 -54 -51 -114q-19 -60 -19 -123q0 -73 35 -120q34 -46 92 -46q49 0 95 31q48 33 96 95z" />
    <glyph glyph-name="d" unicode="d" horiz-adv-x="651" 
d="M409 440l10 51q-9 28 -37 44t-60 16q-46 0 -96 -42q-51 -43 -94 -119q-34 -61 -52 -124q-21 -67 -21 -123q0 -48 21 -77q20 -29 56 -29q42 0 91 43q48 43 97 124q32 54 52 114q23 80 33 122zM591 1358l108 51l-265 -1153q-21 -91 -21 -128q0 -32 12 -52q11 -20 31 -20
q26 0 63 39l29 29l1.5 1.5l0.5 0.5q1 1 2 1.5l1 0.5l15 -14l-8 -9q-33 -37 -39 -43l-33 -33q-24 -24 -36 -31q-11 -7 -26 -7q-33 0 -55 34t-22 78q0 23 14 95l11 57q-25 -61 -82 -137q-100 -130 -196 -130q-57 0 -90 42q-33 41 -33 112q0 100 52 201q53 102 133 167
q80 66 160 66q58 0 110 -35z" />
    <glyph glyph-name="e" unicode="e" horiz-adv-x="496" 
d="M62 231q106 47 166 107q40 42 63 86q24 47 24 83q0 47 -43 47q-65 0 -131 -102q-67 -103 -79 -221zM382 155l18 -15q-60 -80 -121 -118q-58 -37 -127 -37q-80 0 -130 54q-49 53 -49 143t48 183q46 91 119 153q71 60 141 60q41 0 68 -24q26 -24 26 -62q0 -77 -84 -154
q-85 -78 -229 -131q-1 -5 -1 -18q0 -68 38 -112t98 -44q48 0 91 30q45 29 94 92z" />
    <glyph glyph-name="f" unicode="f" horiz-adv-x="328" 
d="M-33 -71l130 605h-98l7 34h99l94 439q25 112 49 174q26 67 60 112q85 115 214 115q42 0 79 -14l-36 -91q-41 56 -102 56q-47 0 -76 -36q-30 -38 -51 -121l-153 -634h161l-7 -34h-162l-137 -568q-28 -117 -52 -170q-25 -54 -70 -104q-80 -87 -175 -87q-47 0 -82 16l49 72
q41 -34 91 -34q73 0 111 78q27 58 57 192z" />
    <glyph glyph-name="g" unicode="g" horiz-adv-x="620" 
d="M409 422l11 45q-39 75 -103 75q-67 0 -132 -74q-52 -61 -90 -155q-38 -96 -38 -168q0 -50 22 -78q21 -29 60 -29t89 44q47 42 96 124q55 90 85 216zM440 552l92 39l-153 -609q-21 -89 -40 -144q-19 -48 -43 -84q-47 -73 -114 -110q-67 -39 -146 -39q-72 0 -125 40l51 66
q65 -62 129 -62q40 0 83 26q42 25 62 64q26 47 54 167l77 330q-67 -125 -135 -187.5t-137 -62.5q-56 0 -90 43q-35 43 -35 108q0 93 53 196q53 102 134 170q79 67 156 67q71 0 118 -53z" />
    <glyph glyph-name="h" unicode="h" horiz-adv-x="638" 
d="M36 11l-67 -21l266 1368l105 51l-277 -1218q4 7 4 9l23 52q58 133 148 232q84 91 155 91q39 0 61 -24q23 -26 23 -66q0 -21 -11 -65l-10 -42l-31 -122l-9 -39q-15 -60 -15 -92q0 -31 11 -51t29 -20q31 0 99 74l15 -14l-9 -11q-57 -67 -84 -90q-28 -24 -50 -24
q-30 0 -53 33q-22 32 -22 77q0 30 13 95l38 212q9 47 9 70q0 21 -11 32t-30 11q-38 0 -85 -43q-47 -42 -96 -121q-48 -73 -85 -164q-36 -88 -54 -180z" />
    <glyph glyph-name="i" unicode="i" horiz-adv-x="295" 
d="M75 544l98 41l-88 -329q-22 -79 -22 -130q0 -32 11 -52t29 -20q31 0 99 74l16 -14l-10 -11q-57 -67 -84 -90q-27 -24 -50 -24q-31 0 -52 32q-22 31 -22 78q0 31 12 95zM202 977q26 0 42 -16t16 -42q0 -25 -17 -42t-41 -17q-23 0 -41 18t-18 41q0 24 17 41t42 17z" />
    <glyph glyph-name="j" unicode="j" horiz-adv-x="273" 
d="M201 977q26 0 42 -16t16 -42q0 -25 -17 -42t-41 -17q-23 0 -41 18t-18 41q0 24 17 41t42 17zM75 544l97 41l-158 -671q-21 -91 -35 -124q-17 -43 -43 -78q-38 -51 -91 -77q-55 -28 -116 -28q-40 0 -67 12l48 70q40 -31 86 -31q37 0 70 24q32 22 52 65q14 32 29 113z" />
    <glyph glyph-name="k" unicode="k" horiz-adv-x="593" 
d="M237 1358l108 51l-272 -1183q21 51 55 104q30 47 73 98q40 46 79 77q48 38 99 58q48 19 111 22l-18 -80q-30 6 -45 6q-118 0 -220 -119q41 -109 87 -198q22 -44 46 -81q20 -31 36 -45q17 -14 32 -14q38 0 96 61l8 9l13 -15q-101 -122 -147 -122q-31 0 -58 27t-63 93
q-63 115 -103 218q-94 -154 -120 -313l-65 -21z" />
    <glyph glyph-name="l" unicode="l" horiz-adv-x="295" 
d="M243 1358l105 51l-263 -1153l-9 -39q-13 -53 -13 -93q0 -30 12 -50q11 -20 28 -20q31 0 99 74l16 -14l-10 -11q-57 -67 -84 -90q-27 -24 -50 -24q-30 0 -52 34q-23 34 -23 76q0 33 13 95z" />
    <glyph glyph-name="m" unicode="m" horiz-adv-x="969" 
d="M376 11l-66 -21l79 407q0 1 1 4t3 15t3 16q6 29 6 48q0 44 -35 44q-33 0 -80 -44q-46 -45 -99 -129q-31 -49 -58 -104q-24 -47 -45 -106q-20 -53 -40 -130l-62 -21l103 554l96 41l-87 -363q68 156 154 255t155 99q75 0 75 -85q0 -29 -15 -103l-33 -149q100 190 164 263
q67 76 133 76q37 0 58 -22t21 -63q0 -31 -20 -114l-31 -123l-10 -39q-14 -64 -14 -92q0 -31 11 -51t28 -20q32 0 100 74l15 -14l-9 -11q-57 -67 -84 -90q-28 -24 -51 -24q-31 0 -52 32q-22 31 -22 78q0 31 13 95l37 207l6 36q6 30 6 48t-11 29t-30 11q-22 0 -48 -18
q-27 -19 -57 -57q-25 -32 -67 -100q-51 -88 -81 -158q-31 -72 -60 -181z" />
    <glyph glyph-name="n" unicode="n" horiz-adv-x="664" 
d="M50 11l-67 -21l106 554l95 41l-86 -367q44 93 83.5 156.5t81.5 109.5q82 91 157 91q38 0 60 -24q23 -26 23 -66q0 -21 -11 -65l-10 -42l-30 -122l-10 -39q-15 -60 -15 -92q0 -31 11 -51t29 -20q31 0 99 74l16 -14l-10 -11q-57 -67 -84 -90q-27 -24 -50 -24q-31 0 -52 32
q-22 31 -22 78q0 32 12 95l39 212q8 53 8 70q0 21 -11 32t-30 11q-70 0 -170 -148q-49 -70 -81 -140q-32 -72 -72 -193z" />
    <glyph glyph-name="o" unicode="o" horiz-adv-x="600" 
d="M401 412q0 59 -29 99q-30 39 -76 39q-42 0 -80 -27q-40 -28 -71 -79q-37 -61 -59 -140q-24 -79 -24 -142q0 -73 29 -114q28 -40 83 -40q87 0 153 121q34 61 54 139t20 144zM-27 192q0 91 49 180q49 90 125 145q77 56 157 56q84 0 136 -55q51 -55 51 -144q0 -95 -47 -186
q-48 -89 -125 -147t-157 -58q-85 0 -137 58q-52 56 -52 151z" />
    <glyph glyph-name="p" unicode="p" horiz-adv-x="646" 
d="M84 115l-8 -28q42 -82 118 -82q109 0 192 179q67 143 67 242q0 53 -20 82t-57 29q-60 0 -126 -79q-64 -79 -107 -174q-20 -45 -31 -81q-12 -36 -28 -88zM-42 -397h-54l189 941l96 41l-66 -287q74 149 140 215q65 65 143 65q60 0 95 -44t35 -121q0 -79 -31 -160
q-30 -80 -89 -149q-103 -124 -227 -124q-78 0 -128 41z" />
    <glyph glyph-name="q" unicode="q" horiz-adv-x="617" 
d="M415 429l8 38q-30 73 -102 73q-42 0 -87 -33q-48 -35 -78 -86q-44 -70 -69 -148q-27 -79 -27 -137q0 -48 22 -74q22 -28 59 -28q47 0 104 57q57 58 104 150q46 93 66 188zM443 552l92 39l-249 -988h-53l139 635q-39 -79 -103 -155q-82 -99 -165 -99q-60 0 -95 44
q-36 44 -36 112q0 137 107 280q56 73 116 112q59 36 119 36q74 0 120 -51z" />
    <glyph glyph-name="r" unicode="r" horiz-adv-x="443" 
d="M110 538q4 23 4 42q0 35 -11 55q-12 20 -30 20q-9 0 -17 -9q-8 -11 -8 -24q0 -46 62 -84zM-9 268l-18 16q87 105 115 194q-81 45 -81 129q0 40 19 65t48 25q30 0 49 -27q19 -28 19 -72q0 -30 -11 -69q25 -7 49 -7q62 0 102 36h48l-7 -14q-71 -130 -118 -259t-47 -191
q0 -23 12 -38q12 -16 29 -16q41 0 132 87l16 -18q-25 -28 -87 -77q-52 -42 -99 -42q-38 0 -61 26t-23 71q0 75 58 190q18 38 54 98q20 34 83 131l10 14q-33 -30 -63 -42q-30 -13 -70 -13q-16 0 -38 5q-32 -99 -120 -202z" />
    <glyph glyph-name="s" unicode="s" horiz-adv-x="436" 
d="M-82 64l56 66q44 -104 140 -104q50 0 86 33q35 32 35 75q0 30 -17 53q-15 20 -81 74q-62 51 -79 76q-21 27 -21 63q0 47 28 87q26 39 73 65q47 24 97 24q45 0 76 -22q30 -22 30 -58q0 -46 -39 -63q-6 47 -35 74q-31 26 -76 26q-40 0 -71 -26q-31 -27 -31 -61
q0 -43 52 -83l58 -47q85 -67 85 -137q0 -51 -29 -97q-29 -45 -80 -73q-51 -27 -107 -27q-89 0 -150 82z" />
    <glyph glyph-name="t" unicode="t" horiz-adv-x="367" 
d="M326 534h-162l-76 -333q-12 -55 -12 -78q0 -35 17 -58q16 -22 45 -22q28 0 50 16q21 14 68 64l12 12l15 -15q-59 -72 -98 -101q-40 -30 -78 -30q-47 0 -76 32t-29 82q0 38 15 110l65 321h-96l7 34h96l56 270l96 38l-70 -308h162z" />
    <glyph glyph-name="u" unicode="u" horiz-adv-x="617" 
d="M79 544l97 41l-97 -387q-13 -51 -13 -88q0 -35 22 -56q23 -21 57 -21q86 0 177 139l4 6q1 9 3 16l63 350l98 41l-88 -329q-22 -79 -22 -130q0 -32 11 -52t29 -20q31 0 99 74l16 -14l-10 -11q-57 -67 -84 -90q-27 -24 -50 -24q-31 0 -52 32q-22 31 -22 78q0 19 1 28
q-103 -138 -206 -138q-51 0 -81 30q-31 28 -31 78q0 35 11 93z" />
    <glyph glyph-name="v" unicode="v" horiz-adv-x="523" 
d="M58 78l-58 466l90 41v-26q3 -139 17 -307q7 -74 14 -124q6 -41 14 -55t22 -14q38 0 132 141q85 124 85 229q0 37 -9 62q-9 24 -34 49l75 70q35 -47 35 -112q0 -133 -158 -351q-47 -64 -102 -118q-28 -25 -40 -32q-16 -10 -31 -10q-25 0 -35 19q-11 21 -17 72z" />
    <glyph glyph-name="w" unicode="w" horiz-adv-x="798" 
d="M60 74l-60 470l90 41v-18v-8q0 -77 4 -132q5 -61 15 -174q14 -133 21 -161q8 -29 24 -29q22 0 72 71q53 75 98 170l-31 240l91 41l1 -25q7 -206 17 -307q2 -16 6 -50q2 -13 3.5 -25.5t1.5 -16.5q2 -23 4 -34l4 -26q8 -33 26 -33q35 0 124 143q83 133 83 223q0 73 -48 106
l76 70q35 -41 35 -104q0 -70 -39 -159t-116 -199q-50 -70 -88 -111q-44 -50 -72 -50q-22 0 -33 21t-17 69l-22 179q-44 -89 -101 -166q-75 -103 -120 -103q-21 0 -31 19q-10 18 -18 68z" />
    <glyph glyph-name="x" unicode="x" horiz-adv-x="488" 
d="M94 583l117 -247l18 21l18 21q53 62 80 95l67 83l10 13h70l-10 -11q-65 -67 -131 -141q-92 -101 -102 -112l-3 -4l142 -302h-91l-109 236l-3 -4q-22 -24 -57 -68l-61 -74q-57 -70 -75 -90h-70l16 16q78 78 195 211l39 44l-131 284z" />
    <glyph glyph-name="y" unicode="y" horiz-adv-x="598" 
d="M-116 -355l49 66q59 -62 131 -62q78 0 124 61q47 63 77 200l46 207q-109 -129 -199 -129q-52 0 -81 32q-30 32 -30 86q0 36 9 79l68 359l97 41l-97 -403q-12 -49 -12 -73q0 -34 21 -55q19 -22 54 -22q37 0 82 33q41 30 99 97l86 382l94 41l-146 -588q-23 -98 -49 -166
q-24 -60 -55 -100q-97 -126 -239 -126q-83 0 -129 40z" />
    <glyph glyph-name="z" unicode="z" horiz-adv-x="473" 
d="M55 495l15 73h327l8 -24l-15 -18l-114 -137q-138 -167 -168 -205q-44 -57 -78 -106q55 -5 126 -5q44 0 132 2q19 0 62 3l-10 -79h-396l-12 26l14 16q16 17 40 46q15 18 29 33.5t30 36.5q27 32 33.5 39.5t23.5 27.5q7 9 33 41l92 117q47 59 87 113h-259z" />
    <glyph glyph-name="braceleft" unicode="{" 
d="M82 1351v-1337h655v1337h-655zM751 0h-683v1365h683v-1365z" />
    <glyph glyph-name="bar" unicode="|" 
d="M82 1351v-1337h655v1337h-655zM751 0h-683v1365h683v-1365z" />
    <glyph glyph-name="braceright" unicode="}" 
d="M82 1351v-1337h655v1337h-655zM751 0h-683v1365h683v-1365z" />
    <glyph glyph-name="asciitilde" unicode="~" 
d="M82 1351v-1337h655v1337h-655zM751 0h-683v1365h683v-1365z" />
    <glyph glyph-name="nonbreakingspace" unicode="&#xa0;" horiz-adv-x="355" 
 />
    <glyph glyph-name="exclamdown" unicode="&#xa1;" horiz-adv-x="540" 
d="M356 1104q-21 0 -40 11t-30 30t-11 40q0 35 23 58t58 23t58 -23t23 -58t-23 -58t-58 -23zM195 48l-134 -59l253 1020l28 12z" />
    <glyph glyph-name="cent" unicode="&#xa2;" horiz-adv-x="521" 
d="M147 195l96 467q-57 -34 -99 -132q-43 -96 -43 -196q0 -94 46 -139zM199 163l107 522q-16 -1 -37 -9l-102 -498q16 -10 32 -15zM312 712l19 95h24l-19 -96q43 -6 66 -31q24 -25 24 -61q0 -33 -17 -53t-49 -22q26 35 26 67q0 59 -56 73l-108 -525q4 -1 13 -1q36 0 79 26
t69 64l17 -13q-80 -122 -188 -126l-22 -109h-24l22 110q-15 2 -34 6l-23 -116h-24l25 124l-3 1q-109 55 -109 197q0 70 32 151q30 77 86 140q51 60 112 85l22 109h24l-20 -100q25 5 36 5z" />
    <glyph glyph-name="sterling" unicode="&#xa3;" horiz-adv-x="606" 
d="M391 375h-205q0 -7 -1 -12q0 -3 -0.5 -8.5t-1.5 -8.5l-1 -5h202l-4 -23h-203q-30 -117 -146 -233q48 6 88 6q33 0 42 -1l77 -7q56 -2 63 -2q57 0 93 24q35 24 57 78h19l-62 -183q-46 -9 -103 -9q-51 0 -135 10q-90 9 -128 9q-48 0 -76 -5l-35 -7q-3 -1 -6 -1
q-3 -2 -13 -3l-8 17q101 69 150 142q48 72 54 165h-106l4 23h103v4q0 12 -1 22v8h-95l5 23h88l-1 10q-7 70 -7 109q0 141 105 235q73 67 162 67q63 0 103 -34t40 -87q0 -32 -20 -58q-21 -26 -49 -26q2 0 -16 2q18 32 18 61q0 53 -28 84t-76 31q-75 0 -119 -60
q-44 -62 -44 -163q0 -23 5 -81q7 -54 8 -90h209z" />
    <glyph glyph-name="currency" unicode="&#xa4;" 
d="M82 1351v-1337h655v1337h-655zM751 0h-683v1365h683v-1365z" />
    <glyph glyph-name="yen" unicode="&#xa5;" horiz-adv-x="652" 
d="M639 804l-325 -408h149l-5 -24h-163l-7 -33h163l-5 -26h-163l-64 -312h-77l64 312h-165l5 26h165l7 33h-165l5 24h152l-73 231q-31 101 -75 162l99 28l125 -414q98 123 178 237q76 111 101 164h74z" />
    <glyph glyph-name="section" unicode="&#xa7;" 
d="M82 1351v-1337h655v1337h-655zM751 0h-683v1365h683v-1365z" />
    <glyph glyph-name="dieresis" unicode="&#xa8;" horiz-adv-x="523" 
d="M340 793q14 0 24 -6t16 -16t6 -25q0 -19 -14 -33t-32 -14q-19 0 -33 14t-14 33q0 21 13 34t34 13zM183 793q15 0 25 -6t16 -16t6 -25q0 -19 -14 -33t-33 -14q-18 0 -32 14t-14 33q0 21 13 34t33 13z" />
    <glyph glyph-name="copyright" unicode="&#xa9;" 
d="M82 1351v-1337h655v1337h-655zM751 0h-683v1365h683v-1365z" />
    <glyph glyph-name="ordfeminine" unicode="&#xaa;" 
d="M82 1351v-1337h655v1337h-655zM751 0h-683v1365h683v-1365z" />
    <glyph glyph-name="guillemotleft" unicode="&#xab;" horiz-adv-x="538" 
d="M363 508h18l-123 -203l32 -204h-17q-30 117 -108 204q108 91 198 203zM219 508h18l-123 -203l32 -204h-18q-28 117 -108 204q110 92 199 203z" />
    <glyph glyph-name="logicalnot" unicode="&#xac;" 
d="M82 1351v-1337h655v1337h-655zM751 0h-683v1365h683v-1365z" />
    <glyph glyph-name="registered" unicode="&#xae;" 
d="M82 1351v-1337h655v1337h-655zM751 0h-683v1365h683v-1365z" />
    <glyph glyph-name="macron" unicode="&#xaf;" 
d="M82 1351v-1337h655v1337h-655zM751 0h-683v1365h683v-1365z" />
    <glyph glyph-name="degree" unicode="&#xb0;" 
d="M82 1351v-1337h655v1337h-655zM751 0h-683v1365h683v-1365z" />
    <glyph glyph-name="plusminus" unicode="&#xb1;" 
d="M82 1351v-1337h655v1337h-655zM751 0h-683v1365h683v-1365z" />
    <glyph glyph-name="acute" unicode="&#xb4;" horiz-adv-x="502" 
d="M301 832l65 -18l-209 -154l-20 7z" />
    <glyph glyph-name="mu" unicode="&#xb5;" 
d="M82 1351v-1337h655v1337h-655zM751 0h-683v1365h683v-1365z" />
    <glyph glyph-name="paragraph" unicode="&#xb6;" 
d="M82 1351v-1337h655v1337h-655zM751 0h-683v1365h683v-1365z" />
    <glyph glyph-name="periodcentered" unicode="&#xb7;" horiz-adv-x="333" 
d="M197 433q0 -40 -25 -68q-26 -29 -61 -29q-70 0 -70 70q0 28 12 50t32 36q19 13 42 13q31 0 51 -20q19 -19 19 -52z" />
    <glyph glyph-name="periodcentered" unicode="&#x2219;" horiz-adv-x="333" 
d="M197 433q0 -40 -25 -68q-26 -29 -61 -29q-70 0 -70 70q0 28 12 50t32 36q19 13 42 13q31 0 51 -20q19 -19 19 -52z" />
    <glyph glyph-name="cedilla" unicode="&#xb8;" 
d="M82 1351v-1337h655v1337h-655zM751 0h-683v1365h683v-1365z" />
    <glyph glyph-name="ordmasculine" unicode="&#xba;" 
d="M82 1351v-1337h655v1337h-655zM751 0h-683v1365h683v-1365z" />
    <glyph glyph-name="guillemotright" unicode="&#xbb;" horiz-adv-x="538" 
d="M39 101h-19l124 203l-32 204h17q30 -118 108 -204q-47 -39 -100 -93q-52 -53 -98 -110zM183 101h-18l123 203l-32 204h17q17 -63 41 -108.5t67 -95.5q-47 -39 -100 -93q-52 -53 -98 -110z" />
    <glyph glyph-name="questiondown" unicode="&#xbf;" horiz-adv-x="728" 
d="M504 1101q-33 0 -58 23q-24 23 -24 58q0 36 24 58q25 23 58 23q32 0 57 -23q24 -22 24 -58q0 -35 -24 -58q-25 -23 -57 -23zM365 961l27 68h11q42 0 75 -18q33 -20 52 -53q18 -34 18 -77q0 -78 -63 -179q-26 -43 -151 -200q-42 -54 -76 -95q-92 -117 -124 -174
q-35 -62 -35 -106q0 -43 30 -73t75 -30q104 0 230 135q60 63 99 132l28 -103q-62 -87 -154 -143t-177 -56q-75 0 -122 47t-47 122t52 173q51 99 163 235l89 108q91 109 120 157q26 44 26 82q0 31 -19 49q-20 17 -54 17q-23 0 -73 -18z" />
    <glyph glyph-name="Agrave" unicode="&#xc0;" 
d="M82 1351v-1337h655v1337h-655zM751 0h-683v1365h683v-1365z" />
    <glyph glyph-name="Aacute" unicode="&#xc1;" 
d="M82 1351v-1337h655v1337h-655zM751 0h-683v1365h683v-1365z" />
    <glyph glyph-name="Acircumflex" unicode="&#xc2;" 
d="M82 1351v-1337h655v1337h-655zM751 0h-683v1365h683v-1365z" />
    <glyph glyph-name="Atilde" unicode="&#xc3;" 
d="M82 1351v-1337h655v1337h-655zM751 0h-683v1365h683v-1365z" />
    <glyph glyph-name="Adieresis" unicode="&#xc4;" 
d="M82 1351v-1337h655v1337h-655zM751 0h-683v1365h683v-1365z" />
    <glyph glyph-name="Aring" unicode="&#xc5;" 
d="M82 1351v-1337h655v1337h-655zM751 0h-683v1365h683v-1365z" />
    <glyph glyph-name="AE" unicode="&#xc6;" 
d="M82 1351v-1337h655v1337h-655zM751 0h-683v1365h683v-1365z" />
    <glyph glyph-name="Ccedilla" unicode="&#xc7;" horiz-adv-x="986" 
d="M379 -25l-36 -67q13 4 24 4q25 0 42 -17q15 -18 15 -44q0 -41 -29 -67q-30 -27 -76 -27q-41 0 -71 21l10 19q17 -17 45 -17q29 0 51 22q23 23 23 49q0 31 -29 31q-12 0 -25 -7l-19 9l51 93q-150 18 -239 131t-89 287q0 92 27 192q26 98 81 203q53 102 126 198
q77 102 171 183q97 82 189 124q96 44 169 44q71 0 114 -40q42 -40 42 -110q0 -77 -51 -160q-52 -86 -136 -149q-86 -66 -182 -93l-28 76q93 27 176 83q82 55 131 124q47 68 47 134q0 49 -31 77t-85 28q-63 0 -138 -33q-72 -32 -148 -92q-71 -57 -141 -142q-72 -89 -122 -190
q-47 -95 -74 -201q-25 -101 -25 -213q0 -186 86 -296t235 -110q97 0 187 43q90 44 207 144l16 13l12 -22q-239 -236 -479 -236q-17 0 -24 1z" />
    <glyph glyph-name="Egrave" unicode="&#xc8;" 
d="M82 1351v-1337h655v1337h-655zM751 0h-683v1365h683v-1365z" />
    <glyph glyph-name="Eacute" unicode="&#xc9;" 
d="M82 1351v-1337h655v1337h-655zM751 0h-683v1365h683v-1365z" />
    <glyph glyph-name="Ecircumflex" unicode="&#xca;" 
d="M82 1351v-1337h655v1337h-655zM751 0h-683v1365h683v-1365z" />
    <glyph glyph-name="Edieresis" unicode="&#xcb;" 
d="M82 1351v-1337h655v1337h-655zM751 0h-683v1365h683v-1365z" />
    <glyph glyph-name="Igrave" unicode="&#xcc;" 
d="M82 1351v-1337h655v1337h-655zM751 0h-683v1365h683v-1365z" />
    <glyph glyph-name="Iacute" unicode="&#xcd;" 
d="M82 1351v-1337h655v1337h-655zM751 0h-683v1365h683v-1365z" />
    <glyph glyph-name="Icircumflex" unicode="&#xce;" 
d="M82 1351v-1337h655v1337h-655zM751 0h-683v1365h683v-1365z" />
    <glyph glyph-name="Idieresis" unicode="&#xcf;" 
d="M82 1351v-1337h655v1337h-655zM751 0h-683v1365h683v-1365z" />
    <glyph glyph-name="Ntilde" unicode="&#xd1;" 
d="M82 1351v-1337h655v1337h-655zM751 0h-683v1365h683v-1365z" />
    <glyph glyph-name="Ograve" unicode="&#xd2;" 
d="M82 1351v-1337h655v1337h-655zM751 0h-683v1365h683v-1365z" />
    <glyph glyph-name="Oacute" unicode="&#xd3;" 
d="M82 1351v-1337h655v1337h-655zM751 0h-683v1365h683v-1365z" />
    <glyph glyph-name="Ocircumflex" unicode="&#xd4;" 
d="M82 1351v-1337h655v1337h-655zM751 0h-683v1365h683v-1365z" />
    <glyph glyph-name="Otilde" unicode="&#xd5;" 
d="M82 1351v-1337h655v1337h-655zM751 0h-683v1365h683v-1365z" />
    <glyph glyph-name="Odieresis" unicode="&#xd6;" 
d="M82 1351v-1337h655v1337h-655zM751 0h-683v1365h683v-1365z" />
    <glyph glyph-name="multiply" unicode="&#xd7;" horiz-adv-x="0" 
 />
    <glyph glyph-name="multiply" unicode="&#xfd;" horiz-adv-x="0" 
 />
    <glyph glyph-name="Oslash" unicode="&#xd8;" 
d="M82 1351v-1337h655v1337h-655zM751 0h-683v1365h683v-1365z" />
    <glyph glyph-name="Ugrave" unicode="&#xd9;" 
d="M82 1351v-1337h655v1337h-655zM751 0h-683v1365h683v-1365z" />
    <glyph glyph-name="Uacute" unicode="&#xda;" 
d="M82 1351v-1337h655v1337h-655zM751 0h-683v1365h683v-1365z" />
    <glyph glyph-name="Ucircumflex" unicode="&#xdb;" 
d="M82 1351v-1337h655v1337h-655zM751 0h-683v1365h683v-1365z" />
    <glyph glyph-name="Udieresis" unicode="&#xdc;" 
d="M82 1351v-1337h655v1337h-655zM751 0h-683v1365h683v-1365z" />
    <glyph glyph-name="germandbls" unicode="&#xdf;" horiz-adv-x="612" 
d="M38 8l-65 -19l200 1015q20 96 28 125q12 43 22 68q11 30 30 62q42 71 95 109q56 41 106 41q58 0 95 -40q36 -40 36 -107q0 -51 -25 -116q-27 -71 -74 -141q-52 -79 -124 -161q-42 -46 -53 -68q-14 -26 -14 -51q0 -38 46 -90q84 -94 112 -146q43 -80 43 -166t-40 -163
q-40 -78 -105 -128q-65 -49 -137 -49q-82 0 -129 59l48 60q44 -77 119 -77q49 0 93 35q45 36 70 91q25 56 25 126q0 58 -19 109t-54 92l-72 85q-50 59 -50 116q0 71 55 133l67 77q152 176 152 344q0 64 -25 101q-26 38 -66 38q-49 0 -78 -41q-28 -40 -51 -144z" />
    <glyph glyph-name="agrave" unicode="&#xe0;" horiz-adv-x="666" 
d="M413 428l9 35q-12 38 -40 60q-28 21 -66 21q-44 0 -93 -40t-90 -113q-33 -59 -53 -126q-22 -67 -22 -114q0 -51 20 -80t55 -29q47 0 96 43q50 44 99 123q32 49 47 92q19 54 38 128zM443 552l94 39l-94 -366q-15 -60 -15 -94q0 -30 13 -52t32 -22q28 0 96 71l14 -14
l-11 -13q-51 -60 -81 -85q-28 -25 -50 -25q-33 0 -55 34q-24 33 -24 77q0 33 24 145l8 38q-37 -85 -99 -165q-103 -132 -199 -132q-57 0 -90 41t-33 110q0 94 54 197q51 100 133 170q80 66 154 66q79 0 118 -58zM274 815l59 17l59 -167l-19 -5z" />
    <glyph glyph-name="aacute" unicode="&#xe1;" horiz-adv-x="666" 
d="M413 428l9 35q-12 38 -40 60q-28 21 -66 21q-44 0 -93 -40t-90 -113q-33 -59 -53 -126q-22 -67 -22 -114q0 -51 20 -80t55 -29q47 0 96 43q50 44 99 123q32 49 47 92q19 54 38 128zM443 552l94 39l-94 -366q-15 -60 -15 -94q0 -30 13 -52t32 -22q28 0 96 71l14 -14
l-11 -13q-51 -60 -81 -85q-28 -25 -50 -25q-33 0 -55 34q-24 33 -24 77q0 33 24 145l8 38q-37 -85 -99 -165q-103 -132 -199 -132q-57 0 -90 41t-33 110q0 94 54 197q51 100 133 170q80 66 154 66q79 0 118 -58zM478 832l65 -18l-209 -154l-20 7z" />
    <glyph glyph-name="acircumflex" unicode="&#xe2;" horiz-adv-x="666" 
d="M413 428l9 35q-12 38 -40 60q-28 21 -66 21q-44 0 -93 -40t-90 -113q-33 -59 -53 -126q-22 -67 -22 -114q0 -51 20 -80t55 -29q47 0 96 43q50 44 99 123q32 49 47 92q19 54 38 128zM443 552l94 39l-94 -366q-15 -60 -15 -94q0 -30 13 -52t32 -22q28 0 96 71l14 -14
l-11 -13q-51 -60 -81 -85q-28 -25 -50 -25q-33 0 -55 34q-24 33 -24 77q0 33 24 145l8 38q-37 -85 -99 -165q-103 -132 -199 -132q-57 0 -90 41t-33 110q0 94 54 197q51 100 133 170q80 66 154 66q79 0 118 -58zM504 690l-116 47l-135 -47l-7 15l154 98l115 -98z" />
    <glyph glyph-name="atilde" unicode="&#xe3;" horiz-adv-x="666" 
d="M413 428l9 35q-12 38 -40 60q-28 21 -66 21q-44 0 -93 -40t-90 -113q-33 -59 -53 -126q-22 -67 -22 -114q0 -51 20 -80t55 -29q47 0 96 43q50 44 99 123q32 49 47 92q19 54 38 128zM443 552l94 39l-94 -366q-15 -60 -15 -94q0 -30 13 -52t32 -22q28 0 96 71l14 -14
l-11 -13q-51 -60 -81 -85q-28 -25 -50 -25q-33 0 -55 34q-24 33 -24 77q0 33 24 145l8 38q-37 -85 -99 -165q-103 -132 -199 -132q-57 0 -90 41t-33 110q0 94 54 197q51 100 133 170q80 66 154 66q79 0 118 -58zM518 784l14 -15q-68 -67 -113 -67q-21 0 -40 16l-23 18
q-22 18 -37 18q-26 0 -72 -44l-14 13q28 31 59 50q30 18 52 18q20 0 64 -32q26 -18 39 -18q31 0 71 43z" />
    <glyph glyph-name="adieresis" unicode="&#xe4;" horiz-adv-x="666" 
d="M413 428l9 35q-12 38 -40 60q-28 21 -66 21q-44 0 -93 -40t-90 -113q-33 -59 -53 -126q-22 -67 -22 -114q0 -51 20 -80t55 -29q47 0 96 43q50 44 99 123q32 49 47 92q19 54 38 128zM443 552l94 39l-94 -366q-15 -60 -15 -94q0 -30 13 -52t32 -22q28 0 96 71l14 -14
l-11 -13q-51 -60 -81 -85q-28 -25 -50 -25q-33 0 -55 34q-24 33 -24 77q0 33 24 145l8 38q-37 -85 -99 -165q-103 -132 -199 -132q-57 0 -90 41t-33 110q0 94 54 197q51 100 133 170q80 66 154 66q79 0 118 -58zM477 793q14 0 24 -6t16 -16t6 -25q0 -19 -14 -33t-32 -14
q-19 0 -33 14t-14 33q0 21 13 34t34 13zM320 793q15 0 25 -6t16 -16t6 -25q0 -19 -14 -33t-33 -14q-18 0 -32 14t-14 33q0 21 13 34t33 13z" />
    <glyph glyph-name="aring" unicode="&#xe5;" horiz-adv-x="666" 
d="M413 428l9 35q-12 38 -40 60q-28 21 -66 21q-44 0 -93 -40t-90 -113q-33 -59 -53 -126q-22 -67 -22 -114q0 -51 20 -80t55 -29q47 0 96 43q50 44 99 123q32 49 47 92q19 54 38 128zM443 552l94 39l-94 -366q-15 -60 -15 -94q0 -30 13 -52t32 -22q28 0 96 71l14 -14
l-11 -13q-51 -60 -81 -85q-28 -25 -50 -25q-33 0 -55 34q-24 33 -24 77q0 33 24 145l8 38q-37 -85 -99 -165q-103 -132 -199 -132q-57 0 -90 41t-33 110q0 94 54 197q51 100 133 170q80 66 154 66q79 0 118 -58zM380 795q-21 0 -35 -15q-14 -16 -14 -34q0 -19 15 -34t34 -15
q18 0 34 14q15 14 15 35t-14 35t-35 14zM380 826q32 0 56 -24t24 -56q0 -33 -24 -56q-25 -23 -56 -23q-33 0 -56 23t-23 56q0 31 23 56q23 24 56 24z" />
    <glyph glyph-name="ae" unicode="&#xe6;" horiz-adv-x="851" 
d="M417 231q59 26 91 47q34 23 70 60q92 95 92 165q0 21 -13 34q-13 12 -37 12q-30 0 -63 -24q-34 -27 -59 -70q-33 -56 -54 -116q-22 -60 -27 -108zM360 340q-82 -7 -178 -59q-58 -31 -92 -77q-35 -47 -35 -94q0 -33 23 -56q23 -24 53 -24q48 0 92 38q43 37 80 109
q36 70 57 163zM736 155l20 -15q-101 -155 -244 -155q-76 0 -126 51q-50 52 -50 129v8q-43 -87 -109 -137q-64 -51 -133 -51q-56 0 -88 30q-33 30 -33 81q0 96 105 169q53 37 126 63t165 41q1 4 2.5 8.5t1.5 5.5q1 4 1 7q12 50 12 71q0 45 -21 67t-61 22q-54 0 -95 -39
q-41 -41 -41 -92q0 -13 3 -27q-15 -3 -24 -3q-19 0 -32 13t-13 32q0 35 28 67q29 34 75 53q48 20 99 20q124 0 142 -107q38 53 88 82t103 29q44 0 69 -22t25 -61q0 -51 -42 -108q-44 -58 -115 -105q-72 -48 -157 -75v-10q0 -71 38 -118t93 -47q101 0 188 123z" />
    <glyph glyph-name="ccedilla" unicode="&#xe7;" horiz-adv-x="489" 
d="M152 -15l-36 -66q13 4 24 4q25 0 42 -17q15 -18 15 -44q0 -40 -29 -67q-30 -27 -76 -27q-43 0 -71 22l11 18q17 -17 44 -17q29 0 51 22q23 23 23 49q0 32 -28 32q-12 0 -26 -8l-19 9l50 91q-72 9 -112 61q-42 51 -42 132q0 89 47 183q45 91 121 154q73 61 141 61
q46 0 74 -25t28 -69q0 -39 -29 -74q-30 -36 -64 -36q-15 0 -27 12q65 29 65 108q0 27 -14 44q-15 15 -39 15q-36 0 -74 -30t-71 -83q-33 -54 -51 -114q-19 -60 -19 -123q0 -73 35 -120q34 -46 92 -46q49 0 95 31q48 33 96 95l14 -12q-60 -87 -117 -125q-55 -37 -124 -40z
" />
    <glyph glyph-name="egrave" unicode="&#xe8;" horiz-adv-x="496" 
d="M62 231q106 47 166 107q40 42 63 86q24 47 24 83q0 47 -43 47q-65 0 -131 -102q-67 -103 -79 -221zM382 155l18 -15q-60 -80 -121 -118q-58 -37 -127 -37q-80 0 -130 54q-49 53 -49 143t48 183q46 91 119 153q71 60 141 60q41 0 68 -24q26 -24 26 -62q0 -77 -84 -154
q-85 -78 -229 -131q-1 -5 -1 -18q0 -68 38 -112t98 -44q48 0 91 30q45 29 94 92zM178 815l59 17l59 -167l-19 -5z" />
    <glyph glyph-name="eacute" unicode="&#xe9;" horiz-adv-x="496" 
d="M62 231q106 47 166 107q40 42 63 86q24 47 24 83q0 47 -43 47q-65 0 -131 -102q-67 -103 -79 -221zM382 155l18 -15q-60 -80 -121 -118q-58 -37 -127 -37q-80 0 -130 54q-49 53 -49 143t48 183q46 91 119 153q71 60 141 60q41 0 68 -24q26 -24 26 -62q0 -77 -84 -154
q-85 -78 -229 -131q-1 -5 -1 -18q0 -68 38 -112t98 -44q48 0 91 30q45 29 94 92zM369 832l65 -18l-209 -154l-20 7z" />
    <glyph glyph-name="ecircumflex" unicode="&#xea;" horiz-adv-x="496" 
d="M62 231q106 47 166 107q40 42 63 86q24 47 24 83q0 47 -43 47q-65 0 -131 -102q-67 -103 -79 -221zM382 155l18 -15q-60 -80 -121 -118q-58 -37 -127 -37q-80 0 -130 54q-49 53 -49 143t48 183q46 91 119 153q71 60 141 60q41 0 68 -24q26 -24 26 -62q0 -77 -84 -154
q-85 -78 -229 -131q-1 -5 -1 -18q0 -68 38 -112t98 -44q48 0 91 30q45 29 94 92zM422 690l-116 47l-135 -47l-7 15l154 98l115 -98z" />
    <glyph glyph-name="edieresis" unicode="&#xeb;" horiz-adv-x="496" 
d="M62 231q106 47 166 107q40 42 63 86q24 47 24 83q0 47 -43 47q-65 0 -131 -102q-67 -103 -79 -221zM382 155l18 -15q-60 -80 -121 -118q-58 -37 -127 -37q-80 0 -130 54q-49 53 -49 143t48 183q46 91 119 153q71 60 141 60q41 0 68 -24q26 -24 26 -62q0 -77 -84 -154
q-85 -78 -229 -131q-1 -5 -1 -18q0 -68 38 -112t98 -44q48 0 91 30q45 29 94 92zM381 793q14 0 24 -6t16 -16t6 -25q0 -19 -14 -33t-32 -14q-19 0 -33 14t-14 33q0 21 13 34t34 13zM224 793q15 0 25 -6t16 -16t6 -25q0 -19 -14 -33t-33 -14q-18 0 -32 14t-14 33q0 21 13 34
t33 13z" />
    <glyph glyph-name="igrave" unicode="&#xec;" horiz-adv-x="295" 
d="M75 544l98 41l-88 -329q-22 -79 -22 -130q0 -32 11 -52t29 -20q31 0 99 74l16 -14l-10 -11q-57 -67 -84 -90q-27 -24 -50 -24q-31 0 -52 32q-22 31 -22 78q0 31 12 95zM69 815l59 17l59 -167l-19 -5z" />
    <glyph glyph-name="iacute" unicode="&#xed;" horiz-adv-x="295" 
d="M75 544l98 41l-88 -329q-22 -79 -22 -130q0 -32 11 -52t29 -20q31 0 99 74l16 -14l-10 -11q-57 -67 -84 -90q-27 -24 -50 -24q-31 0 -52 32q-22 31 -22 78q0 31 12 95zM233 832l65 -18l-209 -154l-20 7z" />
    <glyph glyph-name="icircumflex" unicode="&#xee;" horiz-adv-x="295" 
d="M75 544l98 41l-88 -329q-22 -79 -22 -130q0 -32 11 -52t29 -20q31 0 99 74l16 -14l-10 -11q-57 -67 -84 -90q-27 -24 -50 -24q-31 0 -52 32q-22 31 -22 78q0 31 12 95zM286 690l-116 47l-135 -47l-7 15l154 98l115 -98z" />
    <glyph glyph-name="idieresis" unicode="&#xef;" horiz-adv-x="295" 
d="M75 544l98 41l-88 -329q-22 -79 -22 -130q0 -32 11 -52t29 -20q31 0 99 74l16 -14l-10 -11q-57 -67 -84 -90q-27 -24 -50 -24q-31 0 -52 32q-22 31 -22 78q0 31 12 95zM244 793q14 0 24 -6t16 -16t6 -25q0 -19 -14 -33t-32 -14q-19 0 -33 14t-14 33q0 21 13 34t34 13z
M87 793q15 0 25 -6t16 -16t6 -25q0 -19 -14 -33t-33 -14q-18 0 -32 14t-14 33q0 21 13 34t33 13z" />
    <glyph glyph-name="ntilde" unicode="&#xf1;" horiz-adv-x="664" 
d="M50 11l-67 -21l106 554l95 41l-86 -367q44 93 83.5 156.5t81.5 109.5q82 91 157 91q38 0 60 -24q23 -26 23 -66q0 -21 -11 -65l-10 -42l-30 -122l-10 -39q-15 -60 -15 -92q0 -31 11 -51t29 -20q31 0 99 74l16 -14l-10 -11q-57 -67 -84 -90q-27 -24 -50 -24q-31 0 -52 32
q-22 31 -22 78q0 32 12 95l39 212q8 53 8 70q0 21 -11 32t-30 11q-70 0 -170 -148q-49 -70 -81 -140q-32 -72 -72 -193zM477 784l14 -15q-68 -67 -113 -67q-21 0 -40 16l-23 18q-22 18 -37 18q-26 0 -72 -44l-14 13q28 31 59 50q30 18 52 18q20 0 64 -32q26 -18 39 -18
q31 0 71 43z" />
    <glyph glyph-name="ograve" unicode="&#xf2;" horiz-adv-x="600" 
d="M401 412q0 59 -29 99q-30 39 -76 39q-42 0 -80 -27q-40 -28 -71 -79q-37 -61 -59 -140q-24 -79 -24 -142q0 -73 29 -114q28 -40 83 -40q87 0 153 121q34 61 54 139t20 144zM-27 192q0 91 49 180q49 90 125 145q77 56 157 56q84 0 136 -55q51 -55 51 -144q0 -95 -47 -186
q-48 -89 -125 -147t-157 -58q-85 0 -137 58q-52 56 -52 151zM233 815l59 17l59 -167l-19 -5z" />
    <glyph glyph-name="oacute" unicode="&#xf3;" horiz-adv-x="600" 
d="M401 412q0 59 -29 99q-30 39 -76 39q-42 0 -80 -27q-40 -28 -71 -79q-37 -61 -59 -140q-24 -79 -24 -142q0 -73 29 -114q28 -40 83 -40q87 0 153 121q34 61 54 139t20 144zM-27 192q0 91 49 180q49 90 125 145q77 56 157 56q84 0 136 -55q51 -55 51 -144q0 -95 -47 -186
q-48 -89 -125 -147t-157 -58q-85 0 -137 58q-52 56 -52 151zM424 832l65 -18l-209 -154l-20 7z" />
    <glyph glyph-name="ocircumflex" unicode="&#xf4;" horiz-adv-x="600" 
d="M401 412q0 59 -29 99q-30 39 -76 39q-42 0 -80 -27q-40 -28 -71 -79q-37 -61 -59 -140q-24 -79 -24 -142q0 -73 29 -114q28 -40 83 -40q87 0 153 121q34 61 54 139t20 144zM-27 192q0 91 49 180q49 90 125 145q77 56 157 56q84 0 136 -55q51 -55 51 -144q0 -95 -47 -186
q-48 -89 -125 -147t-157 -58q-85 0 -137 58q-52 56 -52 151zM463 690l-116 47l-135 -47l-7 15l154 98l115 -98z" />
    <glyph glyph-name="otilde" unicode="&#xf5;" horiz-adv-x="600" 
d="M401 412q0 59 -29 99q-30 39 -76 39q-42 0 -80 -27q-40 -28 -71 -79q-37 -61 -59 -140q-24 -79 -24 -142q0 -73 29 -114q28 -40 83 -40q87 0 153 121q34 61 54 139t20 144zM-27 192q0 91 49 180q49 90 125 145q77 56 157 56q84 0 136 -55q51 -55 51 -144q0 -95 -47 -186
q-48 -89 -125 -147t-157 -58q-85 0 -137 58q-52 56 -52 151zM490 784l14 -15q-68 -67 -113 -67q-21 0 -40 16l-23 18q-22 18 -37 18q-26 0 -72 -44l-14 13q28 31 59 50q30 18 52 18q20 0 64 -32q26 -18 39 -18q31 0 71 43z" />
    <glyph glyph-name="odieresis" unicode="&#xf6;" horiz-adv-x="600" 
d="M401 412q0 59 -29 99q-30 39 -76 39q-42 0 -80 -27q-40 -28 -71 -79q-37 -61 -59 -140q-24 -79 -24 -142q0 -73 29 -114q28 -40 83 -40q87 0 153 121q34 61 54 139t20 144zM-27 192q0 91 49 180q49 90 125 145q77 56 157 56q84 0 136 -55q51 -55 51 -144q0 -95 -47 -186
q-48 -89 -125 -147t-157 -58q-85 0 -137 58q-52 56 -52 151zM422 793q14 0 24 -6t16 -16t6 -25q0 -19 -14 -33t-32 -14q-19 0 -33 14t-14 33q0 21 13 34t34 13zM265 793q15 0 25 -6t16 -16t6 -25q0 -19 -14 -33t-33 -14q-18 0 -32 14t-14 33q0 21 13 34t33 13z" />
    <glyph glyph-name="divide" unicode="&#xf7;" 
d="M82 1351v-1337h655v1337h-655zM751 0h-683v1365h683v-1365z" />
    <glyph glyph-name="oslash" unicode="&#xf8;" horiz-adv-x="600" 
d="M62 141l334 318q-24 91 -101 91q-49 0 -94 -39q-46 -40 -81 -114q-59 -124 -59 -236q0 -15 1 -20zM401 423l-335 -318q22 -97 108 -97q87 0 153 121q33 61 53 139q21 81 21 143v12zM447 508l91 86l21 -21l-94 -90q26 -46 26 -110q0 -95 -48 -185q-48 -91 -124 -148
t-157 -57q-44 0 -82 18t-66 53l-89 -84l-20 22l92 88q-24 47 -24 111q0 69 28 137q30 72 77 125q51 57 108 88q59 32 118 32q87 0 143 -65z" />
    <glyph glyph-name="ugrave" unicode="&#xf9;" horiz-adv-x="617" 
d="M79 544l97 41l-97 -387q-13 -51 -13 -88q0 -35 22 -56q23 -21 57 -21q86 0 177 139l4 6q1 9 3 16l63 350l98 41l-88 -329q-22 -79 -22 -130q0 -32 11 -52t29 -20q31 0 99 74l16 -14l-10 -11q-57 -67 -84 -90q-27 -24 -50 -24q-31 0 -52 32q-22 31 -22 78q0 19 1 28
q-103 -138 -206 -138q-51 0 -81 30q-31 28 -31 78q0 35 11 93zM205 815l59 17l59 -167l-19 -5z" />
    <glyph glyph-name="uacute" unicode="&#xfa;" horiz-adv-x="617" 
d="M79 544l97 41l-97 -387q-13 -51 -13 -88q0 -35 22 -56q23 -21 57 -21q86 0 177 139l4 6q1 9 3 16l63 350l98 41l-88 -329q-22 -79 -22 -130q0 -32 11 -52t29 -20q31 0 99 74l16 -14l-10 -11q-57 -67 -84 -90q-27 -24 -50 -24q-31 0 -52 32q-22 31 -22 78q0 19 1 28
q-103 -138 -206 -138q-51 0 -81 30q-31 28 -31 78q0 35 11 93zM410 832l65 -18l-209 -154l-20 7z" />
    <glyph glyph-name="ucircumflex" unicode="&#xfb;" horiz-adv-x="617" 
d="M79 544l97 41l-97 -387q-13 -51 -13 -88q0 -35 22 -56q23 -21 57 -21q86 0 177 139l4 6q1 9 3 16l63 350l98 41l-88 -329q-22 -79 -22 -130q0 -32 11 -52t29 -20q31 0 99 74l16 -14l-10 -11q-57 -67 -84 -90q-27 -24 -50 -24q-31 0 -52 32q-22 31 -22 78q0 19 1 28
q-103 -138 -206 -138q-51 0 -81 30q-31 28 -31 78q0 35 11 93zM422 690l-116 47l-135 -47l-7 15l154 98l115 -98z" />
    <glyph glyph-name="udieresis" unicode="&#xfc;" horiz-adv-x="617" 
d="M79 544l97 41l-97 -387q-13 -51 -13 -88q0 -35 22 -56q23 -21 57 -21q86 0 177 139l4 6q1 9 3 16l63 350l98 41l-88 -329q-22 -79 -22 -130q0 -32 11 -52t29 -20q31 0 99 74l16 -14l-10 -11q-57 -67 -84 -90q-27 -24 -50 -24q-31 0 -52 32q-22 31 -22 78q0 19 1 28
q-103 -138 -206 -138q-51 0 -81 30q-31 28 -31 78q0 35 11 93zM395 793q14 0 24 -6t16 -16t6 -25q0 -19 -14 -33t-32 -14q-19 0 -33 14t-14 33q0 21 13 34t34 13zM238 793q15 0 25 -6t16 -16t6 -25q0 -19 -14 -33t-33 -14q-18 0 -32 14t-14 33q0 21 13 34t33 13z" />
    <glyph glyph-name="ydieresis" unicode="&#xff;" horiz-adv-x="598" 
d="M-116 -355l49 66q59 -62 131 -62q78 0 124 61q47 63 77 200l46 207q-109 -129 -199 -129q-52 0 -81 32q-30 32 -30 86q0 36 9 79l68 359l97 41l-97 -403q-12 -49 -12 -73q0 -34 21 -55q19 -22 54 -22q37 0 82 33q41 30 99 97l86 382l94 41l-146 -588q-23 -98 -49 -166
q-24 -60 -55 -100q-97 -126 -239 -126q-83 0 -129 40zM416 793q14 0 24 -6t16 -16t6 -25q0 -19 -14 -33t-32 -14q-19 0 -33 14t-14 33q0 21 13 34t34 13zM259 793q15 0 25 -6t16 -16t6 -25q0 -19 -14 -33t-33 -14q-18 0 -32 14t-14 33q0 21 13 34t33 13z" />
    <glyph glyph-name="dotlessi" unicode="&#x131;" horiz-adv-x="295" 
d="M75 544l98 41l-88 -329q-22 -79 -22 -130q0 -32 11 -52t29 -20q31 0 99 74l16 -14l-10 -11q-57 -67 -84 -90q-27 -24 -50 -24q-31 0 -52 32q-22 31 -22 78q0 31 12 95z" />
    <glyph glyph-name="OE" unicode="&#x152;" 
d="M82 1351v-1337h655v1337h-655zM751 0h-683v1365h683v-1365z" />
    <glyph glyph-name="oe" unicode="&#x153;" horiz-adv-x="891" 
d="M456 231q51 22 88 45q35 21 75 60q91 88 91 168q0 19 -13 32t-32 13q-64 0 -126 -95q-64 -97 -83 -223zM397 413q0 62 -28 99t-78 37q-40 0 -79 -27t-68 -74q-37 -60 -60 -141q-23 -84 -23 -147q0 -71 29 -112q28 -40 80 -40q54 0 108 60q53 59 86 154t33 191zM778 155
l17 -15q-103 -156 -245 -156q-67 0 -111 35q-43 35 -57 102q-30 -60 -92 -99q-61 -40 -124 -40q-57 0 -101 26t-68 74t-24 105q0 96 46 185q47 91 123 146t156 55q138 0 166 -138q38 66 93 105q56 38 116 38q44 0 69 -25q26 -26 26 -65q0 -51 -42 -107q-43 -58 -114 -104
q-76 -48 -156 -70q0 -63 17 -102q16 -34 46 -53q32 -20 68 -20q100 0 191 123z" />
    <glyph glyph-name="Ydieresis" unicode="&#x178;" 
d="M82 1351v-1337h655v1337h-655zM751 0h-683v1365h683v-1365z" />
    <glyph glyph-name="florin" unicode="&#x192;" horiz-adv-x="510" 
d="M412 530h-155l-67 -241q-29 -104 -61 -200q-36 -115 -77 -182q-41 -66 -100 -107q-77 -54 -151 -54q-20 0 -47 6l32 86q43 -34 84 -34q35 0 70 29q33 27 55 76q20 43 61 186l121 435h-95l7 35h98l37 134q34 118 61 174q28 59 70 107q101 119 217 119q29 0 54 -9l-32 -89
q-39 43 -89 43q-51 0 -86 -39q-36 -42 -62 -127l-17 -54q-6 -18 -8.5 -26.5t-6.5 -22.5l-58 -210h152z" />
    <glyph glyph-name="hungarumlaut" unicode="&#x2ba;" 
d="M82 1351v-1337h655v1337h-655zM751 0h-683v1365h683v-1365z" />
    <glyph glyph-name="circumflex" unicode="&#x2c6;" horiz-adv-x="543" 
d="M395 690l-116 47l-135 -47l-7 15l154 98l115 -98z" />
    <glyph glyph-name="caron" unicode="&#x2c7;" 
d="M82 1351v-1337h655v1337h-655zM751 0h-683v1365h683v-1365z" />
    <glyph glyph-name="breve" unicode="&#x2d8;" 
d="M82 1351v-1337h655v1337h-655zM751 0h-683v1365h683v-1365z" />
    <glyph glyph-name="dotaccent" unicode="&#x2d9;" 
d="M82 1351v-1337h655v1337h-655zM751 0h-683v1365h683v-1365z" />
    <glyph glyph-name="ring" unicode="&#x2da;" horiz-adv-x="432" 
d="M216 795q-21 0 -35 -15q-14 -16 -14 -34q0 -19 15 -34t34 -15q18 0 34 14q15 14 15 35t-14 35t-35 14zM216 826q32 0 56 -24t24 -56q0 -33 -24 -56q-25 -23 -56 -23q-33 0 -56 23t-23 56q0 31 23 56q23 24 56 24z" />
    <glyph glyph-name="ogonek" unicode="&#x2db;" 
d="M82 1351v-1337h655v1337h-655zM751 0h-683v1365h683v-1365z" />
    <glyph glyph-name="tilde" unicode="&#x2dc;" horiz-adv-x="572" 
d="M422 784l14 -15q-68 -67 -113 -67q-21 0 -40 16l-23 18q-22 18 -37 18q-26 0 -72 -44l-14 13q28 31 59 50q30 18 52 18q20 0 64 -32q26 -18 39 -18q31 0 71 43z" />
    <glyph glyph-name="summation" unicode="&#x3a3;" 
d="M82 1351v-1337h655v1337h-655zM751 0h-683v1365h683v-1365z" />
    <glyph glyph-name="Omega" unicode="&#x3a9;" 
d="M82 1351v-1337h655v1337h-655zM751 0h-683v1365h683v-1365z" />
    <glyph glyph-name="pi" unicode="&#x3c0;" 
d="M82 1351v-1337h655v1337h-655zM751 0h-683v1365h683v-1365z" />
    <glyph glyph-name="endash" unicode="&#x2013;" horiz-adv-x="834" 
d="M57 327h593l-9 -45h-593z" />
    <glyph glyph-name="emdash" unicode="&#x2014;" horiz-adv-x="2280" 
d="M57 327h2038l-9 -45h-2038z" />
    <glyph glyph-name="quoteleft" unicode="&#x2018;" horiz-adv-x="475" 
d="M429 1359l14 -22q-133 -104 -140 -177q23 21 46 21q21 0 35 -14t14 -36q0 -31 -21 -54t-51 -23q-29 0 -46 21q-18 20 -18 51q0 52 47 117q45 62 120 116z" />
    <glyph glyph-name="quoteright" unicode="&#x2019;" horiz-adv-x="475" 
d="M251 1032l-13 22q132 104 139 177q-19 -21 -46 -21q-21 0 -35 14t-14 35q0 33 22 55q23 23 50 23q29 0 47 -19q17 -20 17 -53q0 -49 -45 -114q-46 -64 -122 -119z" />
    <glyph glyph-name="quotesinglbase" unicode="&#x201a;" 
d="M82 1351v-1337h655v1337h-655zM751 0h-683v1365h683v-1365z" />
    <glyph glyph-name="quotedblleft" unicode="&#x201c;" horiz-adv-x="647" 
d="M429 1359l14 -22q-133 -104 -140 -177q23 21 46 21q21 0 35 -14t14 -36q0 -31 -21 -54t-51 -23q-29 0 -46 21q-18 20 -18 51q0 52 47 117q45 62 120 116zM602 1359l13 -22q-133 -103 -139 -177q21 21 45 21q22 0 36 -14t14 -36q0 -31 -21 -54q-23 -23 -52 -23t-46 21
q-18 20 -18 51q0 52 47 117q44 61 121 116z" />
    <glyph glyph-name="quotedblright" unicode="&#x201d;" horiz-adv-x="647" 
d="M423 1032l-13 22q132 104 139 177q-19 -21 -46 -21q-49 0 -49 50q0 32 22 54q23 23 50 23q30 0 48 -19q17 -20 17 -53t-21 -74q-22 -42 -58 -81t-89 -78zM251 1032l-13 22q132 104 139 177q-19 -21 -46 -21q-21 0 -35 14t-14 35q0 33 22 55q23 23 50 23q29 0 47 -19
q17 -20 17 -53q0 -49 -45 -114q-46 -64 -122 -119z" />
    <glyph glyph-name="quotedblbase" unicode="&#x201e;" horiz-adv-x="647" 
d="M194 -147l-13 22q131 105 140 177q-22 -21 -47 -21q-49 0 -49 50q0 32 22 54q23 23 50 23q30 0 48 -19q17 -20 17 -53t-21 -74q-22 -42 -58 -81t-89 -78zM22 -147l-13 22q131 105 139 177q-21 -21 -46 -21q-21 0 -35 14t-14 35q0 33 22 55q23 23 50 23q29 0 47 -19
q17 -20 17 -53q0 -49 -45 -114q-46 -64 -122 -119z" />
    <glyph glyph-name="dagger" unicode="&#x2020;" 
d="M82 1351v-1337h655v1337h-655zM751 0h-683v1365h683v-1365z" />
    <glyph glyph-name="daggerdbl" unicode="&#x2021;" 
d="M82 1351v-1337h655v1337h-655zM751 0h-683v1365h683v-1365z" />
    <glyph glyph-name="bullet" unicode="&#x2022;" horiz-adv-x="508" 
d="M247 821q38 0 69 -18q32 -19 51 -51q18 -31 18 -69q0 -58 -40 -98q-41 -41 -98 -41q-56 0 -97 41t-41 98t41 98q40 40 97 40z" />
    <glyph glyph-name="ellipsis" unicode="&#x2026;" horiz-adv-x="2048" 
d="M1671 86q0 -40 -25 -68q-26 -29 -61 -29q-70 0 -70 70q0 28 12 50t32 36q19 13 42 13q31 0 51 -20q19 -19 19 -52zM988 86q0 -40 -25 -68q-26 -29 -60 -29q-32 0 -51 19q-20 20 -20 51q0 28 12 50t32 36q19 13 42 13q31 0 51 -20q19 -19 19 -52zM306 86q0 -40 -25 -68
q-26 -29 -61 -29q-70 0 -70 70q0 28 12 50t32 36q19 13 42 13q31 0 51 -20q19 -19 19 -52z" />
    <glyph glyph-name="perthousand" unicode="&#x2030;" horiz-adv-x="1292" 
d="M1084 326q0 53 -19 81t-55 28q-61 0 -103 -80q-25 -53 -40 -114q-18 -66 -18 -116q0 -120 79 -120q40 0 76 46q36 47 58 119t22 156zM678 326q0 53 -19 81t-55 28q-62 0 -103 -80q-59 -120 -59 -230q0 -120 79 -120q40 0 76 46q37 48 59 120t22 155zM355 697q0 51 -19 80
q-20 29 -55 29q-61 0 -102 -81q-59 -120 -59 -229q0 -121 79 -121q40 0 76 47q35 45 58 120q22 72 22 155zM1156 283q0 -77 -31 -146q-32 -71 -84 -113t-109 -42q-72 0 -113 48q-42 47 -42 129q0 119 70 210q69 90 160 90q68 0 109 -47q40 -47 40 -129zM749 283
q0 -77 -31 -146q-32 -71 -84 -113t-109 -42q-71 0 -113 48q-42 47 -42 129q0 77 32 147q31 67 86 111q54 42 113 42q67 0 108 -47q40 -46 40 -129zM398 766q29 -47 29 -116q0 -77 -31 -145q-31 -69 -84 -111q-52 -42 -109 -42q-71 0 -113 48t-42 129q0 119 70 210
q69 91 160 91q28 0 91 -26q57 -25 86 -33q32 -9 65 -9q59 0 109 32q49 31 75 86l28 -20l-628 -897l-23 17l561 798q-56 -41 -123 -41q-54 0 -121 29z" />
    <glyph glyph-name="guilsinglleft" unicode="&#x2039;" horiz-adv-x="394" 
d="M219 508h18l-123 -203l32 -204h-18q-28 117 -108 204q110 92 199 203z" />
    <glyph glyph-name="guilsinglright" unicode="&#x203a;" horiz-adv-x="394" 
d="M39 101h-19l124 203l-32 204h17q30 -118 108 -204q-47 -39 -100 -93q-52 -53 -98 -110z" />
    <glyph glyph-name="trademark" unicode="&#x2122;" 
d="M82 1351v-1337h655v1337h-655zM751 0h-683v1365h683v-1365z" />
    <glyph glyph-name="partialdiff" unicode="&#x2202;" 
d="M82 1351v-1337h655v1337h-655zM751 0h-683v1365h683v-1365z" />
    <glyph glyph-name="Delta" unicode="&#x2206;" 
d="M82 1351v-1337h655v1337h-655zM751 0h-683v1365h683v-1365z" />
    <glyph glyph-name="product" unicode="&#x220f;" 
d="M82 1351v-1337h655v1337h-655zM751 0h-683v1365h683v-1365z" />
    <glyph glyph-name="fraction" unicode="&#x2215;" 
d="M82 1351v-1337h655v1337h-655zM751 0h-683v1365h683v-1365z" />
    <glyph glyph-name="radical" unicode="&#x221a;" 
d="M82 1351v-1337h655v1337h-655zM751 0h-683v1365h683v-1365z" />
    <glyph glyph-name="infinity" unicode="&#x221e;" 
d="M82 1351v-1337h655v1337h-655zM751 0h-683v1365h683v-1365z" />
    <glyph glyph-name="integral" unicode="&#x222b;" 
d="M82 1351v-1337h655v1337h-655zM751 0h-683v1365h683v-1365z" />
    <glyph glyph-name="approxequal" unicode="&#x2248;" 
d="M82 1351v-1337h655v1337h-655zM751 0h-683v1365h683v-1365z" />
    <glyph glyph-name="notequal" unicode="&#x2260;" 
d="M82 1351v-1337h655v1337h-655zM751 0h-683v1365h683v-1365z" />
    <glyph glyph-name="lessequal" unicode="&#x2264;" 
d="M82 1351v-1337h655v1337h-655zM751 0h-683v1365h683v-1365z" />
    <glyph glyph-name="greaterequal" unicode="&#x2265;" 
d="M82 1351v-1337h655v1337h-655zM751 0h-683v1365h683v-1365z" />
    <glyph glyph-name="lozenge" unicode="&#x25ca;" 
d="M82 1351v-1337h655v1337h-655zM751 0h-683v1365h683v-1365z" />
    <glyph glyph-name="apple" unicode="&#xf000;" 
d="M82 1351v-1337h655v1337h-655zM751 0h-683v1365h683v-1365z" />
    <glyph glyph-name="fi" unicode="&#xf001;" 
d="M82 1351v-1337h655v1337h-655zM751 0h-683v1365h683v-1365z" />
    <glyph glyph-name="fl" unicode="&#xf002;" 
d="M82 1351v-1337h655v1337h-655zM751 0h-683v1365h683v-1365z" />
    <glyph glyph-name="HT" horiz-adv-x="355" 
 />
    </font>
</defs>
</svg>
