<?xml version="1.0" encoding="utf-8"?>
<!-- Generator: Adobe Illustrator 22.1.0, SVG Export Plug-In . SVG Version: 6.00 Build 0)  -->
<svg version="1.1" id="Layer_1" xmlns="http://www.w3.org/2000/svg" xmlns:xlink="http://www.w3.org/1999/xlink" x="0px" y="0px"
	 width="128px" height="256px" viewBox="0 0 128 256" enable-background="new 0 0 128 256" xml:space="preserve">
<g>
		<path fill="white" d="M58.3,11.9C43.5,26.4,40.9,42.5,44.4,59.7c2,9.9,4.3,19.7,5,29.7c0.9,15.8-4.7,30-21.9,41c22,14.3,24,32.7,20.5,52.3
			c-1.8,9.9-4.5,19.7-5.1,29.7c-0.8,12.7,4.2,24.5,14.2,35c-11.9-7.5-17.5-17.6-21.5-28.4c-4.9-13.2-0.7-26.1,2.4-39.1
			c1.6-6.8,3.4-13.8,3.2-20.7c0-10.9-4.5-20.9-17-28.6c13.1-8.5,18.2-19.2,17.1-31.2c-0.8-8.1-3-16.2-5.1-24.2
			c-5.5-20-3.9-38.9,13.1-55.9C52,16.6,55.2,14.3,58.3,11.9z"/>
</g>
</svg>
