<?xml version="1.0" encoding="utf-8"?>
<!-- Generator: Adobe Illustrator 22.1.0, SVG Export Plug-In . SVG Version: 6.00 Build 0)  -->
<svg version="1.1" id="Layer_1" xmlns="http://www.w3.org/2000/svg" xmlns:xlink="http://www.w3.org/1999/xlink" x="0px" y="0px"
	 width="128px" height="256px" viewBox="0 0 128 256" enable-background="new 0 0 128 256" xml:space="preserve">
<g>
	<g>
		<path stroke="white" fill="none" d="M80.9,235.2c-18.1,0-36.2,0-54.2,0c0-71.3,0-142.5,0-213.8c18.1,0,36.2,0,54.2,0
			C80.9,92.7,80.9,163.9,80.9,235.2z M28.8,212c2.7,0,5.2-0.1,7.7,0c2.7,0.1,5.3,0.3,7.9,0.9c9.3,2.2,17.4,7.8,24.5,15.9
			c1.2,1.5,2.3,3.1,3.6,4.4c0.5,0.5,1.5,0.6,2,0.3c0.3-0.2,0.6-1.6,0.4-2.3c-1.8-10.3-6-18.5-12.6-24.5c-6-5.5-12.7-8.4-19.7-10.2
			c-1.6-0.4-1.5-1.4-1.5-2.8c0-43.5,0-87,0-130.5c0-0.6,0-1.2,0-1.9c2.2-0.6,4.2-1.3,6.3-2c8.6-3.2,16.4-8,22-17.4
			c2.7-4.6,4.5-9.8,5.6-15.3c0.2-0.9-0.2-2.1-0.4-3.2c-0.8,0.4-1.6,0.7-2.4,1.2c-0.1,0-0.2,0.2-0.2,0.3c-2,2.3-4,4.9-6.1,7
			C57,40.4,47.2,45.5,36.1,45.5c-2.4,0-4.8,0-7.3,0C28.8,101.1,28.8,156.3,28.8,212z"/>
		<path fill="white" d="M28.8,212c0-55.5,0-110.9,0-166.4c2.5,0,4.8,0,7.3,0c11.1,0,20.9-5,29.7-13.5c2.2-2.1,4.1-4.7,6.1-7
			c0.1-0.1,0.2-0.2,0.2-0.3c0.8-0.4,1.6-0.7,2.4-1.2c0.2,1,0.6,2.2,0.4,3.1c-1,5.6-2.8,10.7-5.6,15.3c-5.7,9.5-13.4,14.3-22,17.4
			c-2,0.7-4.1,1.4-6.3,2c0,0.6,0,1.3,0,1.9c0,43.5,0,87,0,130.5c0,1.5-0.1,2.4,1.5,2.8c7,1.8,13.8,4.8,19.7,10.2
			c6.6,6,10.8,14.2,12.6,24.5c0.2,0.7-0.1,2.2-0.4,2.3c-0.6,0.3-1.5,0.1-2-0.3c-1.3-1.4-2.3-3-3.6-4.4c-7-8.1-15.2-13.6-24.5-15.9
			c-2.6-0.6-5.3-0.7-7.9-0.9C34,211.9,31.5,212,28.8,212z"/>
	</g>
</g>
</svg>
