<?xml version="1.0" encoding="utf-8"?>
<!-- Generator: Adobe Illustrator 22.1.0, SVG Export Plug-In . SVG Version: 6.00 Build 0)  -->
<svg version="1.1" id="Ebene_1" xmlns="http://www.w3.org/2000/svg" xmlns:xlink="http://www.w3.org/1999/xlink" x="0px" y="0px"
	 width="256px" height="256px" viewBox="0 0 256 256" enable-background="new 0 0 256 256" xml:space="preserve">
<line stroke="white" stroke-width="4" x1="32.8" y1="187.3" x2="223.2" y2="187.3"/>
<line stroke="white" stroke-width="4" x1="32.8" y1="161.6" x2="223.2" y2="161.6"/>
<line stroke="white" stroke-width="4" x1="32.8" y1="136" x2="223.2" y2="136"/>
<line stroke="white" stroke-width="4" x1="32.8" y1="110.5" x2="223.2" y2="110.5"/>
<line stroke="white" stroke-width="4" x1="32.8" y1="84.8" x2="223.2" y2="84.8"/>
<text fill="white" transform="matrix(1 0 0 1 78.5891 164.6692)" font-family="'ArialMT'" font-size="42.3295px"> </text>
<line stroke="white" stroke-width="4" x1="57.8" y1="85.2" x2="57.8" y2="187.4"/>
<line stroke="white" stroke-width="4" x1="198.4" y1="85.2" x2="198.4" y2="187.4"/>
<line stroke="white" stroke-width="3" x1="58" y1="62.8" x2="58" y2="75"/>
<line stroke="white" stroke-width="3" x1="198.2" y1="62.8" x2="198.2" y2="75.1"/>
<g>
	<line stroke="white" stroke-width="3" x1="59.3" y1="68.9" x2="196.7" y2="68.9"/>
	<g>
		<polygon fill="white" points="64.1,74.8 65.1,73.8 59.9,68.9 65.1,63.9 64.1,62.9 57.8,68.9 		"/>
	</g>
	<g>
		<polygon fill="white" points="191.9,74.8 190.9,73.8 196.1,68.9 190.9,63.9 191.9,62.9 198.2,68.9 		"/>
	</g>
</g>
</svg>
