<?xml version="1.0" encoding="utf-8"?>
<!-- Generator: Adobe Illustrator 22.1.0, SVG Export Plug-In . SVG Version: 6.00 Build 0)  -->
<svg version="1.1" id="Layer_1" xmlns="http://www.w3.org/2000/svg" xmlns:xlink="http://www.w3.org/1999/xlink" x="0px" y="0px"
	 width="256px" height="256px" viewBox="0 0 256 256" enable-background="new 0 0 256 256" xml:space="preserve">
<line stroke="#ffffff" stroke-opacity="0.3" stroke-width="3" x1="128.6" y1="74.1" x2="128" y2="194"/>
<line stroke="white" stroke-width="7" x1="13.6" y1="196.3" x2="242.4" y2="196.3"/>
<line stroke="white" stroke-width="7" x1="13.6" y1="165.5" x2="242.4" y2="165.5"/>
<line stroke="white" stroke-width="7" x1="13.6" y1="134.7" x2="242.4" y2="134.7"/>
<line stroke="white" stroke-width="7" x1="13.6" y1="103.9" x2="242.4" y2="103.9"/>
<line stroke="white" stroke-width="7" x1="13.6" y1="73.1" x2="242.4" y2="73.1"/>
<line stroke="white" stroke-width="5" x1="70" y1="43.5" x2="100" y2="43.5"/>
<text fill="white" transform="matrix(1 0 0 1 68.6445 169.126)" font-family="'ArialMT'" font-size="50.8513px"> </text>
<line stroke="white" stroke-width="7" x1="43.6" y1="73.7" x2="43.6" y2="196.5"/>
<line stroke="white" stroke-width="7" x1="212.6" y1="73.7" x2="212.6" y2="196.5"/>
<line stroke="white" stroke-width="7" x1="43.6" y1="23.4" x2="43.6" y2="63.4"/>
<line stroke="white" stroke-width="7" x1="128.6" y1="23.4" x2="128.6" y2="63.4"/>
<text fill="white" transform="matrix(1 0 0 1 44.64 55.4682)" font-family="'Bravura'" font-size="104px"></text>
<text fill="white" transform="matrix(1 0 0 1 95.3477 55.9053)" font-family="'Bravura'" font-size="104px"></text>
</svg>
