<?xml version="1.0" encoding="utf-8"?>
<!-- Generator: Adobe Illustrator 22.1.0, SVG Export Plug-In . SVG Version: 6.00 Build 0)  -->
<svg version="1.1" id="Layer_1" xmlns:xl="http://www.w3.org/1999/xlink"
	 xmlns="http://www.w3.org/2000/svg" xmlns:xlink="http://www.w3.org/1999/xlink" x="0px" y="0px" width="147px" height="146px"
	 viewBox="0 0 147 146" style="enable-background:new 0 0 147 146;" xml:space="preserve">
<style type="text/css">
	.st0{fill:#c4c4c4;}
	.st1{fill:black;}
</style>
<g>
	<title>Canvas 1</title>
	<g>
		<title>Layer 1</title>
		<path class="st0" d="M73.4,1h52c11,0,20,9,20,20v104c0,11-9,20-20,20h-104c-11,0-20-9-20-20V21c0-11,9-20,20-20H73.4z"/>
	</g>
</g>
<path class="st1" d="M141.9,73.1c-19,10.9-36.7,21.2-55.6,32.1c0-8.8,0-16.4,0-24.6c-2.3,0,61.2,0,59.6,0c-37.3,0-50.2,0-87.5-0.1
	c-3.8,0-5.9,0.8-7.7,4.4C45.1,95.1,34.1,99.6,23,96.7C12.6,94.1,5,84.2,4.7,73.4c-0.1-10.6,7-20.5,17-23.8
	c10.7-3.4,22.1,0.8,28.2,10.5c1.6,2.6,3,4.3,6.5,4.3c38.5-0.1-12.3-0.1,26.3-0.1c0.9,0,1.6-0.1,3-0.2c0-7.2,0-14.4,0-23.2
	C104.9,51.8,122.7,62.1,141.9,73.1z"/>
</svg>
