<?xml version="1.0" encoding="utf-8"?>
<!DOCTYPE svg PUBLIC "-//W3C//DTD SVG 1.1//EN" "http://www.w3.org/Graphics/SVG/1.1/DTD/svg11.dtd">
<svg width="800px" height="200px" viewBox="0 0 800 200" style="background:rgb(253.98,253.98,239.7)" xmlns="http://www.w3.org/2000/svg" xmlns:xlink="http://www.w3.org/1999/xlink" version="1.1">
<g id="1" transform="matrix(1,0,0,1,0,0)">
<path d="M-0.8999999985098839,45 L11.899999618530273,45" stroke="rgb(0,0,0)" stroke-width="0.6" fill="rgb(0,0,0)" transform="matrix(1,0,0,1,0,0)"/>
<text x="0" y="0" font-family="Bravura" font-style="normal" font-weight="normal" font-size="24" fill="rgb(0,0,0)" fill-opacity="1" transform="matrix(1,0,0,1,0.5,45)" ></text>
<path d="M0,1.1 l0,-0.2 c19.9,9.6,79.9,9.6,100,0 v0.2 C79.9,11.8,19.9,11.8,0,1.1" stroke="rgb(0,0,0)" stroke-width="0.4" fill="rgb(0,0,0)" transform="matrix(7.88,0,0,-1,12,43)"/>
<path d="M0 75 L800 75 M0 69 L800 69 M0 63 L800 63 M0 57 L800 57 M0 51 L800 51 " stroke="rgb(0,0,0)" stroke-width="0.4" fill="rgb(0,0,0)" transform="matrix(1,0,0,1,0,0)"/>
</g>
</svg>
