<?xml version="1.0" encoding="utf-8"?>
<!DOCTYPE svg PUBLIC "-//W3C//DTD SVG 1.1//EN" "http://www.w3.org/Graphics/SVG/1.1/DTD/svg11.dtd">
<svg width="500px" height="200px" viewBox="0 0 500 200" style="background:rgb(253.98,253.98,239.7)" xmlns="http://www.w3.org/2000/svg" xmlns:xlink="http://www.w3.org/1999/xlink" version="1.1">
<g id="1" transform="matrix(1,0,0,1,0,0)">
<text x="0" y="0" font-family="Bravura" font-style="normal" font-weight="normal" font-size="24" fill="rgb(0,0,0)" fill-opacity="1" transform="matrix(1,0,0,1,22,109.95999908447266)" ></text>
<text x="0" y="0" font-family="Bravura" font-style="normal" font-weight="normal" font-size="24" fill="rgb(0,0,0)" fill-opacity="1" transform="matrix(1,0,0,1,22,85.95999908447266)" ></text>
<text x="0" y="0" font-family="Bravura" font-style="normal" font-weight="normal" font-size="22" fill="rgb(0,0,0)" fill-opacity="1" transform="matrix(1,0,0,1,63.620689392089844,95)" ></text>
<text x="0" y="0" font-family="Bravura" font-style="normal" font-weight="normal" font-size="24" fill="rgb(0,0,0)" fill-opacity="1" transform="matrix(1,0,0,1,54.55555725097656,95)" ></text>
<text x="0" y="0" font-family="Bravura" font-style="normal" font-weight="normal" font-size="24" fill="rgb(0,0,0)" fill-opacity="1" transform="matrix(1,0,0,1,63.620689392089844,115)" ></text>
<text x="0" y="0" font-family="Bravura" font-style="normal" font-weight="normal" font-size="22" fill="rgb(0,0,0)" fill-opacity="1" transform="matrix(1,0,0,1,81.62068939208984,95)" ></text>
<rect x="63.620689392089844" y="95" width="0.75" height="20" fill="rgb(0,0,0)" stroke="rgb(0,0,0)" stroke-width="0.4" fill-opacity="1.0" stroke-opacity="1.0" transform="matrix(1,0,0,1,0,0)"/>
<text x="0" y="0" font-family="Bravura" font-style="normal" font-weight="normal" font-size="24" fill="rgb(0,0,0)" fill-opacity="1" transform="matrix(1,0,0,1,81.62068939208984,115)" ></text>
<text x="0" y="0" font-family="Bravura" font-style="normal" font-weight="normal" font-size="22" fill="rgb(0,0,255)" fill-opacity="1" transform="matrix(1,0,0,1,99.62068939208984,95)" ></text>
<text x="0" y="0" font-family="Bravura" font-style="normal" font-weight="normal" font-size="24" fill="rgb(0,0,255)" fill-opacity="1" transform="matrix(1,0,0,1,91.55555725097656,95)" ></text>
<rect x="81.62068939208984" y="95" width="0.75" height="20" fill="rgb(0,0,0)" stroke="rgb(0,0,0)" stroke-width="0.4" fill-opacity="1.0" stroke-opacity="1.0" transform="matrix(1,0,0,1,0,0)"/>
<text x="0" y="0" font-family="Bravura" font-style="normal" font-weight="normal" font-size="24" fill="rgb(0,0,255)" fill-opacity="1" transform="matrix(1,0,0,1,99.62068939208984,115)" ></text>
<rect x="99.62068939208984" y="95" width="0.75" height="20" fill="rgb(0,0,255)" stroke="rgb(0,0,255)" stroke-width="0.4" fill-opacity="1.0" stroke-opacity="1.0" transform="matrix(1,0,0,1,0,0)"/>
<path d="M20 128 L480.9744567871094 128 M20 122 L480.9744567871094 122 M20 116 L480.9744567871094 116 M20 110 L480.9744567871094 110 M20 104 L480.9744567871094 104 M20 92 L480.9744567871094 92 M20 86 L480.9744567871094 86 M20 80 L480.9744567871094 80 M20 74 L480.9744567871094 74 M20 68 L480.9744567871094 68 " stroke="rgb(0,0,0)" stroke-width="0.4" fill="rgb(0,0,0)" transform="matrix(1,0,0,1,0,0)"/>
</g>
</svg>
