<?xml version="1.0" encoding="UTF-8"?><svg id="a" xmlns="http://www.w3.org/2000/svg" viewBox="0 0 120 44"><path d="M32.25,13.79c0,6.69-5.49,13.73-12.25,13.73-1.2,0-2.11-.14-3.1-.63-1.13-.56-1.34-1.27-1.69-1.27s-.49.49-.63.85l-3.17,7.88c-.07.21-.14.42-.14.49,0,.21.21.21.63.21h2.82c.56,0,.85.28.85.85,0,.63-.28.91-.92.91H1.06c-.56,0-.84-.28-.84-.84,0-.63.28-.92.92-.92h2.18c.7,0,.84-.14,1.06-.7L13.03,12.87c.21-.49.42-1.2.42-1.76,0-.49-.21-.84-.77-.84-1.27,0-2.67,1.83-4.72,5.35-.35.63-.63,1.06-1.13,1.06-.42,0-.77-.28-.77-.77,0-.35.14-.7.49-1.34,2.18-4.01,4.44-6.97,8.59-6.97,1.83,0,2.89.63,3.38,1.48.63,1.2.42,1.69.77,1.69.28,0,.49-.56,1.48-1.41,1.27-1.13,2.82-1.83,5-1.83,3.94,0,6.48,2.18,6.48,6.27ZM19.37,14.56l-1.41,3.45c-.77,1.97-1.34,3.38-1.34,4.86s.56,2.25,1.76,2.25c3.38,0,7.11-8.94,7.11-12.39,0-1.55-.42-2.61-1.62-2.61-1.69,0-3.52,2.04-4.51,4.44Z" style="fill:#337a98; stroke-width:0px;"/><path d="M88.65,11.28l-42.31,6.05,42.31,6.76v2.75l-51.53-8.17.14-2.82,51.39-7.53v2.96Z" style="fill:#337a98; stroke-width:0px;"/><path d="M98.64,13.86c.99,0,1.06,0,1.41-1.06,2.32-6.76,6.13-11.62,12.95-11.62,4.44,0,6.05,2.11,6.05,4.72s-1.62,3.8-3.45,3.8-3.17-.99-3.17-2.96c0-1.27.56-2.25,1.48-2.67.77-.35,1.13-.28,1.13-.7s-.56-.56-1.13-.56c-3.52,0-5.07,3.73-6.48,9.86-.07.42-.14.63-.14.85,0,.35.21.35.7.35h4.22c.7,0,1.06.35,1.06,1.06,0,.77-.35,1.13-1.13,1.13h-4.58c-.28,0-.99.63-.99.99-1.69,5.91-3.24,10.28-5.28,14.57-3.87,7.96-7.18,11.55-12.53,11.55-2.96,0-5.28-1.62-5.28-4.72,0-2.18,1.55-3.87,3.66-3.87,1.9,0,3.17,1.06,3.17,2.89,0,1.13-.56,2.04-1.41,2.6-1.06.7-1.69.35-1.69.91,0,.35.35.63,1.27.63,2.82,0,4.08-2.25,6.05-9.15l4.44-15.42c.07-.35.14-.56.14-.7,0-.28-.14-.28-.56-.28h-4.08c-.7,0-1.06-.35-1.06-1.06,0-.77.35-1.13,1.13-1.13h4.08Z" style="fill:#337a98; stroke-width:0px;"/></svg>