<?xml version="1.0" encoding="UTF-8"?><svg id="a" xmlns="http://www.w3.org/2000/svg" viewBox="0 0 52 90"><path d="M19.38,79.18c.97-4.31,5.37-7.31,9.81-6.31,4.44,1,7.13,5.6,6.16,9.91-.97,4.31-5.34,7.19-9.78,6.19-4.43-1-7.16-5.47-6.19-9.78ZM50.7,9.82c-1.06,4.69-5.16,16.41-10.8,33.78l-5.61,17.24-4.56-1.03,2.32-17.98c2.34-18.11,3.66-30.46,4.71-35.15,1.23-5.45,4.4-7.13,8.71-6.16,4.31.97,6.46,3.85,5.23,9.3Z" style="fill:#d3e2e9; stroke-width:0px;"/><path d="M32.05,41.69l-3.87,2.34c-5.05,3-5.43,4.28-4.49,8.46l1.63,7.22-4.69,1.05-2.84-4.95c-2.66-4.73-3.55-6.92-3.9-8.44-.83-3.67,1.19-6.52,8.26-10.64l6.46-3.85c4.35-2.58,6.2-6.19,5.23-10.49-1.4-6.21-7.95-11.66-14.2-15.18l15.84,5.89-24.38,1.09c-7.79.29-9.82-1.65-10.51-4.69C-.27,5.7,1.58,3.29,5.89,1.12,16.63-.23,37.3,6.43,41,22.9c1.77,7.86-1.09,14.09-8.95,18.79ZM19.55,82.58c-.97-4.31,1.72-8.91,6.16-9.91,4.44-1,8.84,2.01,9.81,6.31.97,4.31-1.75,8.78-6.19,9.78-4.44,1-8.81-1.88-9.78-6.19Z" style="fill:#d3e2e9; stroke-width:0px;"/></svg>