<?xml version="1.0" encoding="UTF-8"?><svg id="a" xmlns="http://www.w3.org/2000/svg" viewBox="0 0 72 80"><path d="M36.31,3.62H1.11V1.36h35.2v2.25ZM36.31,21.22H1.11v-2.25h35.2v2.25ZM36.31,38.82H1.11v-2.25h35.2v2.25ZM36.31,56.42H1.11v-2.25h35.2v2.25ZM36.31,74.02H1.11v-2.25h35.2v2.25Z" style="fill:#00597e; stroke-width:0px;"/><path d="M71.51,3.62h-35.2V1.36h35.2v2.25ZM71.51,21.22h-35.2v-2.25h35.2v2.25ZM71.51,38.82h-35.2v-2.25h35.2v2.25ZM71.51,56.42h-35.2v-2.25h35.2v2.25ZM71.51,74.02h-35.2v-2.25h35.2v2.25Z" style="fill:#00597e; stroke-width:0px;"/><path d="M36.65,58.02c0-6.05,6.2-11.76,13.94-11.76,4.01,0,6.83,2.25,6.83,5.84,0,5.98-7.67,11.76-13.94,11.76-3.8,0-6.83-2.18-6.83-5.84Z" style="fill:#00597e; stroke-width:0px;"/><path d="M28.72,47.46c-.56.21-.91,1.55-.91,2.04v6.55c0,.85.49,1.27.91,1.27l1.83-.7c.14-.07.21-.07.35-.07.28,0,.49.21.49.56v5c0,.42-.35.99-.84,1.2,0,0-1.48.56-1.97.77s-.77,1.06-.77,1.62v10c0,.42-.42.77-1.2.77-.49,0-.91-.35-.91-.77v-8.8c0-.42-.35-1.27-.92-1.27-.07,0-.21.07-.28.07l-4.29,1.76c-.35.14-.7.63-.7,1.55v9.79c0,.42-.49.77-1.2.77-.49,0-.91-.35-.91-.77v-8.66c0-.35-.35-1.13-.84-1.13-.07,0-.14,0-.21.07-.63.21-1.62.63-1.62.63-.07,0-.21.07-.28.07-.35,0-.56-.21-.56-.63v-5c0-.42.35-.99.84-1.13,0,0,1.48-.63,1.9-.77.42-.21.77-.84.77-1.62v-6.97c0-.56-.42-1.27-.92-1.27-.07,0-.14.07-.21.07-.21.14-1.55.77-1.83.77-.35,0-.56-.21-.56-.63v-5c0-.42.35-.99.84-1.13,0,0,1.41-.56,1.83-.77.42-.21.84-.91.84-1.9v-9.5c0-.42.42-.77,1.13-.77.49,0,.99.35.99.77v8.45c0,.56.21,1.41.85,1.41,1.2-.28,3.59-1.27,4.44-1.76.63-.42.84-1.34.92-2.04v-9.15c0-.42.42-.77,1.13-.77.56,0,.99.35.99.77v8.59c0,.56.49.91.99.91.35-.07,1.76-.63,1.76-.63.14-.07.21-.07.35-.07.28,0,.49.21.49.56v5c0,.42-.35.99-.84,1.2l-1.83.7ZM25.97,53.72c0-1.9-.14-3.66-.28-4.01-.14-.28-.56-.42-1.06-.42-1.76,0-5,1.48-5.14,2.67-.14.56-.21,3.03-.21,5.21,0,1.69.07,3.24.21,3.52.07.21.42.35.85.35,1.62,0,4.93-1.41,5.35-2.82.14-.63.28-2.61.28-4.51Z" style="fill:#00597e; stroke-width:0px;"/></svg>