<?xml version="1.0" encoding="utf-8"?>
<!DOCTYPE svg PUBLIC "-//W3C//DTD SVG 1.1//EN" "http://www.w3.org/Graphics/SVG/1.1/DTD/svg11.dtd">
<svg width="800px" height="800px" viewBox="0 0 800 800" style="background:rgb(253.98,253.98,239.7)" xmlns="http://www.w3.org/2000/svg" xmlns:xlink="http://www.w3.org/1999/xlink" version="1.1">
<g id="1" transform="matrix(1,0,0,1,0,0)">
<text x="20" y="39" font-family="Arial" font-style="normal" font-weight="normal" font-size="10" fill="rgb(0,0,0)" fill-opacity="1" transform="matrix(1,0,0,1,0,0)" >1</text>
<text x="20" y="21" font-family="Bravura" font-style="normal" font-weight="normal" font-size="12" fill="rgb(0,0,0)" fill-opacity="1" transform="matrix(1,0,0,1,0,0)" ></text>
<text x="25" y="21" font-family="Bravura" font-style="normal" font-weight="normal" font-size="8" fill="rgb(0,0,0)" fill-opacity="1" transform="matrix(1,0,0,1,0,0)" ></text>
<text x="30" y="24" font-family="Arial" font-style="normal" font-weight="normal" font-size="10" fill="rgb(0,0,0)" fill-opacity="1" transform="matrix(1,0,0,1,0,0)" >60.0</text>
<text x="0" y="0" font-family="Bravura" font-style="normal" font-weight="normal" font-size="24" fill="rgb(0,0,0)" fill-opacity="1" transform="matrix(1,0,0,1,22,69.95999908447266)" ></text>
<text x="0" y="0" font-family="Arial" font-style="normal" font-weight="normal" font-size="10" fill="rgb(0,0,0)" fill-opacity="1" transform="matrix(1,0,0,1,-78.6953125,65)" >MaxScoreIns-0</text>
<text x="0" y="0" font-family="Bravura" font-style="normal" font-weight="normal" font-size="24" fill="rgb(0,0,0)" fill-opacity="1" transform="matrix(1,0,0,1,43,57)" ></text>
<text x="0" y="0" font-family="Bravura" font-style="normal" font-weight="normal" font-size="24" fill="rgb(0,0,0)" fill-opacity="1" transform="matrix(1,0,0,1,43,69)" ></text>
<text x="0" y="0" font-family="Bravura" font-style="normal" font-weight="normal" font-size="22" fill="rgb(0,0,0)" fill-opacity="1" transform="matrix(1,0,0,1,83.62068939208984,60)" ></text>
<text x="0" y="0" font-family="Bravura" font-style="normal" font-weight="normal" font-size="22" fill="rgb(0,0,0)" fill-opacity="1" transform="matrix(1,0,0,1,137.62069702148438,57)" ></text>
<rect x="83.62068939208984" y="60" width="0.75" height="20" fill="rgb(0,0,0)" stroke="rgb(0,0,0)" stroke-width="0.4" fill-opacity="1.0" stroke-opacity="1.0" transform="matrix(1,0,0,1,0,0)"/>
<text x="0" y="0" font-family="Bravura" font-style="normal" font-weight="normal" font-size="22" fill="rgb(0,0,0)" fill-opacity="1" transform="matrix(1,0,0,1,191.62069702148438,66)" ></text>
<rect x="137.62069702148438" y="57" width="0.75" height="20" fill="rgb(0,0,0)" stroke="rgb(0,0,0)" stroke-width="0.4" fill-opacity="1.0" stroke-opacity="1.0" transform="matrix(1,0,0,1,0,0)"/>
<text x="0" y="0" font-family="Bravura" font-style="normal" font-weight="normal" font-size="22" fill="rgb(0,0,0)" fill-opacity="1" transform="matrix(1,0,0,1,245.62069702148438,63)" ></text>
<rect x="198.22069702148437" y="45" width="0.75" height="20" fill="rgb(0,0,0)" stroke="rgb(0,0,0)" stroke-width="0.4" fill-opacity="1.0" stroke-opacity="1.0" transform="matrix(1,0,0,1,0,0)"/>
<text x="0" y="0" font-family="Bravura" font-style="normal" font-weight="normal" font-size="24" fill="rgb(0,0,0)" fill-opacity="1" transform="matrix(1,0,0,1,22,165.9600067138672)" ></text>
<text x="0" y="0" font-family="Arial" font-style="normal" font-weight="normal" font-size="10" fill="rgb(0,0,0)" fill-opacity="1" transform="matrix(1,0,0,1,-78.6953125,161)" >MaxScoreIns-0</text>
<text x="0" y="0" font-family="Bravura" font-style="normal" font-weight="normal" font-size="24" fill="rgb(0,0,0)" fill-opacity="1" transform="matrix(1,0,0,1,43,153)" ></text>
<text x="0" y="0" font-family="Bravura" font-style="normal" font-weight="normal" font-size="24" fill="rgb(0,0,0)" fill-opacity="1" transform="matrix(1,0,0,1,43,165)" ></text>
<text x="0" y="0" font-family="Bravura" font-style="normal" font-weight="normal" font-size="24" fill="rgb(0,0,0)" fill-opacity="1" transform="matrix(1,0,0,1,22,261.9599914550781)" ></text>
<text x="0" y="0" font-family="Arial" font-style="normal" font-weight="normal" font-size="10" fill="rgb(0,0,0)" fill-opacity="1" transform="matrix(1,0,0,1,-78.6953125,257)" >MaxScoreIns-0</text>
<text x="0" y="0" font-family="Bravura" font-style="normal" font-weight="normal" font-size="24" fill="rgb(0,0,0)" fill-opacity="1" transform="matrix(1,0,0,1,43,249)" ></text>
<text x="0" y="0" font-family="Bravura" font-style="normal" font-weight="normal" font-size="24" fill="rgb(0,0,0)" fill-opacity="1" transform="matrix(1,0,0,1,43,261)" ></text>
<path d="M322.6000061035156,81 L335.3999938964844,81" stroke="rgb(0,0,0)" stroke-width="0.6" fill="rgb(0,0,0)" transform="matrix(1,0,0,1,0,0)"/>
<text x="0" y="0" font-family="Bravura" font-style="normal" font-weight="normal" font-size="22" fill="rgb(0,0,0)" fill-opacity="1" transform="matrix(1,0,0,1,325,81)" ></text>
<rect x="245.62069702148438" y="63" width="0.75" height="20" fill="rgb(0,0,0)" stroke="rgb(0,0,0)" stroke-width="0.4" fill-opacity="1.0" stroke-opacity="1.0" transform="matrix(1,0,0,1,0,0)"/>
<text x="0" y="0" font-family="Bravura" font-style="normal" font-weight="normal" font-size="22" fill="rgb(0,0,0)" fill-opacity="1" transform="matrix(1,0,0,1,378,57)" ></text>
<rect x="331.6" y="60" width="0.75" height="20" fill="rgb(0,0,0)" stroke="rgb(0,0,0)" stroke-width="0.4" fill-opacity="1.0" stroke-opacity="1.0" transform="matrix(1,0,0,1,0,0)"/>
<text x="0" y="0" font-family="Bravura" font-style="normal" font-weight="normal" font-size="22" fill="rgb(0,0,0)" fill-opacity="1" transform="matrix(1,0,0,1,431,63)" ></text>
<rect x="378" y="57" width="0.75" height="20" fill="rgb(0,0,0)" stroke="rgb(0,0,0)" stroke-width="0.4" fill-opacity="1.0" stroke-opacity="1.0" transform="matrix(1,0,0,1,0,0)"/>
<text x="0" y="0" font-family="Bravura" font-style="normal" font-weight="normal" font-size="22" fill="rgb(0,0,0)" fill-opacity="1" transform="matrix(1,0,0,1,484,63)" ></text>
<rect x="431" y="63" width="0.75" height="20" fill="rgb(0,0,0)" stroke="rgb(0,0,0)" stroke-width="0.4" fill-opacity="1.0" stroke-opacity="1.0" transform="matrix(1,0,0,1,0,0)"/>
<text x="0" y="0" font-family="Bravura" font-style="normal" font-weight="normal" font-size="22" fill="rgb(0,0,0)" fill-opacity="1" transform="matrix(1,0,0,1,565,60)" ></text>
<rect x="484" y="63" width="0.75" height="20" fill="rgb(0,0,0)" stroke="rgb(0,0,0)" stroke-width="0.4" fill-opacity="1.0" stroke-opacity="1.0" transform="matrix(1,0,0,1,0,0)"/>
<text x="0" y="0" font-family="Bravura" font-style="normal" font-weight="normal" font-size="22" fill="rgb(0,0,0)" fill-opacity="1" transform="matrix(1,0,0,1,618,63)" ></text>
<rect x="565" y="60" width="0.75" height="20" fill="rgb(0,0,0)" stroke="rgb(0,0,0)" stroke-width="0.4" fill-opacity="1.0" stroke-opacity="1.0" transform="matrix(1,0,0,1,0,0)"/>
<text x="0" y="0" font-family="Bravura" font-style="normal" font-weight="normal" font-size="22" fill="rgb(0,0,0)" fill-opacity="1" transform="matrix(1,0,0,1,671,63)" ></text>
<rect x="618" y="63" width="0.75" height="20" fill="rgb(0,0,0)" stroke="rgb(0,0,0)" stroke-width="0.4" fill-opacity="1.0" stroke-opacity="1.0" transform="matrix(1,0,0,1,0,0)"/>
<text x="0" y="0" font-family="Bravura" font-style="normal" font-weight="normal" font-size="22" fill="rgb(0,0,0)" fill-opacity="1" transform="matrix(1,0,0,1,724,66)" ></text>
<rect x="671" y="63" width="0.75" height="20" fill="rgb(0,0,0)" stroke="rgb(0,0,0)" stroke-width="0.4" fill-opacity="1.0" stroke-opacity="1.0" transform="matrix(1,0,0,1,0,0)"/>
<text x="20" y="327" font-family="Arial" font-style="normal" font-weight="normal" font-size="10" fill="rgb(0,0,0)" fill-opacity="1" transform="matrix(1,0,0,1,0,0)" >4</text>
<text x="0" y="0" font-family="Bravura" font-style="normal" font-weight="normal" font-size="24" fill="rgb(0,0,0)" fill-opacity="1" transform="matrix(1,0,0,1,22,357.9599914550781)" ></text>
<text x="0" y="0" font-family="Arial" font-style="normal" font-weight="normal" font-size="10" fill="rgb(0,0,0)" fill-opacity="1" transform="matrix(1,0,0,1,-78.6953125,353)" >MaxScoreIns-0</text>
<text x="0" y="0" font-family="Bravura" font-style="normal" font-weight="normal" font-size="24" fill="rgb(0,0,0)" fill-opacity="1" transform="matrix(1,0,0,1,22,453.9599914550781)" ></text>
<text x="0" y="0" font-family="Arial" font-style="normal" font-weight="normal" font-size="10" fill="rgb(0,0,0)" fill-opacity="1" transform="matrix(1,0,0,1,-78.6953125,449)" >MaxScoreIns-0</text>
<text x="0" y="0" font-family="Bravura" font-style="normal" font-weight="normal" font-size="24" fill="rgb(0,0,0)" fill-opacity="1" transform="matrix(1,0,0,1,22,549.9600219726562)" ></text>
<text x="0" y="0" font-family="Arial" font-style="normal" font-weight="normal" font-size="10" fill="rgb(0,0,0)" fill-opacity="1" transform="matrix(1,0,0,1,-78.6953125,545)" >MaxScoreIns-0</text>
<rect x="730.6" y="45" width="0.75" height="20" fill="rgb(0,0,0)" stroke="rgb(0,0,0)" stroke-width="0.4" fill-opacity="1.0" stroke-opacity="1.0" transform="matrix(1,0,0,1,0,0)"/>
<path d="M20 75 L300.998 75 M20 69 L300.998 69 M20 63 L300.998 63 M20 57 L300.998 57 M20 51 L300.998 51 M20 171 L300.998 171 M20 165 L300.998 165 M20 159 L300.998 159 M20 153 L300.998 153 M20 147 L300.998 147 M20 267 L300.998 267 M20 261 L300.998 261 M20 255 L300.998 255 M20 249 L300.998 249 M20 243 L300.998 243 M300 75 L539.832 75 M300 69 L539.832 69 M300 63 L539.832 63 M300 57 L539.832 57 M300 51 L539.832 51 M300 171 L539.832 171 M300 165 L539.832 165 M300 159 L539.832 159 M300 153 L539.832 153 M300 147 L539.832 147 M300 267 L539.832 267 M300 261 L539.832 261 M300 255 L539.832 255 M300 249 L539.832 249 M300 243 L539.832 243 M540 75 L779.832 75 M540 69 L779.832 69 M540 63 L779.832 63 M540 57 L779.832 57 M540 51 L779.832 51 M540 171 L779.832 171 M540 165 L779.832 165 M540 159 L779.832 159 M540 153 L779.832 153 M540 147 L779.832 147 M540 267 L779.832 267 M540 261 L779.832 261 M540 255 L779.832 255 M540 249 L779.832 249 M540 243 L779.832 243 M20 363 L781.941 363 M20 357 L781.941 357 M20 351 L781.941 351 M20 345 L781.941 345 M20 339 L781.941 339 M20 459 L781.941 459 M20 453 L781.941 453 M20 447 L781.941 447 M20 441 L781.941 441 M20 435 L781.941 435 M20 555 L781.941 555 M20 549 L781.941 549 M20 543 L781.941 543 M20 537 L781.941 537 M20 531 L781.941 531 " stroke="rgb(0,0,0)" stroke-width="0.4" fill="rgb(0,0,0)" transform="matrix(1,0,0,1,0,0)"/>
<rect x="20" y="51" width="0.6" height="216" fill="rgb(0,0,0)" stroke="none" stroke-width="0.4" fill-opacity="1.0" stroke-opacity="1.0" transform="matrix(1,0,0,1,0,0)"/>
<rect x="300" y="51" width="0.6" height="24" fill="rgb(0,0,0)" stroke="none" stroke-width="0.4" fill-opacity="1.0" stroke-opacity="1.0" transform="matrix(1,0,0,1,0,0)"/>
<rect x="300" y="147" width="0.6" height="120" fill="rgb(0,0,0)" stroke="none" stroke-width="0.4" fill-opacity="1.0" stroke-opacity="1.0" transform="matrix(1,0,0,1,0,0)"/>
<rect x="779.8317260742188" y="51" width="0.6" height="24" fill="rgb(0,0,0)" stroke="none" stroke-width="0.4" fill-opacity="1.0" stroke-opacity="1.0" transform="matrix(1,0,0,1,0,0)"/>
<rect x="779.8317260742188" y="147" width="0.6" height="120" fill="rgb(0,0,0)" stroke="none" stroke-width="0.4" fill-opacity="1.0" stroke-opacity="1.0" transform="matrix(1,0,0,1,0,0)"/>
<rect x="540" y="51" width="0.6" height="24" fill="rgb(0,0,0)" stroke="none" stroke-width="0.4" fill-opacity="1.0" stroke-opacity="1.0" transform="matrix(1,0,0,1,0,0)"/>
<rect x="540" y="147" width="0.6" height="120" fill="rgb(0,0,0)" stroke="none" stroke-width="0.4" fill-opacity="1.0" stroke-opacity="1.0" transform="matrix(1,0,0,1,0,0)"/>
<rect x="781.9412231445312" y="339" width="0.6" height="24" fill="rgb(0,0,0)" stroke="none" stroke-width="0.4" fill-opacity="1.0" stroke-opacity="1.0" transform="matrix(1,0,0,1,0,0)"/>
<rect x="781.9412231445312" y="435" width="0.6" height="120" fill="rgb(0,0,0)" stroke="none" stroke-width="0.4" fill-opacity="1.0" stroke-opacity="1.0" transform="matrix(1,0,0,1,0,0)"/>
<rect x="20" y="339" width="0.6" height="216" fill="rgb(0,0,0)" stroke="none" stroke-width="0.4" fill-opacity="1.0" stroke-opacity="1.0" transform="matrix(1,0,0,1,0,0)"/>
<rect x="20" y="339" width="0.6" height="24" fill="rgb(0,0,0)" stroke="none" stroke-width="0.4" fill-opacity="1.0" stroke-opacity="1.0" transform="matrix(1,0,0,1,0,0)"/>
<rect x="20" y="435" width="0.6" height="120" fill="rgb(0,0,0)" stroke="none" stroke-width="0.4" fill-opacity="1.0" stroke-opacity="1.0" transform="matrix(1,0,0,1,0,0)"/>
<g id="Picster-Element_1610450987392" transform="matrix(1,0,0,1,45.620689392089844,188)">
<rect id="Picster-Element_1610450987392_border" x="0" y="0" width="120" height="90" rx="0" stroke="black" stroke-width="1" stroke-opacity="1" fill="undefined" fill-opacity="undefined" transform="matrix(1,0,0,1,0,0)"/>
<rect id="Picster-Element_1610450987392_bgfill" x="0" y="0" width="120" height="90" rx="0" stroke="undefined" stroke-width="null" stroke-opacity="undefined" fill="white" fill-opacity="0.8" transform="matrix(1,0,0,1,0,0)"/>
<line id="Picster-Element_1610450987392_stem" x1="63" y1="17" x2="63" y2="55" stroke="rgb(0,159,63)" stroke-width="1" stroke-opacity="1" transform="matrix(1,0,0,1,0,0)"/>
<line id="Picster-Element_1610450987392_meter_vert_0" x1="81" y1="17" x2="81" y2="28" stroke="rgb(0,159,63)" stroke-width="1" stroke-opacity="1" transform="matrix(1,0,0,1,0,0)"/>
<line id="Picster-Element_1610450987392_meter_hor_0" x1="63" y1="18" x2="116" y2="18" stroke="rgb(0,159,63)" stroke-width="2" stroke-opacity="1" transform="matrix(1,0,0,1,0,0)"/>
<text id="Picster-Element_1610450987392_meter_text_0" x="72" y="30" font-family="Aloisen New" font-size="20" font-style="null" font-weight="null" text-anchor="middle" text-decoration="none" fill="rgb(0,159,63)" fill-opacity="1" transform="matrix(1,0,0,1,0,0)"></text>
<line id="Picster-Element_1610450987392_meter_vert_1" x1="98" y1="17" x2="98" y2="33" stroke="rgb(0,159,63)" stroke-width="1" stroke-opacity="1" transform="matrix(1,0,0,1,0,0)"/>
<line id="Picster-Element_1610450987392_meter_hor_1" x1="81" y1="23" x2="116" y2="23" stroke="rgb(0,159,63)" stroke-width="2" stroke-opacity="1" transform="matrix(1,0,0,1,0,0)"/>
<text id="Picster-Element_1610450987392_meter_text_1" x="89.5" y="35" font-family="Aloisen New" font-size="20" font-style="null" font-weight="null" text-anchor="middle" text-decoration="none" fill="rgb(0,159,63)" fill-opacity="1" transform="matrix(1,0,0,1,0,0)"></text>
<line id="Picster-Element_1610450987392_meter_vert_2" x1="116" y1="17" x2="116" y2="38" stroke="rgb(0,159,63)" stroke-width="1" stroke-opacity="1" transform="matrix(1,0,0,1,0,0)"/>
<line id="Picster-Element_1610450987392_meter_hor_2" x1="98" y1="28" x2="116" y2="28" stroke="rgb(0,159,63)" stroke-width="2" stroke-opacity="1" transform="matrix(1,0,0,1,0,0)"/>
<text id="Picster-Element_1610450987392_meter_text_2" x="107" y="40" font-family="Aloisen New" font-size="20" font-style="null" font-weight="null" text-anchor="middle" text-decoration="none" fill="rgb(0,159,63)" fill-opacity="1" transform="matrix(1,0,0,1,0,0)"></text>
<line id="Picster-Element_1610450987392_event_thickh" x1="60" y1="56" x2="90" y2="56" stroke="rgb(0, 0, 255)" stroke-width="3" stroke-opacity="1" transform="matrix(1,0,0,1,0,0)"/>
<line id="Picster-Element_1610450987392_event_thinh" x1="60" y1="56" x2="115" y2="56" stroke="rgb(0, 0, 255)" stroke-width="1" stroke-opacity="1" transform="matrix(1,0,0,1,0,0)"/>
<line id="Picster-Element_1610450987392_event_shortv" x1="90" y1="54" x2="90" y2="58" stroke="rgb(0, 0, 255)" stroke-width="1" stroke-opacity="1" transform="matrix(1,0,0,1,0,0)"/>
<line id="Picster-Element_1610450987392_event_longv" x1="115" y1="52" x2="115" y2="60" stroke="rgb(0, 0, 255)" stroke-width="1" stroke-opacity="1" transform="matrix(1,0,0,1,0,0)"/>
<text id="Picster-Element_1610450987392_event_smaller" x="89" y="54" font-family="Arial" font-size="8" font-style="null" font-weight="null" text-anchor="end" text-decoration="none" fill="rgb(0, 0, 255)" fill-opacity="1" transform="matrix(1,0,0,1,0,0)">1000</text>
<text id="Picster-Element_1610450987392_event_larger" x="114" y="54" font-family="Arial" font-size="8" font-style="null" font-weight="null" text-anchor="end" text-decoration="none" fill="rgb(0, 0, 255)" fill-opacity="1" transform="matrix(1,0,0,1,0,0)">1000</text>
<text id="Picster-Element_1610450987392_notehead" x="55" y="55" font-family="Aloisen New" font-size="28" font-style="null" font-weight="null" text-anchor="start" text-decoration="none" fill="rgb(207, 95, 127)" fill-opacity="1" transform="matrix(1,0,0,1,0,0)"></text>
<line id="Picster-Element_1610450987392_pitch_vertical" x1="23" y1="18" x2="23" y2="70" stroke="rgb(191,0,0)" stroke-width="1" stroke-opacity="1" transform="matrix(1,0,0,1,0,0)"/>
<line id="Picster-Element_1610450987392_pitch_top" x1="18" y1="18" x2="28" y2="18" stroke="rgb(191,0,0)" stroke-width="1" stroke-opacity="1" transform="matrix(1,0,0,1,0,0)"/>
<line id="Picster-Element_1610450987392_pitch_bottom" x1="18" y1="71" x2="28" y2="71" stroke="rgb(191,0,0)" stroke-width="1" stroke-opacity="1" transform="matrix(1,0,0,1,0,0)"/>
<ellipse id="Picster-Element_1610450987392_pitch_circle" cx="23" cy="44" rx="5" ry="5" stroke="rgb(255,0,0)" stroke-width="1" stroke-opacity="1" fill="undefined" fill-opacity="undefined" transform="matrix(1,0,0,1,0,0)"/>
<text id="Picster-Element_1610450987392_melody_scope" x="28" y="42" font-family="Arial" font-size="10" font-style="null" font-weight="null" text-anchor="start" text-decoration="none" fill="rgb(207, 95, 127)" fill-opacity="1" transform="matrix(1,0,0,1,0,0)">±7</text>
<text id="Picster-Element_1610450987392_pitch_max" x="26" y="26" font-family="Arial" font-size="10" font-style="null" font-weight="null" text-anchor="start" text-decoration="none" fill="rgb(191,0,0)" fill-opacity="1" transform="matrix(1,0,0,1,0,0)">55</text>
<text id="Picster-Element_1610450987392_pitch_min" x="26" y="68" font-family="Arial" font-size="10" font-style="null" font-weight="null" text-anchor="start" text-decoration="none" fill="rgb(191,0,0)" fill-opacity="1" transform="matrix(1,0,0,1,0,0)">41</text>
<text id="Picster-Element_1610450987392_tonic_pitch" x="55" y="55" font-family="Arial" font-size="11" font-style="null" font-weight="null" text-anchor="end" text-decoration="none" fill="rgb(207, 95, 127)" fill-opacity="1" transform="matrix(1,0,0,1,0,0)">60</text>
<text id="Picster-Element_1610450987392_scale" x="5" y="11" font-family="Arial" font-size="10" font-style="null" font-weight="null" text-anchor="start" text-decoration="none" fill="rgb(191,0,0)" fill-opacity="1" transform="matrix(1,0,0,1,0,0)">temp19ebmt</text>
<rect id="Picster-Element_1610450987392_dynamics_fillbar" x="5" y="75" width="27" height="10" rx="0" stroke="undefined" stroke-width="null" stroke-opacity="undefined" fill="rgb(223, 207, 191)" fill-opacity="1" transform="matrix(1,0,0,1,0,0)"/>
<rect id="Picster-Element_1610450987392_dynamics_border" x="5" y="75" width="53" height="10" rx="0" stroke="rgb(95, 79, 63)" stroke-width="1" stroke-opacity="1" fill="undefined" fill-opacity="undefined" transform="matrix(1,0,0,1,0,0)"/>
<text id="Picster-Element_1610450987392_dynamics_text" x="7" y="83" font-family="Arial" font-size="8" font-style="null" font-weight="null" text-anchor="start" text-decoration="none" fill="rgb(95, 79, 63)" fill-opacity="1" transform="matrix(1,0,0,1,0,0)">D</text>
<rect id="Picster-Element_1610450987392_attenuation_fillbar" x="62" y="75" width="7" height="10" rx="0" stroke="undefined" stroke-width="null" stroke-opacity="undefined" fill="rgb(223, 207, 191)" fill-opacity="1" transform="matrix(1,0,0,1,0,0)"/>
<rect id="Picster-Element_1610450987392_attenuation_border" x="63" y="75" width="53" height="10" rx="0" stroke="rgb(95, 79, 63)" stroke-width="1" stroke-opacity="1" fill="undefined" fill-opacity="undefined" transform="matrix(1,0,0,1,0,0)"/>
<text id="Picster-Element_1610450987392_attenuation_text" x="64" y="83" font-family="Arial" font-size="8" font-style="null" font-weight="null" text-anchor="start" text-decoration="none" fill="rgb(95, 79, 63)" fill-opacity="1" transform="matrix(1,0,0,1,0,0)">A</text>
<rect id="Picster-Element_1610450987392_eventfulness_fillbar" x="63" y="61" width="53" height="10" rx="0" stroke="undefined" stroke-width="null" stroke-opacity="undefined" fill="rgb(191, 223, 255)" fill-opacity="1" transform="matrix(1,0,0,1,0,0)"/>
<rect id="Picster-Element_1610450987392_eventfulness_border" x="63" y="61" width="53" height="10" rx="0" stroke="rgb(0, 0, 191)" stroke-width="1" stroke-opacity="1" fill="undefined" fill-opacity="undefined" transform="matrix(1,0,0,1,0,0)"/>
<text id="Picster-Element_1610450987392_eventfulness_text" x="64" y="69" font-family="Arial" font-size="8" font-style="null" font-weight="null" text-anchor="start" text-decoration="none" fill="rgb(0, 0, 191)" fill-opacity="1" transform="matrix(1,0,0,1,0,0)">E</text>
<rect id="Picster-Element_1610450987392_harmoniclarity_fillbar" x="5" y="17" width="10" height="53" rx="0" stroke="undefined" stroke-width="null" stroke-opacity="undefined" fill="rgb(255, 191, 223)" fill-opacity="1" transform="matrix(1,0,0,1,0,0)"/>
<rect id="Picster-Element_1610450987392_harmoniclarity_border" x="5" y="18" width="10" height="53" rx="0" stroke="rgb(191, 0, 0)" stroke-width="1" stroke-opacity="1" fill="undefined" fill-opacity="undefined" transform="matrix(1,0,0,1,0,0)"/>
<text id="Picster-Element_1610450987392_harmoniclarity_text" x="7" y="67" font-family="Arial" font-size="8" font-style="null" font-weight="null" text-anchor="start" text-decoration="none" fill="rgb(191, 0, 0)" fill-opacity="1" transform="matrix(1,0,0,1,0,0)">H</text>
<rect id="Picster-Element_1610450987392_metriclarity_fillbar" x="63" y="3" width="53" height="10" rx="0" stroke="undefined" stroke-width="null" stroke-opacity="undefined" fill="rgb(159,255,159)" fill-opacity="1" transform="matrix(1,0,0,1,0,0)"/>
<rect id="Picster-Element_1610450987392_metriclarity_border" x="63" y="3" width="53" height="10" rx="0" stroke="rgb(0,159,63)" stroke-width="1" stroke-opacity="1" fill="undefined" fill-opacity="undefined" transform="matrix(1,0,0,1,0,0)"/>
<text id="Picster-Element_1610450987392_metriclarity_text" x="64" y="11" font-family="Arial" font-size="8" font-style="null" font-weight="null" text-anchor="start" text-decoration="none" fill="rgb(0,159,63)" fill-opacity="1" transform="matrix(1,0,0,1,0,0)">M</text>
</g>
<g id="Picster-Element_1610539646536" transform="matrix(1,0,0,1,230.62069702148438,195)">
<rect id="Picster-Element_1610539646536_background" x="0" y="12" width="200" height="40" rx="0" stroke="undefined" stroke-width="null" stroke-opacity="undefined" fill="rgb(200,200,200)" fill-opacity="0.4" transform="matrix(1,0,0,1,0,0)"/>
<line id="Picster-Element_1610539646536_centerline" x1="0" y1="32" x2="200" y2="32" stroke="rgb(0,0,0)" stroke-width="0.5" stroke-opacity="1" transform="matrix(1,0,0,1,0,0)"/>
<path id="Picster-Element_1610539646536_waveform" d="M0,16L1,12L2,16L3,15L4,15L5,17L6,15L7,14L8,18L9,20L10,22L11,22L12,23L13,21L14,22L15,25L16,25L17,26L18,26L19,27L20,27L21,27L22,27L23,28L24,29L25,29L26,27L27,27L28,28L29,28L30,28L31,29L32,28L33,28L34,27L35,28L36,27L37,28L38,28L39,28L40,28L41,28L42,28L43,28L44,28L45,29L46,29L47,29L48,29L49,29L50,29L51,29L52,30L53,30L54,30L55,29L56,29L57,29L58,29L59,29L60,30L61,30L62,29L63,29L64,30L65,29L66,29L67,30L68,30L69,30L70,30L71,30L72,30L73,30L74,30L75,30L76,30L77,31L78,31L79,31L80,31L81,31L82,31L83,30L84,30L85,30L86,31L87,31L88,31L89,31L90,31L91,31L92,31L93,31L94,31L95,31L96,31L97,31L98,31L99,31L100,31L101,31L102,31L103,31L104,31L105,31L106,31L107,31L108,31L109,31L110,31L111,32L112,31L113,31L114,31L115,31L116,31L117,31L118,31L119,31L120,31L121,31L122,31L123,31L124,31L125,31L126,31L127,31L128,31L129,31L130,31L131,31L132,31L133,32L134,32L135,31L136,31L137,31L138,32L139,32L140,31L141,31L142,31L143,32L144,32L145,32L146,32L147,31L148,31L149,32L150,32L151,32L152,31L153,31L154,32L155,32L156,32L157,32L158,32L159,32L160,32L161,32L162,32L163,32L164,32L165,32L166,32L167,32L168,32L169,32L170,32L171,32L172,32L173,32L174,32L175,32L176,32L177,32L178,32L179,32L180,32L181,32L182,32L183,32L184,32L185,32L186,32L187,32L188,32L189,32L190,32L191,32L192,32L193,32L194,32L195,32L196,32L197,32L198,32L199,32L199,32L198,32L197,32L196,32L195,32L194,32L193,32L192,32L191,32L190,32L189,32L188,32L187,32L186,32L185,32L184,32L183,32L182,32L181,32L180,32L179,32L178,32L177,32L176,32L175,32L174,32L173,32L172,32L171,32L170,32L169,32L168,32L167,32L166,32L165,32L164,32L163,32L162,32L161,32L160,32L159,32L158,32L157,32L156,32L155,32L154,32L153,32L152,33L151,32L150,32L149,33L148,33L147,32L146,32L145,32L144,33L143,33L142,32L141,32L140,32L139,33L138,33L137,32L136,32L135,32L134,32L133,33L132,33L131,32L130,33L129,33L128,33L127,33L126,33L125,32L124,33L123,32L122,33L121,33L120,33L119,33L118,33L117,33L116,33L115,33L114,33L113,33L112,33L111,33L110,33L109,33L108,33L107,32L106,33L105,33L104,33L103,33L102,33L101,33L100,33L99,33L98,33L97,33L96,33L95,33L94,33L93,33L92,33L91,33L90,33L89,33L88,33L87,34L86,33L85,33L84,33L83,33L82,33L81,34L80,34L79,34L78,33L77,33L76,33L75,33L74,34L73,34L72,34L71,34L70,35L69,34L68,34L67,34L66,34L65,35L64,34L63,34L62,34L61,34L60,35L59,34L58,34L57,34L56,34L55,34L54,34L53,34L52,35L51,35L50,35L49,35L48,35L47,35L46,35L45,35L44,36L43,35L42,36L41,36L40,36L39,35L38,36L37,36L36,36L35,37L34,37L33,36L32,36L31,36L30,37L29,35L28,35L27,36L26,35L25,36L24,36L23,36L22,38L21,38L20,37L19,36L18,37L17,37L16,39L15,39L14,41L13,43L12,44L11,44L10,42L9,42L8,44L7,47L6,52L5,48L4,50L3,47L2,47L1,48L0,46" stroke="undefined" stroke-width="0" stroke-opacity="undefined" fill="rgb(0,0,0)" fill-opacity="1" transform="matrix(1,0,0,1,0,0)"/>
<text id="Picster-Element_1610539646536_info" x="0" y="10" font-family="Arial" font-size="10" font-style="null" font-weight="null" text-anchor="start" text-decoration="none" fill="rgb(0,0,0)" fill-opacity="1" transform="matrix(1,0,0,1,0,0)">D#4 TOY PF.wav | 00:01.807</text>
</g>
<g id="Picster-Element_1610457459030" transform="matrix(1,0,0,1,497,100)">
<rect id="Picster-Element_1610457459030_background" x="0" y="0" width="200" height="40" rx="0" stroke="undefined" stroke-width="null" stroke-opacity="undefined" fill="rgb(200,200,200)" fill-opacity="0.4" transform="matrix(1,0,0,1,0,0)"/>
<line id="Picster-Element_1610457459030_centerline" x1="0" y1="20" x2="200" y2="20" stroke="rgb(0,0,0)" stroke-width="0.5" stroke-opacity="1" transform="matrix(1,0,0,1,0,0)"/>
<path id="Picster-Element_1610457459030_waveform" d="M0,4L1,0L2,4L3,3L4,3L5,5L6,3L7,2L8,6L9,8L10,10L11,10L12,11L13,9L14,10L15,13L16,13L17,14L18,14L19,15L20,15L21,15L22,15L23,16L24,17L25,17L26,15L27,15L28,16L29,16L30,16L31,17L32,16L33,16L34,15L35,16L36,15L37,16L38,16L39,16L40,16L41,16L42,16L43,16L44,16L45,17L46,17L47,17L48,17L49,17L50,17L51,17L52,18L53,18L54,18L55,17L56,17L57,17L58,17L59,17L60,18L61,18L62,17L63,17L64,18L65,17L66,17L67,18L68,18L69,18L70,18L71,18L72,18L73,18L74,18L75,18L76,18L77,19L78,19L79,19L80,19L81,19L82,19L83,18L84,18L85,18L86,19L87,19L88,19L89,19L90,19L91,19L92,19L93,19L94,19L95,19L96,19L97,19L98,19L99,19L100,19L101,19L102,19L103,19L104,19L105,19L106,19L107,19L108,19L109,19L110,19L111,20L112,19L113,19L114,19L115,19L116,19L117,19L118,19L119,19L120,19L121,19L122,19L123,19L124,19L125,19L126,19L127,19L128,19L129,19L130,19L131,19L132,19L133,20L134,20L135,19L136,19L137,19L138,20L139,20L140,19L141,19L142,19L143,20L144,20L145,20L146,20L147,19L148,19L149,20L150,20L151,20L152,19L153,19L154,20L155,20L156,20L157,20L158,20L159,20L160,20L161,20L162,20L163,20L164,20L165,20L166,20L167,20L168,20L169,20L170,20L171,20L172,20L173,20L174,20L175,20L176,20L177,20L178,20L179,20L180,20L181,20L182,20L183,20L184,20L185,20L186,20L187,20L188,20L189,20L190,20L191,20L192,20L193,20L194,20L195,20L196,20L197,20L198,20L199,20L199,20L198,20L197,20L196,20L195,20L194,20L193,20L192,20L191,20L190,20L189,20L188,20L187,20L186,20L185,20L184,20L183,20L182,20L181,20L180,20L179,20L178,20L177,20L176,20L175,20L174,20L173,20L172,20L171,20L170,20L169,20L168,20L167,20L166,20L165,20L164,20L163,20L162,20L161,20L160,20L159,20L158,20L157,20L156,20L155,20L154,20L153,20L152,21L151,20L150,20L149,21L148,21L147,20L146,20L145,20L144,21L143,21L142,20L141,20L140,20L139,21L138,21L137,20L136,20L135,20L134,20L133,21L132,21L131,20L130,21L129,21L128,21L127,21L126,21L125,20L124,21L123,20L122,21L121,21L120,21L119,21L118,21L117,21L116,21L115,21L114,21L113,21L112,21L111,21L110,21L109,21L108,21L107,20L106,21L105,21L104,21L103,21L102,21L101,21L100,21L99,21L98,21L97,21L96,21L95,21L94,21L93,21L92,21L91,21L90,21L89,21L88,21L87,22L86,21L85,21L84,21L83,21L82,21L81,22L80,22L79,22L78,21L77,21L76,21L75,21L74,22L73,22L72,22L71,22L70,23L69,22L68,22L67,22L66,22L65,23L64,22L63,22L62,22L61,22L60,23L59,22L58,22L57,22L56,22L55,22L54,22L53,22L52,23L51,23L50,23L49,23L48,23L47,23L46,23L45,23L44,24L43,23L42,24L41,24L40,24L39,23L38,24L37,24L36,24L35,25L34,25L33,24L32,24L31,24L30,25L29,23L28,23L27,24L26,23L25,24L24,24L23,24L22,26L21,26L20,25L19,24L18,25L17,25L16,27L15,27L14,29L13,31L12,32L11,32L10,30L9,30L8,32L7,35L6,40L5,36L4,38L3,35L2,35L1,36L0,34" stroke="undefined" stroke-width="0" stroke-opacity="undefined" fill="rgb(0,0,0)" fill-opacity="1" transform="matrix(1,0,0,1,0,0)"/>
</g>
</g>
</svg>
