<?xml version="1.0" encoding="utf-8"?>
<!DOCTYPE svg PUBLIC "-//W3C//DTD SVG 1.1//EN" "http://www.w3.org/Graphics/SVG/1.1/DTD/svg11.dtd">
<svg width="800px" height="800px" viewBox="0 0 800 800" style="background:rgb(253.98,253.98,239.7)" xmlns="http://www.w3.org/2000/svg" xmlns:xlink="http://www.w3.org/1999/xlink" version="1.1">
<g id="1" transform="matrix(1,0,0,1,0,0)">
<text x="20" y="39" font-family="Arial" font-style="normal" font-weight="normal" font-size="10" fill="rgb(0,0,0)" fill-opacity="1" transform="matrix(1,0,0,1,0,0)" >1</text>
<text x="20" y="33" font-family="Arial" font-style="normal" font-weight="normal" font-size="10" fill="rgb(64,64,64)" fill-opacity="1" transform="matrix(1,0,0,1,0,0)" >  &lt;&lt;</text>
<text x="280.9981994628906" y="33" font-family="Arial" font-style="normal" font-weight="normal" font-size="10" fill="rgb(64,64,64)" fill-opacity="1" transform="matrix(1,0,0,1,0,0)" >&gt;&gt;</text>
<text x="20" y="21" font-family="Bravura" font-style="normal" font-weight="normal" font-size="12" fill="rgb(0,0,0)" fill-opacity="1" transform="matrix(1,0,0,1,0,0)" ></text>
<text x="25" y="21" font-family="Bravura" font-style="normal" font-weight="normal" font-size="8" fill="rgb(0,0,0)" fill-opacity="1" transform="matrix(1,0,0,1,0,0)" ></text>
<text x="30" y="24" font-family="Arial" font-style="normal" font-weight="normal" font-size="10" fill="rgb(0,0,0)" fill-opacity="1" transform="matrix(1,0,0,1,0,0)" >60.0</text>
<text x="0" y="0" font-family="Bravura" font-style="normal" font-weight="normal" font-size="24" fill="rgb(0,0,0)" fill-opacity="1" transform="matrix(1,0,0,1,22,69.95999908447266)" ></text>
<text x="0" y="0" font-family="Arial" font-style="normal" font-weight="normal" font-size="10" fill="rgb(0,0,0)" fill-opacity="1" transform="matrix(1,0,0,1,-78.6953125,65)" >MaxScoreIns-0</text>
<text x="0" y="0" font-family="Bravura" font-style="normal" font-weight="normal" font-size="24" fill="rgb(0,0,0)" fill-opacity="1" transform="matrix(1,0,0,1,43,57)" ></text>
<text x="0" y="0" font-family="Bravura" font-style="normal" font-weight="normal" font-size="24" fill="rgb(0,0,0)" fill-opacity="1" transform="matrix(1,0,0,1,43,69)" ></text>
<text x="0" y="0" font-family="Bravura" font-style="normal" font-weight="normal" font-size="22" fill="rgb(0,0,255)" fill-opacity="1" transform="matrix(1,0,0,1,83.62068939208984,60)" ></text>
<text x="0" y="0" font-family="Bravura" font-style="normal" font-weight="normal" font-size="22" fill="rgb(0,0,0)" fill-opacity="1" transform="matrix(1,0,0,1,137.62069702148438,57)" ></text>
<rect x="83.62068939208984" y="60" width="0.75" height="20" fill="rgb(0,0,255)" stroke="rgb(0,0,255)" stroke-width="0.4" fill-opacity="1.0" stroke-opacity="1.0" transform="matrix(1,0,0,1,0,0)"/>
<text x="0" y="0" font-family="Bravura" font-style="normal" font-weight="normal" font-size="22" fill="rgb(0,0,0)" fill-opacity="1" transform="matrix(1,0,0,1,191.62069702148438,66)" ></text>
<rect x="137.62069702148438" y="57" width="0.75" height="20" fill="rgb(0,0,0)" stroke="rgb(0,0,0)" stroke-width="0.4" fill-opacity="1.0" stroke-opacity="1.0" transform="matrix(1,0,0,1,0,0)"/>
<text x="0" y="0" font-family="Bravura" font-style="normal" font-weight="normal" font-size="22" fill="rgb(0,0,0)" fill-opacity="1" transform="matrix(1,0,0,1,245.62069702148438,63)" ></text>
<rect x="198.22069702148437" y="45" width="0.75" height="20" fill="rgb(0,0,0)" stroke="rgb(0,0,0)" stroke-width="0.4" fill-opacity="1.0" stroke-opacity="1.0" transform="matrix(1,0,0,1,0,0)"/>
<path d="M322.6000061035156,81 L335.3999938964844,81" stroke="rgb(0,0,0)" stroke-width="0.6" fill="rgb(0,0,0)" transform="matrix(1,0,0,1,0,0)"/>
<text x="0" y="0" font-family="Bravura" font-style="normal" font-weight="normal" font-size="22" fill="rgb(0,0,0)" fill-opacity="1" transform="matrix(1,0,0,1,325,81)" ></text>
<rect x="245.62069702148438" y="63" width="0.75" height="20" fill="rgb(0,0,0)" stroke="rgb(0,0,0)" stroke-width="0.4" fill-opacity="1.0" stroke-opacity="1.0" transform="matrix(1,0,0,1,0,0)"/>
<text x="0" y="0" font-family="Bravura" font-style="normal" font-weight="normal" font-size="22" fill="rgb(0,0,0)" fill-opacity="1" transform="matrix(1,0,0,1,378,57)" ></text>
<rect x="331.6" y="60" width="0.75" height="20" fill="rgb(0,0,0)" stroke="rgb(0,0,0)" stroke-width="0.4" fill-opacity="1.0" stroke-opacity="1.0" transform="matrix(1,0,0,1,0,0)"/>
<text x="0" y="0" font-family="Bravura" font-style="normal" font-weight="normal" font-size="22" fill="rgb(0,0,0)" fill-opacity="1" transform="matrix(1,0,0,1,431,63)" ></text>
<rect x="378" y="57" width="0.75" height="20" fill="rgb(0,0,0)" stroke="rgb(0,0,0)" stroke-width="0.4" fill-opacity="1.0" stroke-opacity="1.0" transform="matrix(1,0,0,1,0,0)"/>
<text x="0" y="0" font-family="Bravura" font-style="normal" font-weight="normal" font-size="22" fill="rgb(0,0,0)" fill-opacity="1" transform="matrix(1,0,0,1,484,63)" ></text>
<rect x="431" y="63" width="0.75" height="20" fill="rgb(0,0,0)" stroke="rgb(0,0,0)" stroke-width="0.4" fill-opacity="1.0" stroke-opacity="1.0" transform="matrix(1,0,0,1,0,0)"/>
<text x="0" y="0" font-family="Bravura" font-style="normal" font-weight="normal" font-size="22" fill="rgb(0,0,0)" fill-opacity="1" transform="matrix(1,0,0,1,565,60)" ></text>
<rect x="484" y="63" width="0.75" height="20" fill="rgb(0,0,0)" stroke="rgb(0,0,0)" stroke-width="0.4" fill-opacity="1.0" stroke-opacity="1.0" transform="matrix(1,0,0,1,0,0)"/>
<text x="0" y="0" font-family="Bravura" font-style="normal" font-weight="normal" font-size="22" fill="rgb(0,0,0)" fill-opacity="1" transform="matrix(1,0,0,1,618,63)" ></text>
<rect x="565" y="60" width="0.75" height="20" fill="rgb(0,0,0)" stroke="rgb(0,0,0)" stroke-width="0.4" fill-opacity="1.0" stroke-opacity="1.0" transform="matrix(1,0,0,1,0,0)"/>
<text x="0" y="0" font-family="Bravura" font-style="normal" font-weight="normal" font-size="22" fill="rgb(0,0,0)" fill-opacity="1" transform="matrix(1,0,0,1,671,63)" ></text>
<rect x="618" y="63" width="0.75" height="20" fill="rgb(0,0,0)" stroke="rgb(0,0,0)" stroke-width="0.4" fill-opacity="1.0" stroke-opacity="1.0" transform="matrix(1,0,0,1,0,0)"/>
<text x="0" y="0" font-family="Bravura" font-style="normal" font-weight="normal" font-size="22" fill="rgb(0,0,0)" fill-opacity="1" transform="matrix(1,0,0,1,724,66)" ></text>
<rect x="671" y="63" width="0.75" height="20" fill="rgb(0,0,0)" stroke="rgb(0,0,0)" stroke-width="0.4" fill-opacity="1.0" stroke-opacity="1.0" transform="matrix(1,0,0,1,0,0)"/>
<text x="20" y="135" font-family="Arial" font-style="normal" font-weight="normal" font-size="10" fill="rgb(0,0,0)" fill-opacity="1" transform="matrix(1,0,0,1,0,0)" >4</text>
<text x="0" y="0" font-family="Bravura" font-style="normal" font-weight="normal" font-size="24" fill="rgb(0,0,0)" fill-opacity="1" transform="matrix(1,0,0,1,22,165.9600067138672)" ></text>
<rect x="730.6" y="45" width="0.75" height="20" fill="rgb(0,0,0)" stroke="rgb(0,0,0)" stroke-width="0.4" fill-opacity="1.0" stroke-opacity="1.0" transform="matrix(1,0,0,1,0,0)"/>
<path d="M20 75 L300.998 75 M20 69 L300.998 69 M20 63 L300.998 63 M20 57 L300.998 57 M20 51 L300.998 51 M300 75 L539.832 75 M300 69 L539.832 69 M300 63 L539.832 63 M300 57 L539.832 57 M300 51 L539.832 51 M540 75 L779.832 75 M540 69 L779.832 69 M540 63 L779.832 63 M540 57 L779.832 57 M540 51 L779.832 51 M20 171 L781.941 171 M20 165 L781.941 165 M20 159 L781.941 159 M20 153 L781.941 153 M20 147 L781.941 147 " stroke="rgb(0,0,0)" stroke-width="0.4" fill="rgb(0,0,0)" transform="matrix(1,0,0,1,0,0)"/>
<rect x="20" y="51" width="0.6" height="24" fill="rgb(0,0,0)" stroke="none" stroke-width="0.4" fill-opacity="1.0" stroke-opacity="1.0" transform="matrix(1,0,0,1,0,0)"/>
<rect x="300" y="51" width="0.6" height="24" fill="rgb(0,0,0)" stroke="none" stroke-width="0.4" fill-opacity="1.0" stroke-opacity="1.0" transform="matrix(1,0,0,1,0,0)"/>
<rect x="779.8317260742188" y="51" width="0.6" height="24" fill="rgb(0,0,0)" stroke="none" stroke-width="0.4" fill-opacity="1.0" stroke-opacity="1.0" transform="matrix(1,0,0,1,0,0)"/>
<rect x="540" y="51" width="0.6" height="24" fill="rgb(0,0,0)" stroke="none" stroke-width="0.4" fill-opacity="1.0" stroke-opacity="1.0" transform="matrix(1,0,0,1,0,0)"/>
<rect x="781.9412231445312" y="147" width="0.6" height="24" fill="rgb(0,0,0)" stroke="none" stroke-width="0.4" fill-opacity="1.0" stroke-opacity="1.0" transform="matrix(1,0,0,1,0,0)"/>
<rect x="20" y="147" width="0.6" height="24" fill="rgb(0,0,0)" stroke="none" stroke-width="0.4" fill-opacity="1.0" stroke-opacity="1.0" transform="matrix(1,0,0,1,0,0)"/>
<rect x="20" y="147" width="0.6" height="24" fill="rgb(0,0,0)" stroke="none" stroke-width="0.4" fill-opacity="1.0" stroke-opacity="1.0" transform="matrix(1,0,0,1,0,0)"/>
<g id="Picster-Element_1610450987392" transform="matrix(1,0,0,1,45.620689392089844,188)">
<rect id="Picster-Element_1610450987392_border" x="0" y="0" width="120" height="90" rx="0" stroke="black" stroke-width="1" stroke-opacity="1" fill="undefined" fill-opacity="undefined" transform="matrix(1,0,0,1,0,0)"/>
<rect id="Picster-Element_1610450987392_bgfill" x="0" y="0" width="120" height="90" rx="0" stroke="undefined" stroke-width="null" stroke-opacity="undefined" fill="white" fill-opacity="0.8" transform="matrix(1,0,0,1,0,0)"/>
<line id="Picster-Element_1610450987392_stem" x1="63" y1="17" x2="63" y2="55" stroke="rgb(0,159,63)" stroke-width="1" stroke-opacity="1" transform="matrix(1,0,0,1,0,0)"/>
<line id="Picster-Element_1610450987392_meter_vert_0" x1="81" y1="17" x2="81" y2="28" stroke="rgb(0,159,63)" stroke-width="1" stroke-opacity="1" transform="matrix(1,0,0,1,0,0)"/>
<line id="Picster-Element_1610450987392_meter_hor_0" x1="63" y1="18" x2="116" y2="18" stroke="rgb(0,159,63)" stroke-width="2" stroke-opacity="1" transform="matrix(1,0,0,1,0,0)"/>
<text id="Picster-Element_1610450987392_meter_text_0" x="72" y="30" font-family="Aloisen New" font-size="20" font-style="null" font-weight="null" text-anchor="middle" text-decoration="none" fill="rgb(0,159,63)" fill-opacity="1" transform="matrix(1,0,0,1,0,0)"></text>
<line id="Picster-Element_1610450987392_meter_vert_1" x1="98" y1="17" x2="98" y2="33" stroke="rgb(0,159,63)" stroke-width="1" stroke-opacity="1" transform="matrix(1,0,0,1,0,0)"/>
<line id="Picster-Element_1610450987392_meter_hor_1" x1="81" y1="23" x2="116" y2="23" stroke="rgb(0,159,63)" stroke-width="2" stroke-opacity="1" transform="matrix(1,0,0,1,0,0)"/>
<text id="Picster-Element_1610450987392_meter_text_1" x="89.5" y="35" font-family="Aloisen New" font-size="20" font-style="null" font-weight="null" text-anchor="middle" text-decoration="none" fill="rgb(0,159,63)" fill-opacity="1" transform="matrix(1,0,0,1,0,0)"></text>
<line id="Picster-Element_1610450987392_meter_vert_2" x1="116" y1="17" x2="116" y2="38" stroke="rgb(0,159,63)" stroke-width="1" stroke-opacity="1" transform="matrix(1,0,0,1,0,0)"/>
<line id="Picster-Element_1610450987392_meter_hor_2" x1="98" y1="28" x2="116" y2="28" stroke="rgb(0,159,63)" stroke-width="2" stroke-opacity="1" transform="matrix(1,0,0,1,0,0)"/>
<text id="Picster-Element_1610450987392_meter_text_2" x="107" y="40" font-family="Aloisen New" font-size="20" font-style="null" font-weight="null" text-anchor="middle" text-decoration="none" fill="rgb(0,159,63)" fill-opacity="1" transform="matrix(1,0,0,1,0,0)"></text>
<line id="Picster-Element_1610450987392_event_thickh" x1="60" y1="56" x2="90" y2="56" stroke="rgb(0, 0, 255)" stroke-width="3" stroke-opacity="1" transform="matrix(1,0,0,1,0,0)"/>
<line id="Picster-Element_1610450987392_event_thinh" x1="60" y1="56" x2="115" y2="56" stroke="rgb(0, 0, 255)" stroke-width="1" stroke-opacity="1" transform="matrix(1,0,0,1,0,0)"/>
<line id="Picster-Element_1610450987392_event_shortv" x1="90" y1="54" x2="90" y2="58" stroke="rgb(0, 0, 255)" stroke-width="1" stroke-opacity="1" transform="matrix(1,0,0,1,0,0)"/>
<line id="Picster-Element_1610450987392_event_longv" x1="115" y1="52" x2="115" y2="60" stroke="rgb(0, 0, 255)" stroke-width="1" stroke-opacity="1" transform="matrix(1,0,0,1,0,0)"/>
<text id="Picster-Element_1610450987392_event_smaller" x="89" y="54" font-family="Arial" font-size="8" font-style="null" font-weight="null" text-anchor="end" text-decoration="none" fill="rgb(0, 0, 255)" fill-opacity="1" transform="matrix(1,0,0,1,0,0)">1000</text>
<text id="Picster-Element_1610450987392_event_larger" x="114" y="54" font-family="Arial" font-size="8" font-style="null" font-weight="null" text-anchor="end" text-decoration="none" fill="rgb(0, 0, 255)" fill-opacity="1" transform="matrix(1,0,0,1,0,0)">1000</text>
<text id="Picster-Element_1610450987392_notehead" x="55" y="55" font-family="Aloisen New" font-size="28" font-style="null" font-weight="null" text-anchor="start" text-decoration="none" fill="rgb(207, 95, 127)" fill-opacity="1" transform="matrix(1,0,0,1,0,0)"></text>
<line id="Picster-Element_1610450987392_pitch_vertical" x1="23" y1="18" x2="23" y2="70" stroke="rgb(191,0,0)" stroke-width="1" stroke-opacity="1" transform="matrix(1,0,0,1,0,0)"/>
<line id="Picster-Element_1610450987392_pitch_top" x1="18" y1="18" x2="28" y2="18" stroke="rgb(191,0,0)" stroke-width="1" stroke-opacity="1" transform="matrix(1,0,0,1,0,0)"/>
<line id="Picster-Element_1610450987392_pitch_bottom" x1="18" y1="71" x2="28" y2="71" stroke="rgb(191,0,0)" stroke-width="1" stroke-opacity="1" transform="matrix(1,0,0,1,0,0)"/>
<ellipse id="Picster-Element_1610450987392_pitch_circle" cx="23" cy="44" rx="5" ry="5" stroke="rgb(255,0,0)" stroke-width="1" stroke-opacity="1" fill="undefined" fill-opacity="undefined" transform="matrix(1,0,0,1,0,0)"/>
<text id="Picster-Element_1610450987392_melody_scope" x="28" y="42" font-family="Arial" font-size="10" font-style="null" font-weight="null" text-anchor="start" text-decoration="none" fill="rgb(207, 95, 127)" fill-opacity="1" transform="matrix(1,0,0,1,0,0)">±7</text>
<text id="Picster-Element_1610450987392_pitch_max" x="26" y="26" font-family="Arial" font-size="10" font-style="null" font-weight="null" text-anchor="start" text-decoration="none" fill="rgb(191,0,0)" fill-opacity="1" transform="matrix(1,0,0,1,0,0)">55</text>
<text id="Picster-Element_1610450987392_pitch_min" x="26" y="68" font-family="Arial" font-size="10" font-style="null" font-weight="null" text-anchor="start" text-decoration="none" fill="rgb(191,0,0)" fill-opacity="1" transform="matrix(1,0,0,1,0,0)">41</text>
<text id="Picster-Element_1610450987392_tonic_pitch" x="55" y="55" font-family="Arial" font-size="11" font-style="null" font-weight="null" text-anchor="end" text-decoration="none" fill="rgb(207, 95, 127)" fill-opacity="1" transform="matrix(1,0,0,1,0,0)">60</text>
<text id="Picster-Element_1610450987392_scale" x="5" y="11" font-family="Arial" font-size="10" font-style="null" font-weight="null" text-anchor="start" text-decoration="none" fill="rgb(191,0,0)" fill-opacity="1" transform="matrix(1,0,0,1,0,0)">temp19ebmt</text>
<rect id="Picster-Element_1610450987392_dynamics_fillbar" x="5" y="75" width="27" height="10" rx="0" stroke="undefined" stroke-width="null" stroke-opacity="undefined" fill="rgb(223, 207, 191)" fill-opacity="1" transform="matrix(1,0,0,1,0,0)"/>
<rect id="Picster-Element_1610450987392_dynamics_border" x="5" y="75" width="53" height="10" rx="0" stroke="rgb(95, 79, 63)" stroke-width="1" stroke-opacity="1" fill="undefined" fill-opacity="undefined" transform="matrix(1,0,0,1,0,0)"/>
<text id="Picster-Element_1610450987392_dynamics_text" x="7" y="83" font-family="Arial" font-size="8" font-style="null" font-weight="null" text-anchor="start" text-decoration="none" fill="rgb(95, 79, 63)" fill-opacity="1" transform="matrix(1,0,0,1,0,0)">D</text>
<rect id="Picster-Element_1610450987392_attenuation_fillbar" x="62" y="75" width="7" height="10" rx="0" stroke="undefined" stroke-width="null" stroke-opacity="undefined" fill="rgb(223, 207, 191)" fill-opacity="1" transform="matrix(1,0,0,1,0,0)"/>
<rect id="Picster-Element_1610450987392_attenuation_border" x="63" y="75" width="53" height="10" rx="0" stroke="rgb(95, 79, 63)" stroke-width="1" stroke-opacity="1" fill="undefined" fill-opacity="undefined" transform="matrix(1,0,0,1,0,0)"/>
<text id="Picster-Element_1610450987392_attenuation_text" x="64" y="83" font-family="Arial" font-size="8" font-style="null" font-weight="null" text-anchor="start" text-decoration="none" fill="rgb(95, 79, 63)" fill-opacity="1" transform="matrix(1,0,0,1,0,0)">A</text>
<rect id="Picster-Element_1610450987392_eventfulness_fillbar" x="63" y="61" width="53" height="10" rx="0" stroke="undefined" stroke-width="null" stroke-opacity="undefined" fill="rgb(191, 223, 255)" fill-opacity="1" transform="matrix(1,0,0,1,0,0)"/>
<rect id="Picster-Element_1610450987392_eventfulness_border" x="63" y="61" width="53" height="10" rx="0" stroke="rgb(0, 0, 191)" stroke-width="1" stroke-opacity="1" fill="undefined" fill-opacity="undefined" transform="matrix(1,0,0,1,0,0)"/>
<text id="Picster-Element_1610450987392_eventfulness_text" x="64" y="69" font-family="Arial" font-size="8" font-style="null" font-weight="null" text-anchor="start" text-decoration="none" fill="rgb(0, 0, 191)" fill-opacity="1" transform="matrix(1,0,0,1,0,0)">E</text>
<rect id="Picster-Element_1610450987392_harmoniclarity_fillbar" x="5" y="17" width="10" height="53" rx="0" stroke="undefined" stroke-width="null" stroke-opacity="undefined" fill="rgb(255, 191, 223)" fill-opacity="1" transform="matrix(1,0,0,1,0,0)"/>
<rect id="Picster-Element_1610450987392_harmoniclarity_border" x="5" y="18" width="10" height="53" rx="0" stroke="rgb(191, 0, 0)" stroke-width="1" stroke-opacity="1" fill="undefined" fill-opacity="undefined" transform="matrix(1,0,0,1,0,0)"/>
<text id="Picster-Element_1610450987392_harmoniclarity_text" x="7" y="67" font-family="Arial" font-size="8" font-style="null" font-weight="null" text-anchor="start" text-decoration="none" fill="rgb(191, 0, 0)" fill-opacity="1" transform="matrix(1,0,0,1,0,0)">H</text>
<rect id="Picster-Element_1610450987392_metriclarity_fillbar" x="63" y="3" width="53" height="10" rx="0" stroke="undefined" stroke-width="null" stroke-opacity="undefined" fill="rgb(159,255,159)" fill-opacity="1" transform="matrix(1,0,0,1,0,0)"/>
<rect id="Picster-Element_1610450987392_metriclarity_border" x="63" y="3" width="53" height="10" rx="0" stroke="rgb(0,159,63)" stroke-width="1" stroke-opacity="1" fill="undefined" fill-opacity="undefined" transform="matrix(1,0,0,1,0,0)"/>
<text id="Picster-Element_1610450987392_metriclarity_text" x="64" y="11" font-family="Arial" font-size="8" font-style="null" font-weight="null" text-anchor="start" text-decoration="none" fill="rgb(0,159,63)" fill-opacity="1" transform="matrix(1,0,0,1,0,0)">M</text>
</g>
<polyline id="Picster-Element_1610457294441" points="0,0 37,-31 77,7 14,22 16,-47 60,28 0,0 ," stroke="rgb(0,0,0)" stroke-width="1" stroke-opacity="1" fill="none" fill-opacity="1" transform="matrix(1,0,0,1,347,113)"/>
<g id="Picster-Element_1610457459030" transform="matrix(1,0,0,1,497,100)">
<rect id="Picster-Element_1610457459030_background" x="0" y="0" width="200" height="40" rx="0" stroke="undefined" stroke-width="null" stroke-opacity="undefined" fill="rgb(200,200,200)" fill-opacity="0.4" transform="matrix(1,0,0,1,0,0)"/>
<line id="Picster-Element_1610457459030_centerline" x1="0" y1="20" x2="200" y2="20" stroke="rgb(0,0,0)" stroke-width="0.5" stroke-opacity="1" transform="matrix(1,0,0,1,0,0)"/>
<path id="Picster-Element_1610457459030_waveform" d="M0,4L1,0L2,4L3,3L4,3L5,5L6,3L7,2L8,6L9,8L10,10L11,10L12,11L13,9L14,10L15,13L16,13L17,14L18,14L19,15L20,15L21,15L22,15L23,16L24,17L25,17L26,15L27,15L28,16L29,16L30,16L31,17L32,16L33,16L34,15L35,16L36,15L37,16L38,16L39,16L40,16L41,16L42,16L43,16L44,16L45,17L46,17L47,17L48,17L49,17L50,17L51,17L52,18L53,18L54,18L55,17L56,17L57,17L58,17L59,17L60,18L61,18L62,17L63,17L64,18L65,17L66,17L67,18L68,18L69,18L70,18L71,18L72,18L73,18L74,18L75,18L76,18L77,19L78,19L79,19L80,19L81,19L82,19L83,18L84,18L85,18L86,19L87,19L88,19L89,19L90,19L91,19L92,19L93,19L94,19L95,19L96,19L97,19L98,19L99,19L100,19L101,19L102,19L103,19L104,19L105,19L106,19L107,19L108,19L109,19L110,19L111,20L112,19L113,19L114,19L115,19L116,19L117,19L118,19L119,19L120,19L121,19L122,19L123,19L124,19L125,19L126,19L127,19L128,19L129,19L130,19L131,19L132,19L133,20L134,20L135,19L136,19L137,19L138,20L139,20L140,19L141,19L142,19L143,20L144,20L145,20L146,20L147,19L148,19L149,20L150,20L151,20L152,19L153,19L154,20L155,20L156,20L157,20L158,20L159,20L160,20L161,20L162,20L163,20L164,20L165,20L166,20L167,20L168,20L169,20L170,20L171,20L172,20L173,20L174,20L175,20L176,20L177,20L178,20L179,20L180,20L181,20L182,20L183,20L184,20L185,20L186,20L187,20L188,20L189,20L190,20L191,20L192,20L193,20L194,20L195,20L196,20L197,20L198,20L199,20L199,20L198,20L197,20L196,20L195,20L194,20L193,20L192,20L191,20L190,20L189,20L188,20L187,20L186,20L185,20L184,20L183,20L182,20L181,20L180,20L179,20L178,20L177,20L176,20L175,20L174,20L173,20L172,20L171,20L170,20L169,20L168,20L167,20L166,20L165,20L164,20L163,20L162,20L161,20L160,20L159,20L158,20L157,20L156,20L155,20L154,20L153,20L152,21L151,20L150,20L149,21L148,21L147,20L146,20L145,20L144,21L143,21L142,20L141,20L140,20L139,21L138,21L137,20L136,20L135,20L134,20L133,21L132,21L131,20L130,21L129,21L128,21L127,21L126,21L125,20L124,21L123,20L122,21L121,21L120,21L119,21L118,21L117,21L116,21L115,21L114,21L113,21L112,21L111,21L110,21L109,21L108,21L107,20L106,21L105,21L104,21L103,21L102,21L101,21L100,21L99,21L98,21L97,21L96,21L95,21L94,21L93,21L92,21L91,21L90,21L89,21L88,21L87,22L86,21L85,21L84,21L83,21L82,21L81,22L80,22L79,22L78,21L77,21L76,21L75,21L74,22L73,22L72,22L71,22L70,23L69,22L68,22L67,22L66,22L65,23L64,22L63,22L62,22L61,22L60,23L59,22L58,22L57,22L56,22L55,22L54,22L53,22L52,23L51,23L50,23L49,23L48,23L47,23L46,23L45,23L44,24L43,23L42,24L41,24L40,24L39,23L38,24L37,24L36,24L35,25L34,25L33,24L32,24L31,24L30,25L29,23L28,23L27,24L26,23L25,24L24,24L23,24L22,26L21,26L20,25L19,24L18,25L17,25L16,27L15,27L14,29L13,31L12,32L11,32L10,30L9,30L8,32L7,35L6,40L5,36L4,38L3,35L2,35L1,36L0,34" stroke="undefined" stroke-width="0" stroke-opacity="undefined" fill="rgb(0,0,0)" fill-opacity="1" transform="matrix(1,0,0,1,0,0)"/>
</g>
</g>
</svg>
