<?xml version="1.0" encoding="utf-8"?>
<!DOCTYPE svg PUBLIC "-//W3C//DTD SVG 1.1//EN" "http://www.w3.org/Graphics/SVG/1.1/DTD/svg11.dtd">
<svg width="1660px" height="220px" viewBox="0 0 1660 220" style="background:rgb(253.98,253.98,239.7)" xmlns="http://www.w3.org/2000/svg" xmlns:xlink="http://www.w3.org/1999/xlink" version="1.1">
<g id="1" transform="matrix(1,0,0,1,0,0)">
<text x="20" y="39" font-family="Arial" font-style="normal" font-weight="normal" font-size="10" fill="rgb(0,0,0)" fill-opacity="1" transform="matrix(1,0,0,1,0,0)" >1</text>
<text x="20" y="21" font-family="Bravura" font-style="normal" font-weight="normal" font-size="12" fill="rgb(0,0,0)" fill-opacity="1" transform="matrix(1,0,0,1,0,0)" ></text>
<text x="25" y="21" font-family="Bravura" font-style="normal" font-weight="normal" font-size="8" fill="rgb(0,0,0)" fill-opacity="1" transform="matrix(1,0,0,1,0,0)" ></text>
<text x="30" y="24" font-family="Arial" font-style="normal" font-weight="normal" font-size="10" fill="rgb(0,0,0)" fill-opacity="1" transform="matrix(1,0,0,1,0,0)" >60.0</text>
<text x="0" y="0" font-family="Bravura" font-style="normal" font-weight="normal" font-size="24" fill="rgb(0,0,0)" fill-opacity="1" transform="matrix(1,0,0,1,22,69.95999908447266)" ></text>
<text x="0" y="0" font-family="Arial" font-style="normal" font-weight="normal" font-size="10" fill="rgb(0,0,0)" fill-opacity="1" transform="matrix(1,0,0,1,-78.6953125,65)" >MaxScoreIns-0</text>
<text x="0" y="0" font-family="Bravura" font-style="normal" font-weight="normal" font-size="24" fill="rgb(0,0,0)" fill-opacity="1" transform="matrix(1,0,0,1,43,57)" ></text>
<text x="0" y="0" font-family="Bravura" font-style="normal" font-weight="normal" font-size="24" fill="rgb(0,0,0)" fill-opacity="1" transform="matrix(1,0,0,1,43,69)" ></text>
<text x="0" y="0" font-family="Bravura" font-style="normal" font-weight="normal" font-size="24" fill="rgb(0,0,0)" fill-opacity="1" transform="matrix(1,0,0,1,83.62068939208984,57)" ></text>
<text x="0" y="0" font-family="Bravura" font-style="normal" font-weight="normal" font-size="24" fill="rgb(0,0,0)" fill-opacity="1" transform="matrix(1,0,0,1,22,165.9600067138672)" ></text>
<text x="0" y="0" font-family="Arial" font-style="normal" font-weight="normal" font-size="10" fill="rgb(0,0,0)" fill-opacity="1" transform="matrix(1,0,0,1,-78.6953125,161)" >MaxScoreIns-1</text>
<text x="0" y="0" font-family="Bravura" font-style="normal" font-weight="normal" font-size="24" fill="rgb(0,0,0)" fill-opacity="1" transform="matrix(1,0,0,1,43,153)" ></text>
<text x="0" y="0" font-family="Bravura" font-style="normal" font-weight="normal" font-size="24" fill="rgb(0,0,0)" fill-opacity="1" transform="matrix(1,0,0,1,43,165)" ></text>
<rect x="83.62068939208984" y="57" width="0.75" height="20" fill="rgb(0,0,0)" stroke="rgb(0,0,0)" stroke-width="0.4" fill-opacity="1.0" stroke-opacity="1.0" transform="matrix(1,0,0,1,0,0)"/>
<path d="M20 75 L895.134 75 M20 69 L895.134 69 M20 63 L895.134 63 M20 57 L895.134 57 M20 51 L895.134 51 M20 171 L895.134 171 M20 165 L895.134 165 M20 159 L895.134 159 M20 153 L895.134 153 M20 147 L895.134 147 M895 75 L1641.926 75 M895 69 L1641.926 69 M895 63 L1641.926 63 M895 57 L1641.926 57 M895 51 L1641.926 51 M895 171 L1641.926 171 M895 165 L1641.926 165 M895 159 L1641.926 159 M895 153 L1641.926 153 M895 147 L1641.926 147 " stroke="rgb(0,0,0)" stroke-width="0.4" fill="rgb(0,0,0)" transform="matrix(1,0,0,1,0,0)"/>
<rect x="20" y="51" width="0.6" height="120" fill="rgb(0,0,0)" stroke="none" stroke-width="0.4" fill-opacity="1.0" stroke-opacity="1.0" transform="matrix(1,0,0,1,0,0)"/>
<rect x="1641.92626953125" y="51" width="0.6" height="120" fill="rgb(0,0,0)" stroke="none" stroke-width="0.4" fill-opacity="1.0" stroke-opacity="1.0" transform="matrix(1,0,0,1,0,0)"/>
<rect x="895" y="51" width="0.6" height="120" fill="rgb(0,0,0)" stroke="none" stroke-width="0.4" fill-opacity="1.0" stroke-opacity="1.0" transform="matrix(1,0,0,1,0,0)"/>
</g>
</svg>
