<?xml version="1.0" encoding="utf-8"?>
<!DOCTYPE svg PUBLIC "-//W3C//DTD SVG 1.1//EN" "http://www.w3.org/Graphics/SVG/1.1/DTD/svg11.dtd">
<svg width="800px" height="800px" viewBox="0 0 800 800" style="background:rgb(0,0,0)" xmlns="http://www.w3.org/2000/svg" xmlns:xlink="http://www.w3.org/1999/xlink" version="1.1">
<g id="1" transform="matrix(1,0,0,1,0,0)">
<text x="20" y="39" font-family="Arial" font-style="normal" font-weight="normal" font-size="10" fill="rgb(204.00001823902136,204.00001823902136,203.9999878406524)" fill-opacity="1" transform="matrix(1,0,0,1,0,0)" >1</text>
<text x="20" y="33" font-family="Arial" font-style="normal" font-weight="normal" font-size="10" fill="rgb(204.00001823902136,204.00001823902136,203.9999878406524)" fill-opacity="1" transform="matrix(1,0,0,1,0,0)" >  &lt;&lt;</text>
<text x="280.9981994628906" y="33" font-family="Arial" font-style="normal" font-weight="normal" font-size="10" fill="rgb(204.00001823902136,204.00001823902136,203.9999878406524)" fill-opacity="1" transform="matrix(1,0,0,1,0,0)" >&gt;&gt;</text>
<text x="20" y="21" font-family="Bravura" font-style="normal" font-weight="normal" font-size="12" fill="rgb(204.00001823902136,204.00001823902136,203.9999878406524)" fill-opacity="1" transform="matrix(1,0,0,1,0,0)" ></text>
<text x="25" y="21" font-family="Bravura" font-style="normal" font-weight="normal" font-size="8" fill="rgb(204.00001823902136,204.00001823902136,203.9999878406524)" fill-opacity="1" transform="matrix(1,0,0,1,0,0)" ></text>
<text x="30" y="24" font-family="Arial" font-style="normal" font-weight="normal" font-size="10" fill="rgb(204.00001823902136,204.00001823902136,203.9999878406524)" fill-opacity="1" transform="matrix(1,0,0,1,0,0)" >60.0</text>
<text x="0" y="0" font-family="Bravura" font-style="normal" font-weight="normal" font-size="24" fill="rgb(204.00001823902136,204.00001823902136,203.9999878406524)" fill-opacity="1" transform="matrix(1,0,0,1,22,69.95999908447266)" ></text>
<text x="0" y="0" font-family="Bravura" font-style="normal" font-weight="normal" font-size="24" fill="rgb(204.00001823902136,204.00001823902136,203.9999878406524)" fill-opacity="1" transform="matrix(1,0,0,1,43,57)" ></text>
<text x="0" y="0" font-family="Bravura" font-style="normal" font-weight="normal" font-size="24" fill="rgb(204.00001823902136,204.00001823902136,203.9999878406524)" fill-opacity="1" transform="matrix(1,0,0,1,43,69)" ></text>
<text x="0" y="0" font-family="Bravura" font-style="normal" font-weight="normal" font-size="24" fill="rgb(204.00001823902136,204.00001823902136,203.9999878406524)" fill-opacity="1" transform="matrix(1,0,0,1,83.62068939208984,66)" ></text>
<text x="0" y="0" font-family="Bravura" font-style="normal" font-weight="normal" font-size="24" fill="rgb(204.00001823902136,204.00001823902136,203.9999878406524)" fill-opacity="1" transform="matrix(1,0,0,1,137.62069702148438,63)" ></text>
<rect x="90.22068939208984" y="45" width="0.75" height="20" fill="rgb(204.00001823902136,204.00001823902136,203.9999878406524)" stroke="rgb(204.00001823902136,204.00001823902136,203.9999878406524)" stroke-width="0.4" fill-opacity="1.0" stroke-opacity="1.0" transform="matrix(1,0,0,1,0,0)"/>
<text x="0" y="0" font-family="Bravura" font-style="normal" font-weight="normal" font-size="24" fill="rgb(204.00001823902136,204.00001823902136,203.9999878406524)" fill-opacity="1" transform="matrix(1,0,0,1,191.62069702148438,66)" ></text>
<rect x="137.62069702148438" y="63" width="0.75" height="20" fill="rgb(204.00001823902136,204.00001823902136,203.9999878406524)" stroke="rgb(204.00001823902136,204.00001823902136,203.9999878406524)" stroke-width="0.4" fill-opacity="1.0" stroke-opacity="1.0" transform="matrix(1,0,0,1,0,0)"/>
<text x="0" y="0" font-family="Bravura" font-style="normal" font-weight="normal" font-size="24" fill="rgb(204.00001823902136,204.00001823902136,203.9999878406524)" fill-opacity="1" transform="matrix(1,0,0,1,245.62069702148438,60)" ></text>
<rect x="198.22069702148437" y="45" width="0.75" height="20" fill="rgb(204.00001823902136,204.00001823902136,203.9999878406524)" stroke="rgb(204.00001823902136,204.00001823902136,203.9999878406524)" stroke-width="0.4" fill-opacity="1.0" stroke-opacity="1.0" transform="matrix(1,0,0,1,0,0)"/>
<text x="0" y="0" font-family="Bravura" font-style="normal" font-weight="normal" font-size="24" fill="rgb(204.00001823902136,204.00001823902136,203.9999878406524)" fill-opacity="1" transform="matrix(1,0,0,1,325,63)" ></text>
<rect x="245.62069702148438" y="60" width="0.75" height="20" fill="rgb(204.00001823902136,204.00001823902136,203.9999878406524)" stroke="rgb(204.00001823902136,204.00001823902136,203.9999878406524)" stroke-width="0.4" fill-opacity="1.0" stroke-opacity="1.0" transform="matrix(1,0,0,1,0,0)"/>
<text x="0" y="0" font-family="Bravura" font-style="normal" font-weight="normal" font-size="24" fill="rgb(204.00001823902136,204.00001823902136,203.9999878406524)" fill-opacity="1" transform="matrix(1,0,0,1,378,60)" ></text>
<rect x="325" y="63" width="0.75" height="20" fill="rgb(204.00001823902136,204.00001823902136,203.9999878406524)" stroke="rgb(204.00001823902136,204.00001823902136,203.9999878406524)" stroke-width="0.4" fill-opacity="1.0" stroke-opacity="1.0" transform="matrix(1,0,0,1,0,0)"/>
<rect x="378" y="60" width="0.75" height="20" fill="rgb(204.00001823902136,204.00001823902136,203.9999878406524)" stroke="rgb(204.00001823902136,204.00001823902136,203.9999878406524)" stroke-width="0.4" fill-opacity="1.0" stroke-opacity="1.0" transform="matrix(1,0,0,1,0,0)"/>
<path d="M20 75 L300.998 75 M20 69 L300.998 69 M20 63 L300.998 63 M20 57 L300.998 57 M20 51 L300.998 51 M300 75 L539.832 75 M300 69 L539.832 69 M300 63 L539.832 63 M300 57 L539.832 57 M300 51 L539.832 51 M540 75 L779.832 75 M540 69 L779.832 69 M540 63 L779.832 63 M540 57 L779.832 57 M540 51 L779.832 51 " stroke="rgb(204.00001823902136,204.00001823902136,203.9999878406524)" stroke-width="0.4" fill="rgb(204.00001823902136,204.00001823902136,203.9999878406524)" transform="matrix(1,0,0,1,0,0)"/>
<rect x="20" y="51" width="0.6" height="24" fill="rgb(204.00001823902136,204.00001823902136,203.9999878406524)" stroke="none" stroke-width="0.4" fill-opacity="1.0" stroke-opacity="1.0" transform="matrix(1,0,0,1,0,0)"/>
<rect x="300" y="51" width="0.6" height="24" fill="rgb(204.00001823902136,204.00001823902136,203.9999878406524)" stroke="none" stroke-width="0.4" fill-opacity="1.0" stroke-opacity="1.0" transform="matrix(1,0,0,1,0,0)"/>
<rect x="779.8317260742188" y="51" width="0.6" height="24" fill="rgb(204.00001823902136,204.00001823902136,203.9999878406524)" stroke="none" stroke-width="0.4" fill-opacity="1.0" stroke-opacity="1.0" transform="matrix(1,0,0,1,0,0)"/>
<rect x="540" y="51" width="0.6" height="24" fill="rgb(204.00001823902136,204.00001823902136,203.9999878406524)" stroke="none" stroke-width="0.4" fill-opacity="1.0" stroke-opacity="1.0" transform="matrix(1,0,0,1,0,0)"/>
</g>
</svg>
