<?xml version="1.0" encoding="utf-8"?>
<!DOCTYPE svg PUBLIC "-//W3C//DTD SVG 1.1//EN" "http://www.w3.org/Graphics/SVG/1.1/DTD/svg11.dtd">
<svg width="974px" height="200px" viewBox="0 0 974 200" style="background:rgb(253.98,253.98,239.7)" xmlns="http://www.w3.org/2000/svg" xmlns:xlink="http://www.w3.org/1999/xlink" version="1.1">
<g id="1" transform="matrix(1,0,0,1,0,0)">
<path d="M60,75H160.0M60,69H160.0M60,63H160.0M60,57H160.0M60,51H160.0M160,75H560.0M160,69H560.0M160,63H560.0M160,57H560.0M160,51H560.0M560,75H960.0M560,69H960.0M560,63H960.0M560,57H960.0M560,51H960.0" stroke="rgb(0,0,0)" stroke-width="0.8" fill="rgb(0,0,0)" transform="matrix(1,0,0,1,0,0)"/>
<text x="0" y="0" font-family="Bravura" font-style="normal" font-weight="normal" font-size="24" fill="rgb(0,0,0)" fill-opacity="1" transform="matrix(1,0,0,1,160,66)" ></text>
<text x="0" y="0" font-family="Bravura" font-style="normal" font-weight="normal" font-size="24" fill="rgb(0,0,0)" fill-opacity="1" transform="matrix(1,0,0,1,157,93)" ></text>
<text x="0" y="0" font-family="Bravura" font-style="normal" font-weight="normal" font-size="24" fill="rgb(0,0,0)" fill-opacity="1" transform="matrix(1,0,0,1,220,60)" ></text>
<text x="0" y="0" font-family="Bravura" font-style="normal" font-weight="normal" font-size="24" fill="rgb(0,0,0)" fill-opacity="1" transform="matrix(1,0,0,1,280,75)" ></text>
<path d="M337.6000061035156,81 L350.3999938964844,81" stroke="rgb(0,0,0)" stroke-width="0.6" fill="rgb(0,0,0)" transform="matrix(1,0,0,1,0,0)"/>
<text x="0" y="0" font-family="Bravura" font-style="normal" font-weight="normal" font-size="24" fill="rgb(0,0,0)" fill-opacity="1" transform="matrix(1,0,0,1,340,84)" ></text>
<path d="M0,0 L174,7.5 L0,15" stroke="rgb(0,0,0)" stroke-width="1.0" fill="none" transform="matrix(-1,0,0,1,340,105)"/>
<text x="0" y="0" font-family="Bravura" font-style="normal" font-weight="normal" font-size="24" fill="rgb(0,0,0)" fill-opacity="1" transform="matrix(1,0,0,1,400,66)" ></text>
<text x="0" y="0" font-family="Bravura" font-style="normal" font-weight="normal" font-size="24" fill="rgb(0,0,0)" fill-opacity="1" transform="matrix(1,0,0,1,397,93)" ></text>
<text x="0" y="0" font-family="Bravura" font-style="normal" font-weight="normal" font-size="18" fill="rgb(0,0,0)" fill-opacity="1" transform="matrix(1,0,0,1,400,50)" ></text>
<text x="0" y="0" font-family="Bravura" font-style="normal" font-weight="normal" font-size="24" fill="rgb(0,0,0)" fill-opacity="1" transform="matrix(1,0,0,1,478,51)" ></text>
<text x="0" y="0" font-family="Bravura" font-style="normal" font-weight="normal" font-size="24" fill="rgb(0,0,0)" fill-opacity="1" transform="matrix(1,0,0,1,478,41)" ></text>
<text x="0" y="0" font-family="Bravura" font-style="normal" font-weight="normal" font-size="24" fill="rgb(0,0,0)" fill-opacity="1" transform="matrix(1,0,0,1,560,60)" ></text>
<text x="0" y="0" font-family="Bravura" font-style="normal" font-weight="normal" font-size="24" fill="rgb(0,0,0)" fill-opacity="1" transform="matrix(1,0,0,1,557,93)" ></text>
<text x="80" y="25" text-anchor="middle" font-family="Arial" font-style="normal" font-weight="normal" font-size="10" fill="rgb(0,0,0)" fill-opacity="1" transform="matrix(1,0,0,1,0,0)" >0'00"</text>
<text x="180" y="25" text-anchor="middle" font-family="Arial" font-style="normal" font-weight="normal" font-size="10" fill="rgb(0,0,0)" fill-opacity="1" transform="matrix(1,0,0,1,0,0)" >0'01"</text>
<text x="280" y="25" text-anchor="middle" font-family="Arial" font-style="normal" font-weight="normal" font-size="10" fill="rgb(0,0,0)" fill-opacity="1" transform="matrix(1,0,0,1,0,0)" >0'02"</text>
<text x="380" y="25" text-anchor="middle" font-family="Arial" font-style="normal" font-weight="normal" font-size="10" fill="rgb(0,0,0)" fill-opacity="1" transform="matrix(1,0,0,1,0,0)" >0'03"</text>
<text x="480" y="25" text-anchor="middle" font-family="Arial" font-style="normal" font-weight="normal" font-size="10" fill="rgb(0,0,0)" fill-opacity="1" transform="matrix(1,0,0,1,0,0)" >0'04"</text>
<text x="580" y="25" text-anchor="middle" font-family="Arial" font-style="normal" font-weight="normal" font-size="10" fill="rgb(0,0,0)" fill-opacity="1" transform="matrix(1,0,0,1,0,0)" >0'05"</text>
<text x="680" y="25" text-anchor="middle" font-family="Arial" font-style="normal" font-weight="normal" font-size="10" fill="rgb(0,0,0)" fill-opacity="1" transform="matrix(1,0,0,1,0,0)" >0'06"</text>
<text x="780" y="25" text-anchor="middle" font-family="Arial" font-style="normal" font-weight="normal" font-size="10" fill="rgb(0,0,0)" fill-opacity="1" transform="matrix(1,0,0,1,0,0)" >0'07"</text>
<text x="880" y="25" text-anchor="middle" font-family="Arial" font-style="normal" font-weight="normal" font-size="10" fill="rgb(0,0,0)" fill-opacity="1" transform="matrix(1,0,0,1,0,0)" >0'08"</text>
<path d="M80 0 V15 M180 0 V15 M280 0 V15 M380 0 V15 M480 0 V15 M580 0 V15 M680 0 V15 M780 0 V15 M880 0 V15 " stroke="rgb(0,0,0)" stroke-width="0.4" fill="none" transform="matrix(1,0,0,1,0,0)"/>
<path id="sustain_0" d="M5,3 L38,3M38,1L38,5" stroke="rgb(0,0,0)" stroke-width="2" stroke-opacity="1" fill="null" fill-opacity="null" transform="matrix(1,0,0,1,162,63)"/>
<path id="sustain_0" d="M5,3 L38,3M38,1L38,5" stroke="rgb(0,0,0)" stroke-width="2" stroke-opacity="1" fill="null" fill-opacity="null" transform="matrix(1,0,0,1,222,57)"/>
<path id="sustain_0" d="M5,3 L38,3M38,1L38,5" stroke="rgb(0,0,0)" stroke-width="2" stroke-opacity="1" fill="null" fill-opacity="null" transform="matrix(1,0,0,1,282,72)"/>
<path id="sustain_0" d="M5,3 L38,3M38,1L38,5" stroke="rgb(0,0,0)" stroke-width="2" stroke-opacity="1" fill="null" fill-opacity="null" transform="matrix(1,0,0,1,342,81)"/>
<path id="sustain_0" d="M5,3 L83,3M83,1L83,5" stroke="rgb(0,0,0)" stroke-width="2" stroke-opacity="1" fill="null" fill-opacity="null" transform="matrix(1,0,0,1,402,63)"/>
<path id="sustain_0" d="M5,3 L83,3M83,1L83,5" stroke="rgb(0,0,0)" stroke-width="2" stroke-opacity="1" fill="null" fill-opacity="null" transform="matrix(1,0,0,1,480,48)"/>
<path id="sustain_0" d="M5,3 L353,3M353,1L353,5" stroke="rgb(0,0,0)" stroke-width="2" stroke-opacity="1" fill="null" fill-opacity="null" transform="matrix(1,0,0,1,562,57)"/>
</g>
<g id="2" transform="matrix(1,0,0,1,0,0)">
<path d="M60,75H160.0M60,69H160.0M60,63H160.0M60,57H160.0M60,51H160.0M160,75H560.0M160,69H560.0M160,63H560.0M160,57H560.0M160,51H560.0M560,75H960.0M560,69H960.0M560,63H960.0M560,57H960.0M560,51H960.0" stroke="rgb(0,0,0)" stroke-width="0.8" fill="rgb(0,0,0)" transform="matrix(1,0,0,1,0,0)"/>
<text x="0" y="0" font-family="Bravura" font-style="normal" font-weight="normal" font-size="24" fill="rgb(0,0,0)" fill-opacity="1" transform="matrix(1,0,0,1,160,60)" ></text>
<path d="M277.6000061035156,81 L290.3999938964844,81" stroke="rgb(0,0,0)" stroke-width="0.6" fill="rgb(0,0,0)" transform="matrix(1,0,0,1,0,0)"/>
<path d="M277.6000061035156,87 L290.3999938964844,87" stroke="rgb(0,0,0)" stroke-width="0.6" fill="rgb(0,0,0)" transform="matrix(1,0,0,1,0,0)"/>
<text x="0" y="0" font-family="Bravura" font-style="normal" font-weight="normal" font-size="24" fill="rgb(0,0,0)" fill-opacity="1" transform="matrix(1,0,0,1,280,87)" ></text>
<text x="0" y="0" font-family="Bravura" font-style="normal" font-weight="normal" font-size="24" fill="rgb(0,0,0)" fill-opacity="1" transform="matrix(1,0,0,1,280,72)" ></text>
<path d="M475.6000061035156,81 L488.3999938964844,81" stroke="rgb(0,0,0)" stroke-width="0.6" fill="rgb(0,0,0)" transform="matrix(1,0,0,1,0,0)"/>
<path d="M475.6000061035156,87 L488.3999938964844,87" stroke="rgb(0,0,0)" stroke-width="0.6" fill="rgb(0,0,0)" transform="matrix(1,0,0,1,0,0)"/>
<text x="0" y="0" font-family="Bravura" font-style="normal" font-weight="normal" font-size="24" fill="rgb(0,0,0)" fill-opacity="1" transform="matrix(1,0,0,1,478,90)" ></text>
<text x="0" y="0" font-family="Bravura" font-style="normal" font-weight="normal" font-size="24" fill="rgb(0,0,0)" fill-opacity="1" transform="matrix(1,0,0,1,475,105)" ></text>
<text x="0" y="0" font-family="Bravura" font-style="normal" font-weight="normal" font-size="24" fill="rgb(0,0,0)" fill-opacity="1" transform="matrix(1,0,0,1,478,72)" ></text>
<text x="0" y="0" font-family="Bravura" font-style="normal" font-weight="normal" font-size="24" fill="rgb(0,0,0)" fill-opacity="1" transform="matrix(1,0,0,1,478,54)" ></text>
<text x="0" y="0" font-family="Bravura" font-style="normal" font-weight="normal" font-size="14.40000057220459" fill="rgb(0,0,0)" fill-opacity="1" transform="matrix(1,0,0,1,560.3,53.4)" ></text>
<text x="0" y="0" font-family="Bravura" font-style="normal" font-weight="normal" font-size="24" fill="rgb(0,0,0)" fill-opacity="1" transform="matrix(1,0,0,1,557,93)" ></text>
<text x="0" y="0" font-family="Bravura" font-style="normal" font-weight="normal" font-size="14.40000057220459" fill="rgb(0,0,0)" fill-opacity="1" transform="matrix(1,0,0,1,584.0999877929687,65.4)" ></text>
<text x="0" y="0" font-family="Bravura" font-style="normal" font-weight="normal" font-size="14.40000057220459" fill="rgb(0,0,0)" fill-opacity="1" transform="matrix(1,0,0,1,602.3,62.4)" ></text>
<text x="0" y="0" font-family="Bravura" font-style="normal" font-weight="normal" font-size="14.40000057220459" fill="rgb(0,0,0)" fill-opacity="1" transform="matrix(1,0,0,1,623.3,53.4)" ></text>
<text x="0" y="0" font-family="Bravura" font-style="normal" font-weight="normal" font-size="14.40000057220459" fill="rgb(0,0,0)" fill-opacity="1" transform="matrix(1,0,0,1,644.3,53.4)" ></text>
<text x="0" y="0" font-family="Bravura" font-style="normal" font-weight="normal" font-size="14.40000057220459" fill="rgb(0,0,0)" fill-opacity="1" transform="matrix(1,0,0,1,668.0999877929687,65.4)" ></text>
<text x="0" y="0" font-family="Bravura" font-style="normal" font-weight="normal" font-size="14.40000057220459" fill="rgb(0,0,0)" fill-opacity="1" transform="matrix(1,0,0,1,686.3,62.4)" ></text>
<text x="0" y="0" font-family="Bravura" font-style="normal" font-weight="normal" font-size="14.40000057220459" fill="rgb(0,0,0)" fill-opacity="1" transform="matrix(1,0,0,1,707.3,53.4)" ></text>
<text x="0" y="0" font-family="Bravura" font-style="normal" font-weight="normal" font-size="14.40000057220459" fill="rgb(0,0,0)" fill-opacity="1" transform="matrix(1,0,0,1,728.3,53.4)" ></text>
<text x="0" y="0" font-family="Bravura" font-style="normal" font-weight="normal" font-size="14.40000057220459" fill="rgb(0,0,0)" fill-opacity="1" transform="matrix(1,0,0,1,752.0999877929687,65.4)" ></text>
<text x="0" y="0" font-family="Bravura" font-style="normal" font-weight="normal" font-size="14.40000057220459" fill="rgb(0,0,0)" fill-opacity="1" transform="matrix(1,0,0,1,770.3,62.4)" ></text>
<text x="0" y="0" font-family="Bravura" font-style="normal" font-weight="normal" font-size="14.40000057220459" fill="rgb(0,0,0)" fill-opacity="1" transform="matrix(1,0,0,1,791.3,53.4)" ></text>
<text x="0" y="0" font-family="Bravura" font-style="normal" font-weight="normal" font-size="14.40000057220459" fill="rgb(0,0,0)" fill-opacity="1" transform="matrix(1,0,0,1,812.3,53.4)" ></text>
<text x="0" y="0" font-family="Bravura" font-style="normal" font-weight="normal" font-size="14.40000057220459" fill="rgb(0,0,0)" fill-opacity="1" transform="matrix(1,0,0,1,836.0999877929687,65.4)" ></text>
<text x="0" y="0" font-family="Bravura" font-style="normal" font-weight="normal" font-size="14.40000057220459" fill="rgb(0,0,0)" fill-opacity="1" transform="matrix(1,0,0,1,854.3,62.4)" ></text>
<text x="0" y="0" font-family="Bravura" font-style="normal" font-weight="normal" font-size="14.40000057220459" fill="rgb(0,0,0)" fill-opacity="1" transform="matrix(1,0,0,1,875.3,53.4)" ></text>
<text x="0" y="0" font-family="Bravura" font-style="normal" font-weight="normal" font-size="24" fill="rgb(0,0,0)" fill-opacity="1" transform="matrix(1,0,0,1,896,60)" ></text>
<text x="0" y="0" font-family="Bravura" font-style="normal" font-weight="normal" font-size="24" fill="rgb(0,0,0)" fill-opacity="1" transform="matrix(1,0,0,1,893,93)" ></text>
<path d="M0,0 L330,7.5 L0,15" stroke="rgb(0,0,0)" stroke-width="1.0" fill="none" transform="matrix(1,0,0,1,566,105)"/>
<text x="80" y="25" text-anchor="middle" font-family="Arial" font-style="normal" font-weight="normal" font-size="10" fill="rgb(0,0,0)" fill-opacity="1" transform="matrix(1,0,0,1,0,0)" >0'00"</text>
<text x="180" y="25" text-anchor="middle" font-family="Arial" font-style="normal" font-weight="normal" font-size="10" fill="rgb(0,0,0)" fill-opacity="1" transform="matrix(1,0,0,1,0,0)" >0'01"</text>
<text x="280" y="25" text-anchor="middle" font-family="Arial" font-style="normal" font-weight="normal" font-size="10" fill="rgb(0,0,0)" fill-opacity="1" transform="matrix(1,0,0,1,0,0)" >0'02"</text>
<text x="380" y="25" text-anchor="middle" font-family="Arial" font-style="normal" font-weight="normal" font-size="10" fill="rgb(0,0,0)" fill-opacity="1" transform="matrix(1,0,0,1,0,0)" >0'03"</text>
<text x="480" y="25" text-anchor="middle" font-family="Arial" font-style="normal" font-weight="normal" font-size="10" fill="rgb(0,0,0)" fill-opacity="1" transform="matrix(1,0,0,1,0,0)" >0'04"</text>
<text x="580" y="25" text-anchor="middle" font-family="Arial" font-style="normal" font-weight="normal" font-size="10" fill="rgb(0,0,0)" fill-opacity="1" transform="matrix(1,0,0,1,0,0)" >0'05"</text>
<text x="680" y="25" text-anchor="middle" font-family="Arial" font-style="normal" font-weight="normal" font-size="10" fill="rgb(0,0,0)" fill-opacity="1" transform="matrix(1,0,0,1,0,0)" >0'06"</text>
<text x="780" y="25" text-anchor="middle" font-family="Arial" font-style="normal" font-weight="normal" font-size="10" fill="rgb(0,0,0)" fill-opacity="1" transform="matrix(1,0,0,1,0,0)" >0'07"</text>
<text x="880" y="25" text-anchor="middle" font-family="Arial" font-style="normal" font-weight="normal" font-size="10" fill="rgb(0,0,0)" fill-opacity="1" transform="matrix(1,0,0,1,0,0)" >0'08"</text>
<path d="M80 0 V15 M180 0 V15 M280 0 V15 M380 0 V15 M480 0 V15 M580 0 V15 M680 0 V15 M780 0 V15 M880 0 V15 " stroke="rgb(0,0,0)" stroke-width="0.4" fill="none" transform="matrix(1,0,0,1,0,0)"/>
<path id="sustain_0" d="M5,3 L173,3M173,1L173,5" stroke="rgb(0,0,0)" stroke-width="2" stroke-opacity="1" fill="null" fill-opacity="null" transform="matrix(1,0,0,1,162,57)"/>
<path id="sustain_0" d="M5,3 L173,3M173,1L173,5" stroke="rgb(0,0,0)" stroke-width="2" stroke-opacity="1" fill="null" fill-opacity="null" transform="matrix(1,0,0,1,282,84)"/>
<path id="sustain_0" d="M5,3 L173,3M173,1L173,5" stroke="rgb(0,0,0)" stroke-width="2" stroke-opacity="1" fill="null" fill-opacity="null" transform="matrix(1,0,0,1,282,69)"/>
<path id="sustain_0" d="M5,3 L83,3M83,1L83,5" stroke="rgb(0,0,0)" stroke-width="2" stroke-opacity="1" fill="null" fill-opacity="null" transform="matrix(1,0,0,1,480,87)"/>
<path id="sustain_0" d="M5,3 L83,3M83,1L83,5" stroke="rgb(0,0,0)" stroke-width="2" stroke-opacity="1" fill="null" fill-opacity="null" transform="matrix(1,0,0,1,480,69)"/>
<path id="sustain_0" d="M5,3 L83,3M83,1L83,5" stroke="rgb(0,0,0)" stroke-width="2" stroke-opacity="1" fill="null" fill-opacity="null" transform="matrix(1,0,0,1,480,51)"/>
<path id="sustain_0" d="M5,3 L173,3M173,1L173,5" stroke="rgb(0,0,0)" stroke-width="2" stroke-opacity="1" fill="null" fill-opacity="null" transform="matrix(1,0,0,1,898,57)"/>
</g>
</svg>
