<?xml version="1.0" encoding="utf-8"?>
<!DOCTYPE svg PUBLIC "-//W3C//DTD SVG 1.1//EN" "http://www.w3.org/Graphics/SVG/1.1/DTD/svg11.dtd">
<svg width="600px" height="600px" viewBox="0 0 600 600" style="background:rgb(253.98,253.98,239.7)" xmlns="http://www.w3.org/2000/svg" xmlns:xlink="http://www.w3.org/1999/xlink" version="1.1">
<g id="1" transform="matrix(1,0,0,1,0,0)">
<text x="0" y="0" font-family="Arial" font-style="normal" font-weight="normal" font-size="10" fill="rgb(0,0,0)" fill-opacity="1" transform="matrix(1,0,0,1,-78.6953125,65)" >MaxScoreIns-0</text>
<text x="0" y="0" font-family="Arial" font-style="normal" font-weight="normal" font-size="10" fill="rgb(0,0,0)" fill-opacity="1" transform="matrix(1,0,0,1,-78.6953125,161)" >MaxScoreIns-1</text>
<image x="0" y="0" width="1023" height="1024" xlink:href="public/sp8m_grey_filaments_inverted.png" transform="matrix(1,0,0,1,1,1)"/>
<path id="Picster-Element_1647710337103" d="M 0 0 C 4.333333333333333,-2.9999999999999996,7.831886058782981,-7.966377211756596,13,-9 C 17.99563142217637,-9.999126284435274,25.821054995159237,-12.178945004840765,30,-8 C 45.82346427568054,7.823464275680541,63.75582619723424,24.87791309861712,84,35 C 85.48365506553868,35.74182753276934,106.02078454011615,48.22862994127772,105,37 C 104.33333333333333,29.666666666666668,106.29309040939425,21.586180818788517,103,15 C 95.77630224443249,0.5526044888649793,76.99658067595526,-31.869416551128488,57,-31 C 49.333333333333336,-30.666666666666668,39.99231667041978,-34.79385333633582,34,-30 C 11.870404424928722,-12.296323539942978,19.86575121623479,14.28858373874493,46,23 C 78.26976913312771,33.756589711042565,111.06718368510273,42.76679592127569,144,51 C 150.10580509749846,52.526451274374615,160.64134825915087,56.156118498336205,167,55 C 170.66666666666666,54.333333333333336,181.33333333333334,54.666666666666664,178,53 C 157.71513278555383,42.85756639277692,144.96387519483784,20.13656266236486,128,6 C 108.51942670973823,-10.233811075218139,91.67977924050295,-30.320220759497047,74,-48" stroke="rgb(0,0,0)" stroke-width="2" stroke-opacity="1" fill="none" fill-opacity="1" transform="matrix(1,0,0,1,318,816)"/>
<path id="Picster-Element_1647710340188" d="M 0 0 C 10.110264646914457,1.8382299358026286,44.89149954879038,-3.1085004512096184,25,-23 C 11.425386735271008,-36.574613264728995,-3.0156922283230934,-53.15867453179172,-22,-59 C -30.443401702083534,-61.597969754487245,-42.31618022278363,-64.86255858149887,-50,-69 C -54.56800448256932,-71.45969472138349,-69.7410209488341,-80.71531189156181,-76,-80 C -87.66666666666667,-78.66666666666667,-100.93079502200453,-82.04152298679729,-111,-76 C -114.33333333333333,-74,-117.85619919786836,-72.28640058336846,-121,-70 C -124.66666666666667,-67.33333333333333,-129.1290116235997,-65.50898579337817,-132,-62 C -135,-58.333333333333336,-138.51705867656094,-55.0347796505885,-141,-51 C -147.14162530363194,-41.01985888159811,-153.82114046526272,-32.37802511474159,-155,-20 C -155.66666666666666,-13,-158.08081761654776,-5.948113249235683,-157,1 C -154.66666666666666,16,-156.281692856595,32.180275715491,-150,46 C -146.66666666666666,53.333333333333336,-145.1569183551493,61.81169797382084,-140,68 C -114.14451914973077,99.02657702032309,-80.01821397635078,130.46505653751805,-43,148 C -36.74584367774031,150.96249510001775,-12.425245255325395,163.17497274940828,-5,164 C 1,164.66666666666666,6.9980481848271525,166.64885965569437,13,166 C 25.333333333333336,164.66666666666666,39.03643763643861,167.80423889835603,50,162 C 55.666666666666664,159,61.917857717693,156.90934021715924,67,153 C 83.76530257390878,140.10361340468555,106.05731590845328,120.90229873475238,100,96 C 97,83.66666666666667,98.61577310586391,69.15436414115187,91,59 C 87.057465362967,53.74328715062265,71.07251999086506,31.238677328461367,65,28 C 41.58607458652224,15.51257311281186,-21.902162674280696,-6.717473721941573,-28,38 C -29,45.333333333333336,-31.78847307222518,52.640917992565,-31,60 C -29,78.66666666666667,-31.141011409862664,98.25930037150786,-25,116 C -23.454633768764204,120.4643913346812,-11.730968027122056,155.65735435389252,-8,162 C 2.632318853685817,180.07494205126588,0.4806815204863373,177.72488597663224,13,194 C 16.333333333333332,198.33333333333334,19.468586511599973,202.82651133189088,23,207 C 26.666666666666668,211.33333333333334,30.7689011157193,215.3328571671501,34,220 C 37,224.33333333333334,40.9238630036565,228.15568034186518,43,233 C 44,235.33333333333334,45,237.66666666666666,46,240" stroke="rgb(0,0,0)" stroke-width="2" stroke-opacity="1" fill="none" fill-opacity="1" transform="matrix(1,0,0,1,435,428)"/>
<path id="Picster-Element_1647710366820" d="M 0 0 C 16.8988426847714,0,23.8151262309293,28.722689346393956,32,41 C 45.53050106531613,61.29575159797419,56.62956672992544,80.98130850729495,65,104 C 68.81301884954361,114.48580183624492,72.0661228196583,125.79347383589972,73,137 C 72.85316728403774,135.23800740845286,74.96901367614596,160.99156236332922,75,160 C 73.51262650496186,207.59595184122074,78.4526427788798,178.45961925632054,70,201 C 65.8434821064191,212.08404771621574,58.23930108371475,225.1737992775235,48,232 C 36.64008862734453,239.57327424843697,24.197567020469904,242.06720732878446,11,245 C 8,245.66666666666666,5.0689338244587985,246.83847716713376,2,247 C -5.155455123523401,247.37660290123807,-32.85963075773328,249.4561476969067,-39,247 C -46.057547694275726,244.17698092228972,-94.88561723134323,221.77123446268646,-98,228" stroke="rgb(0,0,0)" stroke-width="2" stroke-opacity="1" fill="none" fill-opacity="1" transform="matrix(1,0,0,1,604,274)"/>
<path id="Picster-Element_1647711046316" d="M 0 0 C NaN,NaN,-19,110,-19,110" stroke="rgb(0,0,0)" stroke-width="2" stroke-opacity="1" fill="none" fill-opacity="1" transform="matrix(1,0,0,1,423,36)"/>
<path id="Picster-Element_1647711256154" d="M 0 0 C NaN,NaN,46,-78,46,-78" stroke="rgb(0,0,0)" stroke-width="2" stroke-opacity="1" fill="none" fill-opacity="1" transform="matrix(1,0,0,1,530,197)"/>
</g>
</svg>
