<?xml version="1.0" encoding="utf-8"?>
<!DOCTYPE svg PUBLIC "-//W3C//DTD SVG 1.1//EN" "http://www.w3.org/Graphics/SVG/1.1/DTD/svg11.dtd">
<svg width="900px" height="210px" viewBox="0 0 900 210" style="background:rgb(253.98,253.98,239.7)" xmlns="http://www.w3.org/2000/svg" xmlns:xlink="http://www.w3.org/1999/xlink" version="1.1">
<g id="1" transform="matrix(1,0,0,1,0,0)">
<text x="0" y="0" font-family="Arial" font-style="normal" font-weight="normal" font-size="10" fill="rgb(0,0,0)" fill-opacity="1" transform="matrix(1,0,0,1,-38.6953125,65)" >MaxScoreIns-0</text>
<text x="0" y="0" font-family="Bravura" font-style="normal" font-weight="normal" font-size="24" fill="rgb(0,0,0)" fill-opacity="1" transform="matrix(1,0,0,1,78.62068939208984,54)" ></text>
<text x="0" y="0" font-family="Bravura" font-style="normal" font-weight="normal" font-size="24" fill="rgb(0,0,0)" fill-opacity="1" transform="matrix(1,0,0,1,178.62069702148438,63)" ></text>
<text x="0" y="0" font-family="Bravura" font-style="normal" font-weight="normal" font-size="24" fill="rgb(0,0,0)" fill-opacity="1" transform="matrix(1,0,0,1,278.6206970214844,48)" ></text>
<text x="0" y="0" font-family="Bravura" font-style="normal" font-weight="normal" font-size="24" fill="rgb(0,0,0)" fill-opacity="1" transform="matrix(1,0,0,1,378.6206970214844,72)" ></text>
<text x="0" y="0" font-family="Arial" font-style="normal" font-weight="normal" font-size="10" fill="rgb(0,0,0)" fill-opacity="1" transform="matrix(1,0,0,1,-38.6953125,161)" >MaxScoreIns-1</text>
<text x="0" y="0" font-family="Arial" font-style="normal" font-weight="normal" font-size="10" fill="rgb(0,0,0)" fill-opacity="1" transform="matrix(1,0,0,1,-38.6953125,257)" >MaxScoreIns-2</text>
<text x="0" y="0" font-family="Arial" font-style="normal" font-weight="normal" font-size="10" fill="rgb(0,0,0)" fill-opacity="1" transform="matrix(1,0,0,1,-38.6953125,353)" >MaxScoreIns-3</text>
<path d="M60 75 L480.000 75 M60 69 L480.000 69 M60 63 L480.000 63 M60 57 L480.000 57 M60 51 L480.000 51 M60 171 L480.000 171 M60 165 L480.000 165 M60 159 L480.000 159 M60 153 L480.000 153 M60 147 L480.000 147 M60 267 L480.000 267 M60 261 L480.000 261 M60 255 L480.000 255 M60 249 L480.000 249 M60 243 L480.000 243 M60 363 L480.000 363 M60 357 L480.000 357 M60 351 L480.000 351 M60 345 L480.000 345 M60 339 L480.000 339 M480 75 L880.000 75 M480 69 L880.000 69 M480 63 L880.000 63 M480 57 L880.000 57 M480 51 L880.000 51 M480 171 L880.000 171 M480 165 L880.000 165 M480 159 L880.000 159 M480 153 L880.000 153 M480 147 L880.000 147 M480 267 L880.000 267 M480 261 L880.000 261 M480 255 L880.000 255 M480 249 L880.000 249 M480 243 L880.000 243 M480 363 L880.000 363 M480 357 L880.000 357 M480 351 L880.000 351 M480 345 L880.000 345 M480 339 L880.000 339 " stroke="rgb(0,0,0)" stroke-width="0.4" fill="rgb(0,0,0)" transform="matrix(1,0,0,1,0,0)"/>
<path id="sustain_0" d="M 5,3 L 88, 3 M 88,1 L 88,5" stroke="rgb(0,0,0)" stroke-width="2" stroke-opacity="1" fill="null" fill-opacity="null" transform="matrix(1,0,0,1,80.62068939208984,51)"/>
<path id="sustain_0" d="M 5,3 L 88, 3 M 88,1 L 88,5" stroke="rgb(0,0,0)" stroke-width="2" stroke-opacity="1" fill="null" fill-opacity="null" transform="matrix(1,0,0,1,180.62069702148438,60)"/>
<path id="sustain_0" d="M 5,3 L 88, 3 M 88,1 L 88,5" stroke="rgb(0,0,0)" stroke-width="2" stroke-opacity="1" fill="null" fill-opacity="null" transform="matrix(1,0,0,1,280.6206970214844,45)"/>
<path id="sustain_0" d="M 5,3 L 88, 3 M 88,1 L 88,5" stroke="rgb(0,0,0)" stroke-width="2" stroke-opacity="1" fill="null" fill-opacity="null" transform="matrix(1,0,0,1,380.6206970214844,69)"/>
</g>
</svg>
